<?xml version="1.0" encoding="utf-8"?>
<!-- Generator: Adobe Illustrator 18.0.0, SVG Export Plug-In . SVG Version: 6.00 Build 0)  -->
<!DOCTYPE svg PUBLIC "-//W3C//DTD SVG 1.1//EN" "http://www.w3.org/Graphics/SVG/1.1/DTD/svg11.dtd">
<svg version="1.1" id="Layer_1" xmlns="http://www.w3.org/2000/svg" xmlns:xlink="http://www.w3.org/1999/xlink" x="0px" y="0px"
	 viewBox="0 0 128 128" style="enable-background:new 0 0 128 128;" xml:space="preserve">
<style type="text/css">
	.st0{fill:#333333;}
	.st1{fill:#F1EEF6;}
	.st2{fill:#808080;}
	.st3{fill:#1A1A1A;}
	.st4{fill:#E5E5E5;}
	.st5{fill:#D4C8E3;}
	.st6{fill:none;stroke:#FFFFFF;stroke-miterlimit:10;}
	.st7{fill:#000000;}
	.st8{fill:#4D4D4D;}
	.st9{fill:none;stroke:#B2B2B2;stroke-miterlimit:10;}
	.st10{fill:#FFFFFF;}
	.st11{fill:none;stroke:#808080;stroke-miterlimit:10;}
	.st12{fill:none;stroke:#4D4D4D;stroke-width:2.2691;stroke-linecap:round;stroke-linejoin:round;stroke-miterlimit:10;}
	.st13{fill:none;stroke:#4D4D4D;stroke-width:2.1559;stroke-linecap:round;stroke-linejoin:round;stroke-miterlimit:10;}
	.st14{fill:none;stroke:#4D4D4D;stroke-width:2.1558;stroke-linecap:round;stroke-linejoin:round;stroke-miterlimit:10;}
	.st15{fill:#241E21;}
	.st16{fill:none;stroke:#4D4D4D;stroke-width:2.1618;stroke-linecap:round;stroke-linejoin:round;stroke-miterlimit:10;}
	.st17{fill:none;stroke:#4D4D4D;stroke-width:2.5566;stroke-linecap:round;stroke-linejoin:round;stroke-miterlimit:10;}
	.st18{fill:none;stroke:#4D4D4D;stroke-width:2.3992;stroke-linecap:round;stroke-linejoin:round;stroke-miterlimit:10;}
	.st19{fill:none;stroke:#4D4D4D;stroke-width:2.607;stroke-linecap:round;stroke-linejoin:round;stroke-miterlimit:10;}
	.st20{fill:none;stroke:#4D4D4D;stroke-width:2.0373;stroke-linecap:round;stroke-linejoin:round;stroke-miterlimit:10;}
	.st21{fill:none;stroke:#4D4D4D;stroke-width:1.7268;stroke-linecap:round;stroke-linejoin:round;stroke-miterlimit:10;}
	.st22{fill:none;stroke:#4D4D4D;stroke-width:2.0207;stroke-linecap:round;stroke-linejoin:round;stroke-miterlimit:10;}
	.st23{fill:#666666;}
	.st24{fill:none;stroke:#666666;stroke-miterlimit:10;}
	.st25{fill:none;stroke:#E5E5E5;stroke-miterlimit:10;}
</style>
<g>
	<path class="st7" d="M56.2,0c-31.5,0-41,3.8-48.5,11.2C1.8,17,0,24.4,0,42.8v42.3c0,18.4,1.8,25.8,7.7,31.6
		c7.5,7.4,17,11.2,48.5,11.2h15.7c31.5,0,41-3.8,48.5-11.2c5.9-5.8,7.7-13.2,7.7-31.6V42.8c0-18.4-1.8-25.8-7.7-31.6
		C112.8,3.8,103.3,0,71.8,0H56.2z"/>
	<g>
		<path class="st8" d="M90.5,108.4H37.5c-1.9,0-3.5-1.5-3.5-3.4c0-1.1-0.7-27.3,11.9-40.3c4.7-4.8,10.5-7.3,17.4-7.3
			c0.2,0,0.4,0,0.6,0.1c0.2,0,0.4-0.1,0.6-0.1c6.9,0,12.7,2.4,17.4,7.3c12.6,13,12,39.2,11.9,40.3C93.9,106.8,92.3,108.4,90.5,108.4
			z M41.1,101.3h45.8c-0.3-7.1-1.8-23.4-9.9-31.8c-3.3-3.4-7.4-5.1-12.3-5.1c-0.2,0-0.4,0-0.6-0.1c-0.2,0-0.4,0.1-0.6,0.1
			c-5,0-9,1.7-12.3,5.1C42.8,77.9,41.3,94.2,41.1,101.3z M64,49.7c-8.3,0-15.1-6.7-15.1-15c0-8.3,6.8-15,15.1-15
			c8.3,0,15.1,6.7,15.1,15C79.1,43,72.3,49.7,64,49.7z M64,26.7c-4.4,0-8,3.6-8,8c0,4.4,3.6,8,8,8c4.4,0,8-3.6,8-8
			C72,30.3,68.4,26.7,64,26.7z"/>
	</g>
</g>
</svg>
