<?xml version="1.0" encoding="utf-8"?>
<!-- Generator: Adobe Illustrator 18.0.0, SVG Export Plug-In . SVG Version: 6.00 Build 0)  -->
<!DOCTYPE svg PUBLIC "-//W3C//DTD SVG 1.1//EN" "http://www.w3.org/Graphics/SVG/1.1/DTD/svg11.dtd">
<svg version="1.1" id="Layer_1" xmlns="http://www.w3.org/2000/svg" xmlns:xlink="http://www.w3.org/1999/xlink" x="0px" y="0px"
	 viewBox="0 0 128 128" style="enable-background:new 0 0 128 128;" xml:space="preserve">
<style type="text/css">
	.st0{fill:#333333;}
	.st1{fill:#F1EEF6;}
	.st2{fill:#808080;}
	.st3{fill:#1A1A1A;}
	.st4{fill:#E5E5E5;}
	.st5{fill:#D4C8E3;}
	.st6{fill:none;stroke:#FFFFFF;stroke-miterlimit:10;}
	.st7{fill:#D2C6E1;}
	.st8{fill:#4D4D4D;}
	.st9{fill:none;stroke:#B2B2B2;stroke-miterlimit:10;}
	.st10{fill:#FFFFFF;}
	.st11{fill:none;stroke:#808080;stroke-miterlimit:10;}
	.st12{fill:none;stroke:#4D4D4D;stroke-width:2.2691;stroke-linecap:round;stroke-linejoin:round;stroke-miterlimit:10;}
	.st13{fill:none;stroke:#4D4D4D;stroke-width:2.1559;stroke-linecap:round;stroke-linejoin:round;stroke-miterlimit:10;}
	.st14{fill:none;stroke:#4D4D4D;stroke-width:2.1558;stroke-linecap:round;stroke-linejoin:round;stroke-miterlimit:10;}
	.st15{fill:#241E21;}
	.st16{fill:none;stroke:#4D4D4D;stroke-width:2.1618;stroke-linecap:round;stroke-linejoin:round;stroke-miterlimit:10;}
	.st17{fill:none;stroke:#4D4D4D;stroke-width:2.5566;stroke-linecap:round;stroke-linejoin:round;stroke-miterlimit:10;}
	.st18{fill:none;stroke:#4D4D4D;stroke-width:2.3992;stroke-linecap:round;stroke-linejoin:round;stroke-miterlimit:10;}
	.st19{fill:none;stroke:#4D4D4D;stroke-width:2.607;stroke-linecap:round;stroke-linejoin:round;stroke-miterlimit:10;}
	.st20{fill:none;stroke:#4D4D4D;stroke-width:2.0373;stroke-linecap:round;stroke-linejoin:round;stroke-miterlimit:10;}
	.st21{fill:none;stroke:#4D4D4D;stroke-width:1.7268;stroke-linecap:round;stroke-linejoin:round;stroke-miterlimit:10;}
	.st22{fill:none;stroke:#4D4D4D;stroke-width:2.0207;stroke-linecap:round;stroke-linejoin:round;stroke-miterlimit:10;}
	.st23{fill:#666666;}
	.st24{fill:none;stroke:#666666;stroke-miterlimit:10;}
	.st25{fill:none;stroke:#E5E5E5;stroke-miterlimit:10;}
</style>
<g>
	<path class="st7" d="M56.2,0c-31.5,0-41,3.8-48.5,11.2C1.8,17,0,24.4,0,42.8v42.3c0,18.4,1.8,25.8,7.7,31.6
		c7.5,7.4,17,11.2,48.5,11.2h15.7c31.5,0,41-3.8,48.5-11.2c5.9-5.8,7.7-13.2,7.7-31.6V42.8c0-18.4-1.8-25.8-7.7-31.6
		C112.8,3.8,103.3,0,71.8,0H56.2z"/>
	<g>
		<path class="st8" d="M96.9,107.6H31c-1.9,0-3.5-1.6-3.5-3.5V22.3c0-1.9,1.6-3.5,3.5-3.5h44.2c0.2,0,0.3,0,0.4,0l0,0h0l0,0h0h0h0h0
			l0,0c0.2,0,0.3,0.1,0.5,0.1l0,0l0,0l0,0c0.6,0.2,1.2,0.5,1.6,1l21.7,22.9c0.6,0.7,1,1.5,1,2.4l0,58.8
			C100.5,106,98.9,107.6,96.9,107.6z M34.6,100.6h58.9l0-51.8H75.2c-1.9,0-3.5-1.6-3.5-3.5V25.9H34.6V100.6z M78.8,41.7h10l-10-10.5
			V41.7z M83.2,90.5H44.8c-1.9,0-3.5-1.6-3.5-3.5c0-2,1.6-3.5,3.5-3.5h38.5c1.9,0,3.5,1.6,3.5,3.5C86.8,88.9,85.2,90.5,83.2,90.5z
			 M83.2,77.1H44.8c-1.9,0-3.5-1.6-3.5-3.5c0-1.9,1.6-3.5,3.5-3.5h38.5c1.9,0,3.5,1.6,3.5,3.5C86.8,75.5,85.2,77.1,83.2,77.1z
			 M83.2,64.3H44.8c-1.9,0-3.5-1.6-3.5-3.5c0-1.9,1.6-3.5,3.5-3.5h38.5c1.9,0,3.5,1.6,3.5,3.5C86.8,62.8,85.2,64.3,83.2,64.3z"/>
	</g>
</g>
</svg>
