<?xml version="1.0" encoding="utf-8"?>
<!-- Generator: Adobe Illustrator 18.0.0, SVG Export Plug-In . SVG Version: 6.00 Build 0)  -->
<!DOCTYPE svg PUBLIC "-//W3C//DTD SVG 1.1//EN" "http://www.w3.org/Graphics/SVG/1.1/DTD/svg11.dtd">
<svg version="1.1" id="Layer_1" xmlns="http://www.w3.org/2000/svg" xmlns:xlink="http://www.w3.org/1999/xlink" x="0px" y="0px"
	 viewBox="0 0 128 128" style="enable-background:new 0 0 128 128;" xml:space="preserve">
<style type="text/css">
	.st0{fill:#333333;}
	.st1{fill:#F1EEF6;}
	.st2{fill:#808080;}
	.st3{fill:#1A1A1A;}
	.st4{fill:#E5E5E5;}
	.st5{fill:#D4C8E3;}
	.st6{fill:none;stroke:#FFFFFF;stroke-miterlimit:10;}
	.st7{fill:#D2C6E1;}
	.st8{fill:#4D4D4D;}
	.st9{fill:none;stroke:#B2B2B2;stroke-miterlimit:10;}
	.st10{fill:#FFFFFF;}
	.st11{fill:none;stroke:#808080;stroke-miterlimit:10;}
	.st12{fill:none;stroke:#4D4D4D;stroke-width:2.2691;stroke-linecap:round;stroke-linejoin:round;stroke-miterlimit:10;}
	.st13{fill:none;stroke:#4D4D4D;stroke-width:2.1559;stroke-linecap:round;stroke-linejoin:round;stroke-miterlimit:10;}
	.st14{fill:none;stroke:#4D4D4D;stroke-width:2.1558;stroke-linecap:round;stroke-linejoin:round;stroke-miterlimit:10;}
	.st15{fill:#241E21;}
	.st16{fill:none;stroke:#4D4D4D;stroke-width:2.1618;stroke-linecap:round;stroke-linejoin:round;stroke-miterlimit:10;}
	.st17{fill:none;stroke:#4D4D4D;stroke-width:2.5566;stroke-linecap:round;stroke-linejoin:round;stroke-miterlimit:10;}
	.st18{fill:none;stroke:#4D4D4D;stroke-width:2.3992;stroke-linecap:round;stroke-linejoin:round;stroke-miterlimit:10;}
	.st19{fill:none;stroke:#4D4D4D;stroke-width:2.607;stroke-linecap:round;stroke-linejoin:round;stroke-miterlimit:10;}
	.st20{fill:none;stroke:#4D4D4D;stroke-width:2.0373;stroke-linecap:round;stroke-linejoin:round;stroke-miterlimit:10;}
	.st21{fill:none;stroke:#4D4D4D;stroke-width:1.7268;stroke-linecap:round;stroke-linejoin:round;stroke-miterlimit:10;}
	.st22{fill:none;stroke:#4D4D4D;stroke-width:2.0207;stroke-linecap:round;stroke-linejoin:round;stroke-miterlimit:10;}
	.st23{fill:#666666;}
	.st24{fill:none;stroke:#666666;stroke-miterlimit:10;}
	.st25{fill:none;stroke:#E5E5E5;stroke-miterlimit:10;}
</style>
<g>
	<path class="st7" d="M56.2,0c-31.5,0-41,3.8-48.5,11.2C1.8,17,0,24.4,0,42.8v42.3c0,18.4,1.8,25.8,7.7,31.6
		c7.5,7.4,17,11.2,48.5,11.2h15.7c31.5,0,41-3.8,48.5-11.2c5.9-5.8,7.7-13.2,7.7-31.6V42.8c0-18.4-1.8-25.8-7.7-31.6
		C112.8,3.8,103.3,0,71.8,0H56.2z"/>
	<g>
		<g>
			<path class="st8" d="M44.3,85.2c-0.6,0-1.3-0.2-1.9-0.5L16.1,68c-1.1-0.7-1.7-1.9-1.6-3.1c0-1.2,0.6-2.4,1.6-3.1l26.4-16.6
				c1.6-1,3.8-0.5,4.9,1.1c1,1.6,0.5,3.8-1.1,4.9L24.4,64.9l21.8,13.7c1.6,1,2.1,3.2,1.1,4.9C46.7,84.6,45.5,85.2,44.3,85.2z"/>
		</g>
		<g>
			<path class="st8" d="M54.3,95.3c-0.4,0-0.8-0.1-1.1-0.2c-1.7-0.6-2.6-2.5-2-4.2L71,36.8c0.6-1.7,2.5-2.6,4.2-2
				c1.7,0.6,2.6,2.5,2,4.2L57.4,93.1C56.9,94.4,55.7,95.3,54.3,95.3z"/>
		</g>
		<g>
			<path class="st8" d="M83.7,85.2c-1.2,0-2.3-0.6-3-1.6c-1-1.6-0.5-3.8,1.1-4.9l21.8-13.7L81.8,51.2c-1.6-1-2.1-3.2-1.1-4.9
				c1-1.6,3.2-2.1,4.9-1.1l26.4,16.6c1.1,0.7,1.7,1.9,1.6,3.1c0,1.2-0.5,2.4-1.6,3.1L85.5,84.6C84.9,85,84.3,85.2,83.7,85.2z"/>
		</g>
	</g>
</g>
</svg>
