<?xml version="1.0" encoding="utf-8"?>
<!-- Generator: Adobe Illustrator 18.0.0, SVG Export Plug-In . SVG Version: 6.00 Build 0)  -->
<!DOCTYPE svg PUBLIC "-//W3C//DTD SVG 1.1//EN" "http://www.w3.org/Graphics/SVG/1.1/DTD/svg11.dtd">
<svg version="1.1" id="Layer_1" xmlns="http://www.w3.org/2000/svg" xmlns:xlink="http://www.w3.org/1999/xlink" x="0px" y="0px"
	 viewBox="0 0 128 128" style="enable-background:new 0 0 128 128;" xml:space="preserve">
<style type="text/css">
	.st0{fill:#333333;}
	.st1{fill:#F1EEF6;}
	.st2{fill:#808080;}
	.st3{fill:#1A1A1A;}
	.st4{fill:#E5E5E5;}
	.st5{fill:#D4C8E3;}
	.st6{fill:none;stroke:#FFFFFF;stroke-miterlimit:10;}
	.st7{fill:#D2C6E1;}
	.st8{fill:#4D4D4D;}
	.st9{fill:none;stroke:#B2B2B2;stroke-miterlimit:10;}
	.st10{fill:#FFFFFF;}
	.st11{fill:none;stroke:#808080;stroke-miterlimit:10;}
	.st12{fill:none;stroke:#4D4D4D;stroke-width:2.2691;stroke-linecap:round;stroke-linejoin:round;stroke-miterlimit:10;}
	.st13{fill:none;stroke:#4D4D4D;stroke-width:2.1559;stroke-linecap:round;stroke-linejoin:round;stroke-miterlimit:10;}
	.st14{fill:none;stroke:#4D4D4D;stroke-width:2.1558;stroke-linecap:round;stroke-linejoin:round;stroke-miterlimit:10;}
	.st15{fill:#241E21;}
	.st16{fill:none;stroke:#4D4D4D;stroke-width:2.1618;stroke-linecap:round;stroke-linejoin:round;stroke-miterlimit:10;}
	.st17{fill:none;stroke:#4D4D4D;stroke-width:2.5566;stroke-linecap:round;stroke-linejoin:round;stroke-miterlimit:10;}
	.st18{fill:none;stroke:#4D4D4D;stroke-width:2.3992;stroke-linecap:round;stroke-linejoin:round;stroke-miterlimit:10;}
	.st19{fill:none;stroke:#4D4D4D;stroke-width:2.607;stroke-linecap:round;stroke-linejoin:round;stroke-miterlimit:10;}
	.st20{fill:none;stroke:#4D4D4D;stroke-width:2.0373;stroke-linecap:round;stroke-linejoin:round;stroke-miterlimit:10;}
	.st21{fill:none;stroke:#4D4D4D;stroke-width:1.7268;stroke-linecap:round;stroke-linejoin:round;stroke-miterlimit:10;}
	.st22{fill:none;stroke:#4D4D4D;stroke-width:2.0207;stroke-linecap:round;stroke-linejoin:round;stroke-miterlimit:10;}
	.st23{fill:#666666;}
	.st24{fill:none;stroke:#666666;stroke-miterlimit:10;}
	.st25{fill:none;stroke:#E5E5E5;stroke-miterlimit:10;}
</style>
<g>
	<path class="st7" d="M56.2-0.2c-31.5,0-41,3.8-48.5,11.2C1.8,16.8,0,24.3,0,42.7v42.5c0,18.5,1.8,25.9,7.7,31.7
		c7.5,7.5,17,11.2,48.5,11.2h15.7c31.5,0,41-3.8,48.5-11.2c5.9-5.9,7.7-13.3,7.7-31.7V42.7c0-18.5-1.8-25.9-7.7-31.8
		c-7.5-7.5-17-11.2-48.5-11.2H56.2z"/>
	<g>
		<path class="st8" d="M90.9,111.5c-2,0-3.5-1.6-3.5-3.5v-3.4c-3.2-0.5-6.1-1.8-8.6-3.5l-2.3,2.4c-1.4,1.4-3.6,1.4-5,0
			c-1.4-1.4-1.4-3.6,0-5l2.3-2.3c-1.9-2.5-3.2-5.5-3.8-8.7h-3c-1.9,0-3.5-1.6-3.5-3.5s1.6-3.5,3.5-3.5h2.9c0.5-3.3,1.7-6.4,3.6-9.1
			l-1.9-1.9c-1.4-1.4-1.4-3.6,0-5c1.4-1.4,3.6-1.4,5,0l1.9,1.9c2.6-1.9,5.7-3.3,9.1-3.9v-2.6c0-2,1.6-3.5,3.5-3.5
			c1.9,0,3.5,1.6,3.5,3.5v2.6c3.4,0.6,6.5,1.9,9.1,3.9l1.9-1.9c1.4-1.4,3.6-1.4,5,0c1.4,1.4,1.4,3.6,0,5l-1.9,1.9
			c1.8,2.6,3.1,5.7,3.6,9.1h2.9c1.9,0,3.5,1.6,3.5,3.5s-1.6,3.5-3.5,3.5h-3c-0.6,3.2-1.9,6.2-3.8,8.7l2.3,2.3c1.4,1.4,1.4,3.6,0,5
			c-1.4,1.4-3.6,1.4-5,0l-2.3-2.4c-2.5,1.8-5.5,3-8.6,3.5v3.4C94.4,110,92.8,111.5,90.9,111.5z M90.9,69.2
			c-7.9,0-14.3,6.4-14.3,14.3c0,7.9,6.4,14.3,14.3,14.3s14.3-6.4,14.3-14.3C105.2,75.6,98.8,69.2,90.9,69.2z M41.8,85.4
			c-1.9,0-3.5-1.6-3.5-3.5v-5.2c-4.5-0.6-8.7-2.4-12.2-5l-3.6,3.6c-1.4,1.4-3.6,1.4-5,0c-1.4-1.4-1.4-3.6,0-5l3.5-3.6
			c-2.7-3.5-4.6-7.7-5.3-12.3H11c-1.9,0-3.5-1.6-3.5-3.5c0-2,1.6-3.5,3.5-3.5h4.6c0.5-4.7,2.3-9.1,5-12.7l-3.1-3.1
			c-1.4-1.4-1.4-3.6,0-5c1.4-1.4,3.6-1.4,5,0l3,3c3.6-2.9,8-4.8,12.8-5.4V20c0-1.9,1.6-3.5,3.5-3.5c1.9,0,3.5,1.6,3.5,3.5v4.1
			c4.8,0.6,9.2,2.6,12.8,5.4l3-3c1.4-1.4,3.6-1.4,5,0c1.4,1.4,1.4,3.6,0,5L63,34.6c2.7,3.6,4.5,8,5,12.7h4.6c1.9,0,3.5,1.6,3.5,3.5
			c0,1.9-1.6,3.5-3.5,3.5h-4.7c-0.7,4.6-2.6,8.8-5.3,12.3l3.5,3.5c1.4,1.4,1.4,3.6,0,5c-1.4,1.4-3.6,1.4-5,0l-3.6-3.6
			c-3.5,2.6-7.6,4.4-12.2,5v5.2C45.3,83.8,43.8,85.4,41.8,85.4z M41.8,31c-10.7,0-19.3,8.7-19.3,19.4c0,10.7,8.7,19.4,19.3,19.4
			c10.7,0,19.3-8.7,19.3-19.4C61.2,39.7,52.5,31,41.8,31z"/>
	</g>
</g>
</svg>
