<?xml version="1.0" encoding="utf-8"?>
<!-- Generator: Adobe Illustrator 18.0.0, SVG Export Plug-In . SVG Version: 6.00 Build 0)  -->
<!DOCTYPE svg PUBLIC "-//W3C//DTD SVG 1.1//EN" "http://www.w3.org/Graphics/SVG/1.1/DTD/svg11.dtd">
<svg version="1.1" id="Layer_1" xmlns="http://www.w3.org/2000/svg" xmlns:xlink="http://www.w3.org/1999/xlink" x="0px" y="0px"
	 viewBox="0 0 128 128" style="enable-background:new 0 0 128 128;" xml:space="preserve">
<style type="text/css">
	.st0{fill:#333333;}
	.st1{fill:#F1EEF6;}
	.st2{fill:#808080;}
	.st3{fill:#1A1A1A;}
	.st4{fill:#E5E5E5;}
	.st5{fill:#D4C8E3;}
	.st6{fill:none;stroke:#FFFFFF;stroke-miterlimit:10;}
	.st7{fill:#D2C6E1;}
	.st8{fill:#4D4D4D;}
	.st9{fill:none;stroke:#B2B2B2;stroke-miterlimit:10;}
	.st10{fill:#FFFFFF;}
	.st11{fill:none;stroke:#808080;stroke-miterlimit:10;}
	.st12{fill:none;stroke:#4D4D4D;stroke-width:2.2691;stroke-linecap:round;stroke-linejoin:round;stroke-miterlimit:10;}
	.st13{fill:none;stroke:#4D4D4D;stroke-width:2.1559;stroke-linecap:round;stroke-linejoin:round;stroke-miterlimit:10;}
	.st14{fill:none;stroke:#4D4D4D;stroke-width:2.1558;stroke-linecap:round;stroke-linejoin:round;stroke-miterlimit:10;}
	.st15{fill:#241E21;}
	.st16{fill:none;stroke:#4D4D4D;stroke-width:2.1618;stroke-linecap:round;stroke-linejoin:round;stroke-miterlimit:10;}
	.st17{fill:none;stroke:#4D4D4D;stroke-width:2.5566;stroke-linecap:round;stroke-linejoin:round;stroke-miterlimit:10;}
	.st18{fill:none;stroke:#4D4D4D;stroke-width:2.3992;stroke-linecap:round;stroke-linejoin:round;stroke-miterlimit:10;}
	.st19{fill:none;stroke:#4D4D4D;stroke-width:2.607;stroke-linecap:round;stroke-linejoin:round;stroke-miterlimit:10;}
	.st20{fill:none;stroke:#4D4D4D;stroke-width:2.0373;stroke-linecap:round;stroke-linejoin:round;stroke-miterlimit:10;}
	.st21{fill:none;stroke:#4D4D4D;stroke-width:1.7268;stroke-linecap:round;stroke-linejoin:round;stroke-miterlimit:10;}
	.st22{fill:none;stroke:#4D4D4D;stroke-width:2.0207;stroke-linecap:round;stroke-linejoin:round;stroke-miterlimit:10;}
	.st23{fill:#666666;}
	.st24{fill:none;stroke:#666666;stroke-miterlimit:10;}
	.st25{fill:none;stroke:#E5E5E5;stroke-miterlimit:10;}
</style>
<g>
	<path class="st10" d="M119.7,11.4c-7.6-7.6-17.1-11.6-48.3-11.6h-5.8h-3.3h-5.8c-31.2,0-40.7,4-48.3,11.6C1.8,17.8,0,25.8,0,43.9
		v40.3c0,18,1.8,26.1,8.3,32.5c7.6,7.6,17.1,11.6,48.3,11.6h5.8h3.3h5.8c31.2,0,40.7-4,48.3-11.6c6.4-6.4,8.3-14.4,8.3-32.5V43.9
		C128,25.8,126.2,17.8,119.7,11.4"/>
	<g>
		<g>
			<path class="st8" d="M64,109.3C39.1,109.3,18.9,89,18.9,64c0-25,20.3-45.3,45.1-45.3c24.9,0,45.1,20.3,45.1,45.3
				C109.1,89,88.9,109.3,64,109.3z M25.7,67c1.5,19.9,18.1,35.6,38.3,35.6c20.1,0,36.7-15.6,38.3-35.4L25.7,67z M25.7,60.3l76.6,0.2
				C100.5,40.8,84,25.4,64,25.4C44,25.4,27.6,40.8,25.7,60.3z"/>
		</g>
	</g>
	<g>
		<g>
			<path class="st8" d="M63.9,109.2c-0.8,0-1.6-0.3-2.2-0.8C46,95,38.2,80.4,38.4,65c0.3-23,18.4-40.1,22.6-43.8
				c0.3-0.7,0.9-1.3,1.6-1.6c1.2-0.5,2.6-0.4,3.6,0.5C81.9,33.4,89.7,48,89.5,63.4c-0.3,23-18.4,40.1-22.6,43.8
				c-0.3,0.7-0.9,1.3-1.6,1.6C64.8,109.1,64.3,109.2,63.9,109.2z M60.7,30.9c-6.2,6.7-15.4,19.2-15.6,34.2
				c-0.1,11.5,5,22.6,15.4,33.1L60.7,30.9z M67.4,30.2l-0.2,67.3c6.2-6.7,15.4-19.2,15.6-34.2C83,51.8,77.8,40.7,67.4,30.2z"/>
		</g>
	</g>
</g>
</svg>
