<?xml version="1.0" encoding="utf-8"?>
<!-- Generator: Adobe Illustrator 18.0.0, SVG Export Plug-In . SVG Version: 6.00 Build 0)  -->
<!DOCTYPE svg PUBLIC "-//W3C//DTD SVG 1.1//EN" "http://www.w3.org/Graphics/SVG/1.1/DTD/svg11.dtd">
<svg version="1.1" id="Layer_1" xmlns="http://www.w3.org/2000/svg" xmlns:xlink="http://www.w3.org/1999/xlink" x="0px" y="0px"
	 viewBox="0 0 128 128" style="enable-background:new 0 0 128 128;" xml:space="preserve">
<style type="text/css">
	.st0{fill:#333333;}
	.st1{fill:#F1EEF6;}
	.st2{fill:#808080;}
	.st3{fill:#1A1A1A;}
	.st4{fill:#E5E5E5;}
	.st5{fill:#D4C8E3;}
	.st6{fill:none;stroke:#FFFFFF;stroke-miterlimit:10;}
	.st7{fill:#D2C6E1;}
	.st8{fill:#4D4D4D;}
	.st9{fill:none;stroke:#B2B2B2;stroke-miterlimit:10;}
	.st10{fill:#FFFFFF;}
	.st11{fill:none;stroke:#808080;stroke-miterlimit:10;}
	.st12{fill:none;stroke:#4D4D4D;stroke-width:2.2691;stroke-linecap:round;stroke-linejoin:round;stroke-miterlimit:10;}
	.st13{fill:none;stroke:#4D4D4D;stroke-width:2.1559;stroke-linecap:round;stroke-linejoin:round;stroke-miterlimit:10;}
	.st14{fill:none;stroke:#4D4D4D;stroke-width:2.1558;stroke-linecap:round;stroke-linejoin:round;stroke-miterlimit:10;}
	.st15{fill:#241E21;}
	.st16{fill:none;stroke:#4D4D4D;stroke-width:2.1618;stroke-linecap:round;stroke-linejoin:round;stroke-miterlimit:10;}
	.st17{fill:none;stroke:#4D4D4D;stroke-width:2.5566;stroke-linecap:round;stroke-linejoin:round;stroke-miterlimit:10;}
	.st18{fill:none;stroke:#4D4D4D;stroke-width:2.3992;stroke-linecap:round;stroke-linejoin:round;stroke-miterlimit:10;}
	.st19{fill:none;stroke:#4D4D4D;stroke-width:2.607;stroke-linecap:round;stroke-linejoin:round;stroke-miterlimit:10;}
	.st20{fill:none;stroke:#4D4D4D;stroke-width:2.0373;stroke-linecap:round;stroke-linejoin:round;stroke-miterlimit:10;}
	.st21{fill:none;stroke:#4D4D4D;stroke-width:1.7268;stroke-linecap:round;stroke-linejoin:round;stroke-miterlimit:10;}
	.st22{fill:none;stroke:#4D4D4D;stroke-width:2.0207;stroke-linecap:round;stroke-linejoin:round;stroke-miterlimit:10;}
	.st23{fill:#666666;}
	.st24{fill:none;stroke:#666666;stroke-miterlimit:10;}
	.st25{fill:none;stroke:#E5E5E5;stroke-miterlimit:10;}
</style>
<g>
	<g>
		<path class="st10" d="M119.7,11.4c-7.6-7.6-17.1-11.6-48.3-11.6h-5.8h-3.3h-5.8c-31.2,0-40.7,4-48.3,11.6C1.8,17.8,0,25.8,0,43.9
			v40.3c0,18,1.8,26.1,8.3,32.5c7.6,7.6,17.1,11.6,48.3,11.6h5.8h3.3h5.8c31.2,0,40.7-4,48.3-11.6c6.4-6.4,8.3-14.4,8.3-32.5V43.9
			C128,25.8,126.2,17.8,119.7,11.4"/>
	</g>
	<g>
		<g>
			<path class="st8" d="M86.4,112.6H41.6c-9.3,0-16.9-7.6-16.9-16.9v-41c0-2.7,0.6-5.3,1.9-7.7c0.9-2.3,2.3-4.3,4-6.1l20.2-20.3
				c3.5-3.5,8.2-5.4,13.1-5.4c5,0,9.6,1.9,13.1,5.4L97.3,41c1.7,1.8,3.1,3.8,4,6.1c1.2,2.4,1.9,5,1.9,7.7v41
				C103.2,105,95.7,112.6,86.4,112.6z M64,21.9c-3.1,0-6.1,1.2-8.3,3.5L35.4,45.7c-1.1,1.1-2,2.5-2.6,4L32.7,50
				c-0.8,1.5-1.2,3.1-1.2,4.7v41c0,5.6,4.5,10.2,10.1,10.2h44.8c5.6,0,10.1-4.6,10.1-10.2v-41c0-1.7-0.4-3.2-1.2-4.7l-0.1-0.3
				c-0.6-1.5-1.5-2.8-2.6-4L72.3,25.4C70.1,23.2,67.1,21.9,64,21.9z"/>
		</g>
		<g>
			<path class="st8" d="M88,100.1h-10c-1.7,0-3.1-1.4-3.1-3.1v-9c0-1.7,1.4-3.1,3.1-3.1h10c1.7,0,3.1,1.4,3.1,3.1v9
				C91.1,98.7,89.7,100.1,88,100.1z M81.1,94H85v-2.9h-3.8V94z M69.5,100.1h-10c-1.7,0-3.1-1.4-3.1-3.1v-9c0-1.7,1.4-3.1,3.1-3.1h10
				c1.7,0,3.1,1.4,3.1,3.1v9C72.6,98.7,71.2,100.1,69.5,100.1z M62.6,94h3.8v-2.9h-3.8V94z M50.5,100.1h-10c-1.7,0-3.1-1.4-3.1-3.1
				v-9c0-1.7,1.4-3.1,3.1-3.1h10c1.7,0,3.1,1.4,3.1,3.1v9C53.5,98.7,52.2,100.1,50.5,100.1z M43.6,94h3.8v-2.9h-3.8V94z M88,82.3
				h-10c-1.7,0-3.1-1.4-3.1-3.1v-9c0-1.7,1.4-3.1,3.1-3.1h10c1.7,0,3.1,1.4,3.1,3.1v9C91.1,80.9,89.7,82.3,88,82.3z M81.1,76.1H85
				v-2.9h-3.8V76.1z M69.5,82.3h-10c-1.7,0-3.1-1.4-3.1-3.1v-9c0-1.7,1.4-3.1,3.1-3.1h10c1.7,0,3.1,1.4,3.1,3.1v9
				C72.6,80.9,71.2,82.3,69.5,82.3z M62.6,76.1h3.8v-2.9h-3.8V76.1z M88,64h-10C76.4,64,75,62.6,75,61v-9c0-1.7,1.4-3.1,3.1-3.1h10
				c1.7,0,3.1,1.4,3.1,3.1v9C91.1,62.6,89.7,64,88,64z M81.1,57.9H85V55h-3.8V57.9z"/>
		</g>
	</g>
</g>
</svg>
