<?xml version="1.0" encoding="utf-8"?>
<!-- Generator: Adobe Illustrator 18.0.0, SVG Export Plug-In . SVG Version: 6.00 Build 0)  -->
<!DOCTYPE svg PUBLIC "-//W3C//DTD SVG 1.1//EN" "http://www.w3.org/Graphics/SVG/1.1/DTD/svg11.dtd">
<svg version="1.1" id="Layer_1" xmlns="http://www.w3.org/2000/svg" xmlns:xlink="http://www.w3.org/1999/xlink" x="0px" y="0px"
	 viewBox="0 0 128 128.5" style="enable-background:new 0 0 128 128.5;" xml:space="preserve">
<style type="text/css">
	.st0{fill:#333333;}
	.st1{fill:#F1EEF6;}
	.st2{fill:#808080;}
	.st3{fill:#1A1A1A;}
	.st4{fill:#E5E5E5;}
	.st5{fill:#D4C8E3;}
	.st6{fill:none;stroke:#FFFFFF;stroke-miterlimit:10;}
	.st7{fill:#D2C6E1;}
	.st8{fill:#4D4D4D;}
	.st9{fill:none;stroke:#B2B2B2;stroke-miterlimit:10;}
	.st10{fill:#FFFFFF;}
	.st11{fill:none;stroke:#808080;stroke-miterlimit:10;}
	.st12{fill:none;stroke:#4D4D4D;stroke-width:2.2691;stroke-linecap:round;stroke-linejoin:round;stroke-miterlimit:10;}
	.st13{fill:none;stroke:#4D4D4D;stroke-width:2.1559;stroke-linecap:round;stroke-linejoin:round;stroke-miterlimit:10;}
	.st14{fill:none;stroke:#4D4D4D;stroke-width:2.1558;stroke-linecap:round;stroke-linejoin:round;stroke-miterlimit:10;}
	.st15{fill:#241E21;}
	.st16{fill:none;stroke:#4D4D4D;stroke-width:2.1618;stroke-linecap:round;stroke-linejoin:round;stroke-miterlimit:10;}
	.st17{fill:none;stroke:#4D4D4D;stroke-width:2.5566;stroke-linecap:round;stroke-linejoin:round;stroke-miterlimit:10;}
	.st18{fill:none;stroke:#4D4D4D;stroke-width:2.3992;stroke-linecap:round;stroke-linejoin:round;stroke-miterlimit:10;}
	.st19{fill:none;stroke:#4D4D4D;stroke-width:2.607;stroke-linecap:round;stroke-linejoin:round;stroke-miterlimit:10;}
	.st20{fill:none;stroke:#4D4D4D;stroke-width:2.0373;stroke-linecap:round;stroke-linejoin:round;stroke-miterlimit:10;}
	.st21{fill:none;stroke:#4D4D4D;stroke-width:1.7268;stroke-linecap:round;stroke-linejoin:round;stroke-miterlimit:10;}
	.st22{fill:none;stroke:#4D4D4D;stroke-width:2.0207;stroke-linecap:round;stroke-linejoin:round;stroke-miterlimit:10;}
	.st23{fill:#666666;}
	.st24{fill:none;stroke:#666666;stroke-miterlimit:10;}
	.st25{fill:none;stroke:#E5E5E5;stroke-miterlimit:10;}
</style>
<g>
	<path class="st10" d="M119.7,11.6C112.1,4,102.6,0,71.4,0h-5.8h-3.3h-5.8C25.4,0,15.9,4,8.3,11.6C1.8,18,0,26.1,0,44.1v40.3
		c0,18,1.8,26.1,8.3,32.5c7.6,7.6,17.1,11.6,48.3,11.6h5.8h3.3h5.8c31.2,0,40.7-4,48.3-11.6c6.4-6.4,8.3-14.4,8.3-32.5V44.1
		C128,26.1,126.2,18,119.7,11.6"/>
	<g>
		<g>
			<path class="st8" d="M94.5,104.6H76.1c-1.6,0-2.8-1.2-2.9-2.8c0-1-0.2-10.3,4.6-15.3c2-2,4.6-3.2,7.5-3c0.1,0,0.1,0,0.2,0
				c2.8,0,5.3,1,7.2,3c4.8,5,4.7,14.3,4.6,15.3C97.3,103.4,96,104.6,94.5,104.6z M79.1,98.8h12.4c-0.3-2.7-1-6.4-2.9-8.3
				c-0.9-0.9-2-1.2-3.3-1.3c-0.1,0-0.1,0-0.2,0c-1.3,0-2.2,0.4-3.1,1.3C80.1,92.5,79.4,96.1,79.1,98.8z M51.9,104.6H33.5
				c-1.6,0-2.8-1.2-2.9-2.8c0-1-0.2-10.3,4.6-15.3c1.9-2,4.4-3,7.2-3c0.1,0,0.1,0,0.2,0c0.1,0,0.1,0,0.2,0c2.8,0,5.3,1,7.2,3
				c4.8,5,4.7,14.3,4.6,15.3C54.8,103.4,53.5,104.6,51.9,104.6z M36.6,98.8h12.4c-0.3-2.7-1-6.4-2.9-8.3c-0.8-0.9-1.8-1.3-3.1-1.3
				c-0.1,0-0.1,0-0.2,0c-0.1,0-0.1,0-0.2,0c-1.3,0-2.2,0.4-3.1,1.3C37.6,92.5,36.8,96.1,36.6,98.8z M70.1,82.7
				c-0.8,0-1.6-0.3-2.1-0.9l-4-4.3L60,81.8C59,83,57.1,83,55.9,81.9c-1.2-1.1-1.2-2.9-0.2-4.1l5.2-5.6v-7.3c0-1.6,1.3-2.9,2.9-2.9
				c1.6,0,2.9,1.3,2.9,2.9V72l5.4,5.9c1.1,1.2,1,3-0.2,4.1C71.5,82.5,70.8,82.7,70.1,82.7z M85.3,82.5c-4.7,0-8.5-3.8-8.5-8.5
				c0-4.7,3.8-8.5,8.5-8.5c4.7,0,8.5,3.8,8.5,8.5C93.8,78.7,90,82.5,85.3,82.5z M85.3,71.3c-1.5,0-2.7,1.2-2.7,2.7
				c0,1.5,1.2,2.7,2.7,2.7c1.5,0,2.7-1.2,2.7-2.7C88,72.5,86.8,71.3,85.3,71.3z M42.7,82.5c-4.7,0-8.5-3.8-8.5-8.5
				c0-4.7,3.8-8.5,8.5-8.5c4.7,0,8.5,3.8,8.5,8.5C51.2,78.7,47.4,82.5,42.7,82.5z M42.7,71.3c-1.5,0-2.7,1.2-2.7,2.7
				c0,1.5,1.2,2.7,2.7,2.7c1.5,0,2.7-1.2,2.7-2.7C45.4,72.5,44.2,71.3,42.7,71.3z M75.9,60.4H52.1c-1.6,0-2.9-1.2-2.9-2.8
				c0-0.5-0.3-12.9,5.8-19.2c2.4-2.4,5.3-3.7,8.8-3.7c0.1,0,0.2,0,0.3,0c0.1,0,0.2,0,0.3,0c3.5,0,6.4,1.2,8.8,3.7
				c6.1,6.3,5.8,18.7,5.8,19.2C78.8,59.2,77.5,60.4,75.9,60.4z M55,54.6H73c-0.3-3.8-1.3-9.3-4.1-12.2c-1.2-1.3-2.8-1.9-4.6-1.9
				c-0.1,0-0.2,0-0.3,0c-0.1,0-0.2,0-0.3,0c-1.9,0-3.4,0.6-4.6,1.9C56.3,45.3,55.3,50.9,55,54.6z M64,33.7
				c-5.6,0-10.2-4.6-10.2-10.2c0-5.6,4.6-10.2,10.2-10.2c5.6,0,10.2,4.6,10.2,10.2C74.2,29.1,69.6,33.7,64,33.7z M64,19.1
				c-2.4,0-4.4,2-4.4,4.4c0,2.4,2,4.4,4.4,4.4c2.4,0,4.4-2,4.4-4.4C68.4,21.1,66.4,19.1,64,19.1z"/>
		</g>
	</g>
</g>
</svg>
