<?xml version="1.0" encoding="utf-8"?>
<!-- Generator: Adobe Illustrator 18.0.0, SVG Export Plug-In . SVG Version: 6.00 Build 0)  -->
<!DOCTYPE svg PUBLIC "-//W3C//DTD SVG 1.1//EN" "http://www.w3.org/Graphics/SVG/1.1/DTD/svg11.dtd">
<svg version="1.1" id="Layer_1" xmlns="http://www.w3.org/2000/svg" xmlns:xlink="http://www.w3.org/1999/xlink" x="0px" y="0px"
	 viewBox="0 0 152.9 30.7" style="enable-background:new 0 0 152.9 30.7;" xml:space="preserve">
<style type="text/css">
	.st0{fill:#D4C8E3;}
	.st1{fill:#333333;}
	.st2{fill:#F1EEF6;}
	.st3{fill:#808080;}
	.st4{fill:#1A1A1A;}
	.st5{fill:#E5E5E5;}
	.st6{fill:none;stroke:#FFFFFF;stroke-miterlimit:10;}
	.st7{fill:#D2C6E1;}
	.st8{fill:#4D4D4D;}
	.st9{fill:none;stroke:#B2B2B2;stroke-miterlimit:10;}
	.st10{fill:#FFFFFF;}
	.st11{fill:none;stroke:#808080;stroke-miterlimit:10;}
	.st12{fill:none;stroke:#4D4D4D;stroke-width:2.2691;stroke-linecap:round;stroke-linejoin:round;stroke-miterlimit:10;}
	.st13{fill:none;stroke:#4D4D4D;stroke-width:2.1559;stroke-linecap:round;stroke-linejoin:round;stroke-miterlimit:10;}
	.st14{fill:none;stroke:#4D4D4D;stroke-width:2.1558;stroke-linecap:round;stroke-linejoin:round;stroke-miterlimit:10;}
	.st15{fill:#241E21;}
	.st16{fill:none;stroke:#4D4D4D;stroke-width:2.1618;stroke-linecap:round;stroke-linejoin:round;stroke-miterlimit:10;}
	.st17{fill:none;stroke:#4D4D4D;stroke-width:2.5566;stroke-linecap:round;stroke-linejoin:round;stroke-miterlimit:10;}
	.st18{fill:none;stroke:#4D4D4D;stroke-width:2.3992;stroke-linecap:round;stroke-linejoin:round;stroke-miterlimit:10;}
	.st19{fill:none;stroke:#4D4D4D;stroke-width:2.607;stroke-linecap:round;stroke-linejoin:round;stroke-miterlimit:10;}
	.st20{fill:none;stroke:#4D4D4D;stroke-width:2.0373;stroke-linecap:round;stroke-linejoin:round;stroke-miterlimit:10;}
	.st21{fill:none;stroke:#4D4D4D;stroke-width:1.7268;stroke-linecap:round;stroke-linejoin:round;stroke-miterlimit:10;}
	.st22{fill:none;stroke:#4D4D4D;stroke-width:2.0207;stroke-linecap:round;stroke-linejoin:round;stroke-miterlimit:10;}
	.st23{fill:#666666;}
	.st24{fill:none;stroke:#666666;stroke-miterlimit:10;}
	.st25{fill:none;stroke:#E5E5E5;stroke-miterlimit:10;}
</style>
<g>
	<polygon class="st8" points="65.4,8.6 65.4,13.5 73.8,13.5 73.8,18.9 65.4,18.9 65.4,27.9 57.6,27.9 57.6,2.8 77.4,2.8 77.4,8.6 	
		"/>
	<polygon class="st8" points="88.4,22.1 98.7,22.1 98.7,27.9 80.7,27.9 80.7,2.8 88.4,2.8 	"/>
	<path class="st8" d="M124.2,17.8c0,5.6-0.7,7.3-2.1,8.6c-1.2,1.1-2.6,1.5-5.8,1.5h-7.2c-3.2,0-4.7-0.3-5.8-1.5
		c-1.4-1.4-2.1-3.1-2.1-8.6v-15h7.7v15c0,2.3,0.2,3,0.5,3.3c0.3,0.3,0.9,0.4,2.1,0.4h2.4c1.2,0,1.8-0.1,2.1-0.4
		c0.3-0.3,0.5-1,0.5-3.3v-15h7.7V17.8z"/>
	<polygon class="st8" points="139.8,20.6 139.5,20.6 135,27.9 126.8,27.9 135.2,15.3 127,2.8 135.6,2.8 140,9.7 140.3,9.7 
		144.7,2.8 152.8,2.8 144.6,15.1 152.9,27.9 144.4,27.9 	"/>
	<path class="st8" d="M15.6,28.9h-0.7h-1.2c-6.2,0-8.3-0.8-9.9-2.2c-0.4-0.5-2.3-3.1-1.3-5.5C3.2,19.3,6,17,15,16.2l0.5,0
		c9,0.8,11.8,3.1,12.5,4.9c1.1,2.7-1.5,5.6-1.5,5.7v0c-1.6,1.4-3.7,2.1-9.8,2.1H15.6z M14.9,1.8h0.7h1.2c6.5,0,8.6,0.8,10.2,2.4
		c0.6,0.8,2,3.1,1.1,5.3c-0.8,1.9-3.6,4.2-12.7,5l-0.4,0C6,13.7,3.2,11.4,2.5,9.5C1.4,6.9,3.9,3.9,3.9,3.9l0,0
		c1.6-1.4,3.7-2.1,9.8-2.1H14.9z M21.5,15.4c3.4-0.8,5.8-2,7.2-3.6V19C27.3,17.4,24.9,16.1,21.5,15.4 M1.8,11.7
		c1.4,1.6,3.8,2.9,7.2,3.7c-3.4,0.8-5.8,2-7.2,3.6V11.7z M28.4,3.1c-0.2-0.2-0.3-0.4-0.3-0.4l-0.1,0C25.8,0.7,23,0,16.8,0h-1.2h-0.7
		h-1.2C7.3,0,4.5,0.7,2.3,3C0.3,4.9,0,7.2,0,11.1v8.5c0,3.9,0.3,6.2,2.3,8.1c0.1,0.1,0.1,0.1,0.2,0.2c0,0,0,0.1,0.1,0.1l0,0
		c2.2,2,5,2.7,11.1,2.7h1.2h0.7h1.2c6.4,0,9.2-0.7,11.4-3c1.9-1.9,2.3-4.2,2.3-8.1v-8.5C30.5,7.3,30.1,5,28.4,3.1"/>
</g>
</svg>
