<?xml version="1.0" encoding="utf-8"?>
<!-- Generator: Adobe Illustrator 18.0.0, SVG Export Plug-In . SVG Version: 6.00 Build 0)  -->
<!DOCTYPE svg PUBLIC "-//W3C//DTD SVG 1.1//EN" "http://www.w3.org/Graphics/SVG/1.1/DTD/svg11.dtd">
<svg version="1.1" id="Layer_1" xmlns="http://www.w3.org/2000/svg" xmlns:xlink="http://www.w3.org/1999/xlink" x="0px" y="0px"
	 viewBox="0 0 80 80" style="enable-background:new 0 0 80 80;" xml:space="preserve">
<style type="text/css">
	.st0{fill:#D4C8E3;}
	.st1{fill:#333333;}
	.st2{fill:#F1EEF6;}
	.st3{fill:#808080;}
	.st4{fill:#1A1A1A;}
	.st5{fill:#E5E5E5;}
	.st6{fill:none;stroke:#FFFFFF;stroke-miterlimit:10;}
	.st7{fill:#D2C6E1;}
	.st8{fill:#4D4D4D;}
	.st9{fill:none;stroke:#B2B2B2;stroke-miterlimit:10;}
	.st10{fill:#FFFFFF;}
	.st11{fill:none;stroke:#808080;stroke-miterlimit:10;}
	.st12{fill:none;stroke:#4D4D4D;stroke-width:2.2691;stroke-linecap:round;stroke-linejoin:round;stroke-miterlimit:10;}
	.st13{fill:none;stroke:#4D4D4D;stroke-width:2.1559;stroke-linecap:round;stroke-linejoin:round;stroke-miterlimit:10;}
	.st14{fill:none;stroke:#4D4D4D;stroke-width:2.1558;stroke-linecap:round;stroke-linejoin:round;stroke-miterlimit:10;}
	.st15{fill:#241E21;}
	.st16{fill:none;stroke:#4D4D4D;stroke-width:2.1618;stroke-linecap:round;stroke-linejoin:round;stroke-miterlimit:10;}
	.st17{fill:none;stroke:#4D4D4D;stroke-width:2.5566;stroke-linecap:round;stroke-linejoin:round;stroke-miterlimit:10;}
	.st18{fill:none;stroke:#4D4D4D;stroke-width:2.3992;stroke-linecap:round;stroke-linejoin:round;stroke-miterlimit:10;}
	.st19{fill:none;stroke:#4D4D4D;stroke-width:2.607;stroke-linecap:round;stroke-linejoin:round;stroke-miterlimit:10;}
	.st20{fill:none;stroke:#4D4D4D;stroke-width:2.0373;stroke-linecap:round;stroke-linejoin:round;stroke-miterlimit:10;}
	.st21{fill:none;stroke:#4D4D4D;stroke-width:1.7268;stroke-linecap:round;stroke-linejoin:round;stroke-miterlimit:10;}
	.st22{fill:none;stroke:#4D4D4D;stroke-width:2.0207;stroke-linecap:round;stroke-linejoin:round;stroke-miterlimit:10;}
	.st23{fill:#666666;}
	.st24{fill:none;stroke:#666666;stroke-miterlimit:10;}
	.st25{fill:none;stroke:#E5E5E5;stroke-miterlimit:10;}
</style>
<circle class="st2" cx="40" cy="40" r="40"/>
<g>
	<path class="st1" d="M23.4,45.4V17.9c0-0.7,0.5-1.2,1.2-1.2h8.8v-2.4c0-0.7,0.5-1.2,1.2-1.2h10.6c0.7,0,1.2,0.5,1.2,1.2v2.4h8.8
		c0.7,0,1.2,0.5,1.2,1.2v27.4c0,0.7-0.5,1.2-1.2,1.2h-3.1v2.3c0,0.7-0.5,1.2-1.2,1.2h-3.2l7,12.6c0.3,0.6,0.1,1.3-0.5,1.6
		c-0.6,0.3-1.3,0.1-1.6-0.5L45,50.1h-3.9v5.2c0,0.7-0.5,1.2-1.2,1.2c-0.7,0-1.2-0.5-1.2-1.2v-5.2h-4.9l-7.6,13.7
		c-0.3,0.6-1.1,0.8-1.6,0.5c-0.6-0.3-0.8-1.1-0.5-1.6l6.9-12.5h-2.2c-0.7,0-1.2-0.5-1.2-1.2v-2.3h-3.1C23.9,46.6,23.4,46,23.4,45.4z
		 M25.8,19.1v25h28.3v-25H25.8z M30.1,46.6v1h19.7v-1H30.1z M35.9,15.5v1H44v-1H35.9z M27,36.2c0-0.2,0.1-0.5,0.2-0.7
		c0.4-0.6,1.1-0.7,1.7-0.3l2.2,1.5l4-5.1c0.4-0.5,1.1-0.6,1.6-0.3l4.3,2.6l2-4.1c0.2-0.5,0.7-0.7,1.3-0.7l3.1,0.5l2.4-5.4
		c0.3-0.6,1-0.9,1.6-0.6c0.6,0.3,0.9,1,0.6,1.6l-2.8,6.2c-0.2,0.5-0.8,0.8-1.3,0.7l-3.1-0.5l-2.2,4.5c-0.1,0.3-0.4,0.5-0.7,0.6
		c-0.3,0.1-0.7,0-1-0.1L36.4,34l-4.1,5.2c-0.4,0.5-1.1,0.6-1.6,0.3l-3.2-2.2C27.2,37,27,36.6,27,36.2z"/>
</g>
</svg>
