<?xml version="1.0" encoding="utf-8"?>
<!-- Generator: Adobe Illustrator 18.0.0, SVG Export Plug-In . SVG Version: 6.00 Build 0)  -->
<!DOCTYPE svg PUBLIC "-//W3C//DTD SVG 1.1//EN" "http://www.w3.org/Graphics/SVG/1.1/DTD/svg11.dtd">
<svg version="1.1" id="Layer_1" xmlns="http://www.w3.org/2000/svg" xmlns:xlink="http://www.w3.org/1999/xlink" x="0px" y="0px"
	 viewBox="0 0 50.7 50.9" style="enable-background:new 0 0 50.7 50.9;" xml:space="preserve">
<style type="text/css">
	.st0{fill:#D4C8E3;}
	.st1{fill:#333333;}
	.st2{fill:#F1EEF6;}
	.st3{fill:#808080;}
	.st4{fill:#1A1A1A;}
	.st5{fill:#E5E5E5;}
	.st6{fill:none;stroke:#FFFFFF;stroke-miterlimit:10;}
	.st7{fill:#D2C6E1;}
	.st8{fill:#4D4D4D;}
	.st9{fill:none;stroke:#B2B2B2;stroke-miterlimit:10;}
	.st10{fill:#FFFFFF;}
	.st11{fill:none;stroke:#808080;stroke-miterlimit:10;}
	.st12{fill:none;stroke:#4D4D4D;stroke-width:2.2691;stroke-linecap:round;stroke-linejoin:round;stroke-miterlimit:10;}
	.st13{fill:none;stroke:#4D4D4D;stroke-width:2.1559;stroke-linecap:round;stroke-linejoin:round;stroke-miterlimit:10;}
	.st14{fill:none;stroke:#4D4D4D;stroke-width:2.1558;stroke-linecap:round;stroke-linejoin:round;stroke-miterlimit:10;}
	.st15{fill:#241E21;}
	.st16{fill:none;stroke:#4D4D4D;stroke-width:2.1618;stroke-linecap:round;stroke-linejoin:round;stroke-miterlimit:10;}
	.st17{fill:none;stroke:#4D4D4D;stroke-width:2.5566;stroke-linecap:round;stroke-linejoin:round;stroke-miterlimit:10;}
	.st18{fill:none;stroke:#4D4D4D;stroke-width:2.3992;stroke-linecap:round;stroke-linejoin:round;stroke-miterlimit:10;}
	.st19{fill:none;stroke:#4D4D4D;stroke-width:2.607;stroke-linecap:round;stroke-linejoin:round;stroke-miterlimit:10;}
	.st20{fill:none;stroke:#4D4D4D;stroke-width:2.0373;stroke-linecap:round;stroke-linejoin:round;stroke-miterlimit:10;}
	.st21{fill:none;stroke:#4D4D4D;stroke-width:1.7268;stroke-linecap:round;stroke-linejoin:round;stroke-miterlimit:10;}
	.st22{fill:none;stroke:#4D4D4D;stroke-width:2.0207;stroke-linecap:round;stroke-linejoin:round;stroke-miterlimit:10;}
	.st23{fill:#666666;}
	.st24{fill:none;stroke:#666666;stroke-miterlimit:10;}
	.st25{fill:none;stroke:#E5E5E5;stroke-miterlimit:10;}
</style>
<g>
	<path class="st10" d="M47.4,4.6c-3-3-6.8-4.6-19.1-4.6H26h-1.3h-2.3C10,0,6.3,1.6,3.3,4.6C0.7,7.1,0,10.3,0,17.5v15.9
		c0,7.1,0.7,10.3,3.3,12.9c3,3,6.8,4.6,19.1,4.6h2.3H26h2.3c12.4,0,16.1-1.6,19.1-4.6c2.6-2.5,3.3-5.7,3.3-12.9V17.5
		C50.7,10.3,49.9,7.1,47.4,4.6"/>
	<path class="st8" d="M34,39c-1,0.5-2.2,1-4.8,1c-5.5,0-8.8-3.5-9.9-9.7h-2.9c-0.6,0-0.9-0.3-0.9-0.9v-1.4c0-0.6,0.3-0.9,0.9-0.9
		h2.5c0-0.6,0-1.2,0-1.8c0-0.5,0-0.9,0-1.4h-2.5c-0.6,0-0.9-0.3-0.9-0.9v-1.4c0-0.6,0.3-0.9,0.9-0.9h2.9c1.2-6.2,4.9-9.7,10.2-9.7
		c1.7,0,3.4,0.3,4.6,0.9c0.4,0.3,0.5,0.7,0.3,1.2L34,14.7c-0.1,0.5-0.6,0.6-1.1,0.3c-1-0.5-2-0.8-3.3-0.8c-3.7,0-5.9,2-6.6,6.5h6.5
		c0.6,0,0.9,0.3,0.9,0.9V23c0,0.6-0.3,0.9-0.9,0.9h-6.8c0,0.5,0,0.9,0,1.4c0,0.6,0,1.2,0,1.8h6.8c0.6,0,0.9,0.3,0.9,0.9v1.4
		c0,0.6-0.3,0.9-0.9,0.9h-6.4c0.9,4.4,3.2,6.4,6.4,6.4c1.1,0,2.8-0.5,3.5-0.8c0.5-0.3,1-0.1,1.1,0.3l0.3,1.8
		C34.5,38.5,34.3,38.8,34,39"/>
</g>
</svg>
