<?xml version="1.0" encoding="utf-8"?>
<!-- Generator: Adobe Illustrator 18.0.0, SVG Export Plug-In . SVG Version: 6.00 Build 0)  -->
<!DOCTYPE svg PUBLIC "-//W3C//DTD SVG 1.1//EN" "http://www.w3.org/Graphics/SVG/1.1/DTD/svg11.dtd">
<svg version="1.1" id="Layer_1" xmlns="http://www.w3.org/2000/svg" xmlns:xlink="http://www.w3.org/1999/xlink" x="0px" y="0px"
	 viewBox="0 0 50.4 50.4" style="enable-background:new 0 0 50.4 50.4;" xml:space="preserve">
<style type="text/css">
	.st0{fill:#D4C8E3;}
	.st1{fill:#333333;}
	.st2{fill:#F1EEF6;}
	.st3{fill:#808080;}
	.st4{fill:#1A1A1A;}
	.st5{fill:#E5E5E5;}
	.st6{fill:none;stroke:#FFFFFF;stroke-miterlimit:10;}
	.st7{fill:#D2C6E1;}
	.st8{fill:#4D4D4D;}
	.st9{fill:none;stroke:#B2B2B2;stroke-miterlimit:10;}
	.st10{fill:#FFFFFF;}
	.st11{fill:none;stroke:#808080;stroke-miterlimit:10;}
	.st12{fill:none;stroke:#4D4D4D;stroke-width:2.2691;stroke-linecap:round;stroke-linejoin:round;stroke-miterlimit:10;}
	.st13{fill:none;stroke:#4D4D4D;stroke-width:2.1559;stroke-linecap:round;stroke-linejoin:round;stroke-miterlimit:10;}
	.st14{fill:none;stroke:#4D4D4D;stroke-width:2.1558;stroke-linecap:round;stroke-linejoin:round;stroke-miterlimit:10;}
	.st15{fill:#241E21;}
	.st16{fill:none;stroke:#4D4D4D;stroke-width:2.1618;stroke-linecap:round;stroke-linejoin:round;stroke-miterlimit:10;}
	.st17{fill:none;stroke:#4D4D4D;stroke-width:2.5566;stroke-linecap:round;stroke-linejoin:round;stroke-miterlimit:10;}
	.st18{fill:none;stroke:#4D4D4D;stroke-width:2.3992;stroke-linecap:round;stroke-linejoin:round;stroke-miterlimit:10;}
	.st19{fill:none;stroke:#4D4D4D;stroke-width:2.607;stroke-linecap:round;stroke-linejoin:round;stroke-miterlimit:10;}
	.st20{fill:none;stroke:#4D4D4D;stroke-width:2.0373;stroke-linecap:round;stroke-linejoin:round;stroke-miterlimit:10;}
	.st21{fill:none;stroke:#4D4D4D;stroke-width:1.7268;stroke-linecap:round;stroke-linejoin:round;stroke-miterlimit:10;}
	.st22{fill:none;stroke:#4D4D4D;stroke-width:2.0207;stroke-linecap:round;stroke-linejoin:round;stroke-miterlimit:10;}
	.st23{fill:#666666;}
	.st24{fill:none;stroke:#666666;stroke-miterlimit:10;}
	.st25{fill:none;stroke:#E5E5E5;stroke-miterlimit:10;}
</style>
<g>
	<path class="st7" d="M22.1,0C9.7,0,6,1.5,3,4.4C0.7,6.7,0,9.6,0,16.9v16.7C0,40.8,0.7,43.7,3,46c2.9,2.9,6.7,4.4,19.1,4.4h6.2
		c12.4,0,16.2-1.5,19.1-4.4c2.3-2.3,3-5.2,3-12.5V16.9c0-7.3-0.7-10.2-3-12.5C44.5,1.5,40.7,0,28.3,0H22.1z"/>
	<g>
		<path class="st8" d="M35.8,43.9c-0.8,0-1.4-0.6-1.4-1.4v-1.3c-1.2-0.2-2.4-0.7-3.4-1.4l-0.9,0.9c-0.5,0.5-1.4,0.5-2,0
			s-0.5-1.4,0-2l0.9-0.9c-0.7-1-1.3-2.2-1.5-3.4h-1.2c-0.8,0-1.4-0.6-1.4-1.4c0-0.8,0.6-1.4,1.4-1.4h1.1c0.2-1.3,0.7-2.5,1.4-3.6
			l-0.8-0.8c-0.5-0.5-0.5-1.4,0-2c0.5-0.5,1.4-0.5,2,0l0.7,0.7c1-0.8,2.3-1.3,3.6-1.5v-1c0-0.8,0.6-1.4,1.4-1.4
			c0.8,0,1.4,0.6,1.4,1.4v1c1.3,0.2,2.5,0.8,3.6,1.5l0.7-0.7c0.5-0.5,1.4-0.5,2,0c0.5,0.5,0.5,1.4,0,2l-0.8,0.8
			c0.7,1,1.2,2.2,1.4,3.6h1.1c0.8,0,1.4,0.6,1.4,1.4c0,0.8-0.6,1.4-1.4,1.4h-1.2c-0.2,1.3-0.8,2.4-1.5,3.4l0.9,0.9
			c0.5,0.5,0.5,1.4,0,2c-0.5,0.5-1.4,0.5-2,0l-0.9-0.9c-1,0.7-2.2,1.2-3.4,1.4v1.3C37.2,43.3,36.6,43.9,35.8,43.9z M35.8,27.2
			c-3.1,0-5.6,2.5-5.6,5.6c0,3.1,2.5,5.6,5.6,5.6c3.1,0,5.6-2.5,5.6-5.6C41.4,29.8,38.9,27.2,35.8,27.2z M16.5,33.6
			c-0.8,0-1.4-0.6-1.4-1.4v-2.1c-1.8-0.2-3.4-0.9-4.8-1.9l-1.4,1.4c-0.5,0.5-1.4,0.5-2,0c-0.5-0.5-0.5-1.4,0-2l1.4-1.4
			c-1.1-1.4-1.8-3-2.1-4.8H4.3c-0.8,0-1.4-0.6-1.4-1.4c0-0.8,0.6-1.4,1.4-1.4h1.8c0.2-1.9,0.9-3.6,2-5l-1.2-1.2
			c-0.5-0.5-0.5-1.4,0-2c0.5-0.5,1.4-0.5,2,0l1.2,1.2c1.4-1.1,3.2-1.9,5-2.1V7.9c0-0.8,0.6-1.4,1.4-1.4c0.8,0,1.4,0.6,1.4,1.4v1.6
			c1.9,0.3,3.6,1,5,2.1l1.2-1.2c0.5-0.5,1.4-0.5,2,0c0.5,0.5,0.5,1.4,0,2l-1.2,1.2c1.1,1.4,1.8,3.1,2,5h1.8c0.8,0,1.4,0.6,1.4,1.4
			c0,0.8-0.6,1.4-1.4,1.4h-1.9c-0.3,1.8-1,3.4-2.1,4.8l1.4,1.4c0.5,0.5,0.5,1.4,0,2c-0.5,0.5-1.4,0.5-2,0l-1.4-1.4
			c-1.4,1-3,1.7-4.8,1.9v2.1C17.9,33,17.2,33.6,16.5,33.6z M16.5,12.2c-4.2,0-7.6,3.4-7.6,7.6c0,4.2,3.4,7.6,7.6,7.6
			c4.2,0,7.6-3.4,7.6-7.6C24.1,15.7,20.7,12.2,16.5,12.2z"/>
	</g>
</g>
</svg>
