<?xml version="1.0" encoding="utf-8"?>
<!-- Generator: Adobe Illustrator 18.0.0, SVG Export Plug-In . SVG Version: 6.00 Build 0)  -->
<!DOCTYPE svg PUBLIC "-//W3C//DTD SVG 1.1//EN" "http://www.w3.org/Graphics/SVG/1.1/DTD/svg11.dtd">
<svg version="1.1" id="Layer_1" xmlns="http://www.w3.org/2000/svg" xmlns:xlink="http://www.w3.org/1999/xlink" x="0px" y="0px"
	 viewBox="0 90 612 612" style="enable-background:new 0 90 612 612;" xml:space="preserve">
<style type="text/css">
	.st0{fill:#D2C6E1;}
	.st1{fill:#989898;}
</style>
<g>
	<path class="st0" d="M268.4,90c-150.6,0-195.5,18.2-231.9,53.4C8.5,171.4,0,206.6,0,295.2V498c0,87.4,8.5,122.6,36.4,150.6
		C72.9,685,117.8,702,268.4,702h75.3c150.6,0,196.7-18.2,231.9-53.4c27.9-27.9,36.4-63.1,36.4-151.8V295.2
		c0-88.6-8.5-123.9-36.4-151.8C540.4,108.2,494.2,90,343.6,90H268.4z"/>
	<g>
		<path class="st1" d="M461.4,558.7c-7.3,0-13.4-4.9-15.8-10.9l-25.5-64.4H289c-37.6,0-69.2-30.4-69.2-69.2V284.3
			c0-37.6,30.4-69.2,69.2-69.2h201.6c37.6,0,69.2,30.4,69.2,69.2v131.1c0,36.4-27.9,65.6-63.1,68l-19.4,64.4
			C474.8,553.9,468.7,558.7,461.4,558.7L461.4,558.7z M289,249.1c-19.4,0-35.2,15.8-35.2,35.2v131.1c0,19.4,15.8,35.2,35.2,35.2
			h143.3c7.3,0,13.4,4.9,15.8,10.9l10.9,29.1l8.5-27.9c2.4-7.3,8.5-12.1,15.8-12.1h7.3c19.4,0,35.2-15.8,35.2-35.2V284.3
			c0-19.4-15.8-35.2-35.2-35.2H289z"/>
	</g>
	<g>
		<path class="st1" d="M320.3,483.4c-1.9,14-14.4,24.3-28.9,24.3H166.4c-7.3,0-13.4,4.9-15.8,10.9l-7.3,20.6l-6.1-18.2
			c-2.4-7.3-8.5-12.1-15.8-12.1h-6.1c-15.8,0-29.1-13.4-29.1-27.9V366.9c0-15.8,13.4-29.1,29.1-29.1h104.4l0-34H115.4
			c-34,0-61.9,27.9-61.9,61.9v114.1c0,31.6,24.3,58.3,55.9,61.9l15.8,54.6c2.4,7.3,8.5,12.1,15.8,12.1c0,0,0,0,1.2,0
			c7.3,0,13.4-4.9,15.8-10.9l21.9-55.9h111.7c32.8,0,59.9-26,61.8-58.3L320.3,483.4z"/>
	</g>
</g>
</svg>
