<?xml version="1.0" encoding="utf-8"?>
<!-- Generator: Adobe Illustrator 18.0.0, SVG Export Plug-In . SVG Version: 6.00 Build 0)  -->
<!DOCTYPE svg PUBLIC "-//W3C//DTD SVG 1.1//EN" "http://www.w3.org/Graphics/SVG/1.1/DTD/svg11.dtd">
<svg version="1.1" id="Layer_1" xmlns="http://www.w3.org/2000/svg" xmlns:xlink="http://www.w3.org/1999/xlink" x="0px" y="0px"
	 viewBox="0 0 50.7 50.9" style="enable-background:new 0 0 50.7 50.9;" xml:space="preserve">
<style type="text/css">
	.st0{fill:#D4C8E3;}
	.st1{fill:#333333;}
	.st2{fill:#F1EEF6;}
	.st3{fill:#808080;}
	.st4{fill:#1A1A1A;}
	.st5{fill:#E5E5E5;}
	.st6{fill:none;stroke:#FFFFFF;stroke-miterlimit:10;}
	.st7{fill:#D2C6E1;}
	.st8{fill:#4D4D4D;}
	.st9{fill:none;stroke:#B2B2B2;stroke-miterlimit:10;}
	.st10{fill:#FFFFFF;}
	.st11{fill:none;stroke:#808080;stroke-miterlimit:10;}
	.st12{fill:none;stroke:#4D4D4D;stroke-width:2.2691;stroke-linecap:round;stroke-linejoin:round;stroke-miterlimit:10;}
	.st13{fill:none;stroke:#4D4D4D;stroke-width:2.1559;stroke-linecap:round;stroke-linejoin:round;stroke-miterlimit:10;}
	.st14{fill:none;stroke:#4D4D4D;stroke-width:2.1558;stroke-linecap:round;stroke-linejoin:round;stroke-miterlimit:10;}
	.st15{fill:#241E21;}
	.st16{fill:none;stroke:#4D4D4D;stroke-width:2.1618;stroke-linecap:round;stroke-linejoin:round;stroke-miterlimit:10;}
	.st17{fill:none;stroke:#4D4D4D;stroke-width:2.5566;stroke-linecap:round;stroke-linejoin:round;stroke-miterlimit:10;}
	.st18{fill:none;stroke:#4D4D4D;stroke-width:2.3992;stroke-linecap:round;stroke-linejoin:round;stroke-miterlimit:10;}
	.st19{fill:none;stroke:#4D4D4D;stroke-width:2.607;stroke-linecap:round;stroke-linejoin:round;stroke-miterlimit:10;}
	.st20{fill:none;stroke:#4D4D4D;stroke-width:2.0373;stroke-linecap:round;stroke-linejoin:round;stroke-miterlimit:10;}
	.st21{fill:none;stroke:#4D4D4D;stroke-width:1.7268;stroke-linecap:round;stroke-linejoin:round;stroke-miterlimit:10;}
	.st22{fill:none;stroke:#4D4D4D;stroke-width:2.0207;stroke-linecap:round;stroke-linejoin:round;stroke-miterlimit:10;}
	.st23{fill:#666666;}
	.st24{fill:none;stroke:#666666;stroke-miterlimit:10;}
	.st25{fill:none;stroke:#E5E5E5;stroke-miterlimit:10;}
</style>
<g>
	<path class="st10" d="M47.4,4.6c-3-3-6.8-4.6-19.1-4.6H26h-1.3h-2.3C10,0,6.3,1.6,3.3,4.6C0.7,7.1,0,10.3,0,17.5v15.9
		c0,7.1,0.7,10.3,3.3,12.9c3,3,6.8,4.6,19.1,4.6h2.3H26h2.3c12.4,0,16.1-1.6,19.1-4.6c2.6-2.5,3.3-5.7,3.3-12.9V17.5
		C50.7,10.3,49.9,7.1,47.4,4.6"/>
	<g>
		<g>
			<path class="st8" d="M37.4,41.4h-7.3c-0.6,0-1.1-0.5-1.1-1.1c0-0.4-0.1-4.1,1.8-6.1c0.8-0.8,1.8-1.3,3-1.2c0,0,0.1,0,0.1,0
				c1.1,0,2.1,0.4,2.9,1.2c1.9,2,1.8,5.6,1.8,6.1C38.5,40.9,38,41.4,37.4,41.4z M31.3,39.1h4.9c-0.1-1.1-0.4-2.5-1.1-3.3
				c-0.4-0.4-0.8-0.5-1.3-0.5c0,0-0.1,0-0.1,0c-0.5,0-0.9,0.2-1.2,0.5C31.7,36.6,31.4,38,31.3,39.1z M20.6,41.4h-7.3
				c-0.6,0-1.1-0.5-1.1-1.1c0-0.4-0.1-4.1,1.8-6.1c0.8-0.8,1.8-1.2,2.9-1.2c0,0,0.1,0,0.1,0c0,0,0.1,0,0.1,0c1.1,0,2.1,0.4,2.9,1.2
				c1.9,2,1.8,5.6,1.8,6.1C21.7,40.9,21.2,41.4,20.6,41.4z M14.5,39.1h4.9c-0.1-1.1-0.4-2.5-1.1-3.3c-0.3-0.3-0.7-0.5-1.2-0.5
				c0,0-0.1,0-0.1,0c0,0-0.1,0-0.1,0c-0.5,0-0.9,0.2-1.2,0.5C14.9,36.6,14.6,38,14.5,39.1z M27.7,32.7c-0.3,0-0.6-0.1-0.8-0.4
				l-1.6-1.7l-1.6,1.7c-0.4,0.5-1.2,0.5-1.6,0.1c-0.5-0.4-0.5-1.2-0.1-1.6l2.1-2.2v-2.9c0-0.6,0.5-1.1,1.1-1.1
				c0.6,0,1.1,0.5,1.1,1.1v2.8l2.1,2.3c0.4,0.5,0.4,1.2-0.1,1.6C28.3,32.6,28,32.7,27.7,32.7z M33.7,32.6c-1.9,0-3.4-1.5-3.4-3.4
				c0-1.9,1.5-3.4,3.4-3.4c1.9,0,3.4,1.5,3.4,3.4C37.1,31.1,35.6,32.6,33.7,32.6z M33.7,28.2c-0.6,0-1.1,0.5-1.1,1.1
				c0,0.6,0.5,1.1,1.1,1.1c0.6,0,1.1-0.5,1.1-1.1C34.8,28.7,34.3,28.2,33.7,28.2z M16.9,32.6c-1.9,0-3.4-1.5-3.4-3.4
				c0-1.9,1.5-3.4,3.4-3.4c1.9,0,3.4,1.5,3.4,3.4C20.3,31.1,18.8,32.6,16.9,32.6z M16.9,28.2c-0.6,0-1.1,0.5-1.1,1.1
				c0,0.6,0.5,1.1,1.1,1.1c0.6,0,1.1-0.5,1.1-1.1C18,28.7,17.5,28.2,16.9,28.2z M30.1,23.9h-9.4c-0.6,0-1.1-0.5-1.1-1.1
				c0-0.2-0.1-5.1,2.3-7.6c0.9-1,2.1-1.5,3.5-1.5c0,0,0.1,0,0.1,0c0,0,0.1,0,0.1,0c1.4,0,2.5,0.5,3.5,1.5c2.4,2.5,2.3,7.4,2.3,7.6
				C31.2,23.4,30.7,23.9,30.1,23.9z M21.8,21.6h7.1c-0.1-1.5-0.5-3.7-1.6-4.8c-0.5-0.5-1.1-0.8-1.8-0.8c0,0-0.1,0-0.1,0
				c0,0-0.1,0-0.1,0c-0.7,0-1.3,0.2-1.8,0.8C22.3,17.9,21.9,20.1,21.8,21.6z M25.3,13.3c-2.2,0-4-1.8-4-4c0-2.2,1.8-4,4-4
				c2.2,0,4,1.8,4,4C29.4,11.5,27.6,13.3,25.3,13.3z M25.3,7.6c-1,0-1.7,0.8-1.7,1.7c0,1,0.8,1.7,1.7,1.7c1,0,1.7-0.8,1.7-1.7
				C27.1,8.3,26.3,7.6,25.3,7.6z"/>
		</g>
	</g>
</g>
</svg>
