<?xml version="1.0" encoding="utf-8"?>
<!-- Generator: Adobe Illustrator 18.0.0, SVG Export Plug-In . SVG Version: 6.00 Build 0)  -->
<!DOCTYPE svg PUBLIC "-//W3C//DTD SVG 1.1//EN" "http://www.w3.org/Graphics/SVG/1.1/DTD/svg11.dtd">
<svg version="1.1" id="Layer_1" xmlns="http://www.w3.org/2000/svg" xmlns:xlink="http://www.w3.org/1999/xlink" x="0px" y="0px"
	 viewBox="0 0 50.4 50.4" style="enable-background:new 0 0 50.4 50.4;" xml:space="preserve">
<style type="text/css">
	.st0{fill:#D4C8E3;}
	.st1{fill:#333333;}
	.st2{fill:#F1EEF6;}
	.st3{fill:#808080;}
	.st4{fill:#1A1A1A;}
	.st5{fill:#E5E5E5;}
	.st6{fill:none;stroke:#FFFFFF;stroke-miterlimit:10;}
	.st7{fill:#D2C6E1;}
	.st8{fill:#4D4D4D;}
	.st9{fill:none;stroke:#B2B2B2;stroke-miterlimit:10;}
	.st10{fill:#FFFFFF;}
	.st11{fill:none;stroke:#808080;stroke-miterlimit:10;}
	.st12{fill:none;stroke:#4D4D4D;stroke-width:2.2691;stroke-linecap:round;stroke-linejoin:round;stroke-miterlimit:10;}
	.st13{fill:none;stroke:#4D4D4D;stroke-width:2.1559;stroke-linecap:round;stroke-linejoin:round;stroke-miterlimit:10;}
	.st14{fill:none;stroke:#4D4D4D;stroke-width:2.1558;stroke-linecap:round;stroke-linejoin:round;stroke-miterlimit:10;}
	.st15{fill:#241E21;}
	.st16{fill:none;stroke:#4D4D4D;stroke-width:2.1618;stroke-linecap:round;stroke-linejoin:round;stroke-miterlimit:10;}
	.st17{fill:none;stroke:#4D4D4D;stroke-width:2.5566;stroke-linecap:round;stroke-linejoin:round;stroke-miterlimit:10;}
	.st18{fill:none;stroke:#4D4D4D;stroke-width:2.3992;stroke-linecap:round;stroke-linejoin:round;stroke-miterlimit:10;}
	.st19{fill:none;stroke:#4D4D4D;stroke-width:2.607;stroke-linecap:round;stroke-linejoin:round;stroke-miterlimit:10;}
	.st20{fill:none;stroke:#4D4D4D;stroke-width:2.0373;stroke-linecap:round;stroke-linejoin:round;stroke-miterlimit:10;}
	.st21{fill:none;stroke:#4D4D4D;stroke-width:1.7268;stroke-linecap:round;stroke-linejoin:round;stroke-miterlimit:10;}
	.st22{fill:none;stroke:#4D4D4D;stroke-width:2.0207;stroke-linecap:round;stroke-linejoin:round;stroke-miterlimit:10;}
	.st23{fill:#666666;}
	.st24{fill:none;stroke:#666666;stroke-miterlimit:10;}
	.st25{fill:none;stroke:#E5E5E5;stroke-miterlimit:10;}
</style>
<g>
	<path class="st7" d="M22.1,0C9.7,0,6,1.5,3,4.4C0.7,6.7,0,9.6,0,16.9v16.7C0,40.8,0.7,43.7,3,46C6,49,9.7,50.4,22.1,50.4h6.2
		c12.4,0,16.2-1.5,19.1-4.4c2.3-2.3,3-5.2,3-12.5V16.9c0-7.3-0.7-10.2-3-12.5C44.5,1.5,40.7,0,28.3,0H22.1z"/>
	<g>
		<path class="st8" d="M38,38.6c-0.6,0-1.1-0.4-1.3-0.9l-2.1-5.3H23.8c-3.1,0-5.7-2.5-5.7-5.7V16c0-3.1,2.5-5.7,5.7-5.7h16.6
			c3.1,0,5.7,2.5,5.7,5.7v10.8c0,3-2.3,5.4-5.2,5.6l-1.6,5.3C39.1,38.2,38.6,38.6,38,38.6C38,38.6,38,38.6,38,38.6z M23.8,13.1
			c-1.6,0-2.9,1.3-2.9,2.9v10.8c0,1.6,1.3,2.9,2.9,2.9h11.8c0.6,0,1.1,0.4,1.3,0.9l0.9,2.4l0.7-2.3c0.2-0.6,0.7-1,1.3-1h0.6
			c1.6,0,2.9-1.3,2.9-2.9V16c0-1.6-1.3-2.9-2.9-2.9H23.8z"/>
	</g>
	<g>
		<path class="st8" d="M28.5,31c-0.6,0.1-1.3,0.1-2.1,0.2v0.9c0,1.3-1.1,2.3-2.4,2.3H13.7c-0.6,0-1.1,0.4-1.3,0.9L11.8,37l-0.5-1.5
			c-0.2-0.6-0.7-1-1.3-1H9.5c-1.3,0-2.4-1.1-2.4-2.3v-9.4c0-1.3,1.1-2.4,2.4-2.4h10.3c0-0.9,0-1.9-0.1-2.8H9.5
			c-2.8,0-5.1,2.3-5.1,5.1v9.4c0,2.6,2,4.8,4.6,5.1l1.3,4.5c0.2,0.6,0.7,1,1.3,1c0,0,0,0,0.1,0c0.6,0,1.1-0.4,1.3-0.9l1.8-4.6H24
			c2.8,0,5.1-2.3,5.1-5.1v-1.3C29,31,28.7,31,28.5,31"/>
	</g>
</g>
</svg>
