<?xml version="1.0" encoding="utf-8"?>
<!-- Generator: Adobe Illustrator 18.0.0, SVG Export Plug-In . SVG Version: 6.00 Build 0)  -->
<!DOCTYPE svg PUBLIC "-//W3C//DTD SVG 1.1//EN" "http://www.w3.org/Graphics/SVG/1.1/DTD/svg11.dtd">
<svg version="1.1" id="Layer_1" xmlns="http://www.w3.org/2000/svg" xmlns:xlink="http://www.w3.org/1999/xlink" x="0px" y="0px"
	 viewBox="0 0 50.7 50.9" style="enable-background:new 0 0 50.7 50.9;" xml:space="preserve">
<style type="text/css">
	.st0{fill:#D4C8E3;}
	.st1{fill:#333333;}
	.st2{fill:#F1EEF6;}
	.st3{fill:#808080;}
	.st4{fill:#1A1A1A;}
	.st5{fill:#E5E5E5;}
	.st6{fill:none;stroke:#FFFFFF;stroke-miterlimit:10;}
	.st7{fill:#D2C6E1;}
	.st8{fill:#4D4D4D;}
	.st9{fill:none;stroke:#B2B2B2;stroke-miterlimit:10;}
	.st10{fill:#FFFFFF;}
	.st11{fill:none;stroke:#808080;stroke-miterlimit:10;}
	.st12{fill:none;stroke:#4D4D4D;stroke-width:2.2691;stroke-linecap:round;stroke-linejoin:round;stroke-miterlimit:10;}
	.st13{fill:none;stroke:#4D4D4D;stroke-width:2.1559;stroke-linecap:round;stroke-linejoin:round;stroke-miterlimit:10;}
	.st14{fill:none;stroke:#4D4D4D;stroke-width:2.1558;stroke-linecap:round;stroke-linejoin:round;stroke-miterlimit:10;}
	.st15{fill:#241E21;}
	.st16{fill:none;stroke:#4D4D4D;stroke-width:2.1618;stroke-linecap:round;stroke-linejoin:round;stroke-miterlimit:10;}
	.st17{fill:none;stroke:#4D4D4D;stroke-width:2.5566;stroke-linecap:round;stroke-linejoin:round;stroke-miterlimit:10;}
	.st18{fill:none;stroke:#4D4D4D;stroke-width:2.3992;stroke-linecap:round;stroke-linejoin:round;stroke-miterlimit:10;}
	.st19{fill:none;stroke:#4D4D4D;stroke-width:2.607;stroke-linecap:round;stroke-linejoin:round;stroke-miterlimit:10;}
	.st20{fill:none;stroke:#4D4D4D;stroke-width:2.0373;stroke-linecap:round;stroke-linejoin:round;stroke-miterlimit:10;}
	.st21{fill:none;stroke:#4D4D4D;stroke-width:1.7268;stroke-linecap:round;stroke-linejoin:round;stroke-miterlimit:10;}
	.st22{fill:none;stroke:#4D4D4D;stroke-width:2.0207;stroke-linecap:round;stroke-linejoin:round;stroke-miterlimit:10;}
	.st23{fill:#666666;}
	.st24{fill:none;stroke:#666666;stroke-miterlimit:10;}
	.st25{fill:none;stroke:#E5E5E5;stroke-miterlimit:10;}
</style>
<g>
	<path class="st10" d="M47.4,4.6c-3-3-6.8-4.6-19.1-4.6H26h-1.3h-2.3C10,0,6.3,1.6,3.3,4.6C0.7,7.1,0,10.3,0,17.5v15.9
		c0,7.1,0.7,10.3,3.3,12.9c3,3,6.8,4.6,19.1,4.6h2.3H26h2.3c12.4,0,16.1-1.6,19.1-4.6c2.6-2.5,3.3-5.7,3.3-12.9V17.5
		C50.7,10.3,49.9,7.1,47.4,4.6"/>
	<g>
		<g>
			<path class="st8" d="M25.3,43.4c-9.9,0-17.9-8-17.9-17.9c0-9.9,8-17.9,17.9-17.9c9.9,0,17.9,8,17.9,17.9
				C43.2,35.3,35.2,43.4,25.3,43.4z M10.2,26.6c0.6,7.9,7.2,14.1,15.2,14.1c8,0,14.5-6.2,15.2-14L10.2,26.6z M10.2,24L40.5,24
				c-0.7-7.8-7.2-13.9-15.2-13.9C17.4,10.1,10.9,16.2,10.2,24z"/>
		</g>
	</g>
	<g>
		<g>
			<path class="st8" d="M25.3,43.3c-0.3,0-0.6-0.1-0.9-0.3c-6.2-5.3-9.3-11.1-9.2-17.2c0.1-9.1,7.3-15.9,9-17.3
				c0.1-0.3,0.4-0.5,0.6-0.6c0.5-0.2,1-0.1,1.4,0.2c6.2,5.3,9.3,11.1,9.2,17.2c-0.1,9.1-7.3,15.9-9,17.3c-0.1,0.3-0.4,0.5-0.6,0.6
				C25.6,43.3,25.5,43.3,25.3,43.3z M24,12.3c-2.4,2.7-6.1,7.6-6.2,13.5c-0.1,4.5,2,8.9,6.1,13.1L24,12.3z M26.7,12.1l-0.1,26.6
				c2.4-2.7,6.1-7.6,6.2-13.5C32.8,20.6,30.8,16.2,26.7,12.1z"/>
		</g>
	</g>
</g>
</svg>
