<?xml version="1.0" encoding="utf-8"?>
<!-- Generator: Adobe Illustrator 18.0.0, SVG Export Plug-In . SVG Version: 6.00 Build 0)  -->
<!DOCTYPE svg PUBLIC "-//W3C//DTD SVG 1.1//EN" "http://www.w3.org/Graphics/SVG/1.1/DTD/svg11.dtd">
<svg version="1.1" id="Layer_1" xmlns="http://www.w3.org/2000/svg" xmlns:xlink="http://www.w3.org/1999/xlink" x="0px" y="0px"
	 viewBox="0 0 50.7 50.9" style="enable-background:new 0 0 50.7 50.9;" xml:space="preserve">
<style type="text/css">
	.st0{fill:#D4C8E3;}
	.st1{fill:#333333;}
	.st2{fill:#F1EEF6;}
	.st3{fill:#808080;}
	.st4{fill:#1A1A1A;}
	.st5{fill:#E5E5E5;}
	.st6{fill:none;stroke:#FFFFFF;stroke-miterlimit:10;}
	.st7{fill:#D2C6E1;}
	.st8{fill:#4D4D4D;}
	.st9{fill:none;stroke:#B2B2B2;stroke-miterlimit:10;}
	.st10{fill:#FFFFFF;}
	.st11{fill:none;stroke:#808080;stroke-miterlimit:10;}
	.st12{fill:none;stroke:#4D4D4D;stroke-width:2.2691;stroke-linecap:round;stroke-linejoin:round;stroke-miterlimit:10;}
	.st13{fill:none;stroke:#4D4D4D;stroke-width:2.1559;stroke-linecap:round;stroke-linejoin:round;stroke-miterlimit:10;}
	.st14{fill:none;stroke:#4D4D4D;stroke-width:2.1558;stroke-linecap:round;stroke-linejoin:round;stroke-miterlimit:10;}
	.st15{fill:#241E21;}
	.st16{fill:none;stroke:#4D4D4D;stroke-width:2.1618;stroke-linecap:round;stroke-linejoin:round;stroke-miterlimit:10;}
	.st17{fill:none;stroke:#4D4D4D;stroke-width:2.5566;stroke-linecap:round;stroke-linejoin:round;stroke-miterlimit:10;}
	.st18{fill:none;stroke:#4D4D4D;stroke-width:2.3992;stroke-linecap:round;stroke-linejoin:round;stroke-miterlimit:10;}
	.st19{fill:none;stroke:#4D4D4D;stroke-width:2.607;stroke-linecap:round;stroke-linejoin:round;stroke-miterlimit:10;}
	.st20{fill:none;stroke:#4D4D4D;stroke-width:2.0373;stroke-linecap:round;stroke-linejoin:round;stroke-miterlimit:10;}
	.st21{fill:none;stroke:#4D4D4D;stroke-width:1.7268;stroke-linecap:round;stroke-linejoin:round;stroke-miterlimit:10;}
	.st22{fill:none;stroke:#4D4D4D;stroke-width:2.0207;stroke-linecap:round;stroke-linejoin:round;stroke-miterlimit:10;}
	.st23{fill:#666666;}
	.st24{fill:none;stroke:#666666;stroke-miterlimit:10;}
	.st25{fill:none;stroke:#E5E5E5;stroke-miterlimit:10;}
</style>
<g>
	<g>
		<path class="st10" d="M47.4,4.6c-3-3-6.8-4.6-19.1-4.6H26h-1.3h-2.3C10,0,6.3,1.6,3.3,4.6C0.7,7.1,0,10.3,0,17.5v15.9
			c0,7.1,0.7,10.3,3.3,12.9c3,3,6.8,4.6,19.1,4.6h2.3H26h2.3c12.4,0,16.1-1.6,19.1-4.6c2.5-2.5,3.3-5.7,3.3-12.9V17.5
			C50.7,10.3,49.9,7.1,47.4,4.6"/>
	</g>
	<g>
		<g>
			<path class="st8" d="M34.2,44.7H16.5c-3.7,0-6.7-3-6.7-6.7V21.8c0-1.1,0.3-2.1,0.7-3c0.4-0.9,0.9-1.7,1.6-2.4l8-8
				c1.4-1.4,3.2-2.2,5.2-2.2c2,0,3.8,0.8,5.2,2.2l8,8c0.7,0.7,1.2,1.5,1.6,2.4c0.5,0.9,0.7,2,0.7,3V38
				C40.9,41.7,37.9,44.7,34.2,44.7z M25.3,8.8c-1.2,0-2.4,0.5-3.3,1.4l-8,8c-0.5,0.5-0.8,1-1,1.6l-0.1,0.1c-0.3,0.6-0.5,1.2-0.5,1.9
				V38c0,2.2,1.8,4,4,4h17.7c2.2,0,4-1.8,4-4V21.8c0-0.7-0.2-1.3-0.5-1.9l-0.1-0.1c-0.2-0.6-0.6-1.1-1-1.6l-8-8
				C27.7,9.3,26.6,8.8,25.3,8.8z"/>
		</g>
		<g>
			<path class="st8" d="M34.8,39.7h-3.9c-0.7,0-1.2-0.5-1.2-1.2v-3.6c0-0.7,0.5-1.2,1.2-1.2h3.9c0.7,0,1.2,0.5,1.2,1.2v3.6
				C36.1,39.2,35.5,39.7,34.8,39.7z M32.1,37.3h1.5v-1.1h-1.5V37.3z M27.5,39.7h-3.9c-0.7,0-1.2-0.5-1.2-1.2v-3.6
				c0-0.7,0.5-1.2,1.2-1.2h3.9c0.7,0,1.2,0.5,1.2,1.2v3.6C28.7,39.2,28.2,39.7,27.5,39.7z M24.8,37.3h1.5v-1.1h-1.5V37.3z M20,39.7
				H16c-0.7,0-1.2-0.5-1.2-1.2v-3.6c0-0.7,0.5-1.2,1.2-1.2H20c0.7,0,1.2,0.5,1.2,1.2v3.6C21.2,39.2,20.7,39.7,20,39.7z M17.3,37.3
				h1.5v-1.1h-1.5V37.3z M34.8,32.7h-3.9c-0.7,0-1.2-0.5-1.2-1.2v-3.6c0-0.7,0.5-1.2,1.2-1.2h3.9c0.7,0,1.2,0.5,1.2,1.2v3.6
				C36.1,32.1,35.5,32.7,34.8,32.7z M32.1,30.2h1.5v-1.1h-1.5V30.2z M27.5,32.7h-3.9c-0.7,0-1.2-0.5-1.2-1.2v-3.6
				c0-0.7,0.5-1.2,1.2-1.2h3.9c0.7,0,1.2,0.5,1.2,1.2v3.6C28.7,32.1,28.2,32.7,27.5,32.7z M24.8,30.2h1.5v-1.1h-1.5V30.2z
				 M34.8,25.4h-3.9c-0.7,0-1.2-0.5-1.2-1.2v-3.6c0-0.7,0.5-1.2,1.2-1.2h3.9c0.7,0,1.2,0.5,1.2,1.2v3.6
				C36.1,24.9,35.5,25.4,34.8,25.4z M32.1,23h1.5v-1.1h-1.5V23z"/>
		</g>
	</g>
</g>
</svg>
