<?xml version="1.0" encoding="utf-8"?>
<!-- Generator: Adobe Illustrator 18.0.0, SVG Export Plug-In . SVG Version: 6.00 Build 0)  -->
<!DOCTYPE svg PUBLIC "-//W3C//DTD SVG 1.1//EN" "http://www.w3.org/Graphics/SVG/1.1/DTD/svg11.dtd">
<svg version="1.1" id="Layer_1" xmlns="http://www.w3.org/2000/svg" xmlns:xlink="http://www.w3.org/1999/xlink" x="0px" y="0px"
	 viewBox="0 0 50 50" style="enable-background:new 0 0 50 50;" xml:space="preserve">
<style type="text/css">
	.st0{fill:#D4C8E3;}
	.st1{fill:#333333;}
	.st2{fill:#F1EEF6;}
	.st3{fill:#808080;}
	.st4{fill:#1A1A1A;}
	.st5{fill:#E5E5E5;}
	.st6{fill:none;stroke:#FFFFFF;stroke-miterlimit:10;}
	.st7{fill:#D2C6E1;}
	.st8{fill:#4D4D4D;}
	.st9{fill:none;stroke:#B2B2B2;stroke-miterlimit:10;}
	.st10{fill:#FFFFFF;}
	.st11{fill:none;stroke:#808080;stroke-miterlimit:10;}
	.st12{fill:none;stroke:#4D4D4D;stroke-width:2.2691;stroke-linecap:round;stroke-linejoin:round;stroke-miterlimit:10;}
	.st13{fill:none;stroke:#4D4D4D;stroke-width:2.1559;stroke-linecap:round;stroke-linejoin:round;stroke-miterlimit:10;}
	.st14{fill:none;stroke:#4D4D4D;stroke-width:2.1558;stroke-linecap:round;stroke-linejoin:round;stroke-miterlimit:10;}
	.st15{fill:#241E21;}
	.st16{fill:none;stroke:#4D4D4D;stroke-width:2.1618;stroke-linecap:round;stroke-linejoin:round;stroke-miterlimit:10;}
	.st17{fill:none;stroke:#4D4D4D;stroke-width:2.5566;stroke-linecap:round;stroke-linejoin:round;stroke-miterlimit:10;}
	.st18{fill:none;stroke:#4D4D4D;stroke-width:2.3992;stroke-linecap:round;stroke-linejoin:round;stroke-miterlimit:10;}
	.st19{fill:none;stroke:#4D4D4D;stroke-width:2.607;stroke-linecap:round;stroke-linejoin:round;stroke-miterlimit:10;}
	.st20{fill:none;stroke:#4D4D4D;stroke-width:2.0373;stroke-linecap:round;stroke-linejoin:round;stroke-miterlimit:10;}
	.st21{fill:none;stroke:#4D4D4D;stroke-width:1.7268;stroke-linecap:round;stroke-linejoin:round;stroke-miterlimit:10;}
	.st22{fill:none;stroke:#4D4D4D;stroke-width:2.0207;stroke-linecap:round;stroke-linejoin:round;stroke-miterlimit:10;}
	.st23{fill:#666666;}
	.st24{fill:none;stroke:#666666;stroke-miterlimit:10;}
	.st25{fill:none;stroke:#E5E5E5;stroke-miterlimit:10;}
</style>
<path class="st0" d="M46.8,4.5c-3-3-6.7-4.5-18.9-4.5h-2.3h-1.3h-2.3C9.9,0,6.2,1.6,3.2,4.5C0.7,7,0,10.1,0,17.2v15.7
	c0,7,0.7,10.1,3.2,12.6c3,3,6.7,4.5,18.9,4.5h2.3h1.3h2.3c12.2,0,15.9-1.6,18.9-4.5C49.3,43,50,39.9,50,32.8V17.2
	C50,10.1,49.3,7,46.8,4.5"/>
<g>
	<path class="st13" d="M16.3,35.5h9.9 M15.6,32.7h9.9 M15.6,29.4h9.9 M29.1,25.4h-5.6v-5.9L29.1,25.4z M12.1,40.6V19.5h11.4l5.6,5.9
		l0,15.2H12.1z"/>
	<path class="st8" d="M32.7,14.6H15.8c-0.6,0-1.1,0.5-1.1,1.1v3.8h2.2v-2.7h14.7v18.8h-2.5c0.4,0.6,0.4,1.3,0,2c0,0-0.1,0.1-0.1,0.1
		h3.7c0.6,0,1.1-0.5,1.1-1.1V15.7C33.8,15.1,33.3,14.6,32.7,14.6"/>
	<path class="st8" d="M36.9,11.2H20c-0.6,0-1.1,0.5-1.1,1.1v2.9c0.3,0.1,0.6,0.2,0.9,0.5c-0.3-0.3,0.7-0.1,0.9-0.1
		c0.1,0,0.2,0,0.3,0v-2.3h14.7v18.8h-3.1c0.1,0.2,0.2,0.4,0.2,0.6c0.2,0.6,0,1.2-0.2,1.6h4.2c0.6,0,1.1-0.5,1.1-1.1V12.3
		C37.9,11.7,37.4,11.2,36.9,11.2"/>
</g>
</svg>
