<?xml version="1.0" encoding="utf-8"?>
<!-- Generator: Adobe Illustrator 18.0.0, SVG Export Plug-In . SVG Version: 6.00 Build 0)  -->
<!DOCTYPE svg PUBLIC "-//W3C//DTD SVG 1.1//EN" "http://www.w3.org/Graphics/SVG/1.1/DTD/svg11.dtd">
<svg version="1.1" id="Layer_1" xmlns="http://www.w3.org/2000/svg" xmlns:xlink="http://www.w3.org/1999/xlink" x="0px" y="0px"
	 viewBox="0 0 50.4 50.4" style="enable-background:new 0 0 50.4 50.4;" xml:space="preserve">
<style type="text/css">
	.st0{fill:#D4C8E3;}
	.st1{fill:#333333;}
	.st2{fill:#F1EEF6;}
	.st3{fill:#808080;}
	.st4{fill:#1A1A1A;}
	.st5{fill:#E5E5E5;}
	.st6{fill:none;stroke:#FFFFFF;stroke-miterlimit:10;}
	.st7{fill:#D2C6E1;}
	.st8{fill:#4D4D4D;}
	.st9{fill:none;stroke:#B2B2B2;stroke-miterlimit:10;}
	.st10{fill:#FFFFFF;}
	.st11{fill:none;stroke:#808080;stroke-miterlimit:10;}
	.st12{fill:none;stroke:#4D4D4D;stroke-width:2.2691;stroke-linecap:round;stroke-linejoin:round;stroke-miterlimit:10;}
	.st13{fill:none;stroke:#4D4D4D;stroke-width:2.1559;stroke-linecap:round;stroke-linejoin:round;stroke-miterlimit:10;}
	.st14{fill:none;stroke:#4D4D4D;stroke-width:2.1558;stroke-linecap:round;stroke-linejoin:round;stroke-miterlimit:10;}
	.st15{fill:#241E21;}
	.st16{fill:none;stroke:#4D4D4D;stroke-width:2.1618;stroke-linecap:round;stroke-linejoin:round;stroke-miterlimit:10;}
	.st17{fill:none;stroke:#4D4D4D;stroke-width:2.5566;stroke-linecap:round;stroke-linejoin:round;stroke-miterlimit:10;}
	.st18{fill:none;stroke:#4D4D4D;stroke-width:2.3992;stroke-linecap:round;stroke-linejoin:round;stroke-miterlimit:10;}
	.st19{fill:none;stroke:#4D4D4D;stroke-width:2.607;stroke-linecap:round;stroke-linejoin:round;stroke-miterlimit:10;}
	.st20{fill:none;stroke:#4D4D4D;stroke-width:2.0373;stroke-linecap:round;stroke-linejoin:round;stroke-miterlimit:10;}
	.st21{fill:none;stroke:#4D4D4D;stroke-width:1.7268;stroke-linecap:round;stroke-linejoin:round;stroke-miterlimit:10;}
	.st22{fill:none;stroke:#4D4D4D;stroke-width:2.0207;stroke-linecap:round;stroke-linejoin:round;stroke-miterlimit:10;}
	.st23{fill:#666666;}
	.st24{fill:none;stroke:#666666;stroke-miterlimit:10;}
	.st25{fill:none;stroke:#E5E5E5;stroke-miterlimit:10;}
</style>
<g>
	<path class="st7" d="M22.1,0C9.7,0,6,1.5,3,4.4C0.7,6.7,0,9.6,0,16.9v16.7C0,40.8,0.7,43.7,3,46C6,49,9.7,50.4,22.1,50.4h6.2
		c12.4,0,16.2-1.5,19.1-4.4c2.3-2.3,3-5.2,3-12.5V16.9c0-7.3-0.7-10.2-3-12.5C44.5,1.5,40.7,0,28.3,0H22.1z"/>
	<g>
		<g>
			<path class="st8" d="M44.3,39H6.1c-0.8,0-1.4-0.6-1.4-1.4V12.8c0-0.8,0.6-1.4,1.4-1.4h38.2c0.8,0,1.4,0.6,1.4,1.4v24.8
				C45.7,38.4,45.1,39,44.3,39z M7.5,36.2h35.4v-22H7.5V36.2z M20.2,33.3h-8.9c-0.8,0-1.4-0.6-1.4-1.3c0-0.5-0.1-5,2.2-7.4
				c0.9-1,2.1-1.5,3.5-1.5c0,0,0.1,0,0.1,0c1.4-0.1,2.7,0.5,3.6,1.5c2.3,2.4,2.2,6.9,2.2,7.4C21.6,32.7,21,33.3,20.2,33.3z
				 M12.8,30.5h6c-0.1-1.3-0.5-3.1-1.4-4c-0.4-0.4-1-0.6-1.6-0.6c-0.6,0.1-1.2,0.2-1.6,0.6C13.3,27.5,12.9,29.2,12.8,30.5z
				 M38.9,31.6H25.5c-0.8,0-1.4-0.6-1.4-1.4s0.6-1.4,1.4-1.4h13.4c0.8,0,1.4,0.6,1.4,1.4S39.7,31.6,38.9,31.6z M38.9,26.1H25.5
				c-0.8,0-1.4-0.6-1.4-1.4c0-0.8,0.6-1.4,1.4-1.4h13.4c0.8,0,1.4,0.6,1.4,1.4C40.3,25.4,39.7,26.1,38.9,26.1z M38.9,20.7H25.5
				c-0.8,0-1.4-0.6-1.4-1.4c0-0.8,0.6-1.4,1.4-1.4h13.4c0.8,0,1.4,0.6,1.4,1.4C40.3,20.1,39.7,20.7,38.9,20.7z"/>
		</g>
	</g>
	<g>
		<path class="st8" d="M15.8,16.7c-2.1,0-3.8,1.7-3.8,3.8c0,2.1,1.7,3.8,3.8,3.8c2.1,0,3.8-1.7,3.8-3.8
			C19.6,18.4,17.9,16.7,15.8,16.7 M15.8,19c0.8,0,1.5,0.7,1.5,1.5c0,0.8-0.7,1.5-1.5,1.5c-0.8,0-1.5-0.7-1.5-1.5
			C14.3,19.7,15,19,15.8,19"/>
	</g>
</g>
</svg>
