<svg xmlns="http://www.w3.org/2000/svg"><symbol id="icon-1" viewBox="0 0 128 128"><style type="text/css">.st0{fill:#333333;} .st1{fill:#F1EEF6;} .st2{fill:#808080;} .st3{fill:#1A1A1A;} .st4{fill:#E5E5E5;} .st5{fill:#D4C8E3;} .st6{fill:none;stroke:#FFFFFF;stroke-miterlimit:10;} .st7{fill:#000000;} .st8{fill:#4D4D4D;} .st9{fill:none;stroke:#B2B2B2;stroke-miterlimit:10;} .st10{fill:#FFFFFF;} .st11{fill:none;stroke:#808080;stroke-miterlimit:10;} .st12{fill:none;stroke:#4D4D4D;stroke-width:2.2691;stroke-linecap:round;stroke-linejoin:round;stroke-miterlimit:10;} .st13{fill:none;stroke:#4D4D4D;stroke-width:2.1559;stroke-linecap:round;stroke-linejoin:round;stroke-miterlimit:10;} .st14{fill:none;stroke:#4D4D4D;stroke-width:2.1558;stroke-linecap:round;stroke-linejoin:round;stroke-miterlimit:10;} .st15{fill:#241E21;} .st16{fill:none;stroke:#4D4D4D;stroke-width:2.1618;stroke-linecap:round;stroke-linejoin:round;stroke-miterlimit:10;} .st17{fill:none;stroke:#4D4D4D;stroke-width:2.5566;stroke-linecap:round;stroke-linejoin:round;stroke-miterlimit:10;} .st18{fill:none;stroke:#4D4D4D;stroke-width:2.3992;stroke-linecap:round;stroke-linejoin:round;stroke-miterlimit:10;} .st19{fill:none;stroke:#4D4D4D;stroke-width:2.607;stroke-linecap:round;stroke-linejoin:round;stroke-miterlimit:10;} .st20{fill:none;stroke:#4D4D4D;stroke-width:2.0373;stroke-linecap:round;stroke-linejoin:round;stroke-miterlimit:10;} .st21{fill:none;stroke:#4D4D4D;stroke-width:1.7268;stroke-linecap:round;stroke-linejoin:round;stroke-miterlimit:10;} .st22{fill:none;stroke:#4D4D4D;stroke-width:2.0207;stroke-linecap:round;stroke-linejoin:round;stroke-miterlimit:10;} .st23{fill:#666666;} .st24{fill:none;stroke:#666666;stroke-miterlimit:10;} .st25{fill:none;stroke:#E5E5E5;stroke-miterlimit:10;}</style><path class="st7" d="M56.2 0c-31.5 0-41 3.8-48.5 11.2C1.8 17 0 24.4 0 42.8v42.3c0 18.4 1.8 25.8 7.7 31.6 7.5 7.4 17 11.2 48.5 11.2h15.7c31.5 0 41-3.8 48.5-11.2 5.9-5.8 7.7-13.2 7.7-31.6V42.8c0-18.4-1.8-25.8-7.7-31.6C112.8 3.8 103.3 0 71.8 0H56.2z"/><path class="st8" d="M90.5 108.4h-53c-1.9 0-3.5-1.5-3.5-3.4 0-1.1-.7-27.3 11.9-40.3 4.7-4.8 10.5-7.3 17.4-7.3.2 0 .4 0 .6.1.2 0 .4-.1.6-.1 6.9 0 12.7 2.4 17.4 7.3 12.6 13 12 39.2 11.9 40.3.1 1.8-1.5 3.4-3.3 3.4zm-49.4-7.1h45.8c-.3-7.1-1.8-23.4-9.9-31.8-3.3-3.4-7.4-5.1-12.3-5.1-.2 0-.4 0-.6-.1-.2 0-.4.1-.6.1-5 0-9 1.7-12.3 5.1-8.4 8.4-9.9 24.7-10.1 31.8zM64 49.7c-8.3 0-15.1-6.7-15.1-15s6.8-15 15.1-15 15.1 6.7 15.1 15-6.8 15-15.1 15zm0-23c-4.4 0-8 3.6-8 8s3.6 8 8 8 8-3.6 8-8-3.6-8-8-8z"/></symbol><symbol id="icon-10" viewBox="0 0 128 128"><style type="text/css">.st0{fill:#333333;} .st1{fill:#F1EEF6;} .st2{fill:#808080;} .st3{fill:#1A1A1A;} .st4{fill:#E5E5E5;} .st5{fill:#D4C8E3;} .st6{fill:none;stroke:#FFFFFF;stroke-miterlimit:10;} .st7{fill:#D2C6E1;} .st8{fill:#4D4D4D;} .st9{fill:none;stroke:#B2B2B2;stroke-miterlimit:10;} .st10{fill:#FFFFFF;} .st11{fill:none;stroke:#808080;stroke-miterlimit:10;} .st12{fill:none;stroke:#4D4D4D;stroke-width:2.2691;stroke-linecap:round;stroke-linejoin:round;stroke-miterlimit:10;} .st13{fill:none;stroke:#4D4D4D;stroke-width:2.1559;stroke-linecap:round;stroke-linejoin:round;stroke-miterlimit:10;} .st14{fill:none;stroke:#4D4D4D;stroke-width:2.1558;stroke-linecap:round;stroke-linejoin:round;stroke-miterlimit:10;} .st15{fill:#241E21;} .st16{fill:none;stroke:#4D4D4D;stroke-width:2.1618;stroke-linecap:round;stroke-linejoin:round;stroke-miterlimit:10;} .st17{fill:none;stroke:#4D4D4D;stroke-width:2.5566;stroke-linecap:round;stroke-linejoin:round;stroke-miterlimit:10;} .st18{fill:none;stroke:#4D4D4D;stroke-width:2.3992;stroke-linecap:round;stroke-linejoin:round;stroke-miterlimit:10;} .st19{fill:none;stroke:#4D4D4D;stroke-width:2.607;stroke-linecap:round;stroke-linejoin:round;stroke-miterlimit:10;} .st20{fill:none;stroke:#4D4D4D;stroke-width:2.0373;stroke-linecap:round;stroke-linejoin:round;stroke-miterlimit:10;} .st21{fill:none;stroke:#4D4D4D;stroke-width:1.7268;stroke-linecap:round;stroke-linejoin:round;stroke-miterlimit:10;} .st22{fill:none;stroke:#4D4D4D;stroke-width:2.0207;stroke-linecap:round;stroke-linejoin:round;stroke-miterlimit:10;} .st23{fill:#666666;} .st24{fill:none;stroke:#666666;stroke-miterlimit:10;} .st25{fill:none;stroke:#E5E5E5;stroke-miterlimit:10;}</style><path class="st7" d="M58.2 1.9c-31.5 0-41 3.8-48.5 11.2C3.8 19 2 26.4 2 44.8v42.3c0 18.4 1.8 25.8 7.7 31.6 7.5 7.4 17 11.2 48.5 11.2h15.7c31.5 0 41-3.8 48.5-11.2 5.9-5.8 7.7-13.2 7.7-31.6V44.8c0-18.4-1.8-25.8-7.7-31.6C114.9 5.8 105.4 2 73.9 2H58.2z"/><path class="st8" d="M66 119.9c-.6 0-1.2-.2-1.7-.4-.1-.1-.3-.2-.4-.3l-43-26.9c-1-.6-1.7-1.8-1.7-3V43.5c0-1.2.7-2.3 1.8-2.9l43.1-26.7c1.1-.7 2.6-.7 3.7 0l43 26.7c1.1.6 1.8 1.7 1.8 2.9V89.3c0 1.2-.6 2.3-1.7 3l-43 26.9c-.1.1-.3.2-.4.3-.3.2-.9.4-1.5.4zM26.3 87.4L62.5 110V72.6L26.3 50v37.4zm43.2-14.8V110l36.2-22.6V50L69.5 72.6zM50.7 56.9L66 66.5l36.6-22.8-15.5-9.6-36.4 22.8zM29.4 43.7l14.7 9.2L80.5 30l-14.4-9-36.7 22.7z"/></symbol><symbol id="icon-11" viewBox="0 0 128 128"><style type="text/css">.st0{fill:#333333;} .st1{fill:#F1EEF6;} .st2{fill:#808080;} .st3{fill:#1A1A1A;} .st4{fill:#E5E5E5;} .st5{fill:#D4C8E3;} .st6{fill:none;stroke:#FFFFFF;stroke-miterlimit:10;} .st7{fill:#D2C6E1;} .st8{fill:#4D4D4D;} .st9{fill:none;stroke:#B2B2B2;stroke-miterlimit:10;} .st10{fill:#FFFFFF;} .st11{fill:none;stroke:#808080;stroke-miterlimit:10;} .st12{fill:none;stroke:#4D4D4D;stroke-width:2.2691;stroke-linecap:round;stroke-linejoin:round;stroke-miterlimit:10;} .st13{fill:none;stroke:#4D4D4D;stroke-width:2.1559;stroke-linecap:round;stroke-linejoin:round;stroke-miterlimit:10;} .st14{fill:none;stroke:#4D4D4D;stroke-width:2.1558;stroke-linecap:round;stroke-linejoin:round;stroke-miterlimit:10;} .st15{fill:#241E21;} .st16{fill:none;stroke:#4D4D4D;stroke-width:2.1618;stroke-linecap:round;stroke-linejoin:round;stroke-miterlimit:10;} .st17{fill:none;stroke:#4D4D4D;stroke-width:2.5566;stroke-linecap:round;stroke-linejoin:round;stroke-miterlimit:10;} .st18{fill:none;stroke:#4D4D4D;stroke-width:2.3992;stroke-linecap:round;stroke-linejoin:round;stroke-miterlimit:10;} .st19{fill:none;stroke:#4D4D4D;stroke-width:2.607;stroke-linecap:round;stroke-linejoin:round;stroke-miterlimit:10;} .st20{fill:none;stroke:#4D4D4D;stroke-width:2.0373;stroke-linecap:round;stroke-linejoin:round;stroke-miterlimit:10;} .st21{fill:none;stroke:#4D4D4D;stroke-width:1.7268;stroke-linecap:round;stroke-linejoin:round;stroke-miterlimit:10;} .st22{fill:none;stroke:#4D4D4D;stroke-width:2.0207;stroke-linecap:round;stroke-linejoin:round;stroke-miterlimit:10;} .st23{fill:#666666;} .st24{fill:none;stroke:#666666;stroke-miterlimit:10;} .st25{fill:none;stroke:#E5E5E5;stroke-miterlimit:10;}</style><path class="st7" d="M56.2 0c-31.5 0-41 3.8-48.5 11.2C1.8 17 0 24.4 0 42.8v42.3c0 18.4 1.8 25.8 7.7 31.6 7.5 7.4 17 11.2 48.5 11.2h15.7c31.5 0 41-3.8 48.5-11.2 5.9-5.8 7.7-13.2 7.7-31.6V42.8c0-18.4-1.8-25.8-7.7-31.6C112.8 3.8 103.3 0 71.8 0H56.2z"/><path class="st8" d="M96.9 107.6H31c-1.9 0-3.5-1.6-3.5-3.5V22.3c0-1.9 1.6-3.5 3.5-3.5h44.6c.2 0 .3.1.5.1.6.2 1.2.5 1.6 1l21.7 22.9c.6.7 1 1.5 1 2.4V104c.1 2-1.5 3.6-3.5 3.6zm-62.3-7h58.9V48.8H75.2c-1.9 0-3.5-1.6-3.5-3.5V25.9H34.6v74.7zm44.2-58.9h10l-10-10.5v10.5zm4.4 48.8H44.8c-1.9 0-3.5-1.6-3.5-3.5 0-2 1.6-3.5 3.5-3.5h38.5c1.9 0 3.5 1.6 3.5 3.5s-1.6 3.5-3.6 3.5zm0-13.4H44.8c-1.9 0-3.5-1.6-3.5-3.5s1.6-3.5 3.5-3.5h38.5c1.9 0 3.5 1.6 3.5 3.5s-1.6 3.5-3.6 3.5zm0-12.8H44.8c-1.9 0-3.5-1.6-3.5-3.5s1.6-3.5 3.5-3.5h38.5c1.9 0 3.5 1.6 3.5 3.5 0 2-1.6 3.5-3.6 3.5z"/></symbol><symbol id="icon-12" viewBox="0 0 128 128"><style type="text/css">.st0{fill:#333333;} .st1{fill:#F1EEF6;} .st2{fill:#808080;} .st3{fill:#1A1A1A;} .st4{fill:#E5E5E5;} .st5{fill:#D4C8E3;} .st6{fill:none;stroke:#FFFFFF;stroke-miterlimit:10;} .st7{fill:#D2C6E1;} .st8{fill:#4D4D4D;} .st9{fill:none;stroke:#B2B2B2;stroke-miterlimit:10;} .st10{fill:#FFFFFF;} .st11{fill:none;stroke:#808080;stroke-miterlimit:10;} .st12{fill:none;stroke:#4D4D4D;stroke-width:2.2691;stroke-linecap:round;stroke-linejoin:round;stroke-miterlimit:10;} .st13{fill:none;stroke:#4D4D4D;stroke-width:2.1559;stroke-linecap:round;stroke-linejoin:round;stroke-miterlimit:10;} .st14{fill:none;stroke:#4D4D4D;stroke-width:2.1558;stroke-linecap:round;stroke-linejoin:round;stroke-miterlimit:10;} .st15{fill:#241E21;} .st16{fill:none;stroke:#4D4D4D;stroke-width:2.1618;stroke-linecap:round;stroke-linejoin:round;stroke-miterlimit:10;} .st17{fill:none;stroke:#4D4D4D;stroke-width:2.5566;stroke-linecap:round;stroke-linejoin:round;stroke-miterlimit:10;} .st18{fill:none;stroke:#4D4D4D;stroke-width:2.3992;stroke-linecap:round;stroke-linejoin:round;stroke-miterlimit:10;} .st19{fill:none;stroke:#4D4D4D;stroke-width:2.607;stroke-linecap:round;stroke-linejoin:round;stroke-miterlimit:10;} .st20{fill:none;stroke:#4D4D4D;stroke-width:2.0373;stroke-linecap:round;stroke-linejoin:round;stroke-miterlimit:10;} .st21{fill:none;stroke:#4D4D4D;stroke-width:1.7268;stroke-linecap:round;stroke-linejoin:round;stroke-miterlimit:10;} .st22{fill:none;stroke:#4D4D4D;stroke-width:2.0207;stroke-linecap:round;stroke-linejoin:round;stroke-miterlimit:10;} .st23{fill:#666666;} .st24{fill:none;stroke:#666666;stroke-miterlimit:10;} .st25{fill:none;stroke:#E5E5E5;stroke-miterlimit:10;}</style><path class="st7" d="M56.2 0c-31.5 0-41 3.8-48.5 11.2C1.8 17 0 24.4 0 42.8v42.3c0 18.4 1.8 25.8 7.7 31.6 7.5 7.4 17 11.2 48.5 11.2h15.7c31.5 0 41-3.8 48.5-11.2 5.9-5.8 7.7-13.2 7.7-31.6V42.8c0-18.4-1.8-25.8-7.7-31.6C112.8 3.8 103.3 0 71.8 0H56.2z"/><path class="st8" d="M32.1 102.6c-1.3 0-2.6-.8-3.2-2L15 72.4c-.9-1.7-.2-3.9 1.6-4.7 1.7-.9 3.9-.1 4.7 1.6l10.5 21.3 25.7-61.1c.5-1.3 1.7-2.1 3.1-2.2 1.3 0 2.6.6 3.3 1.8l23.3 43.1 10.4-19.4c.6-1.2 2-1.9 3.2-1.9 1.3 0 2.5.9 3.1 2.1l9.1 20.3c.8 1.8 0 3.9-1.8 4.7-1.8.8-3.9 0-4.7-1.8l-6.2-13.8-10 19c-.6 1.1-1.8 1.9-3.1 1.9s-2.5-.7-3.1-1.8L61.2 39l-25.8 61.5c-.5 1.3-1.8 2.1-3.1 2.2-.1-.1-.2-.1-.2-.1z"/></symbol><symbol id="icon-13" viewBox="0 0 128 128"><style type="text/css">.st0{fill:#333333;} .st1{fill:#F1EEF6;} .st2{fill:#808080;} .st3{fill:#1A1A1A;} .st4{fill:#E5E5E5;} .st5{fill:#D4C8E3;} .st6{fill:none;stroke:#FFFFFF;stroke-miterlimit:10;} .st7{fill:#D2C6E1;} .st8{fill:#4D4D4D;} .st9{fill:none;stroke:#B2B2B2;stroke-miterlimit:10;} .st10{fill:#FFFFFF;} .st11{fill:none;stroke:#808080;stroke-miterlimit:10;} .st12{fill:none;stroke:#4D4D4D;stroke-width:2.2691;stroke-linecap:round;stroke-linejoin:round;stroke-miterlimit:10;} .st13{fill:none;stroke:#4D4D4D;stroke-width:2.1559;stroke-linecap:round;stroke-linejoin:round;stroke-miterlimit:10;} .st14{fill:none;stroke:#4D4D4D;stroke-width:2.1558;stroke-linecap:round;stroke-linejoin:round;stroke-miterlimit:10;} .st15{fill:#241E21;} .st16{fill:none;stroke:#4D4D4D;stroke-width:2.1618;stroke-linecap:round;stroke-linejoin:round;stroke-miterlimit:10;} .st17{fill:none;stroke:#4D4D4D;stroke-width:2.5566;stroke-linecap:round;stroke-linejoin:round;stroke-miterlimit:10;} .st18{fill:none;stroke:#4D4D4D;stroke-width:2.3992;stroke-linecap:round;stroke-linejoin:round;stroke-miterlimit:10;} .st19{fill:none;stroke:#4D4D4D;stroke-width:2.607;stroke-linecap:round;stroke-linejoin:round;stroke-miterlimit:10;} .st20{fill:none;stroke:#4D4D4D;stroke-width:2.0373;stroke-linecap:round;stroke-linejoin:round;stroke-miterlimit:10;} .st21{fill:none;stroke:#4D4D4D;stroke-width:1.7268;stroke-linecap:round;stroke-linejoin:round;stroke-miterlimit:10;} .st22{fill:none;stroke:#4D4D4D;stroke-width:2.0207;stroke-linecap:round;stroke-linejoin:round;stroke-miterlimit:10;} .st23{fill:#666666;} .st24{fill:none;stroke:#666666;stroke-miterlimit:10;} .st25{fill:none;stroke:#E5E5E5;stroke-miterlimit:10;}</style><path class="st7" d="M56.2 0c-31.5 0-41 3.8-48.5 11.2C1.8 17 0 24.4 0 42.8v42.3c0 18.4 1.8 25.8 7.7 31.6 7.5 7.4 17 11.2 48.5 11.2h15.7c31.5 0 41-3.8 48.5-11.2 5.9-5.8 7.7-13.2 7.7-31.6V42.8c0-18.4-1.8-25.8-7.7-31.6C112.8 3.8 103.3 0 71.8 0H56.2z"/><path class="st8" d="M82.3 98.9c-2.4 1.2-5.3 2.3-11.5 2.3-13.2 0-21.2-8.3-23.9-23.1H40c-1.3 0-2.1-.8-2.1-2.2v-3.3c0-1.4.8-2.2 2.1-2.2h6.1C46 69 46 67.6 46 66c0-1.1 0-2.2.1-3.3H40c-1.3 0-2.1-.8-2.1-2.1v-3.3c0-1.4.8-2.2 2.1-2.2h6.9c2.9-14.8 11.7-23.3 24.5-23.3 4 0 8.1.6 11 2.2 1 .6 1.1 1.7.8 3l-.9 3.6c-.3 1.1-1.5 1.4-2.8.8-2.3-1.1-4.7-1.9-7.8-1.9-8.9 0-14.1 4.8-15.9 15.6h15.7c1.4 0 2.2.8 2.2 2.2v3.3c0 1.3-.8 2.1-2.2 2.1H55.1c0 1.1-.1 2.2-.1 3.4 0 1.5 0 3 .1 4.3h16.4c1.4 0 2.2.8 2.2 2.2v3.3c0 1.3-.8 2.2-2.2 2.2H56.1c2.2 10.6 7.7 15.3 15.4 15.3 2.7 0 6.6-1.1 8.4-1.9 1.2-.6 2.3-.2 2.5.7l.8 4.3c.2 1.1-.1 2-.9 2.4"/></symbol><symbol id="icon-14" viewBox="0 0 128 128"><style type="text/css">.st0{fill:#333333;} .st1{fill:#F1EEF6;} .st2{fill:#808080;} .st3{fill:#1A1A1A;} .st4{fill:#E5E5E5;} .st5{fill:#D4C8E3;} .st6{fill:none;stroke:#FFFFFF;stroke-miterlimit:10;} .st7{fill:#D2C6E1;} .st8{fill:#4D4D4D;} .st9{fill:none;stroke:#B2B2B2;stroke-miterlimit:10;} .st10{fill:#FFFFFF;} .st11{fill:none;stroke:#808080;stroke-miterlimit:10;} .st12{fill:none;stroke:#4D4D4D;stroke-width:2.2691;stroke-linecap:round;stroke-linejoin:round;stroke-miterlimit:10;} .st13{fill:none;stroke:#4D4D4D;stroke-width:2.1559;stroke-linecap:round;stroke-linejoin:round;stroke-miterlimit:10;} .st14{fill:none;stroke:#4D4D4D;stroke-width:2.1558;stroke-linecap:round;stroke-linejoin:round;stroke-miterlimit:10;} .st15{fill:#241E21;} .st16{fill:none;stroke:#4D4D4D;stroke-width:2.1618;stroke-linecap:round;stroke-linejoin:round;stroke-miterlimit:10;} .st17{fill:none;stroke:#4D4D4D;stroke-width:2.5566;stroke-linecap:round;stroke-linejoin:round;stroke-miterlimit:10;} .st18{fill:none;stroke:#4D4D4D;stroke-width:2.3992;stroke-linecap:round;stroke-linejoin:round;stroke-miterlimit:10;} .st19{fill:none;stroke:#4D4D4D;stroke-width:2.607;stroke-linecap:round;stroke-linejoin:round;stroke-miterlimit:10;} .st20{fill:none;stroke:#4D4D4D;stroke-width:2.0373;stroke-linecap:round;stroke-linejoin:round;stroke-miterlimit:10;} .st21{fill:none;stroke:#4D4D4D;stroke-width:1.7268;stroke-linecap:round;stroke-linejoin:round;stroke-miterlimit:10;} .st22{fill:none;stroke:#4D4D4D;stroke-width:2.0207;stroke-linecap:round;stroke-linejoin:round;stroke-miterlimit:10;} .st23{fill:#666666;} .st24{fill:none;stroke:#666666;stroke-miterlimit:10;} .st25{fill:none;stroke:#E5E5E5;stroke-miterlimit:10;}</style><path class="st7" d="M56.2 0c-31.5 0-41 3.8-48.5 11.2C1.8 17 0 24.4 0 42.8v42.3c0 18.4 1.8 25.8 7.7 31.6 7.5 7.4 17 11.2 48.5 11.2h15.7c31.5 0 41-3.8 48.5-11.2 5.9-5.8 7.7-13.2 7.7-31.6V42.8c0-18.4-1.8-25.8-7.7-31.6C112.8 3.8 103.3 0 71.8 0H56.2z"/><path class="st8" d="M44.3 85.2c-.6 0-1.3-.2-1.9-.5L16.1 68c-1.1-.7-1.7-1.9-1.6-3.1 0-1.2.6-2.4 1.6-3.1l26.4-16.6c1.6-1 3.8-.5 4.9 1.1 1 1.6.5 3.8-1.1 4.9L24.4 64.9l21.8 13.7c1.6 1 2.1 3.2 1.1 4.9-.6 1.1-1.8 1.7-3 1.7zM54.3 95.3c-.4 0-.8-.1-1.1-.2-1.7-.6-2.6-2.5-2-4.2L71 36.8c.6-1.7 2.5-2.6 4.2-2 1.7.6 2.6 2.5 2 4.2L57.4 93.1c-.5 1.3-1.7 2.2-3.1 2.2zM83.7 85.2c-1.2 0-2.3-.6-3-1.6-1-1.6-.5-3.8 1.1-4.9L103.6 65 81.8 51.2c-1.6-1-2.1-3.2-1.1-4.9 1-1.6 3.2-2.1 4.9-1.1L112 61.8c1.1.7 1.7 1.9 1.6 3.1 0 1.2-.5 2.4-1.6 3.1L85.5 84.6c-.6.4-1.2.6-1.8.6z"/></symbol><symbol id="icon-15" viewBox="0 0 128 128"><style type="text/css">.st0{fill:#333333;} .st1{fill:#F1EEF6;} .st2{fill:#808080;} .st3{fill:#1A1A1A;} .st4{fill:#E5E5E5;} .st5{fill:#D4C8E3;} .st6{fill:none;stroke:#FFFFFF;stroke-miterlimit:10;} .st7{fill:#D2C6E1;} .st8{fill:#4D4D4D;} .st9{fill:none;stroke:#B2B2B2;stroke-miterlimit:10;} .st10{fill:#FFFFFF;} .st11{fill:none;stroke:#808080;stroke-miterlimit:10;} .st12{fill:none;stroke:#4D4D4D;stroke-width:2.2691;stroke-linecap:round;stroke-linejoin:round;stroke-miterlimit:10;} .st13{fill:none;stroke:#4D4D4D;stroke-width:2.1559;stroke-linecap:round;stroke-linejoin:round;stroke-miterlimit:10;} .st14{fill:none;stroke:#4D4D4D;stroke-width:2.1558;stroke-linecap:round;stroke-linejoin:round;stroke-miterlimit:10;} .st15{fill:#241E21;} .st16{fill:none;stroke:#4D4D4D;stroke-width:2.1618;stroke-linecap:round;stroke-linejoin:round;stroke-miterlimit:10;} .st17{fill:none;stroke:#4D4D4D;stroke-width:2.5566;stroke-linecap:round;stroke-linejoin:round;stroke-miterlimit:10;} .st18{fill:none;stroke:#4D4D4D;stroke-width:2.3992;stroke-linecap:round;stroke-linejoin:round;stroke-miterlimit:10;} .st19{fill:none;stroke:#4D4D4D;stroke-width:2.607;stroke-linecap:round;stroke-linejoin:round;stroke-miterlimit:10;} .st20{fill:none;stroke:#4D4D4D;stroke-width:2.0373;stroke-linecap:round;stroke-linejoin:round;stroke-miterlimit:10;} .st21{fill:none;stroke:#4D4D4D;stroke-width:1.7268;stroke-linecap:round;stroke-linejoin:round;stroke-miterlimit:10;} .st22{fill:none;stroke:#4D4D4D;stroke-width:2.0207;stroke-linecap:round;stroke-linejoin:round;stroke-miterlimit:10;} .st23{fill:#666666;} .st24{fill:none;stroke:#666666;stroke-miterlimit:10;} .st25{fill:none;stroke:#E5E5E5;stroke-miterlimit:10;}</style><path class="st7" d="M56.2-.2C24.7-.2 15.2 3.6 7.7 11 1.8 16.8 0 24.3 0 42.7v42.5c0 18.5 1.8 25.9 7.7 31.7 7.5 7.5 17 11.2 48.5 11.2h15.7c31.5 0 41-3.8 48.5-11.2 5.9-5.9 7.7-13.3 7.7-31.7V42.7c0-18.5-1.8-25.9-7.7-31.8-7.5-7.5-17-11.2-48.5-11.2H56.2z"/><path class="st8" d="M90.9 111.5c-2 0-3.5-1.6-3.5-3.5v-3.4c-3.2-.5-6.1-1.8-8.6-3.5l-2.3 2.4c-1.4 1.4-3.6 1.4-5 0s-1.4-3.6 0-5l2.3-2.3c-1.9-2.5-3.2-5.5-3.8-8.7h-3c-1.9 0-3.5-1.6-3.5-3.5s1.6-3.5 3.5-3.5h2.9c.5-3.3 1.7-6.4 3.6-9.1l-1.9-1.9c-1.4-1.4-1.4-3.6 0-5s3.6-1.4 5 0l1.9 1.9c2.6-1.9 5.7-3.3 9.1-3.9v-2.6c0-2 1.6-3.5 3.5-3.5s3.5 1.6 3.5 3.5v2.6c3.4.6 6.5 1.9 9.1 3.9l1.9-1.9c1.4-1.4 3.6-1.4 5 0s1.4 3.6 0 5l-1.9 1.9c1.8 2.6 3.1 5.7 3.6 9.1h2.9c1.9 0 3.5 1.6 3.5 3.5s-1.6 3.5-3.5 3.5h-3c-.6 3.2-1.9 6.2-3.8 8.7l2.3 2.3c1.4 1.4 1.4 3.6 0 5s-3.6 1.4-5 0l-2.3-2.4c-2.5 1.8-5.5 3-8.6 3.5v3.4c-.4 2-2 3.5-3.9 3.5zm0-42.3c-7.9 0-14.3 6.4-14.3 14.3S83 97.8 90.9 97.8s14.3-6.4 14.3-14.3-6.4-14.3-14.3-14.3zM41.8 85.4c-1.9 0-3.5-1.6-3.5-3.5v-5.2c-4.5-.6-8.7-2.4-12.2-5l-3.6 3.6c-1.4 1.4-3.6 1.4-5 0s-1.4-3.6 0-5l3.5-3.6c-2.7-3.5-4.6-7.7-5.3-12.3H11c-1.9 0-3.5-1.6-3.5-3.5 0-2 1.6-3.5 3.5-3.5h4.6c.5-4.7 2.3-9.1 5-12.7l-3.1-3.1c-1.4-1.4-1.4-3.6 0-5s3.6-1.4 5 0l3 3c3.6-2.9 8-4.8 12.8-5.4V20c0-1.9 1.6-3.5 3.5-3.5s3.5 1.6 3.5 3.5v4.1c4.8.6 9.2 2.6 12.8 5.4l3-3c1.4-1.4 3.6-1.4 5 0s1.4 3.6 0 5L63 34.6c2.7 3.6 4.5 8 5 12.7h4.6c1.9 0 3.5 1.6 3.5 3.5s-1.6 3.5-3.5 3.5h-4.7c-.7 4.6-2.6 8.8-5.3 12.3l3.5 3.5c1.4 1.4 1.4 3.6 0 5s-3.6 1.4-5 0l-3.6-3.6c-3.5 2.6-7.6 4.4-12.2 5v5.2c0 2.1-1.5 3.7-3.5 3.7zm0-54.4c-10.7 0-19.3 8.7-19.3 19.4s8.7 19.4 19.3 19.4c10.7 0 19.3-8.7 19.3-19.4.1-10.7-8.6-19.4-19.3-19.4z"/></symbol><symbol id="icon-2" viewBox="0 0 128 128"><style type="text/css">.st0{fill:#333333;} .st1{fill:#F1EEF6;} .st2{fill:#808080;} .st3{fill:#1A1A1A;} .st4{fill:#E5E5E5;} .st5{fill:#D4C8E3;} .st6{fill:none;stroke:#FFFFFF;stroke-miterlimit:10;} .st7{fill:#D2C6E1;} .st8{fill:#4D4D4D;} .st9{fill:none;stroke:#B2B2B2;stroke-miterlimit:10;} .st10{fill:#FFFFFF;} .st11{fill:none;stroke:#808080;stroke-miterlimit:10;} .st12{fill:none;stroke:#4D4D4D;stroke-width:2.2691;stroke-linecap:round;stroke-linejoin:round;stroke-miterlimit:10;} .st13{fill:none;stroke:#4D4D4D;stroke-width:2.1559;stroke-linecap:round;stroke-linejoin:round;stroke-miterlimit:10;} .st14{fill:none;stroke:#4D4D4D;stroke-width:2.1558;stroke-linecap:round;stroke-linejoin:round;stroke-miterlimit:10;} .st15{fill:#241E21;} .st16{fill:none;stroke:#4D4D4D;stroke-width:2.1618;stroke-linecap:round;stroke-linejoin:round;stroke-miterlimit:10;} .st17{fill:none;stroke:#4D4D4D;stroke-width:2.5566;stroke-linecap:round;stroke-linejoin:round;stroke-miterlimit:10;} .st18{fill:none;stroke:#4D4D4D;stroke-width:2.3992;stroke-linecap:round;stroke-linejoin:round;stroke-miterlimit:10;} .st19{fill:none;stroke:#4D4D4D;stroke-width:2.607;stroke-linecap:round;stroke-linejoin:round;stroke-miterlimit:10;} .st20{fill:none;stroke:#4D4D4D;stroke-width:2.0373;stroke-linecap:round;stroke-linejoin:round;stroke-miterlimit:10;} .st21{fill:none;stroke:#4D4D4D;stroke-width:1.7268;stroke-linecap:round;stroke-linejoin:round;stroke-miterlimit:10;} .st22{fill:none;stroke:#4D4D4D;stroke-width:2.0207;stroke-linecap:round;stroke-linejoin:round;stroke-miterlimit:10;} .st23{fill:#666666;} .st24{fill:none;stroke:#666666;stroke-miterlimit:10;} .st25{fill:none;stroke:#E5E5E5;stroke-miterlimit:10;}</style><path class="st10" d="M119.7 11.4C112.1 3.8 102.6-.2 71.4-.2H56.5c-31.2 0-40.7 4-48.3 11.6C1.8 17.8 0 25.8 0 43.9v40.3c0 18 1.8 26.1 8.3 32.5 7.6 7.6 17.1 11.6 48.3 11.6H71.5c31.2 0 40.7-4 48.3-11.6 6.4-6.4 8.3-14.4 8.3-32.5V43.9c-.1-18.1-1.9-26.1-8.4-32.5"/><path class="st8" d="M64 109.3C39.1 109.3 18.9 89 18.9 64c0-25 20.3-45.3 45.1-45.3 24.9 0 45.1 20.3 45.1 45.3 0 25-20.2 45.3-45.1 45.3zM25.7 67c1.5 19.9 18.1 35.6 38.3 35.6 20.1 0 36.7-15.6 38.3-35.4L25.7 67zm0-6.7l76.6.2C100.5 40.8 84 25.4 64 25.4c-20 0-36.4 15.4-38.3 34.9zM63.9 109.2c-.8 0-1.6-.3-2.2-.8C46 95 38.2 80.4 38.4 65c.3-23 18.4-40.1 22.6-43.8.3-.7.9-1.3 1.6-1.6 1.2-.5 2.6-.4 3.6.5C81.9 33.4 89.7 48 89.5 63.4c-.3 23-18.4 40.1-22.6 43.8-.3.7-.9 1.3-1.6 1.6-.5.3-1 .4-1.4.4zm-3.2-78.3c-6.2 6.7-15.4 19.2-15.6 34.2-.1 11.5 5 22.6 15.4 33.1l.2-67.3zm6.7-.7l-.2 67.3c6.2-6.7 15.4-19.2 15.6-34.2.2-11.5-5-22.6-15.4-33.1z"/></symbol><symbol id="icon-3" viewBox="0 0 128 128"><style type="text/css">.st0{fill:#333333;} .st1{fill:#F1EEF6;} .st2{fill:#808080;} .st3{fill:#1A1A1A;} .st4{fill:#E5E5E5;} .st5{fill:#D4C8E3;} .st6{fill:none;stroke:#FFFFFF;stroke-miterlimit:10;} .st7{fill:#D2C6E1;} .st8{fill:#4D4D4D;} .st9{fill:none;stroke:#B2B2B2;stroke-miterlimit:10;} .st10{fill:#FFFFFF;} .st11{fill:none;stroke:#808080;stroke-miterlimit:10;} .st12{fill:none;stroke:#4D4D4D;stroke-width:2.2691;stroke-linecap:round;stroke-linejoin:round;stroke-miterlimit:10;} .st13{fill:none;stroke:#4D4D4D;stroke-width:2.1559;stroke-linecap:round;stroke-linejoin:round;stroke-miterlimit:10;} .st14{fill:none;stroke:#4D4D4D;stroke-width:2.1558;stroke-linecap:round;stroke-linejoin:round;stroke-miterlimit:10;} .st15{fill:#241E21;} .st16{fill:none;stroke:#4D4D4D;stroke-width:2.1618;stroke-linecap:round;stroke-linejoin:round;stroke-miterlimit:10;} .st17{fill:none;stroke:#4D4D4D;stroke-width:2.5566;stroke-linecap:round;stroke-linejoin:round;stroke-miterlimit:10;} .st18{fill:none;stroke:#4D4D4D;stroke-width:2.3992;stroke-linecap:round;stroke-linejoin:round;stroke-miterlimit:10;} .st19{fill:none;stroke:#4D4D4D;stroke-width:2.607;stroke-linecap:round;stroke-linejoin:round;stroke-miterlimit:10;} .st20{fill:none;stroke:#4D4D4D;stroke-width:2.0373;stroke-linecap:round;stroke-linejoin:round;stroke-miterlimit:10;} .st21{fill:none;stroke:#4D4D4D;stroke-width:1.7268;stroke-linecap:round;stroke-linejoin:round;stroke-miterlimit:10;} .st22{fill:none;stroke:#4D4D4D;stroke-width:2.0207;stroke-linecap:round;stroke-linejoin:round;stroke-miterlimit:10;} .st23{fill:#666666;} .st24{fill:none;stroke:#666666;stroke-miterlimit:10;} .st25{fill:none;stroke:#E5E5E5;stroke-miterlimit:10;}</style><path class="st10" d="M119.7 11.4C112.1 3.8 102.6-.2 71.4-.2H56.5c-31.2 0-40.7 4-48.3 11.6C1.8 17.8 0 25.8 0 43.9v40.3c0 18 1.8 26.1 8.3 32.5 7.6 7.6 17.1 11.6 48.3 11.6H71.5c31.2 0 40.7-4 48.3-11.6 6.4-6.4 8.3-14.4 8.3-32.5V43.9c-.1-18.1-1.9-26.1-8.4-32.5"/><path class="st8" d="M86.4 112.6H41.6c-9.3 0-16.9-7.6-16.9-16.9v-41c0-2.7.6-5.3 1.9-7.7.9-2.3 2.3-4.3 4-6.1l20.2-20.3c3.5-3.5 8.2-5.4 13.1-5.4 5 0 9.6 1.9 13.1 5.4L97.3 41c1.7 1.8 3.1 3.8 4 6.1 1.2 2.4 1.9 5 1.9 7.7v41c0 9.2-7.5 16.8-16.8 16.8zM64 21.9c-3.1 0-6.1 1.2-8.3 3.5L35.4 45.7c-1.1 1.1-2 2.5-2.6 4l-.1.3c-.8 1.5-1.2 3.1-1.2 4.7v41c0 5.6 4.5 10.2 10.1 10.2h44.8c5.6 0 10.1-4.6 10.1-10.2v-41c0-1.7-.4-3.2-1.2-4.7l-.1-.3c-.6-1.5-1.5-2.8-2.6-4L72.3 25.4c-2.2-2.2-5.2-3.5-8.3-3.5zM88 100.1H78c-1.7 0-3.1-1.4-3.1-3.1v-9c0-1.7 1.4-3.1 3.1-3.1h10c1.7 0 3.1 1.4 3.1 3.1v9c0 1.7-1.4 3.1-3.1 3.1zM81.1 94H85v-2.9h-3.8V94zm-11.6 6.1h-10c-1.7 0-3.1-1.4-3.1-3.1v-9c0-1.7 1.4-3.1 3.1-3.1h10c1.7 0 3.1 1.4 3.1 3.1v9c0 1.7-1.4 3.1-3.1 3.1zM62.6 94h3.8v-2.9h-3.8V94zm-12.1 6.1h-10c-1.7 0-3.1-1.4-3.1-3.1v-9c0-1.7 1.4-3.1 3.1-3.1h10c1.7 0 3.1 1.4 3.1 3.1v9c-.1 1.7-1.4 3.1-3.1 3.1zM43.6 94h3.8v-2.9h-3.8V94zM88 82.3H78c-1.7 0-3.1-1.4-3.1-3.1v-9c0-1.7 1.4-3.1 3.1-3.1h10c1.7 0 3.1 1.4 3.1 3.1v9c0 1.7-1.4 3.1-3.1 3.1zm-6.9-6.2H85v-2.9h-3.8v2.9zm-11.6 6.2h-10c-1.7 0-3.1-1.4-3.1-3.1v-9c0-1.7 1.4-3.1 3.1-3.1h10c1.7 0 3.1 1.4 3.1 3.1v9c0 1.7-1.4 3.1-3.1 3.1zm-6.9-6.2h3.8v-2.9h-3.8v2.9zM88 64H78c-1.6 0-3-1.4-3-3v-9c0-1.7 1.4-3.1 3.1-3.1h10c1.7 0 3.1 1.4 3.1 3.1v9c-.1 1.6-1.5 3-3.2 3zm-6.9-6.1H85V55h-3.8v2.9z"/></symbol><symbol id="icon-4" viewBox="0 0 128 128"><style type="text/css">.st0{fill:#333333;} .st1{fill:#F1EEF6;} .st2{fill:#808080;} .st3{fill:#1A1A1A;} .st4{fill:#E5E5E5;} .st5{fill:#D4C8E3;} .st6{fill:none;stroke:#FFFFFF;stroke-miterlimit:10;} .st7{fill:#D2C6E1;} .st8{fill:#4D4D4D;} .st9{fill:none;stroke:#B2B2B2;stroke-miterlimit:10;} .st10{fill:#FFFFFF;} .st11{fill:none;stroke:#808080;stroke-miterlimit:10;} .st12{fill:none;stroke:#4D4D4D;stroke-width:2.2691;stroke-linecap:round;stroke-linejoin:round;stroke-miterlimit:10;} .st13{fill:none;stroke:#4D4D4D;stroke-width:2.1559;stroke-linecap:round;stroke-linejoin:round;stroke-miterlimit:10;} .st14{fill:none;stroke:#4D4D4D;stroke-width:2.1558;stroke-linecap:round;stroke-linejoin:round;stroke-miterlimit:10;} .st15{fill:#241E21;} .st16{fill:none;stroke:#4D4D4D;stroke-width:2.1618;stroke-linecap:round;stroke-linejoin:round;stroke-miterlimit:10;} .st17{fill:none;stroke:#4D4D4D;stroke-width:2.5566;stroke-linecap:round;stroke-linejoin:round;stroke-miterlimit:10;} .st18{fill:none;stroke:#4D4D4D;stroke-width:2.3992;stroke-linecap:round;stroke-linejoin:round;stroke-miterlimit:10;} .st19{fill:none;stroke:#4D4D4D;stroke-width:2.607;stroke-linecap:round;stroke-linejoin:round;stroke-miterlimit:10;} .st20{fill:none;stroke:#4D4D4D;stroke-width:2.0373;stroke-linecap:round;stroke-linejoin:round;stroke-miterlimit:10;} .st21{fill:none;stroke:#4D4D4D;stroke-width:1.7268;stroke-linecap:round;stroke-linejoin:round;stroke-miterlimit:10;} .st22{fill:none;stroke:#4D4D4D;stroke-width:2.0207;stroke-linecap:round;stroke-linejoin:round;stroke-miterlimit:10;} .st23{fill:#666666;} .st24{fill:none;stroke:#666666;stroke-miterlimit:10;} .st25{fill:none;stroke:#E5E5E5;stroke-miterlimit:10;}</style><path class="st10" d="M119.7 11.4C112.1 3.8 102.6-.2 71.4-.2H56.5c-31.2 0-40.7 4-48.3 11.6C1.8 17.8 0 25.8 0 43.9v40.3c0 18 1.8 26.1 8.3 32.5 7.6 7.6 17.1 11.6 48.3 11.6H71.5c31.2 0 40.7-4 48.3-11.6 6.4-6.4 8.3-14.4 8.3-32.5V43.9c-.1-18.1-1.9-26.1-8.4-32.5"/><path class="st8" d="M46.3 107c-1 0-2.1-.3-3-1L20.1 87.7c-2.1-1.6-2.4-4.6-.8-6.7 1.6-2.1 4.6-2.4 6.7-.8l19.6 15.4 55.7-66.8c1.7-2 4.7-2.3 6.7-.6 2 1.7 2.3 4.7.6 6.7L50 105.3c-1 1.1-2.3 1.7-3.7 1.7z"/></symbol><symbol id="icon-5" viewBox="0 0 128 128"><style type="text/css">.st0{fill:#333333;} .st1{fill:#F1EEF6;} .st2{fill:#808080;} .st3{fill:#1A1A1A;} .st4{fill:#E5E5E5;} .st5{fill:#D4C8E3;} .st6{fill:none;stroke:#FFFFFF;stroke-miterlimit:10;} .st7{fill:#D2C6E1;} .st8{fill:#4D4D4D;} .st9{fill:none;stroke:#B2B2B2;stroke-miterlimit:10;} .st10{fill:#FFFFFF;} .st11{fill:none;stroke:#808080;stroke-miterlimit:10;} .st12{fill:none;stroke:#4D4D4D;stroke-width:2.2691;stroke-linecap:round;stroke-linejoin:round;stroke-miterlimit:10;} .st13{fill:none;stroke:#4D4D4D;stroke-width:2.1559;stroke-linecap:round;stroke-linejoin:round;stroke-miterlimit:10;} .st14{fill:none;stroke:#4D4D4D;stroke-width:2.1558;stroke-linecap:round;stroke-linejoin:round;stroke-miterlimit:10;} .st15{fill:#241E21;} .st16{fill:none;stroke:#4D4D4D;stroke-width:2.1618;stroke-linecap:round;stroke-linejoin:round;stroke-miterlimit:10;} .st17{fill:none;stroke:#4D4D4D;stroke-width:2.5566;stroke-linecap:round;stroke-linejoin:round;stroke-miterlimit:10;} .st18{fill:none;stroke:#4D4D4D;stroke-width:2.3992;stroke-linecap:round;stroke-linejoin:round;stroke-miterlimit:10;} .st19{fill:none;stroke:#4D4D4D;stroke-width:2.607;stroke-linecap:round;stroke-linejoin:round;stroke-miterlimit:10;} .st20{fill:none;stroke:#4D4D4D;stroke-width:2.0373;stroke-linecap:round;stroke-linejoin:round;stroke-miterlimit:10;} .st21{fill:none;stroke:#4D4D4D;stroke-width:1.7268;stroke-linecap:round;stroke-linejoin:round;stroke-miterlimit:10;} .st22{fill:none;stroke:#4D4D4D;stroke-width:2.0207;stroke-linecap:round;stroke-linejoin:round;stroke-miterlimit:10;} .st23{fill:#666666;} .st24{fill:none;stroke:#666666;stroke-miterlimit:10;} .st25{fill:none;stroke:#E5E5E5;stroke-miterlimit:10;}</style><path class="st10" d="M119.7 11.4C112.1 3.8 102.6-.2 71.4-.2H56.5c-31.2 0-40.7 4-48.3 11.6C1.8 17.8 0 25.8 0 43.9v40.3c0 18 1.8 26.1 8.3 32.5 7.6 7.6 17.1 11.6 48.3 11.6H71.5c31.2 0 40.7-4 48.3-11.6 6.4-6.4 8.3-14.4 8.3-32.5V43.9c-.1-18.1-1.9-26.1-8.4-32.5"/><path class="st8" d="M85.9 98.3c-2.5 1.3-5.6 2.5-12.1 2.5-13.8 0-22.3-8.7-25.1-24.4h-7.3c-1.4 0-2.2-.9-2.2-2.3v-3.4c0-1.5.9-2.4 2.2-2.4h6.4c-.1-1.5-.1-3-.1-4.6 0-1.2 0-2.4.1-3.4h-6.4c-1.4 0-2.2-.9-2.2-2.3v-3.4c0-1.5.9-2.4 2.2-2.4h7.3c3-15.6 12.3-24.5 25.7-24.5 4.2 0 8.5.7 11.6 2.4 1.1.6 1.2 1.8.9 3.1l-1 3.8c-.3 1.2-1.6 1.5-2.9.9-2.5-1.2-4.9-2-8.3-2-9.3 0-14.8 5.1-16.7 16.5h16.5c1.5 0 2.4.9 2.4 2.4V58c0 1.4-.9 2.3-2.4 2.3H57.3c0 1.2-.1 2.4-.1 3.5 0 1.6 0 3.1.1 4.5h17.3c1.5 0 2.4.9 2.4 2.4v3.4c0 1.4-.9 2.3-2.4 2.3H58.4c2.4 11.2 8.1 16.1 16.2 16.1 2.9 0 7-1.2 8.8-2 1.3-.6 2.5-.2 2.7.8l.9 4.5c.1 1.2-.2 2.1-1.1 2.5"/></symbol><symbol id="icon-6" viewBox="0 0 128 128"><style type="text/css">.st0{fill:#333333;} .st1{fill:#F1EEF6;} .st2{fill:#808080;} .st3{fill:#1A1A1A;} .st4{fill:#E5E5E5;} .st5{fill:#D4C8E3;} .st6{fill:none;stroke:#FFFFFF;stroke-miterlimit:10;} .st7{fill:#D2C6E1;} .st8{fill:#4D4D4D;} .st9{fill:none;stroke:#B2B2B2;stroke-miterlimit:10;} .st10{fill:#FFFFFF;} .st11{fill:none;stroke:#808080;stroke-miterlimit:10;} .st12{fill:none;stroke:#4D4D4D;stroke-width:2.2691;stroke-linecap:round;stroke-linejoin:round;stroke-miterlimit:10;} .st13{fill:none;stroke:#4D4D4D;stroke-width:2.1559;stroke-linecap:round;stroke-linejoin:round;stroke-miterlimit:10;} .st14{fill:none;stroke:#4D4D4D;stroke-width:2.1558;stroke-linecap:round;stroke-linejoin:round;stroke-miterlimit:10;} .st15{fill:#241E21;} .st16{fill:none;stroke:#4D4D4D;stroke-width:2.1618;stroke-linecap:round;stroke-linejoin:round;stroke-miterlimit:10;} .st17{fill:none;stroke:#4D4D4D;stroke-width:2.5566;stroke-linecap:round;stroke-linejoin:round;stroke-miterlimit:10;} .st18{fill:none;stroke:#4D4D4D;stroke-width:2.3992;stroke-linecap:round;stroke-linejoin:round;stroke-miterlimit:10;} .st19{fill:none;stroke:#4D4D4D;stroke-width:2.607;stroke-linecap:round;stroke-linejoin:round;stroke-miterlimit:10;} .st20{fill:none;stroke:#4D4D4D;stroke-width:2.0373;stroke-linecap:round;stroke-linejoin:round;stroke-miterlimit:10;} .st21{fill:none;stroke:#4D4D4D;stroke-width:1.7268;stroke-linecap:round;stroke-linejoin:round;stroke-miterlimit:10;} .st22{fill:none;stroke:#4D4D4D;stroke-width:2.0207;stroke-linecap:round;stroke-linejoin:round;stroke-miterlimit:10;} .st23{fill:#666666;} .st24{fill:none;stroke:#666666;stroke-miterlimit:10;} .st25{fill:none;stroke:#E5E5E5;stroke-miterlimit:10;}</style><path class="st10" d="M119.7 11.4C112.1 3.8 102.6-.2 71.4-.2H56.5c-31.2 0-40.7 4-48.3 11.6C1.8 17.8 0 25.8 0 43.9v40.3c0 18 1.8 26.1 8.3 32.5 7.6 7.6 17.1 11.6 48.3 11.6H71.5c31.2 0 40.7-4 48.3-11.6 6.4-6.4 8.3-14.4 8.3-32.5V43.9c-.1-18.1-1.9-26.1-8.4-32.5"/><path class="st8" d="M53.3 110.6c-.9 0-1.8-.3-2.5-1L35 93.7c-.3-.3-.5-.6-.7-.9-.2-.5-.4-1.1-.3-1.6 0-.4.1-.7.2-1.1.2-.4.4-.8.8-1.2L50.9 73c1.4-1.4 3.6-1.4 4.9 0 1.4 1.4 1.4 3.6 0 4.9l-10 10h59.5c1.9 0 3.5 1.6 3.5 3.5s-1.6 3.5-3.5 3.5H45.8l10 10c1.4 1.4 1.4 3.6 0 4.9-.7.5-1.6.8-2.5.8zm21.4-38.7c-.9 0-1.8-.3-2.5-1-1.4-1.4-1.4-3.6 0-4.9l10-10H22.7c-1.9 0-3.5-1.6-3.5-3.5s1.6-3.5 3.5-3.5h59.5l-10-10c-1.4-1.4-1.3-3.6 0-4.9 1.4-1.4 3.6-1.3 4.9 0L93 50c.3.3.6.7.7 1.1.1.3.2.6.2 1 .1.6-.1 1.3-.4 1.9-.2.3-.4.6-.6.8l-15.7 16c-.7.7-1.6 1.1-2.5 1.1z"/></symbol><symbol id="icon-7" viewBox="0 0 128 128"><style type="text/css">.st0{fill:#333333;} .st1{fill:#F1EEF6;} .st2{fill:#808080;} .st3{fill:#1A1A1A;} .st4{fill:#E5E5E5;} .st5{fill:#D4C8E3;} .st6{fill:none;stroke:#FFFFFF;stroke-miterlimit:10;} .st7{fill:#D2C6E1;} .st8{fill:#4D4D4D;} .st9{fill:none;stroke:#B2B2B2;stroke-miterlimit:10;} .st10{fill:#FFFFFF;} .st11{fill:none;stroke:#808080;stroke-miterlimit:10;} .st12{fill:none;stroke:#4D4D4D;stroke-width:2.2691;stroke-linecap:round;stroke-linejoin:round;stroke-miterlimit:10;} .st13{fill:none;stroke:#4D4D4D;stroke-width:2.1559;stroke-linecap:round;stroke-linejoin:round;stroke-miterlimit:10;} .st14{fill:none;stroke:#4D4D4D;stroke-width:2.1558;stroke-linecap:round;stroke-linejoin:round;stroke-miterlimit:10;} .st15{fill:#241E21;} .st16{fill:none;stroke:#4D4D4D;stroke-width:2.1618;stroke-linecap:round;stroke-linejoin:round;stroke-miterlimit:10;} .st17{fill:none;stroke:#4D4D4D;stroke-width:2.5566;stroke-linecap:round;stroke-linejoin:round;stroke-miterlimit:10;} .st18{fill:none;stroke:#4D4D4D;stroke-width:2.3992;stroke-linecap:round;stroke-linejoin:round;stroke-miterlimit:10;} .st19{fill:none;stroke:#4D4D4D;stroke-width:2.607;stroke-linecap:round;stroke-linejoin:round;stroke-miterlimit:10;} .st20{fill:none;stroke:#4D4D4D;stroke-width:2.0373;stroke-linecap:round;stroke-linejoin:round;stroke-miterlimit:10;} .st21{fill:none;stroke:#4D4D4D;stroke-width:1.7268;stroke-linecap:round;stroke-linejoin:round;stroke-miterlimit:10;} .st22{fill:none;stroke:#4D4D4D;stroke-width:2.0207;stroke-linecap:round;stroke-linejoin:round;stroke-miterlimit:10;} .st23{fill:#666666;} .st24{fill:none;stroke:#666666;stroke-miterlimit:10;} .st25{fill:none;stroke:#E5E5E5;stroke-miterlimit:10;}</style><path class="st10" d="M119.7 11.4C112.1 3.8 102.6-.2 71.4-.2H56.5c-31.2 0-40.7 4-48.3 11.6C1.8 17.8 0 25.8 0 43.9v40.3c0 18 1.8 26.1 8.3 32.5 7.6 7.6 17.1 11.6 48.3 11.6H71.5c31.2 0 40.7-4 48.3-11.6 6.4-6.4 8.3-14.4 8.3-32.5V43.9c-.1-18.1-1.9-26.1-8.4-32.5"/><path class="st8" d="M94.5 104.4H76.1c-1.6 0-2.8-1.2-2.9-2.8 0-1-.2-10.3 4.6-15.3 2-2 4.6-3.2 7.5-3h.2c2.8 0 5.3 1 7.2 3 4.8 5 4.7 14.3 4.6 15.3 0 1.6-1.3 2.8-2.8 2.8zm-15.4-5.8h12.4c-.3-2.7-1-6.4-2.9-8.3-.9-.9-2-1.2-3.3-1.3h-.2c-1.3 0-2.2.4-3.1 1.3-1.9 1.9-2.6 5.6-2.9 8.3zm-27.2 5.8H33.5c-1.6 0-2.8-1.2-2.9-2.8 0-1-.2-10.3 4.6-15.3 1.9-2 4.4-3 7.2-3h.4c2.8 0 5.3 1 7.2 3 4.8 5 4.7 14.3 4.6 15.3.2 1.6-1.1 2.8-2.7 2.8zm-15.3-5.8H49c-.3-2.7-1-6.4-2.9-8.3-.8-.9-1.8-1.3-3.1-1.3h-.4c-1.3 0-2.2.4-3.1 1.3-1.9 1.9-2.7 5.6-2.9 8.3zm33.5-16.1c-.8 0-1.6-.3-2.1-.9l-4-4.3-4 4.2c-1.1 1.2-2.9 1.2-4.1.2-1.2-1.1-1.2-2.9-.2-4.1L61 72v-7.3c0-1.6 1.3-2.9 2.9-2.9 1.6 0 2.9 1.3 2.9 2.9v7.1l5.4 5.9c1.1 1.2 1 3-.2 4.1-.5.4-1.2.7-1.9.7zm15.2-.3c-4.7 0-8.5-3.8-8.5-8.5s3.8-8.5 8.5-8.5 8.5 3.8 8.5 8.5-3.8 8.5-8.5 8.5zm0-11.2c-1.5 0-2.7 1.2-2.7 2.7 0 1.5 1.2 2.7 2.7 2.7 1.5 0 2.7-1.2 2.7-2.7 0-1.5-1.2-2.7-2.7-2.7zM42.7 82.2c-4.7 0-8.5-3.8-8.5-8.5s3.8-8.5 8.5-8.5 8.5 3.8 8.5 8.5-3.8 8.5-8.5 8.5zm0-11.2c-1.5 0-2.7 1.2-2.7 2.7 0 1.5 1.2 2.7 2.7 2.7 1.5 0 2.7-1.2 2.7-2.7 0-1.5-1.2-2.7-2.7-2.7zm33.2-10.8H52.1c-1.6 0-2.9-1.2-2.9-2.8 0-.5-.3-12.9 5.8-19.2 2.4-2.4 5.3-3.7 8.8-3.7h.6c3.5 0 6.4 1.2 8.8 3.7 6.1 6.3 5.8 18.7 5.8 19.2-.2 1.5-1.5 2.8-3.1 2.8zM55 54.4h18c-.3-3.8-1.3-9.3-4.1-12.2-1.2-1.3-2.8-1.9-4.6-1.9h-.6c-1.9 0-3.4.6-4.6 1.9-2.8 2.8-3.8 8.4-4.1 12.2zm9-21c-5.6 0-10.2-4.6-10.2-10.2S58.4 13 64 13s10.2 4.6 10.2 10.2c0 5.7-4.6 10.2-10.2 10.2zm0-14.5c-2.4 0-4.4 2-4.4 4.4 0 2.4 2 4.4 4.4 4.4 2.4 0 4.4-2 4.4-4.4 0-2.5-2-4.4-4.4-4.4z"/></symbol><symbol id="icon-8" viewBox="0 0 128 128"><style type="text/css">.st0{fill:#333333;} .st1{fill:#F1EEF6;} .st2{fill:#808080;} .st3{fill:#1A1A1A;} .st4{fill:#E5E5E5;} .st5{fill:#D4C8E3;} .st6{fill:none;stroke:#FFFFFF;stroke-miterlimit:10;} .st7{fill:#D2C6E1;} .st8{fill:#4D4D4D;} .st9{fill:none;stroke:#B2B2B2;stroke-miterlimit:10;} .st10{fill:#FFFFFF;} .st11{fill:none;stroke:#808080;stroke-miterlimit:10;} .st12{fill:none;stroke:#4D4D4D;stroke-width:2.2691;stroke-linecap:round;stroke-linejoin:round;stroke-miterlimit:10;} .st13{fill:none;stroke:#4D4D4D;stroke-width:2.1559;stroke-linecap:round;stroke-linejoin:round;stroke-miterlimit:10;} .st14{fill:none;stroke:#4D4D4D;stroke-width:2.1558;stroke-linecap:round;stroke-linejoin:round;stroke-miterlimit:10;} .st15{fill:#241E21;} .st16{fill:none;stroke:#4D4D4D;stroke-width:2.1618;stroke-linecap:round;stroke-linejoin:round;stroke-miterlimit:10;} .st17{fill:none;stroke:#4D4D4D;stroke-width:2.5566;stroke-linecap:round;stroke-linejoin:round;stroke-miterlimit:10;} .st18{fill:none;stroke:#4D4D4D;stroke-width:2.3992;stroke-linecap:round;stroke-linejoin:round;stroke-miterlimit:10;} .st19{fill:none;stroke:#4D4D4D;stroke-width:2.607;stroke-linecap:round;stroke-linejoin:round;stroke-miterlimit:10;} .st20{fill:none;stroke:#4D4D4D;stroke-width:2.0373;stroke-linecap:round;stroke-linejoin:round;stroke-miterlimit:10;} .st21{fill:none;stroke:#4D4D4D;stroke-width:1.7268;stroke-linecap:round;stroke-linejoin:round;stroke-miterlimit:10;} .st22{fill:none;stroke:#4D4D4D;stroke-width:2.0207;stroke-linecap:round;stroke-linejoin:round;stroke-miterlimit:10;} .st23{fill:#666666;} .st24{fill:none;stroke:#666666;stroke-miterlimit:10;} .st25{fill:none;stroke:#E5E5E5;stroke-miterlimit:10;}</style><path class="st7" d="M56.2 0c-31.5 0-41 3.8-48.5 11.2C1.8 17 0 24.4 0 42.8v42.4c0 18.4 1.8 25.8 7.7 31.6 7.5 7.4 17 11.2 48.5 11.2h15.7c31.5 0 41-3.8 48.5-11.2 5.9-5.8 7.7-13.2 7.7-31.6V42.8c0-18.4-1.8-25.8-7.7-31.6C112.8 3.8 103.3 0 71.8 0H56.2z"/><path class="st8" d="M96.3 98.1c-1.4 0-2.8-.9-3.3-2.3l-5.2-13.6H60.4c-7.9 0-14.4-6.5-14.4-14.4V40.5c0-7.9 6.4-14.4 14.4-14.4h42c7.9 0 14.4 6.5 14.4 14.4v27.4c0 7.5-5.8 13.7-13.1 14.3l-4 13.4c-.4 1.4-1.7 2.4-3.2 2.5h-.2zM60.4 33.2c-4 0-7.3 3.3-7.3 7.3v27.4c0 4 3.3 7.3 7.3 7.3h29.8c1.5 0 2.8.9 3.3 2.3l2.4 6.2 1.7-5.9c.4-1.5 1.8-2.5 3.4-2.5h1.4c4 0 7.3-3.3 7.3-7.3V40.5c0-4-3.3-7.3-7.3-7.3h-42zM72.3 78.8c-1.6.2-3.4.3-5.3.4v2.3c0 3.3-2.7 6-6 6H34.9c-1.5 0-2.8.9-3.3 2.3L30 93.9 28.8 90c-.4-1.5-1.8-2.5-3.4-2.5h-1.2c-3.3 0-6-2.7-6-6V57.6c0-3.3 2.7-6 6-6h26.1c0-2.4-.1-4.7-.2-7H24.2c-7.2 0-13 5.8-13 13v23.9c0 6.7 5.1 12.2 11.6 12.9l3.4 11.4c.4 1.4 1.7 2.5 3.2 2.5h.1c1.5 0 2.8-.9 3.3-2.3l4.5-11.6H61c7.2 0 13-5.8 13-13v-3.2c-.5.4-1.1.5-1.7.6"/></symbol><symbol id="icon-9" viewBox="0 0 128 128.5"><style type="text/css">.st0{fill:#333333;} .st1{fill:#F1EEF6;} .st2{fill:#808080;} .st3{fill:#1A1A1A;} .st4{fill:#E5E5E5;} .st5{fill:#D4C8E3;} .st6{fill:none;stroke:#FFFFFF;stroke-miterlimit:10;} .st7{fill:#D2C6E1;} .st8{fill:#4D4D4D;} .st9{fill:none;stroke:#B2B2B2;stroke-miterlimit:10;} .st10{fill:#FFFFFF;} .st11{fill:none;stroke:#808080;stroke-miterlimit:10;} .st12{fill:none;stroke:#4D4D4D;stroke-width:2.2691;stroke-linecap:round;stroke-linejoin:round;stroke-miterlimit:10;} .st13{fill:none;stroke:#4D4D4D;stroke-width:2.1559;stroke-linecap:round;stroke-linejoin:round;stroke-miterlimit:10;} .st14{fill:none;stroke:#4D4D4D;stroke-width:2.1558;stroke-linecap:round;stroke-linejoin:round;stroke-miterlimit:10;} .st15{fill:#241E21;} .st16{fill:none;stroke:#4D4D4D;stroke-width:2.1618;stroke-linecap:round;stroke-linejoin:round;stroke-miterlimit:10;} .st17{fill:none;stroke:#4D4D4D;stroke-width:2.5566;stroke-linecap:round;stroke-linejoin:round;stroke-miterlimit:10;} .st18{fill:none;stroke:#4D4D4D;stroke-width:2.3992;stroke-linecap:round;stroke-linejoin:round;stroke-miterlimit:10;} .st19{fill:none;stroke:#4D4D4D;stroke-width:2.607;stroke-linecap:round;stroke-linejoin:round;stroke-miterlimit:10;} .st20{fill:none;stroke:#4D4D4D;stroke-width:2.0373;stroke-linecap:round;stroke-linejoin:round;stroke-miterlimit:10;} .st21{fill:none;stroke:#4D4D4D;stroke-width:1.7268;stroke-linecap:round;stroke-linejoin:round;stroke-miterlimit:10;} .st22{fill:none;stroke:#4D4D4D;stroke-width:2.0207;stroke-linecap:round;stroke-linejoin:round;stroke-miterlimit:10;} .st23{fill:#666666;} .st24{fill:none;stroke:#666666;stroke-miterlimit:10;} .st25{fill:none;stroke:#E5E5E5;stroke-miterlimit:10;}</style><path class="st10" d="M119.7 11.6C112.1 4 102.6 0 71.4 0H56.5C25.4 0 15.9 4 8.3 11.6 1.8 18 0 26.1 0 44.1v40.3c0 18 1.8 26.1 8.3 32.5 7.6 7.6 17.1 11.6 48.3 11.6H71.5c31.2 0 40.7-4 48.3-11.6 6.4-6.4 8.3-14.4 8.3-32.5V44.1c-.1-18-1.9-26.1-8.4-32.5"/><path class="st8" d="M94.5 104.6H76.1c-1.6 0-2.8-1.2-2.9-2.8 0-1-.2-10.3 4.6-15.3 2-2 4.6-3.2 7.5-3h.2c2.8 0 5.3 1 7.2 3 4.8 5 4.7 14.3 4.6 15.3 0 1.6-1.3 2.8-2.8 2.8zm-15.4-5.8h12.4c-.3-2.7-1-6.4-2.9-8.3-.9-.9-2-1.2-3.3-1.3h-.2c-1.3 0-2.2.4-3.1 1.3-1.9 2-2.6 5.6-2.9 8.3zm-27.2 5.8H33.5c-1.6 0-2.8-1.2-2.9-2.8 0-1-.2-10.3 4.6-15.3 1.9-2 4.4-3 7.2-3h.4c2.8 0 5.3 1 7.2 3 4.8 5 4.7 14.3 4.6 15.3.2 1.6-1.1 2.8-2.7 2.8zm-15.3-5.8H49c-.3-2.7-1-6.4-2.9-8.3-.8-.9-1.8-1.3-3.1-1.3h-.4c-1.3 0-2.2.4-3.1 1.3-1.9 2-2.7 5.6-2.9 8.3zm33.5-16.1c-.8 0-1.6-.3-2.1-.9l-4-4.3-4 4.3c-1 1.2-2.9 1.2-4.1.1-1.2-1.1-1.2-2.9-.2-4.1l5.2-5.6v-7.3c0-1.6 1.3-2.9 2.9-2.9 1.6 0 2.9 1.3 2.9 2.9V72l5.4 5.9c1.1 1.2 1 3-.2 4.1-.4.5-1.1.7-1.8.7zm15.2-.2c-4.7 0-8.5-3.8-8.5-8.5s3.8-8.5 8.5-8.5 8.5 3.8 8.5 8.5-3.8 8.5-8.5 8.5zm0-11.2c-1.5 0-2.7 1.2-2.7 2.7 0 1.5 1.2 2.7 2.7 2.7 1.5 0 2.7-1.2 2.7-2.7 0-1.5-1.2-2.7-2.7-2.7zM42.7 82.5c-4.7 0-8.5-3.8-8.5-8.5s3.8-8.5 8.5-8.5 8.5 3.8 8.5 8.5-3.8 8.5-8.5 8.5zm0-11.2c-1.5 0-2.7 1.2-2.7 2.7 0 1.5 1.2 2.7 2.7 2.7 1.5 0 2.7-1.2 2.7-2.7 0-1.5-1.2-2.7-2.7-2.7zm33.2-10.9H52.1c-1.6 0-2.9-1.2-2.9-2.8 0-.5-.3-12.9 5.8-19.2 2.4-2.4 5.3-3.7 8.8-3.7h.6c3.5 0 6.4 1.2 8.8 3.7 6.1 6.3 5.8 18.7 5.8 19.2-.2 1.6-1.5 2.8-3.1 2.8zM55 54.6h18c-.3-3.8-1.3-9.3-4.1-12.2-1.2-1.3-2.8-1.9-4.6-1.9h-.6c-1.9 0-3.4.6-4.6 1.9-2.8 2.9-3.8 8.5-4.1 12.2zm9-20.9c-5.6 0-10.2-4.6-10.2-10.2S58.4 13.3 64 13.3s10.2 4.6 10.2 10.2S69.6 33.7 64 33.7zm0-14.6c-2.4 0-4.4 2-4.4 4.4 0 2.4 2 4.4 4.4 4.4 2.4 0 4.4-2 4.4-4.4 0-2.4-2-4.4-4.4-4.4z"/></symbol></svg>