<?xml version="1.0" standalone="no"?>
<!DOCTYPE svg PUBLIC "-//W3C//DTD SVG 1.1//EN" "http://www.w3.org/Graphics/SVG/1.1/DTD/svg11.dtd" >
<svg xmlns="http://www.w3.org/2000/svg">
<metadata></metadata>
<defs>
<font id="infotextnormal" horiz-adv-x="1179" >
<font-face units-per-em="2048" ascent="1638" descent="-410" />
<missing-glyph horiz-adv-x="409" />
<glyph unicode="&#xfb01;" horiz-adv-x="1005" d="M31 899v45q0 16 11 29.5t30 13.5h112v189q0 86 26 141t69 87t101 44t126 12q31 0 67.5 -5t72.5 -13t66.5 -17.5t47.5 -15.5q16 -8 22 -23.5t0 -31.5l-26 -64q-12 -33 -47 -20q-31 10 -90.5 27.5t-112.5 17.5q-35 0 -63.5 -5t-51 -20.5t-35 -45.5t-12.5 -79v-178h459 q43 0 43 -41v-905q0 -16 -13.5 -28.5t-29.5 -12.5h-74q-16 0 -29.5 12.5t-13.5 28.5v815h-342v-815q0 -16 -13.5 -28.5t-29.5 -12.5h-74q-16 0 -29.5 12.5t-13.5 28.5v815h-112q-18 0 -29.5 13.5t-11.5 29.5z" />
<glyph unicode="&#xfb02;" horiz-adv-x="1038" d="M33 899v45q0 16 11 29.5t30 13.5h116v199q0 86 26 140t69 84t99 40t118 10q41 0 85 -7t86 -16.5t75.5 -20.5t54.5 -17q16 -6 28.5 -16.5t12.5 -32.5v-1145q0 -39 8 -59.5t43 -20.5q14 0 30.5 4t35.5 8q37 8 45 -26l12 -56q6 -31 -27 -43q-27 -10 -56.5 -16t-64.5 -6 q-98 0 -142 44t-44 130v1122q-29 10 -82 21.5t-98 11.5q-29 0 -56.5 -3t-49 -17.5t-35 -43t-13.5 -79.5v-189h158q16 0 28.5 -13t12.5 -30v-45q0 -16 -12.5 -29.5t-28.5 -13.5h-158v-815q0 -16 -13 -28.5t-30 -12.5h-74q-16 0 -29.5 12.5t-13.5 28.5v815h-116 q-18 0 -29.5 13.5t-11.5 29.5z" />
<glyph horiz-adv-x="0" />
<glyph unicode="&#xd;" horiz-adv-x="409" />
<glyph unicode=" "  horiz-adv-x="409" />
<glyph unicode="&#x09;" horiz-adv-x="409" />
<glyph unicode="&#xa0;" horiz-adv-x="409" />
<glyph unicode="!" horiz-adv-x="651" d="M199 119q0 53 36.5 90t90.5 37q53 0 91 -37t38 -90t-38 -91t-91 -38t-90 38t-37 91zM225 1370q0 41 43 41h115q43 0 43 -41l-23 -897q0 -29 -11 -39t-30 -10h-69q-18 0 -29.5 13.5t-11.5 35.5z" />
<glyph unicode="&#x22;" horiz-adv-x="716" d="M123 1409q-2 18 12.5 29.5t30.5 11.5h78q16 0 30.5 -11.5t12.5 -29.5l-17 -336q-2 -16 -14 -28.5t-29 -12.5h-45q-16 0 -28.5 12.5t-14.5 28.5zM410 1409q-2 18 12 29.5t31 11.5h77q16 0 30.5 -11.5t12.5 -29.5l-16 -336q-2 -16 -14.5 -28.5t-28.5 -12.5h-45 q-16 0 -28.5 12.5t-14.5 28.5z" />
<glyph unicode="#" horiz-adv-x="1185" d="M96 471l6 45q2 16 12.5 27.5t28.5 11.5h160l45 305h-155q-18 0 -28.5 14.5t-6.5 30.5l6 43q6 39 41 39h162l47 344q4 18 18 29.5t31 11.5h53q16 0 28.5 -11t8.5 -30l-47 -344h256l47 344q4 18 18.5 29.5t30.5 11.5h53q16 0 28.5 -11t8.5 -30l-47 -344h152q16 0 27.5 -12 t6.5 -29l-6 -43q-4 -16 -14 -29.5t-27 -13.5h-157l-45 -305h153q16 0 26.5 -12.5t8.5 -28.5l-6 -45q-2 -16 -13.5 -28.5t-27.5 -12.5h-160l-57 -387q-4 -16 -18.5 -28.5t-30.5 -12.5h-54q-16 0 -28.5 12.5t-7.5 28.5l57 387h-256l-57 -387q-4 -16 -18.5 -28.5t-31.5 -12.5 h-53q-16 0 -28.5 12.5t-8.5 28.5l58 387h-154q-18 0 -27.5 13.5t-7.5 29.5zM442 555h256l45 305h-256z" />
<glyph unicode="$" horiz-adv-x="989" d="M123 98l20 80q4 16 17.5 26.5t36.5 2.5q53 -18 121.5 -37.5t142.5 -22.5v474q-59 23 -115.5 50t-102.5 68t-74 98.5t-28 139.5q0 137 82 234.5t238 121.5v140q0 18 13 29t30 11h45q16 0 29.5 -11t13.5 -29v-134q59 -4 125.5 -15t107.5 -26q14 -4 21.5 -20t3.5 -33 l-16 -65q-4 -16 -19.5 -26.5t-28.5 -6.5q-43 12 -92 24.5t-102 16.5v-443q57 -23 115.5 -52t105.5 -74.5t76 -107t29 -149.5q0 -66 -20.5 -125t-60.5 -107t-101.5 -82t-143.5 -48v-166q0 -16 -13.5 -28.5t-29.5 -12.5h-45q-16 0 -29.5 12.5t-13.5 28.5v156q-84 2 -168 18.5 t-141 38.5q-39 14 -29 51zM315 983q0 -72 42 -118t104 -74v393q-76 -18 -111 -71.5t-35 -129.5zM592 160q70 23 109.5 71.5t39.5 124.5q0 88 -43 134.5t-106 76.5v-407z" />
<glyph unicode="%" horiz-adv-x="1916" d="M160 922q0 96 24.5 172.5t68.5 131t105.5 83t133.5 28.5q145 0 225 -110t80 -305t-80 -305.5t-225 -110.5q-72 0 -133.5 28.5t-105.5 82t-68.5 131t-24.5 174.5zM322 922q0 -57 10 -110.5t30.5 -93.5t51 -63.5t71.5 -23.5t70 23.5t47.5 63.5t26.5 93.5t8 110.5t-8 110 t-26.5 93t-47.5 63.5t-70 23.5t-71.5 -23.5t-51 -63.5t-30.5 -93t-10 -110zM679 -87q-5 11 1 32l416 1435q12 41 47 41h63q43 0 29 -47l-416 -1440q-4 -16 -10 -24t-23 -8h-77q-25 0 -30 11zM1120 406q0 96 24.5 172.5t68.5 131t105.5 83t133.5 28.5q145 0 225 -110t80 -305 t-80 -305.5t-225 -110.5q-72 0 -133.5 28.5t-105.5 82t-68.5 131t-24.5 174.5zM1282 406q0 -57 10.5 -110.5t30.5 -93.5t51 -63.5t72 -23.5t69.5 23.5t47 63.5t26.5 93.5t8 110.5t-8 110t-26.5 93t-47 63.5t-69.5 23.5t-72 -23.5t-51 -63.5t-30.5 -93t-10.5 -110z" />
<glyph unicode="&#x26;" horiz-adv-x="1241" d="M125 362q0 55 18.5 109.5t50 104t74.5 91.5t94 70q-74 86 -117.5 159t-43.5 165q0 59 22.5 116.5t64.5 103.5t102.5 73.5t135.5 27.5q74 0 132.5 -22.5t100.5 -64.5t64.5 -99t22.5 -125q0 -59 -20.5 -108.5t-54.5 -92.5t-81 -80.5t-98 -72.5l272 -318q10 43 17.5 98.5 t7.5 102.5v57q0 18 12 30.5t29 12.5h67q20 0 32.5 -12t12.5 -31v-51q0 -92 -19 -175t-52 -155l164 -190q10 -12 9 -30.5t-16 -28.5l-55 -47q-14 -12 -31.5 -11.5t-27.5 13.5l-135 157q-53 -61 -137.5 -105t-213.5 -44q-106 0 -182 29.5t-125 81t-72.5 119t-23.5 142.5z M309 367q0 -100 65.5 -166t170.5 -66q84 0 144.5 34t96.5 77l-337 391q-63 -47 -101.5 -120t-38.5 -150zM371 1069q0 -35 7 -61.5t22.5 -54t42 -60.5t67.5 -80q33 25 63.5 49.5t52 54t35 65.5t13.5 83q0 86 -33 136t-117 50q-29 0 -55.5 -10t-49 -31.5t-35.5 -56.5t-13 -84z " />
<glyph unicode="'" horiz-adv-x="409" d="M123 1409q-2 18 12.5 29.5t30.5 11.5h78q16 0 30.5 -11.5t12.5 -29.5l-17 -336q-2 -16 -14 -28.5t-29 -12.5h-45q-16 0 -28.5 12.5t-14.5 28.5z" />
<glyph unicode="(" horiz-adv-x="606" d="M164 621q0 113 16.5 231.5t45 231t68.5 215t87 182.5q16 29 53 12l43 -20q25 -12 12 -48q-41 -115 -68.5 -208t-44 -184t-24.5 -189.5t-8 -222.5q0 -125 8 -223.5t24.5 -189.5t44 -184t68.5 -208q12 -35 -12 -47l-43 -21q-37 -16 -53 12q-47 80 -87 182.5t-68.5 215 t-45 231.5t-16.5 232z" />
<glyph unicode=")" horiz-adv-x="606" d="M117 -184q39 115 67.5 208t45 184t24.5 189.5t8 223.5t-8 223t-24.5 189t-45 184.5t-67.5 207.5q-12 35 12 48l43 20q37 16 53 -12q47 -80 87 -182.5t69 -215t45 -231t16 -231.5t-16 -232t-45 -231.5t-69 -215t-87 -182.5q-16 -29 -53 -12l-43 21q-25 12 -12 47z" />
<glyph unicode="*" horiz-adv-x="946" d="M94 1161l12 41q4 16 20.5 23.5t35.5 1.5l250 -82v262q0 18 12 30.5t29 12.5h41q18 0 29.5 -12.5t11.5 -30.5v-262l249 82q41 14 56 -25l12 -39q4 -16 -4 -32.5t-25 -22.5l-250 -82l156 -211q12 -16 11 -32.5t-17 -26.5l-35 -25q-16 -10 -32.5 -7t-26.5 17l-156 213 l-156 -213q-10 -14 -26.5 -17t-32.5 7l-35 25q-16 10 -17 26.5t11 32.5l156 211l-250 82q-39 14 -29 53z" />
<glyph unicode="+" horiz-adv-x="1081" d="M102 487v60q0 45 43 45h320v313q0 45 45 45h63q43 0 43 -45v-313h318q45 0 45 -45v-60q0 -43 -45 -43h-318v-327q0 -43 -43 -43h-63q-45 0 -45 43v327h-320q-43 0 -43 43z" />
<glyph unicode="," horiz-adv-x="385" d="M63 117q0 57 38 93t89 36q53 0 91 -38t38 -106q0 -39 -13 -79.5t-33.5 -80.5t-46 -75t-52.5 -62q-31 -31 -57 -10l-29 25q-31 25 -6 53q23 29 35 46.5t20 33.5q12 29 7 39t-17 16q-25 12 -44.5 41t-19.5 68z" />
<glyph unicode="-" horiz-adv-x="663" d="M115 502v65q0 45 43 45h346q45 0 45 -45v-65q0 -43 -45 -43h-346q-43 0 -43 43z" />
<glyph unicode="." horiz-adv-x="380" d="M63 119q0 53 37 90t90 37t91 -37t38 -90t-37.5 -91t-91.5 -38q-53 0 -90 38t-37 91z" />
<glyph unicode="/" horiz-adv-x="636" d="M55 -147l441 1523q4 16 14 25.5t33 9.5h65q16 0 24.5 -10t2.5 -31l-440 -1528q-8 -35 -45 -35h-70q-37 0 -25 46z" />
<glyph unicode="0" horiz-adv-x="989" d="M96 567q0 131 27 236.5t79 179.5t130 114t180 40t174 -40t118 -114t67.5 -179.5t21.5 -236.5t-25.5 -237.5t-77 -182t-128 -116.5t-179.5 -41q-102 0 -174.5 41t-120 116.5t-70 182t-22.5 237.5zM266 567q0 -88 10.5 -169t36 -142t69.5 -97t110 -36t110.5 36t71 97 t38 142t11.5 169t-9 167t-34 138.5t-68 95.5t-108 36q-66 0 -112 -36t-73.5 -95.5t-40 -138.5t-12.5 -167z" />
<glyph unicode="1" horiz-adv-x="638" d="M57 954.5q4 16.5 19 24.5l295 151q25 12 50 4t25 -42v-955h101q16 0 28.5 -13t12.5 -30v-51q0 -16 -12.5 -29.5t-28.5 -13.5h-393q-18 0 -29.5 13.5t-11.5 29.5v51q0 16 11 29.5t30 13.5h133v791l-144 -74q-35 -18 -53 16l-29 54q-8 14 -4 30.5z" />
<glyph unicode="2" horiz-adv-x="878" d="M85 1032q9 15 30 25q66 37 130 58.5t142 21.5q88 0 154.5 -28t112.5 -77t70 -113.5t24 -138.5q0 -78 -20.5 -141.5t-72 -132t-138.5 -152.5t-220 -200h446q16 0 28.5 -13.5t12.5 -29.5v-68q0 -16 -12 -29.5t-29 -13.5h-614q-18 0 -29.5 13.5t-11.5 29.5v76q0 16 3 27.5 t15 21.5q129 113 220.5 199t147.5 155.5t82 129t26 118.5q0 86 -49.5 150.5t-145.5 64.5q-66 0 -115 -21.5t-96 -48.5q-23 -12 -36 -1.5t-21 26.5l-33 61q-10 16 -1 31z" />
<glyph unicode="3" horiz-adv-x="833" d="M48 1045q7 14 30 26q68 35 138.5 50.5t131.5 15.5q80 0 145.5 -25t112.5 -69t74 -106.5t27 -137.5q0 -33 -10.5 -75t-38 -83t-73.5 -79t-116 -62q141 -25 218 -116.5t77 -238.5q0 -96 -43 -182t-126 -149.5t-205 -100.5t-281 -37q-27 0 -37.5 12.5t-12.5 28.5l-8 70 q-6 43 41 43q121 0 214 25.5t155.5 68.5t95.5 102.5t33 127.5q0 115 -88 186.5t-250 71.5q-29 0 -39 9t-10 32v73q0 23 10 34t39 11q55 0 107.5 15.5t92.5 44t64.5 67.5t24.5 88q0 92 -54.5 146.5t-156.5 54.5q-53 0 -94 -12t-95 -45q-20 -12 -33.5 -5t-23.5 23l-31 60 q-12 23 -5 37z" />
<glyph unicode="4" horiz-adv-x="929" d="M63 113v73q0 12 3.5 21.5t7.5 21.5l319 867q10 31 43 30h111q20 0 25.5 -13t-1.5 -28l-333 -866h313l33 406q4 41 43 41h43q16 0 29.5 -11.5t13.5 -29.5v-406h100q16 0 28.5 -13t12.5 -30v-63q0 -16 -12.5 -29.5t-28.5 -13.5h-100v-289q0 -16 -13.5 -28.5t-29.5 -12.5 h-76q-16 0 -29.5 12t-13.5 29v289h-447q-18 0 -29.5 13t-11.5 30z" />
<glyph unicode="5" horiz-adv-x="962" d="M135 -213q-4 23 8.5 35t32.5 12q145 0 242.5 31t156 84t83 124.5t24.5 155.5q0 141 -51 211t-125 70q-63 0 -112.5 -29.5t-88.5 -70.5q-16 -16 -29.5 -20.5t-35.5 9.5l-60 37q-16 10 -21 19.5t-3 31.5l20 598q0 16 13.5 28.5t29.5 12.5h531q16 0 28.5 -13t12.5 -30v-67 q0 -16 -12.5 -29.5t-28.5 -13.5h-418l-15 -400q84 74 213 74q66 0 124.5 -23.5t102.5 -73.5t69.5 -128t25.5 -184q0 -129 -40 -232.5t-122 -176.5t-206 -113t-291 -40q-27 0 -37.5 12.5t-12.5 28.5z" />
<glyph unicode="6" horiz-adv-x="987" d="M127 535q0 133 11.5 234t34 181t55 141.5t77.5 112.5q53 59 133 96t174 37q43 0 81 -5t81 -17q18 -4 25.5 -16.5t3.5 -28.5l-15 -70q-6 -39 -49 -31q-16 4 -51 11.5t-76 7.5q-66 0 -121 -32t-96 -92t-66.5 -149.5t-29.5 -201.5q43 78 105.5 118.5t156.5 40.5 q78 0 137.5 -34.5t98.5 -93t58 -137.5t19 -167q0 -207 -96 -328.5t-282 -121.5q-180 0 -274.5 137t-94.5 408zM305 440q0 -143 54.5 -231t144.5 -88q94 0 147.5 81t53.5 222q0 145 -52.5 230t-134.5 85q-96 0 -154.5 -80.5t-58.5 -218.5z" />
<glyph unicode="7" horiz-adv-x="763" d="M-14 1014v71q0 20 13 30.5t30 10.5h667q23 0 34 -14t3 -37l-401 -1268q-14 -37 -47 -36h-101q-16 0 -26.5 12t-3.5 31l391 1159h-516q-43 0 -43 41z" />
<glyph unicode="8" horiz-adv-x="983" d="M111 346q0 51 12 106.5t41 104.5t73 90t109 64q-90 43 -144.5 113.5t-54.5 181.5q0 72 26 132t73 105t111.5 69.5t142.5 24.5q166 0 259 -89t93 -242q0 -53 -10.5 -93.5t-35 -74t-62 -64.5t-93.5 -63q45 -18 87 -49t74 -75t50.5 -103.5t18.5 -135.5q0 -172 -106.5 -265 t-287.5 -93q-180 0 -278 91t-98 265zM285 365q0 -117 56 -179.5t157 -62.5q98 0 153.5 62.5t55.5 179.5q0 45 -7.5 87t-30 77.5t-63.5 67.5t-108 60q-45 -16 -84 -37.5t-68 -54.5t-45 -81t-16 -119zM315 1014q0 -90 42 -144.5t141 -101.5q94 43 140 96.5t46 147.5 q0 98 -52 150t-136 52q-80 0 -130.5 -54t-50.5 -146z" />
<glyph unicode="9" horiz-adv-x="976" d="M100 698q0 98 26 178t75 137.5t119.5 89.5t160.5 32q184 0 277.5 -137.5t93.5 -409.5q0 -154 -9 -269.5t-32 -202.5t-60.5 -151.5t-93.5 -120.5q-84 -82 -187 -109.5t-241 -27.5q-25 0 -33 9.5t-10 27.5l-4 72q-2 27 11.5 36t39.5 9q102 0 184.5 23.5t140.5 85t90 169 t32 275.5q-43 -78 -107.5 -120t-158.5 -42q-78 0 -137.5 35t-98.5 95t-58.5 141t-19.5 175zM270 698q0 -145 54.5 -230t136.5 -85q96 0 154.5 81t58.5 218q0 143 -54.5 231t-144.5 88q-94 0 -149.5 -80.5t-55.5 -222.5z" />
<glyph unicode=":" horiz-adv-x="421" d="M104 119q0 53 37 90t90 37t91 -37t38 -90t-37.5 -91t-91.5 -38q-53 0 -90 38t-37 91zM104 754q0 53 37 90t90 37t91 -37t38 -90t-37.5 -91t-91.5 -38q-53 0 -90 37.5t-37 91.5z" />
<glyph unicode=";" horiz-adv-x="425" d="M104 117q0 57 38 93t89 36q53 0 91 -38t38 -106q0 -39 -13 -79.5t-33.5 -80.5t-46 -75t-52.5 -62q-31 -31 -57 -10l-29 25q-31 25 -6 53q23 29 35 46.5t20 33.5q12 29 7 39t-17 16q-25 12 -44.5 41t-19.5 68zM104 754q0 53 37 90t90 37t91 -37t38 -90t-37.5 -91 t-91.5 -38q-53 0 -90 37.5t-37 91.5z" />
<glyph unicode="&#x3c;" horiz-adv-x="1048" d="M143 551v65q0 29 29 43l680 322q16 8 29.5 -2t13.5 -27v-80q0 -31 -29 -43l-547 -239l543 -209q33 -12 33 -45v-78q0 -16 -13.5 -25.5t-29.5 -3.5l-680 279q-29 12 -29 43z" />
<glyph unicode="=" horiz-adv-x="1171" d="M104 436v47q0 45 43 45h875q45 0 45 -45v-47q0 -43 -45 -43h-875q-43 0 -43 43zM104 756v47q0 45 43 45h875q45 0 45 -45v-47q0 -43 -45 -43h-875q-43 0 -43 43z" />
<glyph unicode="&#x3e;" horiz-adv-x="1048" d="M143 258v78q0 33 33 45l543 207l-547 239q-29 12 -29 43v82q0 16 13.5 26.5t29.5 2.5l680 -322q29 -14 29 -43v-65q0 -31 -29 -43l-680 -279q-16 -6 -29.5 3.5t-13.5 25.5z" />
<glyph unicode="?" horiz-adv-x="860" d="M117 1290q-12 31 16 51q53 39 122 59.5t138 20.5q74 0 134.5 -24.5t104.5 -67.5t68.5 -103t24.5 -130q0 -94 -42 -172t-92 -147.5t-92 -135.5t-42 -133v-29q0 -31 -9.5 -43t-31.5 -12h-80q-25 0 -35 12.5t-10 42.5v25q0 96 39 170t85 140.5t85 130t39 138.5q0 78 -44 122 t-122 44q-63 0 -106.5 -23.5t-59.5 -29.5q-23 -10 -37 -2t-20 20zM246 119q0 53 38 90t91 37t90 -37t37 -90t-37 -91t-90 -38t-91 38t-38 91z" />
<glyph unicode="@" horiz-adv-x="1820" d="M174 356q0 205 63.5 391.5t178 328t272.5 224t346 82.5q150 0 267.5 -52t197.5 -144t122 -218t42 -276q0 -334 -110.5 -518t-317.5 -184q-59 0 -93 18.5t-52.5 46t-24.5 60t-8 61.5q-55 -84 -126 -135t-179 -51q-106 0 -166 78.5t-64 226.5q-4 137 30 264t93.5 224.5 t138 155.5t164.5 58q59 0 113.5 -33.5t85.5 -105.5l37 88q16 41 57 41h51q14 0 25.5 -7t7.5 -34l-117 -604q-10 -47 -14 -87t1 -69.5t21.5 -47t47.5 -17.5q117 0 183 145.5t66 403.5q0 135 -30.5 243.5t-93 184.5t-156.5 116.5t-221 40.5q-137 0 -261 -63.5t-218.5 -180 t-149.5 -282.5t-55 -369q0 -160 40 -280.5t112.5 -200.5t175 -121t229.5 -41q90 0 161.5 19.5t135.5 54.5q16 10 29.5 4t17.5 -18l24 -66q10 -29 -16 -43q-88 -45 -190.5 -63.5t-206.5 -18.5q-135 0 -256 50.5t-212 147.5t-144.5 240.5t-53.5 331.5zM688 319 q6 -197 129 -196q59 0 111.5 45t91.5 121t60.5 174.5t21.5 204.5q0 88 -38 141t-99 53q-102 0 -174 -121q-23 -37 -42.5 -89t-34 -109.5t-21.5 -115.5t-5 -108z" />
<glyph unicode="A" horiz-adv-x="1105" d="M45 45l377 1286q6 23 22.5 32t32.5 9h129q16 0 32.5 -9t23.5 -32l401 -1286q2 -7 2 -14q0 -9 -5 -17q-9 -14 -26 -14h-106q-16 0 -33.5 12.5t-22.5 28.5l-98 342h-459l-92 -342q-4 -16 -18.5 -28.5t-30.5 -12.5h-100q-16 0 -26 14q-6 8 -5 18q0 6 2 13zM352 522h383 l-164 594q-10 39 -17 83t-13 85q-10 -90 -31 -168z" />
<glyph unicode="B" horiz-adv-x="1169" d="M205 41v1290q0 18 13 29.5t30 11.5h385q178 0 276.5 -92t98.5 -244q0 -121 -58.5 -198.5t-189.5 -112.5q78 -6 135 -34.5t95 -75t56.5 -105.5t18.5 -127q0 -184 -110.5 -283.5t-303.5 -99.5h-403q-16 0 -29.5 12.5t-13.5 28.5zM369 150h276q115 0 178.5 66t63.5 185 q0 113 -75 182.5t-208 69.5h-235v-503zM369 791h219q125 0 186.5 57.5t61.5 161.5t-56.5 160.5t-173.5 56.5h-237v-436z" />
<glyph unicode="C" horiz-adv-x="995" d="M113 696q0 162 38.5 290t108.5 216t168 134t215 46q59 0 120.5 -10t115.5 -43q16 -10 21 -26.5t-5 -32.5l-33 -64q-12 -23 -31 -23q-11 0 -24 7q-35 16 -73 27.5t-85 11.5q-172 0 -264 -127t-92 -408q0 -145 26.5 -248.5t73.5 -169t111.5 -97.5t140.5 -32q41 0 91 13.5 t77 25.5q18 10 31.5 4t19.5 -18l37 -78q4 -9 4 -16q0 -8 -3 -14q-7 -14 -19 -19q-41 -20 -99.5 -37.5t-152.5 -17.5q-248 0 -383 183t-135 523z" />
<glyph unicode="D" horiz-adv-x="1181" d="M205 41v1290q0 18 13 29.5t30 11.5h284q283 0 409 -169t126 -501q0 -176 -27.5 -308t-90 -220t-163 -131t-247.5 -43h-291q-16 0 -29.5 12.5t-13.5 28.5zM371 150h161q76 0 140.5 16t111.5 71.5t75 159t28 277.5q0 98 -7.5 169.5t-21.5 125t-34.5 92.5t-47.5 69 q-45 51 -109.5 74t-134.5 23h-161v-1077z" />
<glyph unicode="E" horiz-adv-x="1042" d="M205 41v1290q0 18 13 29.5t30 11.5h622q16 0 29.5 -11t13.5 -30v-67q0 -18 -11 -31.5t-32 -13.5h-499v-418h450q18 0 30.5 -12.5t12.5 -28.5v-64q0 -20 -12 -32.5t-31 -12.5h-450v-493h514q18 0 31.5 -12.5t13.5 -30.5v-74q0 -16 -13.5 -28.5t-29.5 -12.5h-639 q-16 0 -29.5 12.5t-13.5 28.5z" />
<glyph unicode="F" horiz-adv-x="946" d="M205 41v1290q0 18 13 29.5t30 11.5h606q16 0 29.5 -11t13.5 -30v-67q0 -18 -11.5 -31.5t-31.5 -13.5h-483v-418h434q18 0 30.5 -12.5t12.5 -28.5v-64q0 -20 -12.5 -32.5t-30.5 -12.5h-434v-610q0 -16 -13.5 -28.5t-29.5 -12.5h-80q-16 0 -29.5 12.5t-13.5 28.5z" />
<glyph unicode="G" horiz-adv-x="1175" d="M115 692q0 328 143 509t414 181q78 0 156.5 -19.5t142.5 -51.5q18 -10 22 -24.5t-2 -31.5l-35 -75q-4 -10 -17 -18.5t-30 -0.5q-53 29 -113.5 46.5t-131.5 17.5q-193 0 -282 -132t-89 -413q0 -145 26.5 -247.5t76.5 -167t122 -94.5t162 -30q88 0 168 25v461h-219 q-18 0 -29.5 13t-11.5 30v73q0 16 11 29.5t30 13.5h338q16 0 29.5 -11t13.5 -30v-636q0 -31 -13.5 -46.5t-42.5 -25.5q-57 -23 -141 -35t-168 -12q-256 0 -393 174t-137 528z" />
<glyph unicode="H" horiz-adv-x="1255" d="M205 41v1290q0 18 13 29.5t30 11.5h78q16 0 29.5 -11t13.5 -30v-530h518v530q0 18 13 29.5t30 11.5h78q16 0 29.5 -11t13.5 -30v-1290q0 -16 -13.5 -28.5t-29.5 -12.5h-78q-16 0 -29.5 12.5t-13.5 28.5v612h-518v-612q0 -16 -13.5 -28.5t-29.5 -12.5h-78 q-16 0 -29.5 12.5t-13.5 28.5z" />
<glyph unicode="I" horiz-adv-x="573" d="M201 41v1290q0 18 13 29.5t30 11.5h86q16 0 29.5 -11t13.5 -30v-1290q0 -16 -13.5 -28.5t-29.5 -12.5h-86q-16 0 -29.5 12.5t-13.5 28.5z" />
<glyph unicode="J" horiz-adv-x="546" d="M33 -300q4 15 24 26q63 33 92 68.5t29 82.5v1454q0 18 13.5 29.5t29.5 11.5h78q16 0 29.5 -11t13.5 -30v-1456q0 -86 -31.5 -144.5t-122.5 -105.5l-67 -35q-10 -5 -19 -5q-6 0 -12 2q-14 5 -22 22l-31 61q-5 9 -5 19q0 5 1 11z" />
<glyph unicode="K" horiz-adv-x="1044" d="M205 41v1290q0 18 13 29.5t30 11.5h78q16 0 29.5 -11t13.5 -30v-561l407 582q14 20 43 20h127q29 0 27 -15.5t-8 -23.5l-422 -569l473 -723q7 -11 7 -21q0 -4 -1 -8q-4 -12 -25 -12h-133q-35 0 -51 27l-444 727v-713q0 -16 -13.5 -28.5t-29.5 -12.5h-78q-16 0 -29.5 12.5 t-13.5 28.5z" />
<glyph unicode="L" horiz-adv-x="878" d="M205 41v1290q0 18 13 29.5t30 11.5h78q16 0 29.5 -11t13.5 -30v-1179h452q16 0 28.5 -12.5t12.5 -28.5v-70q0 -16 -12 -28.5t-29 -12.5h-573q-16 0 -29.5 12.5t-13.5 28.5z" />
<glyph unicode="M" horiz-adv-x="1476" d="M135 41l105 1292q2 16 15 27.5t32 11.5h157q16 0 26.5 -10t14.5 -23l224 -854q12 -47 18 -109.5t12 -119.5q4 57 10.5 118.5t20.5 112.5l223 852q8 33 43 33h154q18 0 30.5 -9t14.5 -30l102 -1298v-7q0 -28 -28 -28h-109q-35 0 -39 35l-53 952q0 18 -1 54t-2 77t-2 81 t-1 67q-4 -23 -7 -56.5t-8.5 -71.5t-12.5 -78t-15 -71l-219 -807q-6 -23 -15.5 -32t-27.5 -9h-121q-18 0 -27.5 9.5t-15.5 31.5l-219 807q-18 68 -26.5 145.5t-18.5 131.5v-64v-80t-1 -77.5t-3 -55.5l-60 -952q-4 -37 -35 -37h-102q-16 0 -26 12q-8 10 -7 24v5z" />
<glyph unicode="N" horiz-adv-x="1302" d="M205 39v1294q0 20 12 29.5t31 9.5h155q35 0 48 -29l426 -968q31 -70 50 -135.5t38 -118.5q-4 61 -12.5 138t-8.5 142l-4 932q0 16 13.5 27.5t29.5 11.5h72q16 0 29.5 -11t13.5 -28v-1294q0 -16 -13.5 -27.5t-29.5 -11.5h-144q-33 0 -49 33l-434 968q-29 66 -50.5 134.5 t-39.5 134.5q2 -31 6 -70t7 -78t5 -74.5t2 -60.5l4 -948q0 -16 -13 -27.5t-30 -11.5h-71q-16 0 -29.5 11.5t-13.5 27.5z" />
<glyph unicode="O" d="M125 682q0 358 118.5 529t348.5 171q229 0 346 -171t117 -529q0 -360 -119 -526t-344 -166q-229 0 -348 166t-119 526zM303 684q0 -291 69.5 -421t217.5 -130q80 0 135 39t89 110.5t48.5 173t14.5 228.5q0 117 -12.5 219.5t-44.5 178t-87 119.5t-143 44q-98 0 -155.5 -50 t-86.5 -130t-37 -180.5t-8 -200.5z" />
<glyph unicode="P" horiz-adv-x="1040" d="M205 41v1290q0 18 13 29.5t30 11.5h278q213 0 322.5 -107.5t109.5 -283.5q0 -90 -27.5 -165t-81.5 -129t-134 -85t-183 -31h-161v-530q0 -16 -13.5 -28.5t-29.5 -12.5h-80q-16 0 -29.5 12.5t-13.5 28.5zM371 713h168q121 0 184 75.5t63 186.5q0 117 -60 183.5t-187 66.5 h-168v-512z" />
<glyph unicode="Q" d="M125 682q0 358 118.5 529t348.5 171q229 0 346 -171t117 -529q0 -174 -29 -306t-96 -231q55 -47 125.5 -86t134.5 -59q14 -4 20 -20q3 -6 3 -14q0 -10 -5 -23l-28 -74q-6 -16 -22 -23q-10 -5 -19 -5q-7 0 -15 3q-35 12 -76.5 35t-82.5 50.5t-77 59t-59 62.5 q-35 -23 -95 -42t-142 -19q-229 0 -348 166t-119 526zM303 684q0 -291 69.5 -421t217.5 -130q80 0 135 39t89 110.5t48.5 173t14.5 228.5q0 117 -12.5 219.5t-44.5 178t-87 119.5t-143 44q-98 0 -155.5 -50t-86.5 -130t-37 -180.5t-8 -200.5z" />
<glyph unicode="R" horiz-adv-x="1155" d="M205 41v1290q0 18 13 29.5t30 11.5h346q125 0 205 -33.5t125 -85t61 -109t16 -106.5q0 -55 -17 -112.5t-54 -104.5t-95.5 -80.5t-142.5 -42.5l-18 -2q45 -8 84 -30.5t69.5 -53t55 -66.5t41.5 -73q14 -29 57 -139.5t104 -284.5q4 -12 4 -22q0 -8 -3 -14q-7 -13 -29 -13 h-123q-29 0 -37 25q-43 135 -77 242.5t-79 185.5q-18 31 -39.5 62.5t-52.5 56t-71.5 40t-98.5 15.5h-108v-586q0 -16 -13.5 -28.5t-29.5 -12.5h-80q-16 0 -29.5 12.5t-13.5 28.5zM371 774h198q123 0 192.5 62.5t69.5 177.5q0 92 -60 150.5t-179 58.5h-221v-449z" />
<glyph unicode="S" horiz-adv-x="989" d="M102 98l21 80q4 16 17.5 26.5t35.5 2.5q55 -20 126 -40t149 -20q123 0 195.5 62.5t72.5 167.5q0 94 -57.5 145t-139.5 88l-96 43q-55 25 -109.5 52.5t-98.5 68.5t-70.5 99.5t-26.5 144.5q0 78 27.5 144.5t80 115.5t129 76.5t177.5 27.5q63 0 132.5 -13t116.5 -30 q14 -4 21.5 -20t3.5 -33l-16 -65q-4 -16 -19.5 -26.5t-28.5 -6.5q-51 16 -99 27.5t-111 11.5q-127 0 -182.5 -53.5t-55.5 -149.5q0 -45 16.5 -78t46 -58.5t67.5 -45t81 -37.5l113 -47q57 -25 107 -55.5t88 -73.5t60.5 -103.5t22.5 -142.5q0 -78 -27.5 -148.5t-84 -125 t-141.5 -87t-197 -32.5q-86 0 -172.5 17.5t-145.5 39.5q-31 11 -31 37q0 6 2 14z" />
<glyph unicode="T" horiz-adv-x="913" d="M39 1264v67q0 18 13.5 29.5t31.5 11.5h788q16 0 28.5 -11t12.5 -30v-67q0 -18 -12 -29.5t-29 -11.5h-311v-1182q0 -16 -13 -28.5t-30 -12.5h-80q-16 0 -29.5 12.5t-13.5 28.5v1182h-311q-18 0 -31.5 11t-13.5 30z" />
<glyph unicode="U" horiz-adv-x="1241" d="M195 412v919q0 18 13 29.5t30 11.5h77q16 0 29.5 -11t13.5 -30v-882q0 -147 55.5 -232.5t202.5 -85.5q57 0 105.5 11.5t84.5 44t56.5 89t20.5 148.5v907q0 18 13 29.5t30 11.5h78q16 0 29.5 -11t13.5 -30v-919q0 -205 -108 -313.5t-323 -108.5q-225 0 -323 113.5 t-98 308.5z" />
<glyph unicode="V" horiz-adv-x="1132" d="M78 1329q-2 7 -2 13q0 10 6 18q10 12 27 12h104q41 0 53 -41l266 -991q6 -18 11.5 -46t11.5 -58.5t11 -62.5t9 -58q10 53 22.5 119.5t23.5 105.5l266 991q10 41 49 41h88q16 0 26 -12q8 -9 8 -20q0 -4 -1 -9l-371 -1290q-4 -16 -21.5 -28.5t-33.5 -12.5h-115 q-16 0 -33.5 12.5t-21.5 28.5z" />
<glyph unicode="W" horiz-adv-x="1710" d="M123 1331q-1 5 -1 10q0 11 6 19q9 12 26 12h114q16 0 26.5 -12t14.5 -29l164 -938q6 -33 9 -72.5t6.5 -79.5t5.5 -76t6 -63q4 27 9 65t11 79t13.5 78.5t13.5 66.5l209 940q10 41 47 41h149q18 0 30.5 -12t16.5 -29l189 -938q6 -33 12 -71.5t10 -78.5t7.5 -77t5.5 -64 q2 27 7 64t9 76t10 77.5t13 71.5l180 940q4 16 15 28.5t28 12.5h98q17 0 27 -13q8 -9 7 -21q0 -4 -1 -9l-273 -1288q-4 -16 -21 -28.5t-34 -12.5h-143q-20 0 -35.5 9t-19.5 32l-191 973q-10 59 -16 135t-11 129q-2 -25 -4 -58.5t-6 -69.5t-9 -72t-11 -66l-215 -971 q-10 -41 -52 -41h-159q-18 0 -28.5 7t-14.5 30z" />
<glyph unicode="X" horiz-adv-x="1171" d="M56 14q-4 5 -3 12q0 11 10 25l420 662l-372 608q-14 23 -6 37t28 14h125q20 0 31.5 -9t19.5 -24l283 -487l282 487q8 14 19.5 23.5t32.5 9.5h104q20 0 28.5 -14.5t-5.5 -36.5l-365 -596l418 -674q10 -15 10 -26q0 -6 -3 -11q-9 -14 -30 -14h-131q-20 0 -31.5 9t-19.5 24 l-323 559l-328 -559q-8 -14 -19.5 -23.5t-31.5 -9.5h-113q-20 0 -30 14z" />
<glyph unicode="Y" horiz-adv-x="1013" d="M53 1333q-3 6 -3 11q0 7 4 14q7 14 28 14h129q29 0 39 -24l209 -504q29 -66 40 -114t21 -97q8 49 19.5 95t40.5 118l196 497q10 29 43 29h121q14 0 22 -9q4 -4 4 -11q0 -9 -5 -21l-369 -809v-481q0 -16 -13.5 -28.5t-29.5 -12.5h-78q-16 0 -29.5 12.5t-13.5 28.5v481z " />
<glyph unicode="Z" horiz-adv-x="1021" d="M102 41v84q0 16 6.5 31.5t12.5 25.5l559 967q16 27 36.5 48.5t39.5 37.5q-47 -12 -119 -12h-471q-18 0 -31.5 12t-13.5 29v67q0 18 13 29.5t32 11.5h692q16 0 28.5 -11t12.5 -30v-74q0 -16 -6 -33.5t-16 -33.5l-553 -959q-16 -31 -37 -53t-39 -37q18 4 47 8.5t59 4.5h527 q16 0 28.5 -12.5t12.5 -28.5v-72q0 -16 -12.5 -28.5t-28.5 -12.5h-738q-16 0 -28.5 12.5t-12.5 28.5z" />
<glyph unicode="[" horiz-adv-x="624" d="M205 -264v1792q0 45 45 45h248q45 0 45 -45v-35q0 -43 -45 -43h-146v-1636h146q45 0 45 -43v-35q0 -45 -45 -45h-248q-45 0 -45 45z" />
<glyph unicode="\" horiz-adv-x="686" d="M53 1370q-6 20 2 30.5t25 10.5h65q23 0 33 -9t15 -26l440 -1523q12 -45 -25 -46h-69q-37 0 -45 35z" />
<glyph unicode="]" horiz-adv-x="624" d="M82 -229q0 43 45 43h145v1636h-145q-45 0 -45 43v35q0 45 45 45h248q45 0 45 -45v-1792q0 -45 -45 -45h-248q-45 0 -45 45v35z" />
<glyph unicode="^" horiz-adv-x="1218" d="M129.5 599.5q-6.5 16.5 1.5 33.5l410 794q10 23 37 23h71q10 0 22.5 -6t16.5 -17l402 -794q8 -16 1.5 -32.5t-22.5 -25.5l-43 -20q-16 -8 -32.5 -4t-24.5 20l-359 709l-358 -709q-8 -16 -24.5 -20t-32.5 4l-43 20q-16 8 -22.5 24.5z" />
<glyph unicode="_" horiz-adv-x="1064" d="M20 -199q0 45 43 45h936q45 0 45 -45v-20q0 -43 -45 -43h-936q-43 0 -43 43v20z" />
<glyph unicode="`" horiz-adv-x="720" d="M135.5 1353.5q-8.5 14.5 3.5 37.5l43 79q20 33 54 13l333 -211q35 -20 19 -53l-19 -35q-16 -31 -51 -15l-358 162q-16 8 -24.5 22.5z" />
<glyph unicode="a" horiz-adv-x="923" d="M74 276q0 86 26.5 145.5t68.5 95.5t95 52.5t107 20.5l239 14v53q0 49 -7 85t-27.5 59.5t-57.5 36t-94 12.5q-63 0 -108.5 -12.5t-86.5 -22.5q-18 -4 -32.5 4t-18.5 27l-12 65q-1 6 -1 11q0 31 30 39q41 10 106.5 23t130.5 13q117 0 183.5 -33.5t101.5 -86t44 -117 t9 -125.5v-363q0 -41 1 -81.5t11 -88.5l13 -61q1 -5 1 -10q0 -31 -34 -31h-84q-39 0 -45 37l-17 102q-49 -82 -123.5 -115.5t-156.5 -33.5q-119 0 -190.5 74.5t-71.5 211.5zM242 276q0 -80 36.5 -117.5t102.5 -37.5q51 0 94 20.5t73 51t46 66.5t16 67v161l-137 -6 q-49 -2 -92 -11t-74 -31.5t-48 -61.5t-17 -101z" />
<glyph unicode="b" horiz-adv-x="968" d="M160 41v1368q0 18 13 29.5t30 11.5h73q16 0 29.5 -11.5t13.5 -29.5v-557q80 145 230 145q66 0 127 -28.5t102 -81.5q27 -35 45.5 -73t30.5 -85t17.5 -105.5t5.5 -134.5q0 -499 -321 -499h-1q-80 0 -137.5 31.5t-102.5 107.5l-16 -88q-8 -41 -53 -41h-43q-16 0 -29.5 12.5 t-13.5 28.5zM315 487q0 -186 50.5 -274t150.5 -88q96 0 141 85t45 282q0 113 -14 181t-37 109q-43 80 -137 80t-146.5 -95t-52.5 -280z" />
<glyph unicode="c" horiz-adv-x="759" d="M86 502q0 109 29.5 200t83 156.5t126 102t158.5 36.5q53 0 99.5 -11t74.5 -23q34 -16 34 -39q0 -6 -3 -13l-20 -59q-4 -16 -16.5 -25.5t-35.5 0.5q-25 10 -60.5 19.5t-78.5 9.5q-96 0 -156.5 -94t-60.5 -260q0 -360 236 -361q41 0 77.5 5.5t65.5 13.5q23 6 35 -4.5 t16 -26.5l15 -63q1 -5 1 -10q0 -11 -6 -21q-8 -15 -28 -21q-43 -14 -88 -19t-99 -5q-180 0 -289.5 132t-109.5 380z" />
<glyph unicode="d" horiz-adv-x="968" d="M92 489q0 76 5 134.5t17.5 105.5t31 85t44.5 73q41 53 102.5 81.5t127.5 28.5q150 0 229 -145v557q0 18 13.5 29.5t29.5 11.5h74q16 0 29.5 -11.5t13.5 -29.5v-1368q0 -16 -13.5 -28.5t-29.5 -12.5h-43q-45 0 -53 41l-17 88q-45 -76 -102 -107.5t-137 -31.5 q-322 0 -322 499zM266 492q0 -197 45 -282t142 -85q100 0 150 88t50 274q0 184 -52 279.5t-146 95.5t-138 -80q-23 -41 -37 -109.5t-14 -180.5z" />
<glyph unicode="e" horiz-adv-x="915" d="M88 500q0 117 26.5 209t76 156.5t118 98t150.5 33.5q70 0 135 -23.5t116.5 -81.5t81 -154.5t29.5 -241.5q0 -16 -12 -29.5t-29 -13.5h-522q6 -156 65.5 -238t198.5 -82q59 0 103.5 9.5t91.5 23.5q23 6 35 -2t18 -25l18 -51q3 -9 3 -17q0 -24 -29 -36q-41 -18 -95.5 -31.5 t-142.5 -13.5q-213 0 -324.5 130t-111.5 380zM258 584h395q-2 51 -12 102t-33.5 91t-58.5 64.5t-86 24.5q-25 0 -56.5 -10t-61.5 -40t-54.5 -85t-32.5 -147z" />
<glyph unicode="f" horiz-adv-x="567" d="M31 899v45q0 16 11 29.5t30 13.5h112v240q0 127 63.5 180t160.5 53q25 0 68.5 -11t68.5 -22q16 -8 21 -23q3 -8 3 -17q0 -7 -2 -15l-16 -55q-10 -33 -47 -23q-16 4 -42 13.5t-46 9.5q-33 0 -52.5 -20.5t-19.5 -75.5v-234h158q16 0 28.5 -13t12.5 -30v-45 q0 -16 -12.5 -29.5t-28.5 -13.5h-158v-815q0 -16 -13.5 -28.5t-29.5 -12.5h-74q-16 0 -29.5 12.5t-13.5 28.5v815h-112q-18 0 -29.5 13.5t-11.5 29.5z" />
<glyph unicode="g" horiz-adv-x="872" d="M61 -135q0 18 13.5 29.5t29.5 11.5l91 -2q37 0 43 -41q6 -43 27.5 -69.5t53 -41t69.5 -18.5t75 -4q45 0 87 10t73.5 29.5t51 47t19.5 64.5q0 66 -38 102.5t-124 36.5h-194q-92 0 -154.5 36t-62.5 118q0 55 26.5 96t63.5 76q-68 45 -109 119t-41 176q0 86 27 151.5 t75 111.5t113.5 69.5t145.5 23.5q35 0 63.5 -5t61.5 -5h231q18 0 29.5 -13t11.5 -30v-51q0 -35 -41 -39l-71 -6q35 -47 56 -100.5t21 -106.5q0 -166 -97 -260t-263 -94q-55 0 -105 12q-16 -16 -28 -33.5t-12 -38.5q0 -35 26.5 -47t91.5 -12h160q137 0 218 -69.5t81 -194.5 q0 -86 -36 -146.5t-93 -98.5t-129 -55.5t-141 -17.5q-72 0 -141.5 13.5t-127 45t-92.5 85t-35 135.5zM231 647q0 -74 15.5 -120t42 -70.5t61.5 -33.5t74 -9q37 0 71.5 9t61.5 35.5t43 71.5t16 117q0 70 -15 115t-42 69.5t-61.5 33.5t-73.5 9t-74 -9t-61.5 -33.5t-42 -68.5 t-15.5 -116z" />
<glyph unicode="h" horiz-adv-x="1011" d="M160 41v1368q0 18 13 29.5t30 11.5h73q16 0 29.5 -11.5t13.5 -29.5v-551q66 74 134.5 106.5t146.5 32.5q117 0 184.5 -69.5t67.5 -186.5v-700q0 -16 -13.5 -28.5t-29.5 -12.5h-74q-16 0 -29.5 12.5t-13.5 28.5v664q0 82 -31.5 117.5t-99.5 35.5q-49 0 -93 -19.5t-77 -54 t-52.5 -81t-19.5 -99.5v-563q0 -16 -13 -28.5t-30 -12.5h-73q-16 0 -29.5 12.5t-13.5 28.5z" />
<glyph unicode="i" horiz-adv-x="501" d="M131 1341q0 49 35 84t84 35t84 -35t35 -84t-35 -83.5t-84 -34.5t-84 34.5t-35 83.5zM170 41v905q0 16 13.5 28.5t29.5 12.5h74q16 0 29.5 -12t13.5 -29v-905q0 -16 -13.5 -28.5t-29.5 -12.5h-74q-16 0 -29.5 12.5t-13.5 28.5z" />
<glyph unicode="j" horiz-adv-x="503" d="M33 -306q2 15 18 25l29 17q31 18 49 34.5t27.5 37t12.5 47t3 61.5v1030q0 16 13.5 28.5t29.5 12.5h74q16 0 29.5 -12t13.5 -29v-1073q0 -90 -35 -149.5t-115 -102.5l-53 -29q-11 -7 -22 -7q-5 0 -11 2q-16 5 -24 20l-33 57q-6 11 -6 23v7zM139 1341q0 49 35 84t84 35 t84 -35t35 -84t-35 -83.5t-84 -34.5t-84 34.5t-35 83.5z" />
<glyph unicode="k" horiz-adv-x="878" d="M160 41v1368q0 18 13 29.5t30 11.5h73q16 0 29.5 -11.5t13.5 -29.5v-846l259 393q8 12 20 21.5t33 9.5h110q23 0 29 -16.5t-6 -32.5l-279 -377l346 -512q7 -11 7 -22q0 -5 -2 -11q-5 -16 -27 -16h-125q-29 0 -49 35l-316 510v-504q0 -16 -13 -28.5t-30 -12.5h-73 q-16 0 -29.5 12.5t-13.5 28.5z" />
<glyph unicode="l" horiz-adv-x="514" d="M160 164v1245q0 18 13 29.5t30 11.5h73q16 0 29.5 -11.5t13.5 -29.5v-1204q0 -39 8.5 -59.5t43.5 -20.5q14 0 30.5 4t34.5 8q37 8 45 -26l13 -56q1 -5 1 -9q0 -24 -28 -34q-27 -10 -56.5 -16t-64.5 -6q-98 0 -142 44t-44 130z" />
<glyph unicode="m" horiz-adv-x="1454" d="M164 41v905q0 18 13 29.5t30 11.5h45q39 0 47 -33l23 -98q43 51 110.5 96t149.5 45t139 -39.5t72 -111.5q63 76 130.5 113.5t147.5 37.5q33 0 73 -8t72.5 -31.5t55 -64.5t22.5 -107v-745q0 -16 -13 -28.5t-30 -12.5h-77q-16 0 -30 12.5t-14 28.5v717q0 96 -94 96 q-45 0 -86 -18.5t-71.5 -52t-49 -79t-18.5 -98.5v-565q0 -16 -13.5 -28.5t-29.5 -12.5h-78q-16 0 -29.5 12.5t-13.5 28.5v717q0 96 -96 96q-45 0 -86 -18.5t-72 -52t-48 -79t-17 -98.5v-565q0 -16 -13.5 -28.5t-29.5 -12.5h-78q-16 0 -29.5 12.5t-13.5 28.5z" />
<glyph unicode="n" horiz-adv-x="1015" d="M164 41v905q0 18 13 29.5t30 11.5h45q39 0 47 -33l23 -100q66 78 134 110.5t148 32.5q117 0 184.5 -69.5t67.5 -186.5v-700q0 -16 -13.5 -28.5t-29.5 -12.5h-78q-16 0 -29.5 12.5t-13.5 28.5v664q0 82 -29.5 117.5t-97.5 35.5q-49 0 -93 -19.5t-75.5 -54t-50 -81 t-18.5 -99.5v-563q0 -16 -13.5 -28.5t-29.5 -12.5h-78q-16 0 -29.5 12.5t-13.5 28.5z" />
<glyph unicode="o" horiz-adv-x="954" d="M86 494q0 117 27.5 211t80 158.5t124 99t161.5 34.5q88 0 161 -34.5t123 -99t77.5 -158.5t27.5 -211q0 -238 -104.5 -371t-284.5 -133q-90 0 -161.5 34.5t-124 99t-80 158t-27.5 212.5zM256 494q0 -190 56.5 -279.5t162.5 -89.5t162.5 89.5t56.5 279.5q0 186 -56 276 t-163 90q-106 0 -162.5 -90t-56.5 -276z" />
<glyph unicode="p" horiz-adv-x="972" d="M164 -362v1308q0 16 13 28.5t30 12.5h43q45 0 53 -41l21 -94q80 145 229 145q66 0 127 -28.5t102 -81.5q27 -35 45.5 -73t30.5 -85t17.5 -105.5t5.5 -134.5q0 -499 -321 -499h-1q-80 0 -137 30.5t-98 102.5v-485q0 -18 -13.5 -29.5t-29.5 -11.5h-74q-16 0 -29.5 11 t-13.5 30zM319 487q0 -186 50.5 -274t150.5 -88q96 0 141.5 85t45.5 282q0 113 -14.5 181t-37.5 109q-43 80 -137 80t-146.5 -95t-52.5 -280z" />
<glyph unicode="q" horiz-adv-x="962" d="M92 489q0 76 5 134.5t17.5 105.5t31 85t44.5 73q41 53 102.5 81.5t127.5 28.5q150 0 229 -145l21 94q8 41 53 41h43q16 0 29.5 -12t13.5 -29v-1308q0 -18 -13.5 -29.5t-29.5 -11.5h-74q-16 0 -29.5 11t-13.5 30v485q-41 -72 -98 -102.5t-137 -30.5q-322 0 -322 499z M266 492q0 -197 45 -282t142 -85q100 0 150 88t50 274q0 184 -52 279.5t-146 95.5t-138 -80q-23 -41 -37 -109.5t-14 -180.5z" />
<glyph unicode="r" horiz-adv-x="663" d="M164 41v905q0 18 13 29.5t30 11.5h47q33 0 43 -31l29 -110q43 72 100 111.5t129 39.5q49 -1 82 -21q27 -16 27 -39q0 -5 -2 -11l-21 -84q-4 -23 -18.5 -34t-40.5 -3q-23 6 -54.5 14t-60.5 8q-23 0 -47.5 -14t-45 -45t-33.5 -78t-13 -115v-534q0 -16 -13.5 -28.5 t-29.5 -12.5h-78q-16 0 -29.5 12.5t-13.5 28.5z" />
<glyph unicode="s" horiz-adv-x="788" d="M88 102l18 62q6 23 21.5 29t32.5 -3q49 -25 107.5 -40t119.5 -15q78 0 114 35t36 98q0 47 -31 80t-78 61.5t-101.5 57.5t-101.5 64.5t-77.5 84t-30.5 115.5q0 119 84 192.5t229 73.5q72 0 121 -12t90 -31q22 -11 22 -34q0 -10 -4 -21l-18 -51q-12 -35 -51 -21 q-31 12 -75 24.5t-91 12.5q-70 0 -107.5 -32.5t-37.5 -88.5q0 -43 31.5 -74.5t78.5 -59t101.5 -56.5t101.5 -68t78.5 -92t31.5 -127q0 -61 -22.5 -111.5t-63.5 -87t-100 -57t-133 -20.5q-66 0 -141.5 14t-130.5 43q-26 13 -26 37q0 9 3 18z" />
<glyph unicode="t" horiz-adv-x="561" d="M31 899v45q0 16 11 29.5t30 13.5h112v207q0 35 31 45l76 27q14 4 27 4h8q18 -2 18 -27v-256h115q16 0 28.5 -13t12.5 -30v-45q0 -16 -12.5 -29.5t-28.5 -13.5h-115v-651q0 -80 74 -80q12 0 29.5 2t33.5 6q35 6 43 -33l8 -43q2 -7 2 -14q0 -11 -4 -19q-6 -14 -28 -20 q-23 -6 -51.5 -10t-61.5 -4q-205 0 -205 194v672h-112q-18 0 -29.5 13.5t-11.5 29.5z" />
<glyph unicode="u" horiz-adv-x="1003" d="M150 250v696q0 18 13 29.5t30 11.5h77q16 0 29.5 -11t13.5 -30v-676q0 -76 33 -109.5t92 -33.5q111 0 179.5 79t68.5 243v497q0 18 13.5 29.5t29.5 11.5h78q16 0 29.5 -11t13.5 -30v-905q0 -16 -13.5 -28.5t-29.5 -12.5h-47q-31 0 -41 35l-27 106q-18 -20 -42.5 -46.5 t-58.5 -49t-82 -39t-116 -16.5q-113 0 -178 65.5t-65 194.5z" />
<glyph unicode="v" horiz-adv-x="866" d="M59 934q-3 11 -3 20q0 13 6 20q12 13 28 13h92q41 0 51 -41l177 -684q10 -35 16 -87t10 -91q4 37 11.5 90t17.5 88l168 686q8 39 49 39h92q16 0 28 -12q8 -8 7 -21q0 -7 -2 -14l-266 -903q-10 -37 -47 -37h-129q-18 0 -27.5 7t-15.5 30z" />
<glyph unicode="w" horiz-adv-x="1361" d="M63 938q-1 6 -1 12q0 15 8 24q10 13 26 13h97q39 0 47 -41l131 -643q10 -55 15 -110.5t9 -108.5q8 51 15.5 107.5t19.5 109.5l145 647q8 39 50 39h118q41 0 52 -41l147 -645q12 -53 19.5 -108.5t13.5 -108.5q6 51 12 107.5t17 109.5l120 647q4 20 17.5 29.5t32.5 9.5h90 q16 0 26 -12q7 -9 7 -23q0 -6 -1 -12l-204 -903q-10 -37 -48 -37h-149q-18 0 -28.5 7t-14.5 30l-141 627q-10 47 -16.5 101t-12.5 109q-4 -55 -11 -109t-18 -101l-141 -627q-6 -37 -47 -37h-152q-18 0 -28.5 7t-14.5 30z" />
<glyph unicode="x" horiz-adv-x="890" d="M48 12q-4 5 -4 11q0 8 7 18l309 475l-264 430q-10 18 -2 29.5t25 11.5h106q33 0 51 -33l181 -313l180 313q18 33 51 33h100q16 0 25.5 -11t-2.5 -30l-272 -420l297 -485q5 -9 5 -16q1 -7 -3 -13q-8 -12 -25 -12h-108q-35 0 -52 29l-209 370l-217 -370q-16 -29 -51 -29 h-102q-16 0 -26 12z" />
<glyph unicode="y" horiz-adv-x="897" d="M59 946q-2 5 -2 10q0 10 9 18q12 13 28 13h96q39 0 52 -41l198 -682q6 -23 11.5 -51.5t9.5 -52.5q4 23 13 62.5t20 78.5l168 647q8 39 49 39h92q16 0 27 -12q9 -9 9 -21q0 -4 -1 -8l-299 -1085q-23 -86 -71 -149.5t-126 -100.5l-43 -21q-8 -4 -17 -4q-6 0 -12 2 q-16 4 -24 21l-29 57q-6 12 0 31.5t21 26.5l30 14q59 29 88 81t47 124l35 133h-63q-39 0 -49 39z" />
<glyph unicode="z" horiz-adv-x="790" d="M82 61v48q0 14 5 26t11 23l396 637q12 20 23 36.5t22 26.5q-14 -4 -32 -4h-28h-327q-18 0 -29.5 13.5t-11.5 29.5v47q0 16 11 29.5t30 13.5h505q16 0 28.5 -13t12.5 -30v-63q0 -27 -14 -50l-377 -610q-14 -23 -30.5 -47t-28.5 -41q16 2 37.5 3t38.5 1h344q16 0 28.5 -10 t12.5 -27v-57q0 -16 -12.5 -29.5t-28.5 -13.5h-541q-23 0 -34 16.5t-11 44.5z" />
<glyph unicode="{" horiz-adv-x="712" d="M82 635v41q0 39 33 45q61 10 109 69.5t48 159.5v367q0 61 20.5 109.5t51.5 81t69 49t74 16.5h78q45 0 45 -45v-35q0 -43 -45 -43h-45q-33 0 -52 -13.5t-30.5 -37t-14.5 -52t-3 -59.5v-366q0 -70 -20.5 -118t-49 -79t-58.5 -46t-48 -20v-4q18 -2 48 -15t58.5 -43t49 -80 t20.5 -126v-416q0 -31 3 -59.5t14.5 -51t30.5 -36.5t52 -14h45q45 0 45 -43v-35q0 -45 -45 -45h-78q-39 0 -76.5 16.5t-68.5 49t-50.5 80.5t-19.5 110v415q0 51 -14 93.5t-36.5 72t-51.5 46t-57 20.5q-31 4 -31 41z" />
<glyph unicode="|" horiz-adv-x="524" d="M195 -471v1966q0 18 13 29.5t30 11.5h49q16 0 29.5 -11.5t13.5 -29.5v-1966q0 -16 -13.5 -28.5t-29.5 -12.5h-49q-16 0 -29.5 12.5t-13.5 28.5z" />
<glyph unicode="}" horiz-adv-x="712" d="M82 -229q0 43 45 43h45q33 0 52.5 14t29.5 36.5t14 51.5t4 59v416q0 76 20.5 126t49.5 80t58.5 43t48.5 15v4q-18 4 -48 19.5t-59 46.5t-49.5 79t-20.5 118v366q0 31 -4 59.5t-14 52t-29.5 37t-52.5 13.5h-45q-45 0 -45 43v35q0 45 45 45h78q37 0 74.5 -16.5t68.5 -49 t51.5 -81t20.5 -109.5v-367q0 -100 48 -159.5t110 -69.5q33 -6 32 -45v-41q0 -37 -30 -41q-29 -4 -57.5 -20.5t-51 -46t-37 -71.5t-14.5 -94v-415q0 -61 -19.5 -109.5t-50.5 -81t-68.5 -49t-76.5 -16.5h-78q-45 0 -45 45v35z" />
<glyph unicode="~" horiz-adv-x="1157" d="M128 615.5q1 11.5 22 31.5q53 49 115.5 77t156.5 28q63 0 106 -17.5t80 -37t77 -37t97 -17.5q51 0 87 18.5t65 40.5q14 10 32.5 13.5t28.5 -13.5l23 -32q23 -35 -8 -60q-59 -49 -120 -78.5t-157 -29.5q-66 0 -108.5 17.5t-79.5 36.5t-77 36.5t-97 17.5q-53 0 -87 -19.5 t-67 -43.5q-14 -10 -31.5 -8t-29.5 20l-19 29q-10 16 -9 27.5z" />
<glyph unicode="&#xa1;" horiz-adv-x="651" d="M199 901q0 53 36.5 90t90.5 37q53 0 91 -37t38 -90t-38 -91t-91 -38t-90 38t-37 91zM225 -352l23 897q0 29 11 39t30 10h69q18 0 29.5 -13.5t11.5 -35.5l27 -897q0 -41 -43 -41h-115q-43 0 -43 41z" />
<glyph unicode="&#xa2;" horiz-adv-x="851" d="M115 502q0 94 25.5 176t71.5 145.5t106.5 105.5t132.5 58v148q0 18 13 29.5t30 11.5h47q16 0 29.5 -11.5t13.5 -29.5v-140q39 -4 69.5 -13t53.5 -19q43 -20 30 -52l-20 -59q-4 -16 -16.5 -25.5t-34.5 0.5q-16 6 -37 13.5t-45 11.5v-709q57 2 104 17q23 6 35 -4.5 t16 -26.5l15 -63q4 -16 -4.5 -31t-28.5 -21q-33 -10 -66.5 -15t-70.5 -7v-137q0 -16 -13.5 -28.5t-29.5 -12.5h-47q-16 0 -29.5 12t-13.5 29v143q-147 29 -241.5 158t-94.5 346zM289 502q0 -141 43 -226.5t119 -115.5v680q-70 -33 -116 -120t-46 -218z" />
<glyph unicode="&#xa3;" horiz-adv-x="1026" d="M141 698v45q0 16 11.5 29.5t29.5 13.5h119v154q0 74 10.5 145.5t46 128t102 90t179.5 33.5q66 0 123 -10t98 -20q35 -8 29 -50l-12 -65q-4 -16 -18.5 -25.5t-33.5 -5.5q-41 10 -80.5 19.5t-97.5 9.5q-111 0 -148.5 -52.5t-37.5 -164.5v-187h254q16 0 28.5 -13t12.5 -30 v-45q0 -16 -12.5 -29.5t-28.5 -13.5h-254v-110q0 -139 -30 -233.5t-81 -159.5h522q16 0 28.5 -12.5t12.5 -28.5v-70q0 -16 -12 -28.5t-29 -12.5h-645q-23 0 -34 16.5t-11 44.5v52q0 14 5.5 26.5t11.5 22.5q39 66 70.5 152.5t31.5 226.5v114h-119q-18 0 -29.5 13.5 t-11.5 29.5z" />
<glyph unicode="&#xa4;" horiz-adv-x="968" d="M156 551q0 74 24.5 141.5t65.5 112.5l-66 96q-12 16 -8 32.5t21 27.5l67 40q14 10 29.5 5t23.5 -19l62 -98q27 8 49 12t55 4q35 0 59.5 -5t51.5 -15l57 100q10 16 25.5 20.5t32.5 -6.5l63 -38q16 -10 19.5 -29t-7.5 -31l-67 -96q45 -41 70.5 -109.5t25.5 -156.5 q0 -72 -21.5 -134.5t-58.5 -101.5l70 -98q10 -12 8 -30.5t-16 -29.5l-64 -39q-16 -10 -32.5 -7t-26.5 20l-64 94q-29 -10 -55.5 -15t-67.5 -5q-39 0 -63.5 6t-52.5 16l-64 -96q-10 -14 -25.5 -19.5t-31.5 4.5l-66 41q-16 10 -17 26.5t9 33.5l70 98q-39 45 -61.5 107.5 t-22.5 140.5zM309 549q0 -47 9.5 -89t30 -73t53 -49.5t79.5 -18.5q94 0 134 67t40 163q0 47 -9 89t-29.5 72.5t-54.5 49t-81 18.5t-79.5 -18.5t-53 -49t-30 -72.5t-9.5 -89z" />
<glyph unicode="&#xa5;" horiz-adv-x="1243" d="M174 1288q-6 12 1 25.5t28 13.5h129q29 0 39 -24l239 -576q10 -25 14.5 -49.5t8.5 -54.5q4 29 8 55.5t14 48.5l232 571q8 16 16 22.5t27 6.5h114q14 0 22.5 -9t-1.5 -32l-248 -528h199q45 0 45 -45v-33q0 -43 -45 -43h-254l-57 -121v-76h311q45 0 45 -45v-33 q0 -43 -45 -43h-311v-278q0 -16 -13.5 -28.5t-29.5 -12.5h-78q-16 0 -29.5 12.5t-13.5 28.5v278h-314q-43 0 -43 43v33q0 45 43 45h314v76l-58 121h-256q-43 0 -43 43v33q0 45 43 45h199z" />
<glyph unicode="&#xa6;" horiz-adv-x="524" d="M195 307q0 18 13 29.5t30 11.5h49q16 0 29.5 -11t13.5 -30v-778q0 -16 -13.5 -28.5t-29.5 -12.5h-49q-16 0 -29.5 12.5t-13.5 28.5v778zM195 717v778q0 18 13 29.5t30 11.5h49q16 0 29.5 -11.5t13.5 -29.5v-778q0 -16 -13.5 -28.5t-29.5 -12.5h-49q-16 0 -29.5 12 t-13.5 29z" />
<glyph unicode="&#xa7;" horiz-adv-x="917" d="M102 651q0 86 48.5 154.5t134.5 103.5q-61 53 -85 106.5t-24 114.5q0 49 16.5 101.5t54.5 94.5t98.5 68.5t150.5 26.5q61 0 107 -11t81 -21q14 -4 22.5 -17.5t2.5 -36.5l-15 -49q-6 -18 -15 -24.5t-32 -1.5q-31 6 -69.5 15t-73.5 9q-47 0 -79 -12t-50.5 -32.5 t-26.5 -46.5t-8 -52q0 -49 36 -85t89 -68t114.5 -66.5t115 -81.5t89 -112t35.5 -159q0 -61 -34.5 -127.5t-122.5 -119.5q43 -41 64.5 -93.5t21.5 -128.5q0 -57 -20.5 -110t-65 -96.5t-113 -69t-162.5 -27.5q-59 -2 -114.5 8.5t-96.5 20.5q-39 10 -31 51l13 64q4 23 18 32 t37 0q33 -10 75 -20t95 -10q57 0 95 14t58.5 35.5t28.5 48.5t8 53q0 63 -35.5 105.5t-88 76t-113 64.5t-112.5 72t-87 97t-35 142zM268 649q0 -31 14.5 -56.5t47 -51t85 -55t128.5 -70.5q53 16 78.5 62.5t25.5 103.5q0 35 -8 62.5t-32.5 54t-72 57t-128.5 71.5 q-29 -4 -54.5 -19t-44 -40t-29 -55.5t-10.5 -63.5z" />
<glyph unicode="&#xa8;" horiz-adv-x="1064" d="M225 1276q0 41 29 68.5t65 27.5q43 0 72 -27.5t29 -68.5q0 -43 -27.5 -71.5t-70.5 -28.5q-39 0 -68 28.5t-29 71.5zM578 1276q0 41 28.5 68.5t71.5 27.5q37 0 66.5 -27.5t29.5 -68.5q0 -43 -28.5 -71.5t-65.5 -28.5q-43 0 -72.5 28.5t-29.5 71.5z" />
<glyph unicode="&#xa9;" horiz-adv-x="1712" d="M160 686q0 150 55 277t150.5 220t221.5 146t269 53q141 0 268 -53t222.5 -146t150.5 -220t55 -277t-55 -276.5t-150.5 -220t-222.5 -146.5t-268 -53q-143 0 -269 53t-221.5 146.5t-150.5 220.5t-55 276zM283 686q0 -127 45 -235.5t121.5 -188.5t181 -126t225.5 -46 q119 0 224.5 46t182 126t122 188.5t45.5 235.5t-45.5 235.5t-122 188.5t-182 126t-224.5 46q-121 0 -225.5 -46t-181 -126t-121.5 -188.5t-45 -235.5zM561 690q0 92 24.5 166t67.5 126t103.5 81t132.5 29q43 0 82 -9.5t61 -19.5q35 -18 27 -43l-17 -49q-4 -12 -14 -20.5 t-31 -2.5q-23 10 -49 15.5t-63 5.5q-82 0 -130 -69t-48 -210q0 -154 50 -222.5t142 -68.5q35 0 63.5 6.5t55.5 10.5q18 4 28.5 -4.5t14.5 -22.5l10 -51q6 -27 -27 -41q-66 -23 -153 -23q-152 0 -241 102.5t-89 313.5z" />
<glyph unicode="&#xaa;" horiz-adv-x="921" d="M158 520v43q0 45 43 45h481q27 0 36 -13t9 -36v-39q0 -43 -45 -43h-481q-43 0 -43 43zM162 942q0 63 18.5 106.5t49 71t69.5 41t80 15.5l168 8v26q0 68 -22.5 100.5t-102.5 32.5q-45 0 -79 -7t-64 -17q-12 -2 -22.5 3t-14.5 19l-11 58q-8 33 19 37q29 10 82 17t100 7 q82 0 131 -23.5t75 -60.5t33 -83t7 -91v-264q0 -29 1 -58.5t7 -64.5l8 -43q4 -12 -4 -20.5t-18 -8.5h-76q-25 0 -31 27l-12 70q-31 -59 -86 -84t-115 -25q-86 0 -138 56.5t-52 154.5zM299 944q0 -55 25.5 -82.5t68.5 -27.5q35 0 63.5 15t48 39.5t31 56.5t11.5 65v77 q-57 -2 -103.5 -4t-78 -15t-49 -41t-17.5 -83z" />
<glyph unicode="&#xab;" horiz-adv-x="1007" d="M131 465q-16 25 0 51l256 385q8 10 21.5 14.5t23.5 -2.5l60 -39q10 -8 13 -21t-5 -26l-221 -335l221 -336q8 -12 5 -26.5t-11 -18.5l-62 -41q-10 -8 -24.5 -3t-20.5 15zM489 465q-16 25 0 51l256 385q8 10 21.5 14.5t24.5 -2.5l59 -39q10 -8 13 -21t-5 -26l-221 -335 l221 -336q8 -12 5 -26.5t-11 -18.5l-61 -41q-10 -8 -24.5 -3t-21.5 15z" />
<glyph unicode="&#xac;" horiz-adv-x="1083" d="M123 487v58q0 45 43 45h708q45 0 46 -45v-344q0 -43 -43 -43h-58q-45 0 -45 43v243h-608q-43 0 -43 43z" />
<glyph unicode="&#xad;" horiz-adv-x="663" d="M115 502v65q0 45 43 45h346q45 0 45 -45v-65q0 -43 -45 -43h-346q-43 0 -43 43z" />
<glyph unicode="&#xae;" horiz-adv-x="1712" d="M160 686q0 150 55 277t150.5 220t221.5 146t269 53q141 0 268 -53t222.5 -146t150.5 -220t55 -277t-55 -276.5t-150.5 -220t-222.5 -146.5t-268 -53q-143 0 -269 53t-221.5 146.5t-150.5 220.5t-55 276zM283 686q0 -127 45 -235.5t121.5 -188.5t181 -126t225.5 -46 q119 0 224.5 46t182 126t122 188.5t45.5 235.5t-45.5 235.5t-122 188.5t-182 126t-224.5 46q-121 0 -225.5 -46t-181 -126t-121.5 -188.5t-45 -235.5zM627 342v698q0 16 11 26.5t28 10.5h196q131 0 194.5 -64.5t63.5 -150.5q0 -82 -48 -145.5t-152 -67.5q29 -16 88 -99 t129 -206q8 -14 2 -28.5t-29 -14.5h-70q-23 0 -30 14q-14 25 -26.5 47.5t-29.5 51.5q-43 70 -71.5 112.5t-63.5 81.5q-18 23 -45 23h-24v-289q0 -16 -10.5 -27.5t-26.5 -11.5h-47q-16 0 -27.5 11.5t-11.5 27.5zM750 731h73q100 0 135 30.5t35 98.5q0 66 -44 92.5t-124 26.5 h-75v-248z" />
<glyph unicode="&#xaf;" horiz-adv-x="757" d="M137 1276v51q0 45 43 45h379q45 0 45 -45v-51q0 -43 -45 -43h-379q-43 0 -43 43z" />
<glyph unicode="&#xb0;" horiz-adv-x="817" d="M123 1141q0 66 18.5 124t53 101t88 68.5t120.5 25.5q135 0 213 -87t78 -245q0 -59 -16 -114.5t-52 -99.5t-91.5 -70.5t-133.5 -26.5q-137 0 -207.5 91t-70.5 233zM266 1147q0 -100 29 -158.5t111 -58.5q90 0 118.5 58.5t28.5 148.5q0 92 -29.5 152.5t-115.5 60.5 q-41 0 -68 -16.5t-43 -44t-23.5 -64.5t-7.5 -78z" />
<glyph unicode="&#xb1;" horiz-adv-x="980" d="M111 645v57q0 45 43 46h264v227q0 45 45 45h57q43 0 43 -45v-227h262q45 0 45 -46v-57q0 -43 -45 -43h-262v-244q0 -43 -43 -43h-57q-45 0 -45 43v244h-264q-43 0 -43 43zM119 117v57q0 45 43 45h663q45 0 45 -45v-57q0 -43 -45 -43h-663q-43 0 -43 43z" />
<glyph unicode="&#xb2;" horiz-adv-x="673" d="M80 606v80q0 20 14 35q82 76 141.5 130t97.5 97t56.5 82t18.5 84q0 53 -35 83t-82 30q-45 0 -73 -11.5t-60 -29.5q-16 -10 -24.5 -2t-14.5 18l-39 76q-10 20 18 37q45 27 91.5 42t101.5 15q61 0 111.5 -19.5t86 -53t55 -79.5t19.5 -98q0 -53 -16.5 -99t-52 -92t-92 -96.5 t-134.5 -113.5h291q12 0 20.5 -9.5t8.5 -21.5v-84q0 -12 -8.5 -21.5t-20.5 -9.5h-450q-12 0 -20.5 9.5t-8.5 21.5z" />
<glyph unicode="&#xb3;" horiz-adv-x="671" d="M88 1307.5q6 9.5 23 19.5q47 25 96 35t98 10q55 0 103.5 -17.5t85 -48t57 -73.5t20.5 -96q0 -59 -36.5 -117.5t-118.5 -93.5q86 -16 140 -80t54 -168q0 -147 -126 -232.5t-351 -85.5q-18 0 -25.5 8.5t-9.5 20.5l-6 74q-4 29 29 29q336 0 336 192q0 72 -56.5 116 t-167.5 44q-35 0 -34 28v86q0 33 34 33q37 0 71 8.5t60.5 25.5t43 42t16.5 59q0 57 -36 81t-95 24q-33 0 -62.5 -7t-60.5 -28q-25 -16 -39 12l-39 74q-10 16 -4 25.5z" />
<glyph unicode="&#xb4;" horiz-adv-x="720" d="M127 1219q-16 33 18 53l334 211q33 20 53 -13l43 -79q12 -23 4 -37.5t-24 -22.5l-358 -162q-35 -16 -52 15z" />
<glyph unicode="&#xb6;" horiz-adv-x="1085" d="M98 948q0 201 103.5 312.5t296.5 111.5h381q16 0 29.5 -11t13.5 -30v-1595q0 -18 -13.5 -29.5t-29.5 -11.5h-66q-16 0 -29.5 11t-13.5 30v1501h-160v-1501q0 -18 -13 -29.5t-30 -11.5h-65q-16 0 -29.5 11t-13.5 30v831q-76 0 -141.5 30t-114.5 81t-77 120.5t-28 149.5z " />
<glyph unicode="&#xb7;" horiz-adv-x="573" d="M143 618q0 59 42 105.5t102 46.5q59 0 101 -46.5t42 -105.5t-42 -105t-101 -46t-101.5 46t-42.5 105z" />
<glyph unicode="&#xb8;" horiz-adv-x="913" d="M322 -328l18 49q8 23 31 11q51 -23 102 -23q29 0 51.5 16.5t22.5 45.5q0 31 -25.5 45t-52.5 14q-16 0 -26.5 -1t-16.5 -1q-35 0 -25 35l50 178h100l-31 -127q45 0 75 -12.5t47 -34t24.5 -47.5t7.5 -53q0 -29 -13.5 -60t-38 -55.5t-62.5 -39.5t-87 -15q-37 0 -71.5 10 t-63.5 24q-27 10 -16 41z" />
<glyph unicode="&#xb9;" horiz-adv-x="575" d="M93 1239q1 12 11 16l232 111q16 8 39.5 4t23.5 -31v-630h66q29 0 29 -29v-74q0 -12 -8.5 -21.5t-20.5 -9.5h-305q-12 0 -20.5 9.5t-8.5 21.5v74q0 29 29 29h86v462l-78 -36q-25 -10 -37 12l-35 70q-4 10 -3 22z" />
<glyph unicode="&#xba;" horiz-adv-x="933" d="M158 520v43q0 45 43 45h506q27 0 36 -13t9 -36v-39q0 -43 -45 -43h-506q-43 0 -43 43zM174 1094q0 174 75 270t208 96q131 0 204.5 -96t73.5 -270t-78.5 -270.5t-210.5 -96.5q-131 0 -201.5 96.5t-70.5 270.5zM315 1102q0 -131 32 -197.5t106 -66.5q76 0 106.5 66.5 t30.5 197.5q0 127 -31 188.5t-106 61.5q-74 0 -106 -61.5t-32 -188.5z" />
<glyph unicode="&#xbb;" horiz-adv-x="1007" d="M144.5 129q-3.5 14 5.5 27l221 336l-221 335q-8 12 -5.5 25.5t13.5 21.5l59 39q10 6 23.5 2t21.5 -14l256 -385q16 -27 0 -51l-256 -383q-6 -10 -20.5 -15.5t-24.5 3.5l-61 41q-8 4 -11.5 18zM503 129q-3 14 5 27l221 336l-221 335q-8 12 -5 25.5t13 21.5l59 39 q10 6 23.5 2t22.5 -14l256 -385q16 -27 0 -51l-256 -383q-6 -10 -20.5 -15.5t-25.5 3.5l-61 41q-8 4 -11 18z" />
<glyph unicode="&#xbc;" horiz-adv-x="1396" d="M93 1239q1 12 11 16l232 111q16 8 39.5 4t23.5 -31v-630h68q29 0 29 -29v-74q0 -12 -8.5 -21.5t-20.5 -9.5h-307q-12 0 -20.5 9.5t-8.5 21.5v74q0 29 29 29h86v462l-78 -36q-25 -10 -37 12l-35 70q-4 10 -3 22zM412.5 -79q-4.5 11 1.5 32l428 1481q12 41 47 41h63 q43 0 29 -48l-428 -1484q-8 -33 -39 -33h-72q-25 0 -29.5 11zM776 137v82q0 10 2 15.5t6 15.5l222 606q8 20 30 21h115q14 0 17 -9.5t-1 -19.5l-233 -606h172l22 284q4 29 31 29h68q29 0 28 -29v-284h72q29 0 29 -29v-76q0 -12 -8.5 -21.5t-20.5 -9.5h-72v-169 q0 -29 -28 -29h-90q-12 0 -21.5 8t-9.5 21v169h-301q-12 0 -20.5 9.5t-8.5 21.5z" />
<glyph unicode="&#xbd;" horiz-adv-x="1488" d="M93 1239q1 12 11 16l232 111q16 8 39.5 4t23.5 -31v-630h66q29 0 29 -29v-74q0 -12 -8.5 -21.5t-20.5 -9.5h-305q-12 0 -20.5 9.5t-8.5 21.5v74q0 29 29 29h86v462l-78 -36q-25 -10 -37 12l-35 70q-4 10 -3 22zM412.5 -79q-4.5 11 1.5 32l428 1481q12 41 47 41h63 q43 0 29 -48l-428 -1484q-8 -33 -39 -33h-72q-25 0 -29.5 11zM895 702q-10 20 20 37q45 27 90.5 42.5t100.5 15.5q61 0 111.5 -19.5t86 -53.5t55 -80t19.5 -97q0 -53 -16 -99.5t-52 -92.5t-92.5 -96t-134.5 -114h293q12 0 20.5 -9t8.5 -21v-84q0 -12 -8 -21.5t-21 -9.5h-450 q-12 0 -20.5 9t-8.5 22v80q0 23 12 34q82 76 142.5 130.5t99.5 97.5t57.5 82t18.5 84q0 53 -37 82.5t-84 29.5q-45 0 -71.5 -11t-59.5 -30q-16 -10 -25.5 -2t-15.5 19z" />
<glyph unicode="&#xbe;" horiz-adv-x="1515" d="M98 1307.5q6 9.5 23 19.5q47 25 96 35t98 10q55 0 103.5 -17.5t85.5 -48t57.5 -73.5t20.5 -96q0 -59 -37 -117.5t-119 -93.5q86 -16 140.5 -80t54.5 -168q0 -147 -126 -232.5t-352 -85.5q-18 0 -25 8.5t-9 20.5l-7 74q-4 29 29 29q336 0 336 192q0 72 -56.5 116 t-166.5 44q-35 0 -35 28v86q0 33 35 33q37 0 70.5 8.5t60 25.5t43 42t16.5 59q0 57 -36 81t-95 24q-33 0 -62.5 -7t-60.5 -28q-25 -16 -39 12l-39 74q-10 16 -4 25.5zM531 -79q-5 11 1 32l429 1481q12 41 47 41h63q43 0 29 -48l-428 -1484q-8 -33 -39 -33h-72q-25 0 -30 11z M897 137v82q0 10 2 15.5t6 15.5l221 606q8 20 31 21h113q14 0 18 -9.5t0 -19.5l-233 -606h172l22 284q4 29 31 29h66q12 0 21 -8t9 -21v-284h70q29 0 29 -29v-76q0 -12 -8.5 -21.5t-20.5 -9.5h-70v-169q0 -12 -9 -20.5t-21 -8.5h-91q-29 0 -28 29v169h-301q-12 0 -20.5 9.5 t-8.5 21.5z" />
<glyph unicode="&#xbf;" horiz-adv-x="860" d="M117 -78q0 94 42 172t92 147.5t92 135t42 133.5v29q0 31 9 43t32 12h80q25 0 35 -12.5t10 -42.5v-25q0 -96 -39 -170t-85 -140.5t-85 -130t-39 -139.5q0 -78 44 -121.5t122 -43.5q63 0 106 23.5t60 29.5q23 10 37 2t20 -21l33 -75q12 -31 -16 -52q-53 -39 -122 -59 t-138 -20q-74 0 -134.5 24.5t-104.5 67.5t-68.5 102t-24.5 131zM340 901q0 53 37 90t90 37t91 -37t38 -90t-38 -91t-91 -38t-90 38t-37 91z" />
<glyph unicode="&#xc0;" horiz-adv-x="1105" d="M45 45l377 1286q6 23 22.5 32t32.5 9h129q16 0 32.5 -9t23.5 -32l401 -1286q6 -18 -3 -31.5t-26 -13.5h-106q-16 0 -33.5 12.5t-22.5 28.5l-98 342h-459l-92 -342q-4 -16 -18.5 -28.5t-30.5 -12.5h-100q-16 0 -25.5 13.5t-3.5 31.5zM233.5 1681.5q-8.5 14.5 4.5 36.5 l43 80q20 33 53 12l334 -211q35 -20 18 -53l-18 -35q-16 -31 -52 -14l-358 162q-16 8 -24.5 22.5zM352 522h383l-164 594q-10 39 -17 83t-13 85q-10 -90 -31 -168z" />
<glyph unicode="&#xc1;" horiz-adv-x="1105" d="M45 45l377 1286q6 23 22.5 32t32.5 9h129q16 0 32.5 -9t23.5 -32l401 -1286q6 -18 -3 -31.5t-26 -13.5h-106q-16 0 -33.5 12.5t-22.5 28.5l-98 342h-459l-92 -342q-4 -16 -18.5 -28.5t-30.5 -12.5h-100q-16 0 -25.5 13.5t-3.5 31.5zM352 522h383l-164 594q-10 39 -17 83 t-13 85q-10 -90 -31 -168zM365 1546q-16 33 18 53l334 211q33 20 53 -12l43 -80q12 -23 4 -37t-24 -22l-359 -162q-35 -16 -51 14z" />
<glyph unicode="&#xc2;" horiz-adv-x="1105" d="M45 45l377 1286q6 23 22.5 32t32.5 9h129q16 0 32.5 -9t23.5 -32l401 -1286q6 -18 -3 -31.5t-26 -13.5h-106q-16 0 -33.5 12.5t-22.5 28.5l-98 342h-459l-92 -342q-4 -16 -18.5 -28.5t-30.5 -12.5h-100q-16 0 -25.5 13.5t-3.5 31.5zM238 1561q-18 25 8 47l256 204 q16 14 37.5 15.5t40.5 -15.5l254 -200q12 -10 14 -24.5t-6 -24.5l-27 -37q-8 -10 -25.5 -15.5t-29.5 2.5l-230 154l-217 -151q-12 -8 -28.5 -3t-24.5 15zM352 522h383l-164 594q-10 39 -17 83t-13 85q-10 -90 -31 -168z" />
<glyph unicode="&#xc3;" horiz-adv-x="1105" d="M45 45l377 1286q6 23 22.5 32t32.5 9h129q16 0 32.5 -9t23.5 -32l401 -1286q6 -18 -3 -31.5t-26 -13.5h-106q-16 0 -33.5 12.5t-22.5 28.5l-98 342h-459l-92 -342q-4 -16 -18.5 -28.5t-30.5 -12.5h-100q-16 0 -25.5 13.5t-3.5 31.5zM206 1609.5q5 14.5 21 30.5 q39 41 86 62.5t119 21.5q43 0 71.5 -11t53.5 -24.5t52.5 -24.5t70.5 -11q41 0 63.5 9t44.5 32q10 10 22.5 11t25.5 -13l16 -19q16 -16 10 -31.5t-18 -27.5q-47 -47 -91 -67.5t-118 -20.5q-45 0 -74 11t-53.5 24.5t-51 24.5t-69.5 11q-41 0 -63.5 -11t-47.5 -34 q-12 -10 -21 -6t-26 21l-14 14q-14 14 -9 28.5zM352 522h383l-164 594q-10 39 -17 83t-13 85q-10 -90 -31 -168z" />
<glyph unicode="&#xc4;" horiz-adv-x="1105" d="M45 45l377 1286q6 23 22.5 32t32.5 9h129q16 0 32.5 -9t23.5 -32l401 -1286q6 -18 -3 -31.5t-26 -13.5h-106q-16 0 -33.5 12.5t-22.5 28.5l-98 342h-459l-92 -342q-4 -16 -18.5 -28.5t-30.5 -12.5h-100q-16 0 -25.5 13.5t-3.5 31.5zM268 1604q0 41 29 68.5t65 27.5 q43 0 72 -27.5t29 -68.5q0 -43 -27.5 -72t-70.5 -29q-39 0 -68 29t-29 72zM352 522h383l-164 594q-10 39 -17 83t-13 85q-10 -90 -31 -168zM621 1604q0 41 28.5 68.5t71.5 27.5q37 0 66.5 -27.5t29.5 -68.5q0 -43 -28.5 -72t-65.5 -29q-43 0 -72.5 29t-29.5 72z" />
<glyph unicode="&#xc5;" horiz-adv-x="1105" d="M45 45l387 1292q-27 23 -42 56.5t-15 72.5q0 72 48 121t120 49t120 -49t48 -121q0 -80 -60 -129l412 -1292q6 -18 -3 -31.5t-26 -13.5h-106q-16 0 -33.5 12.5t-22.5 28.5l-98 342h-459l-92 -342q-4 -16 -18.5 -28.5t-30.5 -12.5h-100q-16 0 -25.5 13.5t-3.5 31.5z M352 522h383l-164 596q-8 29 -16 76t-14 78q-2 -14 -5.5 -34.5t-7.5 -42t-8 -42t-8 -35.5zM449 1466q0 -41 26.5 -72.5t67.5 -31.5t67.5 31.5t26.5 72.5t-26.5 73t-67.5 32t-67.5 -32t-26.5 -73z" />
<glyph unicode="&#xc6;" horiz-adv-x="1587" d="M-19.5 14.5q-7.5 14.5 5.5 36.5l653 1280q10 16 28.5 28.5t34.5 12.5h684q16 0 30 -11t14 -30v-67q0 -18 -11.5 -31.5t-32.5 -13.5h-481v-418h441q18 0 30.5 -12.5t12.5 -28.5v-64q0 -20 -12.5 -32.5t-30.5 -12.5h-441v-493h514q18 0 31.5 -12.5t13.5 -30.5v-74 q0 -16 -13 -28.5t-30 -12.5h-639q-16 0 -29.5 12.5t-13.5 28.5v342h-399l-170 -342q-8 -16 -24.5 -28.5t-32.5 -12.5h-109q-16 0 -23.5 14.5zM412 526h327v736q-12 -51 -26.5 -92.5t-36.5 -88.5z" />
<glyph unicode="&#xc7;" horiz-adv-x="995" d="M113 696q0 162 38.5 290t108.5 216t168 134t215 46q59 0 120.5 -10t115.5 -43q16 -10 21 -26.5t-5 -32.5l-33 -64q-18 -35 -55 -16q-35 16 -73 27.5t-85 11.5q-172 0 -262 -127t-90 -408q0 -145 25.5 -248.5t71.5 -169t110.5 -97.5t140.5 -32q41 0 91 13.5t77 25.5 q18 10 31.5 4t19.5 -18l37 -78q8 -16 1 -29.5t-19 -19.5q-41 -20 -98.5 -37.5t-149.5 -17.5l-19 -76q45 0 75 -12.5t47.5 -34t24.5 -48t7 -52.5q0 -29 -13.5 -60t-38 -55.5t-62.5 -39.5t-87 -15q-37 0 -71.5 10t-63.5 24q-27 10 -16 41l18 49q8 23 31 11q51 -23 102 -23 q29 0 51.5 16.5t22.5 45.5q0 31 -25.5 45t-52.5 14q-16 0 -26.5 -1t-16.5 -1q-35 0 -24 35l37 135q-203 35 -312.5 214t-109.5 484z" />
<glyph unicode="&#xc8;" horiz-adv-x="1042" d="M205 41v1290q0 18 13 29.5t30 11.5h622q16 0 29.5 -11t13.5 -30v-67q0 -18 -11 -31.5t-32 -13.5h-499v-418h450q18 0 30.5 -12.5t12.5 -28.5v-64q0 -20 -12 -32.5t-31 -12.5h-450v-493h514q18 0 31.5 -12.5t13.5 -30.5v-74q0 -16 -13.5 -28.5t-29.5 -12.5h-639 q-16 0 -29.5 12.5t-13.5 28.5zM270.5 1681.5q-8.5 14.5 3.5 36.5l43 80q20 33 54 12l334 -211q35 -20 18 -53l-18 -35q-16 -31 -52 -14l-358 162q-16 8 -24.5 22.5z" />
<glyph unicode="&#xc9;" horiz-adv-x="1042" d="M205 41v1290q0 18 13 29.5t30 11.5h622q16 0 29.5 -11t13.5 -30v-67q0 -18 -11 -31.5t-32 -13.5h-499v-418h450q18 0 30.5 -12.5t12.5 -28.5v-64q0 -20 -12 -32.5t-31 -12.5h-450v-493h514q18 0 31.5 -12.5t13.5 -30.5v-74q0 -16 -13.5 -28.5t-29.5 -12.5h-639 q-16 0 -29.5 12.5t-13.5 28.5zM383 1546q-16 33 18 53l334 211q33 20 53 -12l43 -80q12 -23 4 -37t-24 -22l-358 -162q-35 -16 -52 14z" />
<glyph unicode="&#xca;" horiz-adv-x="1042" d="M205 41v1290q0 18 13 29.5t30 11.5h622q16 0 29.5 -11t13.5 -30v-67q0 -18 -11 -31.5t-32 -13.5h-499v-418h450q18 0 30.5 -12.5t12.5 -28.5v-64q0 -20 -12 -32.5t-31 -12.5h-450v-493h514q18 0 31.5 -12.5t13.5 -30.5v-74q0 -16 -13.5 -28.5t-29.5 -12.5h-639 q-16 0 -29.5 12.5t-13.5 28.5zM244 1561q-18 25 8 47l256 204q16 14 37.5 15.5t40.5 -15.5l254 -200q12 -10 14 -24.5t-6 -24.5l-27 -37q-8 -10 -25.5 -15.5t-29.5 2.5l-229 154l-218 -151q-12 -8 -28.5 -3t-24.5 15z" />
<glyph unicode="&#xcb;" horiz-adv-x="1042" d="M205 41v1290q0 18 13 29.5t30 11.5h622q16 0 29.5 -11t13.5 -30v-67q0 -18 -11 -31.5t-32 -13.5h-499v-418h450q18 0 30.5 -12.5t12.5 -28.5v-64q0 -20 -12 -32.5t-31 -12.5h-450v-493h514q18 0 31.5 -12.5t13.5 -30.5v-74q0 -16 -13.5 -28.5t-29.5 -12.5h-639 q-16 0 -29.5 12.5t-13.5 28.5zM281 1604q0 41 28.5 68.5t65.5 27.5q43 0 71.5 -27.5t28.5 -68.5q0 -43 -27.5 -72t-70.5 -29q-39 0 -67.5 29t-28.5 72zM633 1604q0 41 28.5 68.5t71.5 27.5q37 0 66.5 -27.5t29.5 -68.5q0 -43 -28.5 -72t-65.5 -29q-43 0 -72.5 29t-29.5 72z " />
<glyph unicode="&#xcc;" horiz-adv-x="573" d="M-18.5 1681.5q-8.5 14.5 4.5 36.5l43 80q20 33 53 12l334 -211q35 -20 18 -53l-18 -35q-16 -31 -51 -14l-359 162q-16 8 -24.5 22.5zM201 41v1290q0 18 13 29.5t30 11.5h86q16 0 29.5 -11t13.5 -30v-1290q0 -16 -13.5 -28.5t-29.5 -12.5h-86q-16 0 -29.5 12.5t-13.5 28.5 z" />
<glyph unicode="&#xcd;" horiz-adv-x="573" d="M127 1546q-16 33 18 53l334 211q33 20 53 -12l43 -80q12 -23 4 -37t-24 -22l-358 -162q-35 -16 -52 14zM201 41v1290q0 18 13 29.5t30 11.5h78q16 0 29.5 -11t13.5 -30v-1290q0 -16 -13.5 -28.5t-29.5 -12.5h-78q-16 0 -29.5 12.5t-13.5 28.5z" />
<glyph unicode="&#xce;" horiz-adv-x="573" d="M-8 1561q-18 25 8 47l256 204q16 14 37.5 15.5t40.5 -15.5l254 -200q12 -10 14 -24.5t-6 -24.5l-27 -37q-8 -10 -25.5 -15.5t-29.5 2.5l-229 154l-217 -151q-12 -8 -28.5 -3t-25.5 15zM201 41v1290q0 18 13 29.5t30 11.5h86q16 0 29.5 -11t13.5 -30v-1290 q0 -16 -13.5 -28.5t-29.5 -12.5h-86q-16 0 -29.5 12.5t-13.5 28.5z" />
<glyph unicode="&#xcf;" horiz-adv-x="573" d="M12 1604q0 41 29 68.5t65 27.5q43 0 72 -27.5t29 -68.5q0 -43 -27.5 -72t-70.5 -29q-39 0 -68 29t-29 72zM201 41v1290q0 18 13 29.5t30 11.5h86q16 0 29.5 -11t13.5 -30v-1290q0 -16 -13.5 -28.5t-29.5 -12.5h-86q-16 0 -29.5 12.5t-13.5 28.5zM365 1604q0 41 28.5 68.5 t71.5 27.5q37 0 66.5 -27.5t29.5 -68.5q0 -43 -28.5 -72t-65.5 -29q-43 0 -72.5 29t-29.5 72z" />
<glyph unicode="&#xd0;" horiz-adv-x="1181" d="M90 705v65q0 45 43 45h72v516q0 18 13 29.5t30 11.5h284q283 0 409 -169t126 -501q0 -176 -27.5 -308t-90 -220t-163 -131t-247.5 -43h-291q-16 0 -29.5 12.5t-13.5 28.5v621h-72q-43 0 -43 43zM371 150h161q76 0 140.5 16t111.5 71.5t75 159t28 277.5q0 98 -7.5 169.5 t-21.5 125t-34.5 92.5t-47.5 69q-45 51 -109.5 74t-134.5 23h-161v-412h129q45 0 45 -45v-65q0 -43 -45 -43h-129v-512z" />
<glyph unicode="&#xd1;" horiz-adv-x="1312" d="M205 39v1294q0 20 12 29.5t31 9.5h155q35 0 48 -29l426 -968q31 -70 50 -135.5t38 -118.5q-4 61 -12.5 138t-8.5 142l-4 932q0 16 13.5 27.5t29.5 11.5h72q16 0 29.5 -11t13.5 -28v-1294q0 -16 -13.5 -27.5t-29.5 -11.5h-144q-33 0 -49 33l-434 968q-29 66 -50.5 134.5 t-39.5 134.5q2 -31 6 -70t7 -78t5 -74.5t2 -60.5l4 -948q0 -16 -13 -27.5t-30 -11.5h-71q-16 0 -29.5 11.5t-13.5 27.5zM327 1609.5q5 14.5 21 30.5q39 41 86 62.5t119 21.5q43 0 71.5 -11t53 -24.5t52.5 -24.5t71 -11q41 0 63.5 9t44.5 32q10 10 22.5 11t24.5 -13l17 -19 q16 -16 10 -31.5t-18 -27.5q-47 -47 -91.5 -67.5t-117.5 -20.5q-45 0 -74 11t-53.5 24.5t-51 24.5t-69.5 11q-41 0 -63.5 -11t-47.5 -34q-12 -10 -21 -6t-26 21l-14 14q-14 14 -9 28.5z" />
<glyph unicode="&#xd2;" d="M125 682q0 358 118.5 529t348.5 171q229 0 346 -171t117 -529q0 -360 -119 -526t-344 -166q-229 0 -348 166t-119 526zM282.5 1681.5q-8.5 14.5 4.5 36.5l43 80q20 33 53 12l334 -211q35 -20 18 -53l-18 -35q-16 -31 -51 -14l-359 162q-16 8 -24.5 22.5zM303 684 q0 -291 69.5 -421t217.5 -130q80 0 135 39t89 110.5t48.5 173t14.5 228.5q0 117 -12.5 219.5t-44.5 178t-87 119.5t-143 44q-98 0 -155.5 -50t-86.5 -130t-37 -180.5t-8 -200.5z" />
<glyph unicode="&#xd3;" d="M125 682q0 358 118.5 529t348.5 171q229 0 346 -171t117 -529q0 -360 -119 -526t-344 -166q-229 0 -348 166t-119 526zM303 684q0 -291 69.5 -421t217.5 -130q80 0 135 39t89 110.5t48.5 173t14.5 228.5q0 117 -12.5 219.5t-44.5 178t-87 119.5t-143 44q-98 0 -155.5 -50 t-86.5 -130t-37 -180.5t-8 -200.5zM418 1546q-16 33 18 53l334 211q33 20 53 -12l43 -80q12 -23 4 -37t-24 -22l-359 -162q-35 -16 -51 14z" />
<glyph unicode="&#xd4;" d="M125 682q0 358 118.5 529t348.5 171q229 0 346 -171t117 -529q0 -360 -119 -526t-344 -166q-229 0 -348 166t-119 526zM279 1561q-18 25 8 47l256 204q16 14 37.5 15.5t40.5 -15.5l253 -200q12 -10 14.5 -24.5t-5.5 -24.5l-27 -37q-8 -10 -25.5 -15.5t-29.5 2.5l-230 154 l-217 -151q-12 -8 -28.5 -3t-24.5 15zM303 684q0 -291 69.5 -421t217.5 -130q80 0 135 39t89 110.5t48.5 173t14.5 228.5q0 117 -12.5 219.5t-44.5 178t-87 119.5t-143 44q-98 0 -155.5 -50t-86.5 -130t-37 -180.5t-8 -200.5z" />
<glyph unicode="&#xd5;" d="M125 682q0 358 118.5 529t348.5 171q229 0 346 -171t117 -529q0 -360 -119 -526t-344 -166q-229 0 -348 166t-119 526zM247 1609.5q5 14.5 21 30.5q39 41 86 62.5t119 21.5q43 0 71.5 -11t53.5 -24.5t52.5 -24.5t70.5 -11q41 0 63.5 9t44.5 32q10 10 22.5 11t25.5 -13 l16 -19q16 -16 10 -31.5t-18 -27.5q-47 -47 -91 -67.5t-118 -20.5q-45 0 -74 11t-53.5 24.5t-51 24.5t-69.5 11q-41 0 -63.5 -11t-47.5 -34q-12 -10 -21 -6t-26 21l-14 14q-14 14 -9 28.5zM303 684q0 -291 69.5 -421t217.5 -130q80 0 135 39t89 110.5t48.5 173t14.5 228.5 q0 117 -12.5 219.5t-44.5 178t-87 119.5t-143 44q-98 0 -155.5 -50t-86.5 -130t-37 -180.5t-8 -200.5z" />
<glyph unicode="&#xd6;" d="M125 682q0 358 118.5 529t348.5 171q229 0 346 -171t117 -529q0 -360 -119 -526t-344 -166q-229 0 -348 166t-119 526zM303 684q0 -291 69.5 -421t217.5 -130q80 0 135 39t89 110.5t48.5 173t14.5 228.5q0 117 -12.5 219.5t-44.5 178t-87 119.5t-143 44q-98 0 -155.5 -50 t-86.5 -130t-37 -180.5t-8 -200.5zM319 1604q0 41 29 68.5t66 27.5q43 0 71.5 -27.5t28.5 -68.5q0 -43 -27.5 -72t-70.5 -29q-39 0 -68 29t-29 72zM672 1604q0 41 28.5 68.5t71.5 27.5q37 0 66.5 -27.5t29.5 -68.5q0 -43 -28.5 -72t-65.5 -29q-43 0 -72.5 29t-29.5 72z" />
<glyph unicode="&#xd7;" horiz-adv-x="1081" d="M109 799q-31 29 0 59l51 51q31 31 61 2l318 -315l309 309q31 31 61 0l47 -47q33 -33 2 -63l-311 -310l307 -305q31 -33 0 -63l-51 -51q-31 -31 -63 2l-305 305l-308 -310q-33 -33 -65 0l-47 50q-31 29 2 61l307 309z" />
<glyph unicode="&#xd8;" d="M125 682q0 358 118.5 529t348.5 171q111 0 199 -41l47 111q8 16 23.5 21.5t31.5 -0.5l51 -23q16 -6 24.5 -21.5t0.5 -31.5l-62 -146q148 -170 148 -569q0 -360 -119 -526t-344 -166q-119 0 -203 41l-47 -113q-8 -16 -23.5 -21.5t-31.5 1.5l-54 22q-16 6 -23 22.5t1 32.5 l61 146q-72 84 -109.5 221t-37.5 340zM307 684q0 -125 11.5 -220t37.5 -163l381 899q-29 23 -64.5 36t-82.5 13q-98 0 -154.5 -50t-85 -131t-36 -182.5t-7.5 -201.5zM444 174q57 -45 146 -45q80 0 134 40t87 111.5t47 174t14 229.5q0 113 -10 211t-39 174z" />
<glyph unicode="&#xd9;" horiz-adv-x="1226" d="M195 412v919q0 18 13 29.5t30 11.5h77q16 0 29.5 -11t13.5 -30v-882q0 -147 55.5 -232.5t202.5 -85.5q57 0 105.5 11.5t84.5 44t56.5 89t20.5 148.5v907q0 18 13 29.5t30 11.5h78q16 0 29.5 -11t13.5 -30v-919q0 -205 -108 -313.5t-323 -108.5q-225 0 -323 113.5 t-98 308.5zM336 1681.5q-8 14.5 4 36.5l43 80q20 33 53 12l334 -211q35 -20 18 -53l-18 -35q-16 -31 -51 -14l-359 162q-16 8 -24 22.5z" />
<glyph unicode="&#xda;" horiz-adv-x="1226" d="M195 412v919q0 18 13 29.5t30 11.5h77q16 0 29.5 -11t13.5 -30v-882q0 -147 55.5 -232.5t202.5 -85.5q57 0 105.5 11.5t84.5 44t56.5 89t20.5 148.5v907q0 18 13 29.5t30 11.5h78q16 0 29.5 -11t13.5 -30v-919q0 -205 -108 -313.5t-323 -108.5q-225 0 -323 113.5 t-98 308.5zM481 1546q-16 33 19 53l334 211q33 20 53 -12l43 -80q12 -23 4 -37t-25 -22l-358 -162q-35 -16 -51 14z" />
<glyph unicode="&#xdb;" horiz-adv-x="1226" d="M195 412v919q0 18 13 29.5t30 11.5h77q16 0 29.5 -11t13.5 -30v-882q0 -147 55.5 -232.5t202.5 -85.5q57 0 105.5 11.5t84.5 44t56.5 89t20.5 148.5v907q0 18 13 29.5t30 11.5h78q16 0 29.5 -11t13.5 -30v-919q0 -205 -108 -313.5t-323 -108.5q-225 0 -323 113.5 t-98 308.5zM322 1561q-18 25 8 47l256 204q16 14 37.5 15.5t40.5 -15.5l254 -200q12 -10 14 -24.5t-6 -24.5l-27 -37q-8 -10 -25.5 -15.5t-29.5 2.5l-230 154l-217 -151q-12 -8 -28.5 -3t-24.5 15z" />
<glyph unicode="&#xdc;" horiz-adv-x="1226" d="M195 412v919q0 18 13 29.5t30 11.5h77q16 0 29.5 -11t13.5 -30v-882q0 -147 55.5 -232.5t202.5 -85.5q57 0 105.5 11.5t84.5 44t56.5 89t20.5 148.5v907q0 18 13 29.5t30 11.5h78q16 0 29.5 -11t13.5 -30v-919q0 -205 -108 -313.5t-323 -108.5q-225 0 -323 113.5 t-98 308.5zM340 1604q0 41 28.5 68.5t65.5 27.5q43 0 72 -27.5t29 -68.5q0 -43 -28 -72t-71 -29q-39 0 -67.5 29t-28.5 72zM692 1604q0 41 29 68.5t72 27.5q37 0 66.5 -27.5t29.5 -68.5q0 -43 -29 -72t-65 -29q-43 0 -73 29t-30 72z" />
<glyph unicode="&#xdd;" horiz-adv-x="1013" d="M53 1333q-6 12 1 25.5t28 13.5h129q29 0 39 -24l209 -504q29 -66 40 -114t21 -97q8 49 19.5 95t40.5 118l196 497q10 29 43 29h121q14 0 22.5 -9t-1.5 -32l-369 -809v-481q0 -16 -13.5 -28.5t-29.5 -12.5h-78q-16 0 -29.5 12.5t-13.5 28.5v481zM365 1546q-16 33 18 53 l334 211q33 20 53 -12l43 -80q12 -23 4 -37t-24 -22l-359 -162q-35 -16 -51 14z" />
<glyph unicode="&#xde;" horiz-adv-x="1040" d="M205 41v1290q0 16 13 28.5t30 12.5h80q16 0 29.5 -12t13.5 -29v-246h155q213 0 322.5 -107.5t109.5 -283.5q0 -90 -27.5 -164.5t-81.5 -129t-134 -85t-183 -30.5h-161v-244q0 -16 -13.5 -28.5t-29.5 -12.5h-80q-16 0 -29.5 12.5t-13.5 28.5zM371 426h168q121 0 184 75.5 t63 186.5q0 117 -60 183.5t-187 66.5h-168v-512z" />
<glyph unicode="&#xdf;" horiz-adv-x="1054" d="M10 899v45q0 16 11.5 29.5t29.5 13.5h113v113q0 180 97 268t271 88q74 0 135.5 -18.5t106.5 -55t70.5 -90t25.5 -123.5q0 -96 -34.5 -153.5t-73.5 -95.5q-43 -41 -78 -75t-35 -85q0 -41 34 -71t81 -62l82 -56q33 -23 64.5 -51t56 -63t39 -80.5t14.5 -100.5 q0 -127 -80 -206.5t-215 -79.5q-47 0 -101.5 7t-101.5 23q-18 6 -23 21.5t-1 34.5l14 63q4 23 20.5 28t32.5 -1q33 -10 78 -18.5t74 -8.5q70 0 105.5 39t35.5 101q0 55 -35 95t-86 75l-84 57q-31 20 -60.5 43.5t-51 51.5t-34.5 61.5t-13 78.5t11 80t28.5 62.5t39 50 t43.5 43.5q39 35 70 74t31 102q0 68 -49.5 116t-139.5 48q-98 0 -151 -53.5t-53 -169.5v-1053q0 -16 -13.5 -28.5t-29.5 -12.5h-74q-16 0 -29.5 12.5t-13.5 28.5v815h-113q-18 0 -29.5 13.5t-11.5 29.5z" />
<glyph unicode="&#xe0;" horiz-adv-x="929" d="M74 276q0 86 26.5 145.5t68.5 95.5t95 52.5t107 20.5l239 14v53q0 49 -7 85t-27.5 59.5t-57.5 36t-94 12.5q-63 0 -108.5 -12.5t-86.5 -22.5q-18 -4 -32.5 4t-18.5 27l-12 65q-6 41 29 50q41 10 106.5 23t130.5 13q117 0 183.5 -33.5t101.5 -86t44 -117t9 -125.5v-363 q0 -41 1 -81.5t11 -88.5l13 -61q6 -41 -33 -41h-84q-39 0 -45 37l-17 102q-49 -82 -123.5 -115.5t-156.5 -33.5q-119 0 -190.5 74.5t-71.5 211.5zM176.5 1353.5q-8.5 14.5 3.5 37.5l43 79q20 33 53 13l334 -211q35 -20 19 -53l-19 -35q-16 -31 -51 -15l-358 162 q-16 8 -24.5 22.5zM242 276q0 -80 36.5 -117.5t102.5 -37.5q51 0 94 20.5t73 51t46 66.5t16 67v161l-137 -6q-49 -2 -92 -11t-74 -31.5t-48 -61.5t-17 -101z" />
<glyph unicode="&#xe1;" horiz-adv-x="929" d="M74 276q0 86 26.5 145.5t68.5 95.5t95 52.5t107 20.5l239 14v53q0 49 -7 85t-27.5 59.5t-57.5 36t-94 12.5q-63 0 -108.5 -12.5t-86.5 -22.5q-18 -4 -32.5 4t-18.5 27l-12 65q-6 41 29 50q41 10 106.5 23t130.5 13q117 0 183.5 -33.5t101.5 -86t44 -117t9 -125.5v-363 q0 -41 1 -81.5t11 -88.5l13 -61q6 -41 -33 -41h-84q-39 0 -45 37l-17 102q-49 -82 -123.5 -115.5t-156.5 -33.5q-119 0 -190.5 74.5t-71.5 211.5zM242 276q0 -80 36.5 -117.5t102.5 -37.5q51 0 94 20.5t73 51t46 66.5t16 67v161l-137 -6q-49 -2 -92 -11t-74 -31.5t-48 -61.5 t-17 -101zM276 1219q-16 33 19 53l334 211q33 20 53 -13l43 -79q12 -23 4 -37.5t-24 -22.5l-359 -162q-35 -16 -51 15z" />
<glyph unicode="&#xe2;" horiz-adv-x="929" d="M74 276q0 86 26.5 145.5t68.5 95.5t95 52.5t107 20.5l239 14v53q0 49 -7 85t-27.5 59.5t-57.5 36t-94 12.5q-63 0 -108.5 -12.5t-86.5 -22.5q-18 -4 -32.5 4t-18.5 27l-12 65q-6 41 29 50q41 10 106.5 23t130.5 13q117 0 183.5 -33.5t101.5 -86t44 -117t9 -125.5v-363 q0 -41 1 -81.5t11 -88.5l13 -61q6 -41 -33 -41h-84q-39 0 -45 37l-17 102q-49 -82 -123.5 -115.5t-156.5 -33.5q-119 0 -190.5 74.5t-71.5 211.5zM141 1233q-18 25 9 47l256 205q16 14 37.5 15t39.5 -15l254 -201q12 -10 14.5 -24.5t-6.5 -24.5l-26 -37q-8 -10 -25.5 -15 t-29.5 3l-230 153l-217 -151q-12 -8 -28.5 -3t-24.5 15zM242 276q0 -80 36.5 -117.5t102.5 -37.5q51 0 94 20.5t73 51t46 66.5t16 67v161l-137 -6q-49 -2 -92 -11t-74 -31.5t-48 -61.5t-17 -101z" />
<glyph unicode="&#xe3;" horiz-adv-x="929" d="M74 276q0 86 26.5 145.5t68.5 95.5t95 52.5t107 20.5l239 14v53q0 49 -7 85t-27.5 59.5t-57.5 36t-94 12.5q-63 0 -108.5 -12.5t-86.5 -22.5q-18 -4 -32.5 4t-18.5 27l-12 65q-6 41 29 50q41 10 106.5 23t130.5 13q117 0 183.5 -33.5t101.5 -86t44 -117t9 -125.5v-363 q0 -41 1 -81.5t11 -88.5l13 -61q6 -41 -33 -41h-84q-39 0 -45 37l-17 102q-49 -82 -123.5 -115.5t-156.5 -33.5q-119 0 -190.5 74.5t-71.5 211.5zM124 1281.5q5 14.5 21 31.5q39 41 86.5 62.5t118.5 21.5q43 0 72 -11.5t53.5 -24.5t52 -24.5t70.5 -11.5q41 0 63.5 9t45.5 32 q10 10 22 11t25 -13l16 -18q16 -16 10 -32t-18 -28q-47 -47 -91 -67.5t-118 -20.5q-45 0 -73.5 11.5t-53.5 24.5t-51.5 24.5t-69.5 11.5q-41 0 -63.5 -11.5t-46.5 -33.5q-12 -10 -21.5 -6t-26.5 20l-14 14q-14 14 -9 28.5zM242 276q0 -80 36.5 -117.5t102.5 -37.5 q51 0 94 20.5t73 51t46 66.5t16 67v161l-137 -6q-49 -2 -92 -11t-74 -31.5t-48 -61.5t-17 -101z" />
<glyph unicode="&#xe4;" horiz-adv-x="929" d="M74 276q0 86 26.5 145.5t68.5 95.5t95 52.5t107 20.5l239 14v53q0 49 -7 85t-27.5 59.5t-57.5 36t-94 12.5q-63 0 -108.5 -12.5t-86.5 -22.5q-18 -4 -32.5 4t-18.5 27l-12 65q-6 41 29 50q41 10 106.5 23t130.5 13q117 0 183.5 -33.5t101.5 -86t44 -117t9 -125.5v-363 q0 -41 1 -81.5t11 -88.5l13 -61q6 -41 -33 -41h-84q-39 0 -45 37l-17 102q-49 -82 -123.5 -115.5t-156.5 -33.5q-119 0 -190.5 74.5t-71.5 211.5zM174 1276q0 41 28.5 68.5t65.5 27.5q43 0 72 -27.5t29 -68.5q0 -43 -28 -71.5t-71 -28.5q-39 0 -67.5 28.5t-28.5 71.5z M242 276q0 -80 36.5 -117.5t102.5 -37.5q51 0 94 20.5t73 51t46 66.5t16 67v161l-137 -6q-49 -2 -92 -11t-74 -31.5t-48 -61.5t-17 -101zM526 1276q0 41 29 68.5t72 27.5q37 0 66.5 -27.5t29.5 -68.5q0 -43 -28.5 -71.5t-65.5 -28.5q-43 0 -73 28.5t-30 71.5z" />
<glyph unicode="&#xe5;" horiz-adv-x="929" d="M74 276q0 86 26.5 145.5t68.5 95.5t95 52.5t107 20.5l239 14v53q0 49 -7 85t-27.5 59.5t-57.5 36t-94 12.5q-63 0 -108.5 -12.5t-86.5 -22.5q-18 -4 -32.5 4t-18.5 27l-12 65q-6 41 29 50q41 10 106.5 23t130.5 13q117 0 183.5 -33.5t101.5 -86t44 -117t9 -125.5v-363 q0 -41 1 -81.5t11 -88.5l13 -61q6 -41 -33 -41h-84q-39 0 -45 37l-17 102q-49 -82 -123.5 -115.5t-156.5 -33.5q-119 0 -190.5 74.5t-71.5 211.5zM242 276q0 -80 36.5 -117.5t102.5 -37.5q51 0 94 20.5t73 51t46 66.5t16 67v161l-137 -6q-49 -2 -92 -11t-74 -31.5t-48 -61.5 t-17 -101zM303 1350q0 72 48 121t120 49t120 -49t48 -121t-48 -121t-120 -49t-120 49t-48 121zM377 1350q0 -41 26.5 -73t67.5 -32t67.5 32t26.5 73t-26.5 72.5t-67.5 31.5t-67.5 -31.5t-26.5 -72.5z" />
<glyph unicode="&#xe6;" horiz-adv-x="1480" d="M100 276q0 86 29 146.5t82 97.5t129 53.5t172 16.5h125v80q0 88 -37 134t-149 46q-63 0 -108.5 -12.5t-86.5 -22.5q-18 -4 -32.5 4t-18.5 27l-12 65q-6 41 28 50q41 10 106.5 23t131.5 13q109 0 180.5 -32.5t101.5 -90.5q47 63 112 93t144 30q70 0 135.5 -23.5 t115.5 -80.5t81 -152.5t31 -238.5q0 -16 -12.5 -29.5t-28.5 -13.5h-522q6 -166 67.5 -246t196.5 -80q59 0 103 9.5t91 23.5q23 6 35.5 -2t18.5 -25l18 -51q12 -37 -27 -53q-41 -18 -95 -31.5t-142 -13.5q-123 0 -216 43t-149 137q-47 -72 -130 -126t-206 -54 q-119 0 -190.5 74.5t-71.5 211.5zM268 276q0 -80 37 -117.5t103 -37.5q51 0 94 20.5t72.5 51t46 66.5t16.5 67v133q-98 0 -169 -4t-115 -21.5t-64.5 -54.5t-20.5 -103zM797 590h395q-2 51 -13.5 100t-34 88t-58 63.5t-85.5 24.5q-25 0 -56.5 -10t-61 -39t-53 -84t-33.5 -143 z" />
<glyph unicode="&#xe7;" horiz-adv-x="759" d="M86 502q0 109 29.5 200t83 156.5t126 102t158.5 36.5q53 0 99.5 -11t74.5 -23q43 -20 31 -52l-20 -59q-4 -16 -16.5 -25.5t-35.5 0.5q-25 10 -60.5 19.5t-78.5 9.5q-96 0 -156.5 -94t-60.5 -260q0 -360 236 -361q41 0 77.5 5.5t65.5 13.5q23 6 35 -4.5t16 -26.5l15 -63 q4 -16 -4.5 -31t-28.5 -21q-80 -25 -174 -24l-19 -76q45 0 75 -12.5t47 -34t24.5 -48t7.5 -52.5q0 -29 -13.5 -60t-38 -55.5t-62.5 -39.5t-87 -15q-37 0 -71.5 10t-63.5 24q-27 10 -16 41l18 49q8 23 31 11q51 -23 102 -23q29 0 51.5 16.5t22.5 45.5q0 31 -25.5 45t-52.5 14 q-16 0 -26.5 -1t-16.5 -1q-35 0 -25 35l37 135q-143 31 -227 159t-84 345z" />
<glyph unicode="&#xe8;" horiz-adv-x="935" d="M88 500q0 117 26.5 209t76 156.5t118 98t150.5 33.5q70 0 135 -23.5t116.5 -81.5t81 -154.5t29.5 -241.5q0 -16 -12 -29.5t-29 -13.5h-522q6 -156 65.5 -238t198.5 -82q59 0 103.5 9.5t91.5 23.5q23 6 35 -2t18 -25l18 -51q12 -37 -26 -53q-41 -18 -95.5 -31.5 t-142.5 -13.5q-213 0 -324.5 130t-111.5 380zM182.5 1353.5q-8.5 14.5 3.5 37.5l43 79q20 33 54 13l333 -211q35 -20 19 -53l-19 -35q-16 -31 -51 -15l-358 162q-16 8 -24.5 22.5zM258 584h395q-2 51 -12 102t-33.5 91t-58.5 64.5t-86 24.5q-25 0 -56.5 -10t-61.5 -40 t-54.5 -85t-32.5 -147z" />
<glyph unicode="&#xe9;" horiz-adv-x="935" d="M88 500q0 117 26.5 209t76 156.5t118 98t150.5 33.5q70 0 135 -23.5t116.5 -81.5t81 -154.5t29.5 -241.5q0 -16 -12 -29.5t-29 -13.5h-522q6 -156 65.5 -238t198.5 -82q59 0 103.5 9.5t91.5 23.5q23 6 35 -2t18 -25l18 -51q12 -37 -26 -53q-41 -18 -95.5 -31.5 t-142.5 -13.5q-213 0 -324.5 130t-111.5 380zM258 584h395q-2 51 -12 102t-33.5 91t-58.5 64.5t-86 24.5q-25 0 -56.5 -10t-61.5 -40t-54.5 -85t-32.5 -147zM283 1219q-16 33 18 53l334 211q33 20 53 -13l43 -79q12 -23 4 -37.5t-24 -22.5l-359 -162q-35 -16 -51 15z" />
<glyph unicode="&#xea;" horiz-adv-x="935" d="M88 500q0 117 26.5 209t76 156.5t118 98t150.5 33.5q70 0 135 -23.5t116.5 -81.5t81 -154.5t29.5 -241.5q0 -16 -12 -29.5t-29 -13.5h-522q6 -156 65.5 -238t198.5 -82q59 0 103.5 9.5t91.5 23.5q23 6 35 -2t18 -25l18 -51q12 -37 -26 -53q-41 -18 -95.5 -31.5 t-142.5 -13.5q-213 0 -324.5 130t-111.5 380zM174 1233q-18 25 8 47l256 205q16 14 38 15t40 -15l254 -201q12 -10 14 -24.5t-6 -24.5l-26 -37q-8 -10 -25.5 -15t-30.5 3l-229 153l-217 -151q-12 -8 -28.5 -3t-24.5 15zM258 584h395q-2 51 -12 102t-33.5 91t-58.5 64.5 t-86 24.5q-25 0 -56.5 -10t-61.5 -40t-54.5 -85t-32.5 -147z" />
<glyph unicode="&#xeb;" horiz-adv-x="935" d="M88 500q0 117 26.5 209t76 156.5t118 98t150.5 33.5q70 0 135 -23.5t116.5 -81.5t81 -154.5t29.5 -241.5q0 -16 -12 -29.5t-29 -13.5h-522q6 -156 65.5 -238t198.5 -82q59 0 103.5 9.5t91.5 23.5q23 6 35 -2t18 -25l18 -51q12 -37 -26 -53q-41 -18 -95.5 -31.5 t-142.5 -13.5q-213 0 -324.5 130t-111.5 380zM190 1276q0 41 29 68.5t66 27.5q43 0 71.5 -27.5t28.5 -68.5q0 -43 -27.5 -71.5t-70.5 -28.5q-39 0 -68 28.5t-29 71.5zM258 584h395q-2 51 -12 102t-33.5 91t-58.5 64.5t-86 24.5q-25 0 -56.5 -10t-61.5 -40t-54.5 -85 t-32.5 -147zM543 1276q0 41 28.5 68.5t71.5 27.5q37 0 66.5 -27.5t29.5 -68.5q0 -43 -28.5 -71.5t-65.5 -28.5q-43 0 -72.5 28.5t-29.5 71.5z" />
<glyph unicode="&#xec;" horiz-adv-x="507" d="M-49 1353.5q-8 14.5 4 37.5l43 79q20 33 53 13l334 -211q35 -20 18 -53l-18 -35q-16 -31 -51 -15l-359 162q-16 8 -24 22.5zM172 41v905q0 16 13.5 28.5t29.5 12.5h74q16 0 29.5 -12t13.5 -29v-905q0 -16 -13.5 -28.5t-29.5 -12.5h-74q-16 0 -29.5 12.5t-13.5 28.5z" />
<glyph unicode="&#xed;" horiz-adv-x="507" d="M63 1219q-16 33 19 53l334 211q33 20 53 -13l43 -79q12 -23 4 -37.5t-24 -22.5l-359 -162q-35 -16 -51 15zM172 41v905q0 16 13.5 28.5t29.5 12.5h74q16 0 29.5 -12t13.5 -29v-905q0 -16 -13.5 -28.5t-29.5 -12.5h-74q-16 0 -29.5 12.5t-13.5 28.5z" />
<glyph unicode="&#xee;" horiz-adv-x="507" d="M-66 1233q-18 25 9 47l256 205q16 14 37.5 15t39.5 -15l254 -201q12 -10 14.5 -24.5t-5.5 -24.5l-27 -37q-8 -10 -25.5 -15t-29.5 3l-230 153l-217 -151q-12 -8 -28.5 -3t-24.5 15zM172 41v905q0 16 13.5 28.5t29.5 12.5h74q16 0 29.5 -12t13.5 -29v-905 q0 -16 -13.5 -28.5t-29.5 -12.5h-74q-16 0 -29.5 12.5t-13.5 28.5z" />
<glyph unicode="&#xef;" horiz-adv-x="507" d="M-31 1276q0 41 29 68.5t65 27.5q43 0 72 -27.5t29 -68.5q0 -43 -27.5 -71.5t-70.5 -28.5q-39 0 -68 28.5t-29 71.5zM172 41v905q0 16 13.5 28.5t29.5 12.5h74q16 0 29.5 -12t13.5 -29v-905q0 -16 -13.5 -28.5t-29.5 -12.5h-74q-16 0 -29.5 12.5t-13.5 28.5zM322 1276 q0 41 28.5 68.5t71.5 27.5q37 0 66.5 -27.5t29.5 -68.5q0 -43 -28.5 -71.5t-65.5 -28.5q-43 0 -72.5 28.5t-29.5 71.5z" />
<glyph unicode="&#xf0;" horiz-adv-x="999" d="M98 434q0 94 28 170t78 129t118.5 83t148.5 30q47 0 109.5 -16.5t111.5 -47.5q-23 66 -57.5 132.5t-85.5 125.5l-84 -55q-31 -20 -57 4l-50 43q-35 31 2 53l82 54q-123 94 -292 145q-29 10 -29 22.5t6 28.5l23 62q6 18 20 21t37 -3q98 -29 191.5 -77t174.5 -115l84 55 q33 23 60 -2l51 -47q29 -27 -8 -51l-84 -56q109 -123 172 -279t63 -349q0 -125 -31.5 -220.5t-88 -160t-132 -97t-163.5 -32.5q-90 0 -164 34.5t-126 95t-80 142.5t-28 178zM268 430q0 -143 63.5 -232t174.5 -89t172 100t61 266q0 25 -2 53.5t-5 55t-6 46t-5 25.5 q-14 12 -40 24.5t-57.5 24t-66.5 17.5t-68 6q-104 0 -162.5 -74.5t-58.5 -222.5z" />
<glyph unicode="&#xf1;" horiz-adv-x="1007" d="M164 41v905q0 18 13 29.5t30 11.5h45q39 0 47 -33l23 -100q66 78 134 110.5t148 32.5q117 0 184.5 -69.5t67.5 -186.5v-700q0 -16 -13.5 -28.5t-29.5 -12.5h-78q-16 0 -29.5 12.5t-13.5 28.5v664q0 82 -29.5 117.5t-97.5 35.5q-49 0 -93 -19.5t-75.5 -54t-50 -81 t-18.5 -99.5v-563q0 -16 -13.5 -28.5t-29.5 -12.5h-78q-16 0 -29.5 12.5t-13.5 28.5zM185.5 1281.5q4.5 14.5 21.5 31.5q39 41 86 62.5t119 21.5q43 0 71.5 -11.5t53 -24.5t52 -24.5t70.5 -11.5q41 0 63.5 9t45.5 32q10 10 22.5 11t24.5 -13l16 -18q16 -16 10.5 -32 t-18.5 -28q-47 -47 -91 -67.5t-118 -20.5q-45 0 -73.5 11.5t-53 24.5t-51 24.5t-69.5 11.5q-41 0 -63.5 -11.5t-47.5 -33.5q-12 -10 -21.5 -6t-25.5 20l-14 14q-14 14 -9.5 28.5z" />
<glyph unicode="&#xf2;" horiz-adv-x="962" d="M86 494q0 117 27.5 211t80 158.5t124 99t161.5 34.5q88 0 161 -34.5t123 -99t77.5 -158.5t27.5 -211q0 -238 -104.5 -371t-284.5 -133q-90 0 -161.5 34.5t-124 99t-80 158t-27.5 212.5zM217.5 1353.5q-8.5 14.5 3.5 37.5l43 79q20 33 53 13l334 -211q35 -20 19 -53 l-19 -35q-16 -31 -51 -15l-358 162q-16 8 -24.5 22.5zM256 494q0 -190 56.5 -279.5t162.5 -89.5t162.5 89.5t56.5 279.5q0 186 -56 276t-163 90q-106 0 -162.5 -90t-56.5 -276z" />
<glyph unicode="&#xf3;" horiz-adv-x="962" d="M86 494q0 117 27.5 211t80 158.5t124 99t161.5 34.5q88 0 161 -34.5t123 -99t77.5 -158.5t27.5 -211q0 -238 -104.5 -371t-284.5 -133q-90 0 -161.5 34.5t-124 99t-80 158t-27.5 212.5zM256 494q0 -190 56.5 -279.5t162.5 -89.5t162.5 89.5t56.5 279.5q0 186 -56 276 t-163 90q-106 0 -162.5 -90t-56.5 -276zM311 1219q-16 33 19 53l334 211q33 20 53 -13l43 -79q12 -23 4 -37.5t-25 -22.5l-358 -162q-35 -16 -51 15z" />
<glyph unicode="&#xf4;" horiz-adv-x="962" d="M86 494q0 117 27.5 211t80 158.5t124 99t161.5 34.5q88 0 161 -34.5t123 -99t77.5 -158.5t27.5 -211q0 -238 -104.5 -371t-284.5 -133q-90 0 -161.5 34.5t-124 99t-80 158t-27.5 212.5zM182 1233q-18 25 8 47l256 205q16 14 38 15t40 -15l254 -201q12 -10 14.5 -24.5 t-6.5 -24.5l-26 -37q-8 -10 -25.5 -15t-29.5 3l-230 153l-217 -151q-12 -8 -28.5 -3t-24.5 15zM256 494q0 -190 56.5 -279.5t162.5 -89.5t162.5 89.5t56.5 279.5q0 186 -56 276t-163 90q-106 0 -162.5 -90t-56.5 -276z" />
<glyph unicode="&#xf5;" horiz-adv-x="962" d="M86 494q0 117 27.5 211t80 158.5t124 99t161.5 34.5q88 0 161 -34.5t123 -99t77.5 -158.5t27.5 -211q0 -238 -104.5 -371t-284.5 -133q-90 0 -161.5 34.5t-124 99t-80 158t-27.5 212.5zM163 1281.5q5 14.5 21 31.5q39 41 86 62.5t119 21.5q43 0 71.5 -11.5t53.5 -24.5 t52.5 -24.5t70.5 -11.5q41 0 63.5 9t44.5 32q10 10 22.5 11t25.5 -13l16 -18q16 -16 10 -32t-18 -28q-47 -47 -91 -67.5t-118 -20.5q-45 0 -74 11.5t-53.5 24.5t-51 24.5t-69.5 11.5q-41 0 -63.5 -11.5t-47.5 -33.5q-12 -10 -21 -6t-26 20l-14 14q-14 14 -9 28.5zM256 494 q0 -190 56.5 -279.5t162.5 -89.5t162.5 89.5t56.5 279.5q0 186 -56 276t-163 90q-106 0 -162.5 -90t-56.5 -276z" />
<glyph unicode="&#xf6;" horiz-adv-x="962" d="M86 494q0 117 27.5 211t80 158.5t124 99t161.5 34.5q88 0 161 -34.5t123 -99t77.5 -158.5t27.5 -211q0 -238 -104.5 -371t-284.5 -133q-90 0 -161.5 34.5t-124 99t-80 158t-27.5 212.5zM209 1276q0 41 28.5 68.5t65.5 27.5q43 0 71.5 -27.5t28.5 -68.5q0 -43 -27.5 -71.5 t-70.5 -28.5q-39 0 -67.5 28.5t-28.5 71.5zM256 494q0 -190 56.5 -279.5t162.5 -89.5t162.5 89.5t56.5 279.5q0 186 -56 276t-163 90q-106 0 -162.5 -90t-56.5 -276zM561 1276q0 41 28.5 68.5t72.5 27.5q37 0 66.5 -27.5t29.5 -68.5q0 -43 -29 -71.5t-65 -28.5 q-43 0 -73 28.5t-30 71.5z" />
<glyph unicode="&#xf7;" horiz-adv-x="1507" d="M31 899v45q0 16 11 29.5t30 13.5h112l2 178q0 80 23.5 133.5t62.5 85t87.5 44t97.5 12.5q41 0 93 -9.5t77 -19.5q35 -16 24 -55l-16 -58q-10 -35 -47 -22q-23 8 -55.5 15t-73.5 7q-16 0 -36 -5t-37 -20.5t-28.5 -44t-11.5 -73.5v-168h340v189q0 86 25.5 141t68.5 87 t101.5 44t126.5 12q31 0 67.5 -5t71.5 -13t65.5 -17.5t47.5 -15.5q16 -8 23 -23.5t1 -31.5l-29 -64q-12 -33 -47 -20q-31 10 -89 27.5t-111 17.5q-35 0 -64 -5t-51.5 -20.5t-34.5 -45.5t-12 -79v-178h459q43 0 43 -41v-905q0 -16 -13.5 -28.5t-29.5 -12.5h-74 q-16 0 -29.5 12.5t-13.5 28.5v815h-342v-815q0 -16 -13.5 -28.5t-29.5 -12.5h-74q-16 0 -29.5 12.5t-13.5 28.5v815h-344l2 -815q0 -16 -13.5 -28.5t-29.5 -12.5h-74q-16 0 -29.5 12.5t-13.5 28.5v815h-112q-18 0 -29.5 13.5t-11.5 29.5z" />
<glyph unicode="&#xf8;" horiz-adv-x="983" d="M86 494q0 117 27.5 211t80 158.5t124 99t161.5 34.5q72 0 127 -20l33 78q8 16 24.5 21t32.5 -1l43 -18q16 -6 23.5 -21.5t-0.5 -31.5l-41 -97q72 -66 109.5 -169t37.5 -244q0 -238 -104.5 -371t-284.5 -133q-76 0 -137 24l-35 -82q-8 -16 -23.5 -20t-31.5 2l-43 18 q-16 6 -24.5 21.5t-0.5 32.5l43 100q-68 66 -104.5 168t-36.5 240zM258 494q0 -164 43 -256l256 606q-39 16 -82 16q-217 0 -217 -366zM387 139q37 -18 88 -18q217 0 217 373q0 168 -45 258z" />
<glyph unicode="&#xf9;" horiz-adv-x="995" d="M150 250v696q0 18 13 29.5t30 11.5h77q16 0 29.5 -11t13.5 -30v-676q0 -76 33 -109.5t92 -33.5q111 0 179.5 79t68.5 243v497q0 18 13.5 29.5t29.5 11.5h78q16 0 29.5 -11t13.5 -30v-905q0 -16 -13.5 -28.5t-29.5 -12.5h-47q-31 0 -41 35l-27 106q-18 -20 -42.5 -46.5 t-58.5 -49t-82 -39t-116 -16.5q-113 0 -178 65.5t-65 194.5zM207 1353.5q-8 14.5 4 37.5l43 79q20 33 53 13l334 -211q35 -20 18 -53l-18 -35q-16 -31 -51 -15l-359 162q-16 8 -24 22.5z" />
<glyph unicode="&#xfa;" horiz-adv-x="995" d="M150 250v696q0 18 13 29.5t30 11.5h77q16 0 29.5 -11t13.5 -30v-676q0 -76 33 -109.5t92 -33.5q111 0 179.5 79t68.5 243v497q0 18 13.5 29.5t29.5 11.5h78q16 0 29.5 -11t13.5 -30v-905q0 -16 -13.5 -28.5t-29.5 -12.5h-47q-31 0 -41 35l-27 106q-18 -20 -42.5 -46.5 t-58.5 -49t-82 -39t-116 -16.5q-113 0 -178 65.5t-65 194.5zM291 1219q-16 33 18 53l334 211q33 20 53 -13l43 -79q12 -23 4 -37.5t-24 -22.5l-359 -162q-35 -16 -51 15z" />
<glyph unicode="&#xfb;" horiz-adv-x="995" d="M150 250v696q0 18 13 29.5t30 11.5h77q16 0 29.5 -11t13.5 -30v-676q0 -76 33 -109.5t92 -33.5q111 0 179.5 79t68.5 243v497q0 18 13.5 29.5t29.5 11.5h78q16 0 29.5 -11t13.5 -30v-905q0 -16 -13.5 -28.5t-29.5 -12.5h-47q-31 0 -41 35l-27 106q-18 -20 -42.5 -46.5 t-58.5 -49t-82 -39t-116 -16.5q-113 0 -178 65.5t-65 194.5zM193 1233q-18 25 8 47l256 205q16 14 37.5 15t40.5 -15l253 -201q12 -10 14.5 -24.5t-5.5 -24.5l-27 -37q-8 -10 -25.5 -15t-29.5 3l-230 153l-217 -151q-12 -8 -28.5 -3t-24.5 15z" />
<glyph unicode="&#xfc;" horiz-adv-x="995" d="M150 250v696q0 18 13 29.5t30 11.5h77q16 0 29.5 -11t13.5 -30v-676q0 -76 33 -109.5t92 -33.5q111 0 179.5 79t68.5 243v497q0 18 13.5 29.5t29.5 11.5h78q16 0 29.5 -11t13.5 -30v-905q0 -16 -13.5 -28.5t-29.5 -12.5h-47q-31 0 -41 35l-27 106q-18 -20 -42.5 -46.5 t-58.5 -49t-82 -39t-116 -16.5q-113 0 -178 65.5t-65 194.5zM221 1276q0 41 29 68.5t65 27.5q43 0 72 -27.5t29 -68.5q0 -43 -28 -71.5t-71 -28.5q-39 0 -67.5 28.5t-28.5 71.5zM573 1276q0 41 29 68.5t72 27.5q37 0 66.5 -27.5t29.5 -68.5q0 -43 -28.5 -71.5t-65.5 -28.5 q-43 0 -73 28.5t-30 71.5z" />
<glyph unicode="&#xfd;" horiz-adv-x="897" d="M59 946q-6 16 6.5 28.5t28.5 12.5h96q39 0 52 -41l198 -682q6 -23 11.5 -51.5t9.5 -52.5q4 23 13 62.5t20 78.5l168 647q8 39 49 39h92q16 0 27.5 -12t7.5 -29l-299 -1085q-23 -86 -71 -149.5t-126 -100.5l-43 -21q-14 -6 -29.5 -2t-23.5 21l-29 57q-6 12 0 31.5t21 26.5 l30 14q59 29 88 81t47 124l35 133h-63q-39 0 -49 39zM283 1219q-16 33 18 53l334 211q33 20 53 -13l43 -79q12 -23 4 -37.5t-24 -22.5l-359 -162q-35 -16 -51 15z" />
<glyph unicode="&#xfe;" horiz-adv-x="968" d="M160 -362v1771q0 18 13 29.5t30 11.5h73q16 0 29.5 -11.5t13.5 -29.5v-557q80 145 230 145q66 0 127 -28.5t102 -81.5q27 -35 45.5 -73t30.5 -85t17.5 -105.5t5.5 -134.5q0 -500 -322 -499q-86 0 -140.5 33.5t-95.5 93.5v-479q0 -18 -13 -29.5t-30 -11.5h-73 q-16 0 -29.5 11t-13.5 30zM315 487q0 -186 50.5 -274t150.5 -88q96 0 141 85t45 282q0 113 -14 181t-37 109q-43 80 -137 80t-146.5 -95t-52.5 -280z" />
<glyph unicode="&#xff;" horiz-adv-x="892" d="M59 946q-6 16 6.5 28.5t28.5 12.5h96q39 0 52 -41l198 -682q6 -23 11.5 -51.5t9.5 -52.5q4 23 13 62.5t20 78.5l168 647q8 39 49 39h92q16 0 27.5 -12t7.5 -29l-299 -1085q-23 -86 -71 -149.5t-126 -100.5l-43 -21q-14 -6 -29.5 -2t-23.5 21l-29 57q-6 12 0 31.5t21 26.5 l30 14q59 29 88 81t47 124l35 133h-63q-39 0 -49 39zM188 1276q0 41 29 68.5t66 27.5q43 0 71.5 -27.5t28.5 -68.5q0 -43 -27.5 -71.5t-70.5 -28.5q-39 0 -68 28.5t-29 71.5zM541 1276q0 41 28.5 68.5t71.5 27.5q37 0 66.5 -27.5t29.5 -68.5q0 -43 -28.5 -71.5t-65.5 -28.5 q-43 0 -72.5 28.5t-29.5 71.5z" />
<glyph unicode="&#x152;" horiz-adv-x="1558" d="M133 680q0 367 116 534.5t351 167.5q23 0 38 -1t27.5 -3t26 -3t29.5 -3h665q16 0 30 -11t14 -30v-67q0 -18 -11.5 -31.5t-32.5 -13.5h-499v-418h450q18 0 30.5 -12.5t12.5 -28.5v-64q0 -20 -12 -32.5t-31 -12.5h-450v-493h514q18 0 31.5 -12.5t13.5 -30.5v-74 q0 -16 -13.5 -28.5t-29.5 -12.5h-682q-35 -4 -57.5 -8t-63.5 -4q-236 0 -351.5 161.5t-115.5 530.5zM317 680q0 -291 63.5 -423t217.5 -132q33 0 65.5 6t57.5 16v1082q-27 10 -58.5 15t-64.5 5q-102 0 -158.5 -51t-83 -133t-33 -183.5t-6.5 -201.5z" />
<glyph unicode="&#x153;" horiz-adv-x="1513" d="M86 494q0 117 27.5 211t80 158.5t124 99t161.5 34.5q94 0 170 -38.5t125 -116.5q47 76 120 115.5t163 39.5q70 0 135 -23.5t116.5 -81.5t81 -154.5t29.5 -241.5q0 -16 -12 -29.5t-29 -13.5h-522q6 -156 65.5 -238t198.5 -82q59 0 103.5 9.5t91.5 23.5q23 6 35 -2t18 -25 l18 -51q12 -37 -26 -53q-41 -18 -95.5 -31.5t-142.5 -13.5q-117 0 -204 40t-140 120q-100 -160 -299 -160q-90 0 -161.5 34.5t-124 99t-80 158t-27.5 212.5zM258 494q0 -373 217 -373t217 373q0 367 -217 366q-217 0 -217 -366zM856 584h395q-2 51 -12 102t-33.5 91 t-58.5 64.5t-86 24.5q-25 0 -56.5 -10t-61.5 -40t-54.5 -85t-32.5 -147z" />
<glyph unicode="&#x178;" horiz-adv-x="1013" d="M53 1333q-6 12 1 25.5t28 13.5h129q29 0 39 -24l209 -504q29 -66 40 -114t21 -97q8 49 19.5 95t40.5 118l196 497q10 29 43 29h121q14 0 22.5 -9t-1.5 -32l-369 -809v-481q0 -16 -13.5 -28.5t-29.5 -12.5h-78q-16 0 -29.5 12.5t-13.5 28.5v481zM238 1604q0 41 28.5 68.5 t65.5 27.5q43 0 71.5 -27.5t28.5 -68.5q0 -43 -27.5 -72t-70.5 -29q-39 0 -67.5 29t-28.5 72zM590 1604q0 41 28.5 68.5t71.5 27.5q37 0 66.5 -27.5t29.5 -68.5q0 -43 -28.5 -72t-65.5 -29q-43 0 -72.5 29t-29.5 72z" />
<glyph unicode="&#x2c6;" horiz-adv-x="856" d="M121 1233q-18 25 8 47l256 205q16 14 37.5 15t40.5 -15l254 -201q12 -10 14 -24.5t-6 -24.5l-27 -37q-8 -10 -25.5 -15t-29.5 3l-229 153l-217 -151q-12 -8 -28.5 -3t-25.5 15z" />
<glyph unicode="&#x2dc;" horiz-adv-x="808" d="M73 1281.5q5 14.5 21 31.5q39 41 86 62.5t119 21.5q43 0 71.5 -11.5t53.5 -24.5t52.5 -24.5t70.5 -11.5q41 0 63.5 9t44.5 32q10 10 22.5 11t24.5 -13l17 -18q16 -16 10 -32t-18 -28q-47 -47 -91.5 -67.5t-117.5 -20.5q-45 0 -74 11.5t-53.5 24.5t-51 24.5t-69.5 11.5 q-41 0 -63.5 -11.5t-47.5 -33.5q-12 -10 -21 -6t-26 20l-14 14q-14 14 -9 28.5z" />
<glyph unicode="&#x2000;" horiz-adv-x="913" />
<glyph unicode="&#x2001;" horiz-adv-x="1827" />
<glyph unicode="&#x2002;" horiz-adv-x="913" />
<glyph unicode="&#x2003;" horiz-adv-x="1827" />
<glyph unicode="&#x2004;" horiz-adv-x="609" />
<glyph unicode="&#x2005;" horiz-adv-x="456" />
<glyph unicode="&#x2006;" horiz-adv-x="304" />
<glyph unicode="&#x2007;" horiz-adv-x="304" />
<glyph unicode="&#x2008;" horiz-adv-x="228" />
<glyph unicode="&#x2009;" horiz-adv-x="365" />
<glyph unicode="&#x200a;" horiz-adv-x="101" />
<glyph unicode="&#x2010;" horiz-adv-x="663" d="M115 502v65q0 45 43 45h346q45 0 45 -45v-65q0 -43 -45 -43h-346q-43 0 -43 43z" />
<glyph unicode="&#x2011;" horiz-adv-x="663" d="M115 502v65q0 45 43 45h346q45 0 45 -45v-65q0 -43 -45 -43h-346q-43 0 -43 43z" />
<glyph unicode="&#x2012;" horiz-adv-x="663" d="M115 502v65q0 45 43 45h346q45 0 45 -45v-65q0 -43 -45 -43h-346q-43 0 -43 43z" />
<glyph unicode="&#x2013;" horiz-adv-x="1024" d="M0 553v35q0 45 43 45h936q45 0 45 -45v-35q0 -43 -45 -43h-936q-43 0 -43 43z" />
<glyph unicode="&#x2014;" horiz-adv-x="2048" d="M0 553v35q0 45 43 45h1960q45 0 45 -45v-35q0 -43 -45 -43h-1960q-43 0 -43 43z" />
<glyph unicode="&#x2018;" horiz-adv-x="385" d="M66 1188q0 39 13 80t33.5 81t46 74.5t52.5 61.5q31 31 57 10l29 -25q31 -25 6 -53q-23 -29 -35 -46t-20 -34q-12 -29 -7 -39t17 -16q25 -12 44.5 -40.5t19.5 -67.5q0 -57 -38 -93.5t-89 -36.5q-53 0 -91 38t-38 106z" />
<glyph unicode="&#x2019;" horiz-adv-x="385" d="M63 1356q0 57 38 93t89 36q53 0 91 -38t38 -106q0 -39 -13 -79.5t-33.5 -80.5t-46 -75t-52.5 -62q-31 -31 -57 -10l-29 25q-31 25 -6 53q23 29 35 46.5t20 33.5q12 29 7 39t-17 16q-25 12 -44.5 41t-19.5 68z" />
<glyph unicode="&#x201a;" horiz-adv-x="385" d="M63 117q0 57 38 93t89 36q53 0 91 -38t38 -106q0 -39 -13 -79.5t-33.5 -80.5t-46 -75t-52.5 -62q-31 -31 -57 -10l-29 25q-31 25 -6 53q23 29 35 46.5t20 33.5q12 29 7 39t-17 16q-25 12 -44.5 41t-19.5 68z" />
<glyph unicode="&#x201c;" horiz-adv-x="733" d="M66 1188q0 39 13 80t33.5 81t46 74.5t52.5 61.5q31 31 57 10l29 -25q31 -25 6 -53q-23 -29 -35 -46t-20 -34q-12 -29 -7 -39t17 -16q25 -12 44.5 -40.5t19.5 -67.5q0 -57 -38 -93.5t-89 -36.5q-53 0 -91 38t-38 106zM414 1188q0 39 13 80t33.5 81t46 74.5t52.5 61.5 q31 31 57 10l29 -25q31 -25 6 -53q-23 -29 -35 -46t-20 -34q-12 -29 -7 -39t17 -16q25 -12 44.5 -40.5t19.5 -67.5q0 -57 -38 -93.5t-89 -36.5q-53 0 -91 38t-38 106z" />
<glyph unicode="&#x201d;" horiz-adv-x="733" d="M63 1356q0 57 38 93t89 36q53 0 91 -38t38 -106q0 -39 -13 -79.5t-33.5 -80.5t-46 -75t-52.5 -62q-31 -31 -57 -10l-29 25q-31 25 -6 53q23 29 35 46.5t20 33.5q12 29 7 39t-17 16q-25 12 -44.5 41t-19.5 68zM412 1356q0 57 37.5 93t89.5 36q53 0 91 -38t38 -106 q0 -39 -13.5 -79.5t-34 -80.5t-46 -75t-52.5 -62q-31 -31 -57 -10l-29 25q-31 25 -6 53q23 29 35 46.5t20 33.5q12 29 7 39t-17 16q-25 12 -44 41t-19 68z" />
<glyph unicode="&#x201e;" horiz-adv-x="733" d="M63 117q0 57 38 93t89 36q53 0 91 -38t38 -106q0 -39 -13 -79.5t-33.5 -80.5t-46 -75t-52.5 -62q-31 -31 -57 -10l-29 25q-31 25 -6 53q23 29 35 46.5t20 33.5q12 29 7 39t-17 16q-25 12 -44.5 41t-19.5 68zM412 117q0 57 37.5 93t89.5 36q53 0 91 -38t38 -106 q0 -39 -13.5 -79.5t-34 -80.5t-46 -75t-52.5 -62q-31 -31 -57 -10l-29 25q-31 25 -6 53q23 29 35 46.5t20 33.5q12 29 7 39t-17 16q-25 12 -44 41t-19 68z" />
<glyph unicode="&#x2022;" horiz-adv-x="966" d="M209 651q0 57 21.5 107.5t58.5 88.5t87 60.5t107 22.5t107.5 -22.5t87.5 -60.5t58.5 -88.5t21.5 -107.5t-21.5 -107t-58.5 -88t-87 -60.5t-108 -22.5q-57 0 -107 22.5t-87 60.5t-58.5 88t-21.5 107z" />
<glyph unicode="&#x2026;" horiz-adv-x="1323" d="M63 119q0 53 37 90t90 37t91 -37t38 -90t-37.5 -91t-91.5 -38q-53 0 -90 38t-37 91zM535 119q0 53 36.5 90t90.5 37q53 0 91 -37t38 -90t-38 -91t-91 -38t-90 38t-37 91zM1006 119q0 53 36.5 90t90.5 37q53 0 91 -37t38 -90t-38 -91t-91 -38t-90 38t-37 91z" />
<glyph unicode="&#x202f;" horiz-adv-x="365" />
<glyph unicode="&#x2039;" horiz-adv-x="649" d="M131 465q-16 25 0 51l256 385q8 10 21.5 14.5t23.5 -2.5l60 -39q10 -8 13 -21t-5 -26l-221 -335l221 -336q10 -12 6 -26.5t-12 -18.5l-62 -41q-10 -8 -24.5 -3t-20.5 15z" />
<glyph unicode="&#x203a;" horiz-adv-x="649" d="M143.5 129q-4.5 14 6.5 27l221 336l-221 335q-8 12 -5.5 25.5t13.5 21.5l59 39q10 6 23.5 2t21.5 -14l256 -385q16 -27 0 -51l-256 -383q-6 -10 -20.5 -15.5t-24.5 3.5l-61 41q-8 4 -12.5 18z" />
<glyph unicode="&#x205f;" horiz-adv-x="456" />
<glyph unicode="&#x2122;" horiz-adv-x="1460" d="M41 1366v49q0 35 35 35h434q14 0 24.5 -9t10.5 -26v-49q0 -16 -10.5 -23.5t-24.5 -7.5h-154v-585q0 -14 -10 -23.5t-24 -9.5h-58q-33 0 -33 33v585h-155q-35 0 -35 31zM594 752l70 663q4 35 34 35h107q10 0 19.5 -9t13.5 -22l108 -424q4 -20 7 -52t5 -56q2 31 4.5 63.5 t6.5 44.5l110 424q4 12 12.5 21.5t20.5 9.5h113q31 0 35 -35l67 -667q0 -14 -4 -22.5t-20 -8.5h-80q-25 0 -29 31l-29 485l-6 108q-4 -29 -7 -57.5t-9 -50.5l-111 -410q-8 -31 -31 -30h-94q-25 0 -33 30l-104 410q-4 20 -8 54t-8 54q0 -23 -2 -54.5t-4 -53.5l-31 -485 q-4 -31 -25 -31h-69q-12 0 -21.5 9t-7.5 26z" />
<glyph unicode="&#x25fc;" horiz-adv-x="983" d="M0 0v983h983v-983h-983z" />
</font>
</defs>
</svg>
