<?xml version="1.0" encoding="utf-8"?>
<!-- Generator: Adobe Illustrator 18.0.0, SVG Export Plug-In . SVG Version: 6.00 Build 0)  -->
<!DOCTYPE svg PUBLIC "-//W3C//DTD SVG 1.1//EN" "http://www.w3.org/Graphics/SVG/1.1/DTD/svg11.dtd">
<svg version="1.1" id="Layer_1" xmlns="http://www.w3.org/2000/svg" xmlns:xlink="http://www.w3.org/1999/xlink" x="0px" y="0px"
	 viewBox="0 0 128 128" style="enable-background:new 0 0 128 128;" xml:space="preserve">
<style type="text/css">
	.st0{fill:#333333;}
	.st1{fill:#F1EEF6;}
	.st2{fill:#808080;}
	.st3{fill:#1A1A1A;}
	.st4{fill:#E5E5E5;}
	.st5{fill:#D4C8E3;}
	.st6{fill:none;stroke:#FFFFFF;stroke-miterlimit:10;}
	.st7{fill:#D2C6E1;}
	.st8{fill:#4D4D4D;}
	.st9{fill:none;stroke:#B2B2B2;stroke-miterlimit:10;}
	.st10{fill:#FFFFFF;}
	.st11{fill:none;stroke:#808080;stroke-miterlimit:10;}
	.st12{fill:none;stroke:#4D4D4D;stroke-width:2.2691;stroke-linecap:round;stroke-linejoin:round;stroke-miterlimit:10;}
	.st13{fill:none;stroke:#4D4D4D;stroke-width:2.1559;stroke-linecap:round;stroke-linejoin:round;stroke-miterlimit:10;}
	.st14{fill:none;stroke:#4D4D4D;stroke-width:2.1558;stroke-linecap:round;stroke-linejoin:round;stroke-miterlimit:10;}
	.st15{fill:#241E21;}
	.st16{fill:none;stroke:#4D4D4D;stroke-width:2.1618;stroke-linecap:round;stroke-linejoin:round;stroke-miterlimit:10;}
	.st17{fill:none;stroke:#4D4D4D;stroke-width:2.5566;stroke-linecap:round;stroke-linejoin:round;stroke-miterlimit:10;}
	.st18{fill:none;stroke:#4D4D4D;stroke-width:2.3992;stroke-linecap:round;stroke-linejoin:round;stroke-miterlimit:10;}
	.st19{fill:none;stroke:#4D4D4D;stroke-width:2.607;stroke-linecap:round;stroke-linejoin:round;stroke-miterlimit:10;}
	.st20{fill:none;stroke:#4D4D4D;stroke-width:2.0373;stroke-linecap:round;stroke-linejoin:round;stroke-miterlimit:10;}
	.st21{fill:none;stroke:#4D4D4D;stroke-width:1.7268;stroke-linecap:round;stroke-linejoin:round;stroke-miterlimit:10;}
	.st22{fill:none;stroke:#4D4D4D;stroke-width:2.0207;stroke-linecap:round;stroke-linejoin:round;stroke-miterlimit:10;}
	.st23{fill:#666666;}
	.st24{fill:none;stroke:#666666;stroke-miterlimit:10;}
	.st25{fill:none;stroke:#E5E5E5;stroke-miterlimit:10;}
</style>
<g>
	<path class="st7" d="M56.2,0c-31.5,0-41,3.8-48.5,11.2C1.8,17,0,24.4,0,42.8v42.3c0,18.4,1.8,25.8,7.7,31.6
		c7.5,7.4,17,11.2,48.5,11.2h15.7c31.5,0,41-3.8,48.5-11.2c5.9-5.8,7.7-13.2,7.7-31.6V42.8c0-18.4-1.8-25.8-7.7-31.6
		C112.8,3.8,103.3,0,71.8,0H56.2z"/>
	<g>
		<path class="st8" d="M32.1,102.6c-1.3,0-2.6-0.8-3.2-2L15,72.4c-0.9-1.7-0.2-3.9,1.6-4.7c1.7-0.9,3.9-0.1,4.7,1.6l10.5,21.3
			l25.7-61.1c0.5-1.3,1.7-2.1,3.1-2.2c1.3,0,2.6,0.6,3.3,1.8l23.3,43.1l10.4-19.4c0.6-1.2,2-1.9,3.2-1.9c1.3,0,2.5,0.9,3.1,2.1
			l9.1,20.3c0.8,1.8,0,3.9-1.8,4.7c-1.8,0.8-3.9,0-4.7-1.8l-6.2-13.8L90.3,81.4c-0.6,1.1-1.8,1.9-3.1,1.9h0c-1.3,0-2.5-0.7-3.1-1.8
			L61.2,39l-25.8,61.5c-0.5,1.3-1.8,2.1-3.1,2.2C32.2,102.6,32.1,102.6,32.1,102.6z"/>
	</g>
</g>
</svg>
