<?xml version="1.0" encoding="utf-8"?>
<!-- Generator: Adobe Illustrator 18.0.0, SVG Export Plug-In . SVG Version: 6.00 Build 0)  -->
<!DOCTYPE svg PUBLIC "-//W3C//DTD SVG 1.1//EN" "http://www.w3.org/Graphics/SVG/1.1/DTD/svg11.dtd">
<svg version="1.1" id="Layer_1" xmlns="http://www.w3.org/2000/svg" xmlns:xlink="http://www.w3.org/1999/xlink" x="0px" y="0px"
	 viewBox="0 0 128 128" style="enable-background:new 0 0 128 128;" xml:space="preserve">
<style type="text/css">
	.st0{fill:#333333;}
	.st1{fill:#F1EEF6;}
	.st2{fill:#808080;}
	.st3{fill:#1A1A1A;}
	.st4{fill:#E5E5E5;}
	.st5{fill:#D4C8E3;}
	.st6{fill:none;stroke:#FFFFFF;stroke-miterlimit:10;}
	.st7{fill:#D2C6E1;}
	.st8{fill:#4D4D4D;}
	.st9{fill:none;stroke:#B2B2B2;stroke-miterlimit:10;}
	.st10{fill:#FFFFFF;}
	.st11{fill:none;stroke:#808080;stroke-miterlimit:10;}
	.st12{fill:none;stroke:#4D4D4D;stroke-width:2.2691;stroke-linecap:round;stroke-linejoin:round;stroke-miterlimit:10;}
	.st13{fill:none;stroke:#4D4D4D;stroke-width:2.1559;stroke-linecap:round;stroke-linejoin:round;stroke-miterlimit:10;}
	.st14{fill:none;stroke:#4D4D4D;stroke-width:2.1558;stroke-linecap:round;stroke-linejoin:round;stroke-miterlimit:10;}
	.st15{fill:#241E21;}
	.st16{fill:none;stroke:#4D4D4D;stroke-width:2.1618;stroke-linecap:round;stroke-linejoin:round;stroke-miterlimit:10;}
	.st17{fill:none;stroke:#4D4D4D;stroke-width:2.5566;stroke-linecap:round;stroke-linejoin:round;stroke-miterlimit:10;}
	.st18{fill:none;stroke:#4D4D4D;stroke-width:2.3992;stroke-linecap:round;stroke-linejoin:round;stroke-miterlimit:10;}
	.st19{fill:none;stroke:#4D4D4D;stroke-width:2.607;stroke-linecap:round;stroke-linejoin:round;stroke-miterlimit:10;}
	.st20{fill:none;stroke:#4D4D4D;stroke-width:2.0373;stroke-linecap:round;stroke-linejoin:round;stroke-miterlimit:10;}
	.st21{fill:none;stroke:#4D4D4D;stroke-width:1.7268;stroke-linecap:round;stroke-linejoin:round;stroke-miterlimit:10;}
	.st22{fill:none;stroke:#4D4D4D;stroke-width:2.0207;stroke-linecap:round;stroke-linejoin:round;stroke-miterlimit:10;}
	.st23{fill:#666666;}
	.st24{fill:none;stroke:#666666;stroke-miterlimit:10;}
	.st25{fill:none;stroke:#E5E5E5;stroke-miterlimit:10;}
</style>
<g>
	<path class="st10" d="M119.7,11.4c-7.6-7.6-17.1-11.6-48.3-11.6h-5.8h-3.3h-5.8c-31.2,0-40.7,4-48.3,11.6C1.8,17.8,0,25.8,0,43.9
		v40.3c0,18,1.8,26.1,8.3,32.5c7.6,7.6,17.1,11.6,48.3,11.6h5.8h3.3h5.8c31.2,0,40.7-4,48.3-11.6c6.4-6.4,8.3-14.4,8.3-32.5V43.9
		C128,25.8,126.2,17.8,119.7,11.4"/>
	<g>
		<path class="st8" d="M53.3,110.6c-0.9,0-1.8-0.3-2.5-1L35,93.7c0,0,0,0,0,0l0,0c-0.3-0.3-0.5-0.6-0.7-0.9c0,0,0,0,0,0c0,0,0,0,0,0
			c0,0,0,0,0,0c0,0,0,0,0,0l0,0c0,0,0,0,0,0h0c0,0,0,0,0,0c0,0,0,0,0,0s0,0,0,0l0,0c0,0,0,0,0,0l0,0c-0.2-0.5-0.4-1.1-0.3-1.6l0,0
			c0,0,0,0,0,0c0,0,0,0,0,0c0,0,0,0,0,0s0,0,0,0l0,0c0,0,0,0,0,0s0,0,0,0v0l0,0c0,0,0,0,0,0s0,0,0,0v0v0v0c0,0,0,0,0,0s0,0,0,0v0
			l0,0c0,0,0,0,0,0s0,0,0,0v0l0,0c0,0,0,0,0,0l0,0v0l0,0c0,0,0,0,0,0l0,0c0-0.4,0.1-0.7,0.2-1.1l0,0c0,0,0,0,0,0c0,0,0,0,0,0
			c0,0,0,0,0,0l0,0c0,0,0,0,0,0c0,0,0,0,0,0l0,0c0,0,0,0,0,0s0,0,0,0c0,0,0,0,0,0c0,0,0,0,0,0c0,0,0,0,0,0l0,0c0,0,0,0,0,0l0,0
			c0.2-0.4,0.4-0.8,0.8-1.2l15.9-15.9c1.4-1.4,3.6-1.4,4.9,0c1.4,1.4,1.4,3.6,0,4.9l-10,10h59.5c1.9,0,3.5,1.6,3.5,3.5
			s-1.6,3.5-3.5,3.5H45.8l10,10c1.4,1.4,1.4,3.6,0,4.9C55.1,110.3,54.2,110.6,53.3,110.6z M74.7,71.9c-0.9,0-1.8-0.3-2.5-1
			c-1.4-1.4-1.4-3.6,0-4.9l10-10H22.7c-1.9,0-3.5-1.6-3.5-3.5s1.6-3.5,3.5-3.5h59.5l-10-10c-1.4-1.4-1.3-3.6,0-4.9
			c1.4-1.4,3.6-1.3,4.9,0L93,50c0,0,0,0,0,0l0,0c0,0,0,0,0,0v0c0.3,0.3,0.6,0.7,0.7,1.1l0,0c0,0,0,0,0,0c0,0,0,0,0,0c0,0,0,0,0,0
			s0,0,0,0c0,0,0,0,0,0l0,0l0,0l0,0c0,0,0,0,0,0l0,0l0,0c0,0,0,0,0,0c0,0,0,0,0,0v0c0,0,0,0,0,0v0c0,0,0,0,0,0c0,0,0,0,0,0v0
			c0,0,0,0,0,0v0l0,0l0,0c0.1,0.3,0.2,0.6,0.2,1c0,0,0,0,0,0v0l0,0c0,0,0,0,0,0l0,0c0,0,0,0,0,0c0,0,0,0,0,0h0c0,0,0,0,0,0s0,0,0,0
			v0v0c0,0,0,0,0,0l0,0v0c0,0,0,0,0,0s0,0,0,0l0,0l0,0c0,0,0,0,0,0v0l0,0c0,0,0,0,0,0l0,0v0l0,0v0l0,0c0.1,0.6-0.1,1.3-0.4,1.9l0,0
			c0,0,0,0,0,0c0,0,0,0,0,0l0,0h0c0,0,0,0,0,0c0,0,0,0,0,0l0,0c0,0,0,0,0,0c0,0,0,0,0,0l0,0c0,0,0,0,0,0l0,0
			c-0.2,0.3-0.4,0.6-0.6,0.8l0,0l0,0c0,0,0,0,0,0L77.2,70.8C76.5,71.5,75.6,71.9,74.7,71.9z"/>
	</g>
</g>
</svg>
