<?xml version="1.0" encoding="utf-8"?>
<!-- Generator: Adobe Illustrator 18.0.0, SVG Export Plug-In . SVG Version: 6.00 Build 0)  -->
<!DOCTYPE svg PUBLIC "-//W3C//DTD SVG 1.1//EN" "http://www.w3.org/Graphics/SVG/1.1/DTD/svg11.dtd">
<svg version="1.1" id="Layer_1" xmlns="http://www.w3.org/2000/svg" xmlns:xlink="http://www.w3.org/1999/xlink" x="0px" y="0px"
	 viewBox="0 0 360 5594" style="enable-background:new 0 0 360 5594;" xml:space="preserve">
<style type="text/css">
	.st0{fill:#333333;}
	.st1{fill:#F1EEF6;}
	.st2{fill:#808080;}
	.st3{fill:#1A1A1A;}
	.st4{fill:#E5E5E5;}
	.st5{fill:#D4C8E3;}
	.st6{fill:none;stroke:#FFFFFF;stroke-miterlimit:10;}
	.st7{fill:#D2C6E1;}
	.st8{fill:#4D4D4D;}
	.st9{fill:none;}
	.st10{fill:#FFFFFF;}
	.st11{font-family:'InfoTextSemibold-Roman';}
	.st12{font-size:21.1231;}
	.st13{font-family:'InfoTextMedium-Roman';}
	.st14{font-size:13;}
	.st15{font-family:'InfoTextSemibold-Caps';}
	.st16{font-size:29;}
	.st17{letter-spacing:1;}
	.st18{font-family:'InfoTextRegular-Roman';}
	.st19{font-size:20;}
	.st20{font-size:16;}
	.st21{fill:none;stroke:#B2B2B2;stroke-miterlimit:10;}
	.st22{font-size:17;}
	.st23{fill:none;stroke:#808080;stroke-miterlimit:10;}
	.st24{fill:none;stroke:#4D4D4D;stroke-width:2.2691;stroke-linecap:round;stroke-linejoin:round;stroke-miterlimit:10;}
	.st25{fill:none;stroke:#4D4D4D;stroke-width:2.1559;stroke-linecap:round;stroke-linejoin:round;stroke-miterlimit:10;}
	.st26{fill:none;stroke:#4D4D4D;stroke-width:2.1558;stroke-linecap:round;stroke-linejoin:round;stroke-miterlimit:10;}
	.st27{fill:#241E21;}
	.st28{fill:none;stroke:#4D4D4D;stroke-width:2.1618;stroke-linecap:round;stroke-linejoin:round;stroke-miterlimit:10;}
	.st29{fill:none;stroke:#4D4D4D;stroke-width:2.5566;stroke-linecap:round;stroke-linejoin:round;stroke-miterlimit:10;}
	.st30{fill:none;stroke:#4D4D4D;stroke-width:2.3992;stroke-linecap:round;stroke-linejoin:round;stroke-miterlimit:10;}
	.st31{fill:none;stroke:#4D4D4D;stroke-width:2.607;stroke-linecap:round;stroke-linejoin:round;stroke-miterlimit:10;}
	.st32{fill:#666666;}
	.st33{font-size:14;}
	.st34{fill:none;stroke:#4D4D4D;stroke-width:2.0373;stroke-linecap:round;stroke-linejoin:round;stroke-miterlimit:10;}
	.st35{fill:none;stroke:#4D4D4D;stroke-width:1.7268;stroke-linecap:round;stroke-linejoin:round;stroke-miterlimit:10;}
	.st36{fill:none;stroke:#4D4D4D;stroke-width:2.0207;stroke-linecap:round;stroke-linejoin:round;stroke-miterlimit:10;}
	.st37{fill:none;stroke:#666666;stroke-miterlimit:10;}
	.st38{font-size:11;}
	.st39{fill:none;stroke:#E5E5E5;stroke-miterlimit:10;}
</style>
<rect x="29" y="2775" class="st2" width="302" height="4"/>
<rect y="3042" class="st1" width="360" height="1614"/>
<g>
	<defs>
		<rect id="SVGID_3_" x="-1" y="70" width="360" height="203"/>
	</defs>
	<clipPath id="SVGID_2_">
		<use xlink:href="#SVGID_3_"  style="overflow:visible;"/>
	</clipPath>
	<g style="clip-path:url(#SVGID_2_);">
		
			<image style="overflow:visible;" width="1006" height="1008" xlink:href="2F2B618D.jpg"  transform="matrix(0.5079 0 0 0.5079 -76.46 59.978)">
		</image>
	</g>
</g>
<rect y="273" class="st7" width="360" height="453"/>
<g>
	<rect x="191" y="138" class="st7" width="55" height="21"/>
	<g>
		<rect x="20.4" y="116.8" class="st9" width="309" height="81.2"/>
		<text transform="matrix(1 0 0 1 20.356 131.8403)"><tspan x="0" y="0" class="st10 st11 st12">Unlock the true potential of your  </tspan><tspan x="0" y="24.1" class="st10 st11 st12">business with Flux. </tspan><tspan x="180.3" y="24.1" class="st11 st12">How?</tspan><tspan x="231.9" y="24.1" class="st10 st11 st12"> </tspan></text>
	</g>
</g>
<rect y="59" class="st0" width="360" height="26"/>
<rect x="20.4" y="66.9" class="st9" width="318.2" height="18.1"/>
<text transform="matrix(1 0 0 1 20.3564 76.1743)" class="st10 st13 st14">info@fluxbds.com</text>
<g>
	<rect x="30.9" y="303.7" class="st9" width="156" height="27.8"/>
	<text transform="matrix(1 0 0 1 30.8691 324.3135)" class="st0 st15 st16 st17">about</text>
</g>
<g>
	<rect x="30.9" y="347.6" class="st9" width="310.5" height="456.3"/>
	<text transform="matrix(1 0 0 1 30.8687 361.8481)"><tspan x="0" y="0" class="st0 st18 st19">In a world where rapid change &amp; </tspan><tspan x="0" y="25" class="st0 st18 st19">growth is not just possible but </tspan><tspan x="0" y="50" class="st0 st18 st19">increasingly common Flux is the </tspan><tspan x="0" y="75" class="st0 st18 st19">new Big Data system designed to </tspan><tspan x="0" y="100" class="st0 st18 st19">help.</tspan><tspan x="0" y="149" class="st0 st18 st20">Flux enables your team to do what they do </tspan><tspan x="0" y="169" class="st0 st18 st20">best – create and innovate. By digitizing all </tspan><tspan x="0" y="189" class="st0 st18 st20">company processes, management can </tspan><tspan x="0" y="209" class="st0 st18 st20">monitor the health of the enterprise in real </tspan><tspan x="0" y="229" class="st0 st18 st20">time and free up resources to scale rapidly </tspan><tspan x="0" y="249" class="st0 st18 st20">and profitably.</tspan><tspan x="0" y="289" class="st0 st18 st20">Flux is built for you. It is designed to be </tspan><tspan x="0" y="309" class="st0 st18 st20">completely adaptable to your on-going </tspan><tspan x="0" y="329" class="st0 st18 st20">needs. As industry &amp; technological changes </tspan><tspan x="0" y="349" class="st0 st18 st20">impact your business needs, Flux will evolve </tspan><tspan x="0" y="369" class="st0 st18 st20">in tandem.</tspan></text>
</g>
<g>
	<rect x="30.9" y="967" class="st9" width="310.5" height="43"/>
	<text transform="matrix(1 0 0 1 30.8687 978.3599)"><tspan x="0" y="0" class="st0 st11 st20">Core components of the system reflect the </tspan><tspan x="0" y="22" class="st0 st11 st20">requirements of any business</tspan></text>
</g>
<g>
	<rect x="22.9" y="759.9" class="st9" width="156" height="27.8"/>
	<text transform="matrix(1 0 0 1 22.8691 780.4956)" class="st0 st15 st16 st17">solutions</text>
</g>
<g>
	<rect x="22.9" y="803.8" class="st9" width="305.1" height="114.2"/>
	<text transform="matrix(1 0 0 1 22.8687 818.0303)"><tspan x="0" y="0" class="st0 st18 st19">Flux is built on a single database </tspan><tspan x="0" y="25" class="st0 st18 st19">that enables users to have a </tspan><tspan x="0" y="50" class="st0 st18 st19">personalised dashboard showing </tspan><tspan x="0" y="75" class="st0 st18 st19">all relevant activities occurring in </tspan></text>
</g>
<g>
	<rect x="29" y="1889.8" class="st9" width="276.8" height="250.8"/>
	<text transform="matrix(1 0 0 1 29 1904.0073)"><tspan x="0" y="0" class="st0 st11 st19">Implementation</tspan><tspan x="0" y="25" class="st0 st18 st19">Flux’s core framework is for </tspan><tspan x="0" y="50" class="st0 st18 st19">everyone. Specialisation arises </tspan><tspan x="0" y="75" class="st0 st18 st19">from installing industry specific </tspan><tspan x="0" y="100" class="st0 st18 st19">apps on top of the core </tspan><tspan x="0" y="125" class="st0 st18 st19">platform. If Flux have not </tspan><tspan x="0" y="150" class="st0 st18 st19">already created the app your </tspan><tspan x="0" y="175" class="st0 st18 st19">company needs, then this will </tspan><tspan x="0" y="200" class="st0 st18 st19">be done as part of the </tspan><tspan x="0" y="225" class="st0 st18 st19">implementation process. </tspan></text>
</g>
<g>
	<rect x="29" y="2416.6" class="st9" width="301" height="347.4"/>
	<text transform="matrix(1 0 0 1 29 2427.9839)"><tspan x="0" y="0" class="st0 st18 st20">Consultation</tspan><tspan x="0" y="20" class="st8 st18 st20">The Flux team is also available on a </tspan><tspan x="0" y="40" class="st8 st18 st20">consultancy basis. We specialise in </tspan><tspan x="0" y="60" class="st8 st18 st20">analysing processes to see if they can be </tspan><tspan x="0" y="80" class="st8 st18 st20">digitised and automated.</tspan><tspan x="0" y="120" class="st0 st18 st20">Global Access</tspan><tspan x="0" y="140" class="st8 st18 st20">Flux is an entirely cloud based system that </tspan><tspan x="0" y="160" class="st8 st18 st20">is accessible from any device, anywhere in </tspan><tspan x="0" y="180" class="st8 st18 st20">the world, at any time. The system </tspan><tspan x="0" y="200" class="st8 st18 st20">synchronises in real time; if you add a sale </tspan><tspan x="0" y="220" class="st8 st18 st20">on your mobile device everyone in the </tspan><tspan x="0" y="240" class="st8 st18 st20">office will see their screens update to reflect </tspan><tspan x="0" y="260" class="st8 st18 st20">the sale immediately. We also offer Flux as a </tspan><tspan x="0" y="280" class="st8 st18 st20">local server based system if customers </tspan><tspan x="0" y="300" class="st8 st18 st20">prefer to host the system locally.</tspan></text>
</g>
<g>
	<polygon class="st8" points="85.7,27.4 85.7,32.4 94.2,32.4 94.2,37.8 85.7,37.8 85.7,46.8 78,46.8 78,21.7 97.8,21.7 97.8,27.4 	
		"/>
	<polygon class="st8" points="108.7,41 119,41 119,46.8 101,46.8 101,21.7 108.7,21.7 	"/>
	<path class="st8" d="M144.5,36.7c0,5.6-0.7,7.3-2.1,8.6c-1.2,1.1-2.6,1.5-5.8,1.5h-7.2c-3.2,0-4.7-0.3-5.8-1.5
		c-1.4-1.4-2.1-3.1-2.1-8.6v-15h7.7v15c0,2.3,0.2,3,0.5,3.3c0.3,0.3,0.9,0.4,2.1,0.4h2.4c1.2,0,1.8-0.1,2.1-0.4
		c0.3-0.3,0.5-1,0.5-3.3v-15h7.7V36.7z"/>
	<polygon class="st8" points="160.2,39.5 159.9,39.5 155.3,46.8 147.2,46.8 155.6,34.2 147.3,21.7 155.9,21.7 160.4,28.6 
		160.6,28.6 165.1,21.7 173.2,21.7 164.9,34 173.3,46.8 164.8,46.8 	"/>
	<path class="st8" d="M35.9,47.8h-0.7H34c-6.2,0-8.3-0.8-9.9-2.2c-0.4-0.5-2.3-3.1-1.3-5.5c0.8-1.8,3.5-4.2,12.6-5l0.5,0
		c9,0.8,11.8,3.1,12.5,4.9c1.1,2.7-1.5,5.6-1.5,5.7v0c-1.6,1.4-3.7,2.1-9.8,2.1H35.9z M35.3,20.7h0.7h1.2c6.5,0,8.6,0.8,10.2,2.4
		c0.6,0.8,2,3.1,1.1,5.3c-0.8,1.9-3.6,4.2-12.7,5l-0.4,0c-9-0.7-11.8-3.1-12.5-4.9c-1.1-2.7,1.4-5.6,1.5-5.7l0,0
		c1.6-1.4,3.7-2.1,9.8-2.1H35.3z M41.9,34.2c3.4-0.8,5.8-2,7.2-3.6v7.3C47.7,36.3,45.3,35,41.9,34.2 M22.1,30.6
		c1.4,1.6,3.8,2.9,7.2,3.7c-3.4,0.8-5.8,2-7.2,3.6V30.6z M48.7,22c-0.2-0.2-0.3-0.4-0.3-0.4l-0.1,0c-2.2-2.1-5-2.8-11.2-2.8h-1.2
		h-0.7H34c-6.4,0-9.2,0.7-11.4,3c-1.9,1.9-2.3,4.2-2.3,8.1v8.5c0,3.9,0.3,6.2,2.3,8.1c0.1,0.1,0.1,0.1,0.2,0.2c0,0,0,0.1,0.1,0.1
		l0,0c2.2,2,5,2.7,11.1,2.7h1.2h0.7h1.2c6.4,0,9.2-0.7,11.4-3c1.9-1.9,2.3-4.2,2.3-8.1V30C50.8,26.2,50.5,23.9,48.7,22"/>
</g>
<g>
	<path class="st7" d="M52.8,1038.8c-12.4,0-16.2,1.5-19.1,4.4c-2.3,2.3-3,5.2-3,12.5v16.7c0,7.3,0.7,10.2,3,12.5
		c2.9,2.9,6.7,4.4,19.1,4.4H59c12.4,0,16.2-1.5,19.1-4.4c2.3-2.3,3-5.2,3-12.5v-16.7c0-7.3-0.7-10.2-3-12.5
		c-2.9-2.9-6.7-4.4-19.1-4.4H52.8z"/>
	<g>
		<g>
			<path class="st8" d="M75,1077.8H36.8c-0.8,0-1.4-0.6-1.4-1.4v-24.8c0-0.8,0.6-1.4,1.4-1.4H75c0.8,0,1.4,0.6,1.4,1.4v24.8
				C76.3,1077.2,75.7,1077.8,75,1077.8z M38.2,1075.1h35.4v-22H38.2V1075.1z M50.9,1072.1H42c-0.8,0-1.4-0.6-1.4-1.3
				c0-0.5-0.1-5,2.2-7.4c0.9-1,2.1-1.5,3.5-1.5c0,0,0.1,0,0.1,0c1.4-0.1,2.7,0.5,3.6,1.5c2.3,2.4,2.2,6.9,2.2,7.4
				C52.2,1071.5,51.6,1072.1,50.9,1072.1z M43.4,1069.4h6c-0.1-1.3-0.5-3.1-1.4-4c-0.4-0.4-1-0.6-1.6-0.6c-0.6,0.1-1.2,0.2-1.6,0.6
				C43.9,1066.3,43.6,1068,43.4,1069.4z M69.6,1070.5H56.2c-0.8,0-1.4-0.6-1.4-1.4s0.6-1.4,1.4-1.4h13.4c0.8,0,1.4,0.6,1.4,1.4
				S70.3,1070.5,69.6,1070.5z M69.6,1064.9H56.2c-0.8,0-1.4-0.6-1.4-1.4s0.6-1.4,1.4-1.4h13.4c0.8,0,1.4,0.6,1.4,1.4
				S70.3,1064.9,69.6,1064.9z M69.6,1059.5H56.2c-0.8,0-1.4-0.6-1.4-1.4c0-0.8,0.6-1.4,1.4-1.4h13.4c0.8,0,1.4,0.6,1.4,1.4
				C70.9,1058.9,70.3,1059.5,69.6,1059.5z"/>
		</g>
	</g>
	<g>
		<path class="st8" d="M46.4,1055.5c-2.1,0-3.8,1.7-3.8,3.8c0,2.1,1.7,3.8,3.8,3.8c2.1,0,3.8-1.7,3.8-3.8
			C50.2,1057.2,48.5,1055.5,46.4,1055.5 M46.4,1057.8c0.8,0,1.5,0.7,1.5,1.5c0,0.8-0.7,1.5-1.5,1.5c-0.8,0-1.5-0.7-1.5-1.5
			C44.9,1058.5,45.6,1057.8,46.4,1057.8"/>
	</g>
</g>
<g>
	<rect x="105" y="1040.5" class="st9" width="183.6" height="58.5"/>
	<text transform="matrix(1 0 0 1 105.0483 1052.5991)"><tspan x="0" y="0" class="st0 st18 st22">Accounts, including real </tspan><tspan x="0" y="20" class="st0 st18 st22">time trial balance, </tspan><tspan x="0" y="40" class="st0 st18 st22">balance sheet, P&amp;L, and </tspan></text>
</g>
<line class="st21" x1="31" y1="1024.5" x2="331" y2="1024.5"/>
<g>
	<path class="st7" d="M52.6,1133c-12.3,0-16.1,1.5-19,4.4c-2.3,2.3-3,5.2-3,12.4v16.6c0,7.2,0.7,10.1,3,12.4c2.9,2.9,6.7,4.4,19,4.4
		h6.1c12.3,0,16.1-1.5,19-4.4c2.3-2.3,3-5.2,3-12.4v-16.6c0-7.2-0.7-10.1-3-12.4c-2.9-2.9-6.7-4.4-19-4.4H52.6z"/>
	<g>
		<g>
			<path class="st8" d="M55.7,1179.2L55.7,1179.2c-0.2,0-0.5-0.1-0.7-0.2c-0.1,0-0.1-0.1-0.2-0.1L38,1168.4
				c-0.4-0.3-0.6-0.7-0.6-1.2v-17.9c0,0,0-0.1,0-0.1c0-0.5,0.3-0.9,0.7-1.1c0,0,0,0,0,0l16.9-10.5c0.4-0.3,1-0.3,1.5,0l16.9,10.5
				c0,0,0,0,0,0c0.4,0.2,0.7,0.7,0.7,1.1c0,0,0,0.1,0,0.1v17.9c0,0.5-0.2,0.9-0.6,1.2l-16.8,10.5c-0.1,0-0.1,0.1-0.2,0.1
				C56.2,1179.1,55.9,1179.2,55.7,1179.2z M40.1,1166.4l14.2,8.9v-14.7l-14.2-8.8V1166.4z M57.1,1160.6v14.7l14.2-8.9v-14.6
				L57.1,1160.6z M49.7,1154.5l6,3.7l14.3-8.9l-6.1-3.8L49.7,1154.5z M41.4,1149.3l5.7,3.6l14.2-9l-5.7-3.5L41.4,1149.3z"/>
		</g>
	</g>
</g>
<g>
	<rect x="108" y="1134.7" class="st9" width="186.8" height="64.6"/>
	<text transform="matrix(1 0 0 1 107.9644 1146.7241)" class="st0 st18 st22">Stock Management</text>
</g>
<line class="st21" x1="31" y1="1118.5" x2="329" y2="1118.5"/>
<g>
	<path class="st7" d="M52.8,1226.6c-12.4,0-16.2,1.5-19.1,4.4c-2.3,2.3-3,5.2-3,12.5v16.7c0,7.3,0.7,10.2,3,12.5
		c2.9,2.9,6.7,4.4,19.1,4.4h6.2c12.4,0,16.2-1.5,19.1-4.4c2.3-2.3,3-5.2,3-12.5v-16.7c0-7.3-0.7-10.2-3-12.5
		c-2.9-2.9-6.7-4.4-19.1-4.4H52.8z"/>
	<g>
		<path class="st8" d="M68.6,1265.2c-0.6,0-1.1-0.4-1.3-0.9l-2.1-5.3H54.4c-3.1,0-5.7-2.5-5.7-5.7v-10.8c0-3.1,2.5-5.7,5.7-5.7H71
			c3.1,0,5.7,2.5,5.7,5.7v10.8c0,3-2.3,5.4-5.2,5.6l-1.6,5.3C69.7,1264.8,69.2,1265.2,68.6,1265.2
			C68.6,1265.2,68.6,1265.2,68.6,1265.2z M54.4,1239.7c-1.6,0-2.9,1.3-2.9,2.9v10.8c0,1.6,1.3,2.9,2.9,2.9h11.8
			c0.6,0,1.1,0.4,1.3,0.9l0.9,2.4l0.7-2.3c0.2-0.6,0.7-1,1.3-1H71c1.6,0,2.9-1.3,2.9-2.9v-10.8c0-1.6-1.3-2.9-2.9-2.9H54.4z"/>
	</g>
	<g>
		<path class="st8" d="M59.1,1257.6c-0.6,0.1-1.3,0.1-2.1,0.2v0.9c0,1.3-1.1,2.3-2.4,2.3H44.4c-0.6,0-1.1,0.4-1.3,0.9l-0.6,1.6
			L42,1262c-0.2-0.6-0.7-1-1.3-1h-0.5c-1.3,0-2.4-1.1-2.4-2.3v-9.4c0-1.3,1.1-2.4,2.4-2.4h10.3c0-0.9,0-1.9-0.1-2.8H40.2
			c-2.8,0-5.1,2.3-5.1,5.1v9.4c0,2.6,2,4.8,4.6,5.1l1.3,4.5c0.2,0.6,0.7,1,1.3,1c0,0,0,0,0.1,0c0.6,0,1.1-0.4,1.3-0.9l1.8-4.6h9.3
			c2.8,0,5.1-2.3,5.1-5.1v-1.3C59.6,1257.5,59.4,1257.6,59.1,1257.6"/>
	</g>
</g>
<g>
	<rect x="103.9" y="1228.3" class="st9" width="191.3" height="64.6"/>
	<text transform="matrix(1 0 0 1 103.9329 1240.3491)" class="st0 st18 st22">CRM</text>
</g>
<line class="st21" x1="31" y1="1212.5" x2="330" y2="1212.5"/>
<g>
	<path class="st7" d="M51.1,1320.9c-12.4,0-16.2,1.5-19.1,4.4c-2.3,2.3-3,5.2-3,12.5v16.7c0,7.3,0.7,10.2,3,12.5
		c2.9,2.9,6.7,4.4,19.1,4.4h6.2c12.4,0,16.2-1.5,19.1-4.4c2.3-2.3,3-5.2,3-12.5v-16.7c0-7.3-0.7-10.2-3-12.5
		c-2.9-2.9-6.7-4.4-19.1-4.4H51.1z"/>
	<g>
		<path class="st8" d="M67.2,1363.3h-26c-0.8,0-1.4-0.6-1.4-1.4v-32.2c0-0.8,0.6-1.4,1.4-1.4h17.4c0.1,0,0.1,0,0.2,0l0,0h0l0,0h0h0
			h0h0l0,0c0.1,0,0.1,0,0.2,0l0,0l0,0l0,0c0.2,0.1,0.5,0.2,0.6,0.4l8.6,9c0.2,0.3,0.4,0.6,0.4,1l0,23.2
			C68.6,1362.7,68,1363.3,67.2,1363.3z M42.6,1360.5h23.2l0-20.4h-7.2c-0.8,0-1.4-0.6-1.4-1.4v-7.6H42.6V1360.5z M60,1337.3H64
			l-3.9-4.1V1337.3z M61.8,1356.6H46.6c-0.8,0-1.4-0.6-1.4-1.4c0-0.8,0.6-1.4,1.4-1.4h15.2c0.8,0,1.4,0.6,1.4,1.4
			C63.2,1355.9,62.6,1356.6,61.8,1356.6z M61.8,1351.3H46.6c-0.8,0-1.4-0.6-1.4-1.4c0-0.8,0.6-1.4,1.4-1.4h15.2
			c0.8,0,1.4,0.6,1.4,1.4C63.2,1350.7,62.6,1351.3,61.8,1351.3z M61.8,1346.3H46.6c-0.8,0-1.4-0.6-1.4-1.4c0-0.8,0.6-1.4,1.4-1.4
			h15.2c0.8,0,1.4,0.6,1.4,1.4C63.2,1345.7,62.6,1346.3,61.8,1346.3z"/>
	</g>
</g>
<g>
	<rect x="103.4" y="1322.8" class="st9" width="183.6" height="85.9"/>
	<text transform="matrix(1 0 0 1 103.4041 1334.9116)" class="st0 st18 st22">Invoicing/contracts</text>
</g>
<line class="st21" x1="29" y1="1306.5" x2="334" y2="1306.5"/>
<g>
	<path class="st7" d="M51.1,1414.5c-12.4,0-16.2,1.5-19.1,4.4c-2.3,2.3-3,5.2-3,12.5v16.7c0,7.3,0.7,10.2,3,12.5
		c2.9,2.9,6.7,4.4,19.1,4.4h6.2c12.4,0,16.2-1.5,19.1-4.4c2.3-2.3,3-5.2,3-12.5v-16.7c0-7.3-0.7-10.2-3-12.5
		c-2.9-2.9-6.7-4.4-19.1-4.4H51.1z"/>
	<g>
		<path class="st8" d="M41.7,1455c-0.5,0-1-0.3-1.2-0.8l-5.5-11.1c-0.3-0.7-0.1-1.5,0.6-1.9c0.7-0.3,1.5-0.1,1.9,0.6l4.2,8.4
			l10.1-24.1c0.2-0.5,0.7-0.8,1.2-0.8c0.5,0,1,0.3,1.3,0.7l9.2,17l4.1-7.7c0.3-0.5,0.8-0.7,1.3-0.7c0.5,0,1,0.3,1.2,0.8l3.6,8
			c0.3,0.7,0,1.5-0.7,1.8c-0.7,0.3-1.5,0-1.8-0.7l-2.4-5.4l-4,7.4c-0.2,0.5-0.7,0.7-1.2,0.7h0c-0.5,0-1-0.3-1.2-0.7l-9-16.7
			l-10.2,24.2C42.7,1454.6,42.2,1454.9,41.7,1455C41.7,1455,41.7,1455,41.7,1455z"/>
	</g>
</g>
<g>
	<rect x="106.3" y="1416.5" class="st9" width="186.8" height="64.6"/>
	<text transform="matrix(1 0 0 1 106.3325 1428.5366)" class="st0 st18 st22">Analytics</text>
</g>
<line class="st21" x1="29" y1="1401.5" x2="334" y2="1401.5"/>
<g>
	<path class="st7" d="M51.1,1509.2c-12.4,0-16.2,1.5-19.1,4.4c-2.3,2.3-3,5.2-3,12.5v16.7c0,7.3,0.7,10.2,3,12.5
		c2.9,2.9,6.7,4.4,19.1,4.4h6.2c12.4,0,16.2-1.5,19.1-4.4c2.3-2.3,3-5.2,3-12.5v-16.7c0-7.3-0.7-10.2-3-12.5
		c-2.9-2.9-6.7-4.4-19.1-4.4H51.1z"/>
	<g>
		<path class="st8" d="M61.4,1548.2c-0.9,0.5-2.1,0.9-4.5,0.9c-5.2,0-8.4-3.3-9.4-9.1h-2.7c-0.5,0-0.8-0.3-0.8-0.8v-1.3
			c0-0.6,0.3-0.9,0.8-0.9h2.4c0-0.6,0-1.1,0-1.7c0-0.4,0-0.9,0-1.3h-2.4c-0.5,0-0.8-0.3-0.8-0.8v-1.3c0-0.6,0.3-0.9,0.8-0.9h2.7
			c1.1-5.8,4.6-9.2,9.6-9.2c1.6,0,3.2,0.2,4.3,0.9c0.4,0.2,0.4,0.7,0.3,1.2l-0.4,1.4c-0.1,0.4-0.6,0.6-1.1,0.3
			c-0.9-0.4-1.8-0.8-3.1-0.8c-3.5,0-5.5,1.9-6.3,6.2h6.2c0.6,0,0.9,0.3,0.9,0.9v1.3c0,0.5-0.3,0.8-0.9,0.8h-6.5c0,0.4,0,0.9,0,1.3
			c0,0.6,0,1.2,0,1.7h6.5c0.6,0,0.9,0.3,0.9,0.9v1.3c0,0.5-0.3,0.8-0.9,0.8h-6.1c0.9,4.2,3.1,6,6.1,6c1.1,0,2.6-0.4,3.3-0.8
			c0.5-0.2,0.9-0.1,1,0.3l0.3,1.7C61.9,1547.7,61.7,1548,61.4,1548.2"/>
	</g>
</g>
<g>
	<rect x="102.3" y="1511.1" class="st9" width="191.3" height="64.6"/>
	<text transform="matrix(1 0 0 1 102.301 1523.1616)"><tspan x="0" y="0" class="st0 st18 st22">Integrated electronic </tspan><tspan x="0" y="20" class="st0 st18 st22">payment system</tspan></text>
</g>
<line class="st21" x1="29" y1="1495.5" x2="328" y2="1495.5"/>
<g>
	<path class="st7" d="M51.3,1603.9c-12.4,0-16.2,1.5-19.1,4.4c-2.3,2.3-3,5.2-3,12.5v16.7c0,7.3,0.7,10.2,3,12.5
		c2.9,2.9,6.7,4.4,19.1,4.4h6.2c12.4,0,16.2-1.5,19.1-4.4c2.3-2.3,3-5.2,3-12.5v-16.7c0-7.3-0.7-10.2-3-12.5
		c-3-2.9-6.7-4.4-19.1-4.4H51.3z"/>
	<g>
		<g>
			<path class="st8" d="M46.6,1637.5c-0.3,0-0.5-0.1-0.7-0.2l-10.4-6.5c-0.4-0.3-0.7-0.7-0.6-1.2c0-0.5,0.2-0.9,0.6-1.2l10.4-6.5
				c0.6-0.4,1.5-0.2,1.9,0.4c0.4,0.6,0.2,1.5-0.4,1.9l-8.6,5.4l8.6,5.4c0.6,0.4,0.8,1.3,0.4,1.9
				C47.5,1637.3,47.1,1637.5,46.6,1637.5z"/>
		</g>
		<g>
			<path class="st8" d="M50.5,1641.5c-0.1,0-0.3,0-0.4-0.1c-0.7-0.2-1-1-0.8-1.7l7.8-21.3c0.2-0.7,1-1,1.7-0.8c0.7,0.2,1,1,0.8,1.7
				l-7.8,21.3C51.6,1641.2,51.1,1641.5,50.5,1641.5z"/>
		</g>
		<g>
			<path class="st8" d="M62.1,1637.5c-0.5,0-0.9-0.2-1.2-0.6c-0.4-0.6-0.2-1.5,0.4-1.9l8.6-5.4l-8.6-5.4c-0.6-0.4-0.8-1.3-0.4-1.9
				c0.4-0.6,1.3-0.8,1.9-0.4l10.4,6.5c0.4,0.3,0.7,0.7,0.6,1.2c0,0.5-0.2,0.9-0.6,1.2l-10.4,6.5
				C62.6,1637.4,62.4,1637.5,62.1,1637.5z"/>
		</g>
	</g>
</g>
<g>
	<rect x="103.5" y="1605.9" class="st9" width="183.6" height="54.4"/>
	<text transform="matrix(1 0 0 1 103.5479 1617.9272)"><tspan x="0" y="0" class="st0 st18 st22">Web based HTML5 </tspan><tspan x="0" y="20" class="st0 st18 st22">Customer/Supplier </tspan><tspan x="0" y="40" class="st0 st18 st22">interface</tspan></text>
</g>
<line class="st21" x1="29" y1="1589.5" x2="336" y2="1589.5"/>
<g>
	<path class="st7" d="M51.1,1698.1c-12.4,0-16.2,1.5-19.1,4.4c-2.3,2.3-3,5.2-3,12.5v16.7c0,7.3,0.7,10.2,3,12.5
		c2.9,2.9,6.7,4.4,19.1,4.4h6.2c12.4,0,16.2-1.5,19.1-4.4c2.3-2.3,3-5.2,3-12.5v-16.7c0-7.3-0.7-10.2-3-12.5
		c-2.9-2.9-6.7-4.4-19.1-4.4H51.1z"/>
	<g>
		<path class="st8" d="M64.8,1741.9c-0.8,0-1.4-0.6-1.4-1.4v-1.3c-1.2-0.2-2.4-0.7-3.4-1.4l-0.9,0.9c-0.5,0.5-1.4,0.5-2,0
			s-0.5-1.4,0-2l0.9-0.9c-0.7-1-1.3-2.2-1.5-3.4h-1.2c-0.8,0-1.4-0.6-1.4-1.4s0.6-1.4,1.4-1.4h1.1c0.2-1.3,0.7-2.5,1.4-3.6l-0.8-0.8
			c-0.5-0.5-0.5-1.4,0-2c0.5-0.5,1.4-0.5,2,0l0.7,0.7c1-0.8,2.3-1.3,3.6-1.5v-1c0-0.8,0.6-1.4,1.4-1.4c0.8,0,1.4,0.6,1.4,1.4v1
			c1.3,0.2,2.5,0.8,3.6,1.5l0.7-0.7c0.5-0.5,1.4-0.5,2,0c0.5,0.5,0.5,1.4,0,2l-0.8,0.8c0.7,1,1.2,2.2,1.4,3.6h1.1
			c0.8,0,1.4,0.6,1.4,1.4s-0.6,1.4-1.4,1.4h-1.2c-0.2,1.3-0.8,2.4-1.5,3.4l0.9,0.9c0.5,0.5,0.5,1.4,0,2c-0.5,0.5-1.4,0.5-2,0
			l-0.9-0.9c-1,0.7-2.2,1.2-3.4,1.4v1.3C66.2,1741.3,65.6,1741.9,64.8,1741.9z M64.8,1725.3c-3.1,0-5.6,2.5-5.6,5.6
			c0,3.1,2.5,5.6,5.6,5.6c3.1,0,5.6-2.5,5.6-5.6C70.4,1727.8,67.9,1725.3,64.8,1725.3z M45.5,1731.7c-0.8,0-1.4-0.6-1.4-1.4v-2.1
			c-1.8-0.2-3.4-0.9-4.8-1.9l-1.4,1.4c-0.5,0.5-1.4,0.5-2,0c-0.5-0.5-0.5-1.4,0-2l1.4-1.4c-1.1-1.4-1.8-3-2.1-4.8h-1.9
			c-0.8,0-1.4-0.6-1.4-1.4c0-0.8,0.6-1.4,1.4-1.4h1.8c0.2-1.9,0.9-3.6,2-5l-1.2-1.2c-0.5-0.5-0.5-1.4,0-2c0.5-0.5,1.4-0.5,2,0
			l1.2,1.2c1.4-1.1,3.2-1.9,5-2.1v-1.6c0-0.8,0.6-1.4,1.4-1.4c0.8,0,1.4,0.6,1.4,1.4v1.6c1.9,0.3,3.6,1,5,2.1l1.2-1.2
			c0.5-0.5,1.4-0.5,2,0s0.5,1.4,0,2l-1.2,1.2c1.1,1.4,1.8,3.1,2,5h1.8c0.8,0,1.4,0.6,1.4,1.4c0,0.8-0.6,1.4-1.4,1.4h-1.9
			c-0.3,1.8-1,3.4-2.1,4.8l1.4,1.4c0.5,0.5,0.5,1.4,0,2c-0.5,0.5-1.4,0.5-2,0l-1.4-1.4c-1.4,1-3,1.7-4.8,1.9v2.1
			C46.9,1731.1,46.2,1731.7,45.5,1731.7z M45.5,1710.3c-4.2,0-7.6,3.4-7.6,7.6c0,4.2,3.4,7.6,7.6,7.6c4.2,0,7.6-3.4,7.6-7.6
			C53.1,1713.7,49.7,1710.3,45.5,1710.3z"/>
	</g>
</g>
<g>
	<rect x="106.3" y="1700" class="st9" width="186.8" height="64.6"/>
	<text transform="matrix(1 0 0 1 106.3325 1712.0522)" class="st0 st18 st22">Workﬂow management</text>
</g>
<line class="st21" x1="29" y1="1683.5" x2="336" y2="1683.5"/>
<g>
	<rect x="102.3" y="1794.1" class="st9" width="191.3" height="64.6"/>
	<text transform="matrix(1 0 0 1 102.301 1806.1772)" class="st0 st18 st22">Employee analytics</text>
</g>
<g>
	<path class="st7" d="M51.1,1792.2c-12.4,0-16.2,1.5-19.1,4.4c-2.3,2.3-3,5.2-3,12.5v16.7c0,7.3,0.7,10.2,3,12.5
		c2.9,2.9,6.7,4.4,19.1,4.4h6.2c12.4,0,16.2-1.5,19.1-4.4c2.3-2.3,3-5.2,3-12.5v-16.7c0-7.3-0.7-10.2-3-12.5
		c-2.9-2.9-6.7-4.4-19.1-4.4H51.1z"/>
	<g>
		<path class="st8" d="M64.6,1834.9H43.8c-0.7,0-1.4-0.6-1.4-1.3c0-0.4-0.3-10.8,4.7-15.9c1.8-1.9,4.1-2.9,6.9-2.9
			c0.1,0,0.2,0,0.2,0c0.1,0,0.2,0,0.2,0c2.7,0,5,1,6.9,2.9c5,5.1,4.7,15.5,4.7,15.9C66,1834.3,65.4,1834.9,64.6,1834.9z
			 M45.2,1832.1h18c-0.1-2.8-0.7-9.2-3.9-12.5c-1.3-1.4-2.9-2-4.9-2c-0.1,0-0.2,0-0.2,0c-0.1,0-0.2,0-0.2,0c-2,0-3.5,0.7-4.9,2
			C45.9,1822.9,45.3,1829.3,45.2,1832.1z M54.2,1811.8c-3.3,0-5.9-2.7-5.9-5.9c0-3.3,2.7-5.9,5.9-5.9c3.3,0,5.9,2.7,5.9,5.9
			C60.2,1809.1,57.5,1811.8,54.2,1811.8z M54.2,1802.7c-1.7,0-3.2,1.4-3.2,3.1c0,1.7,1.4,3.1,3.2,3.1c1.7,0,3.2-1.4,3.2-3.1
			C57.4,1804.1,56,1802.7,54.2,1802.7z"/>
	</g>
</g>
<line class="st21" x1="29" y1="1777.5" x2="328" y2="1777.5"/>
<g>
	<path class="st5" d="M137.7,2844c-3-3-6.7-4.5-18.9-4.5h-2.3h-1.3H113c-12.2,0-15.9,1.6-18.9,4.5c-2.5,2.5-3.2,5.6-3.2,12.6v15.7
		c0,7,0.7,10.1,3.2,12.6c3,3,6.7,4.5,18.9,4.5h2.3h1.3h2.3c12.2,0,15.9-1.6,18.9-4.5c2.5-2.5,3.2-5.6,3.2-12.6v-15.7
		C140.9,2849.6,140.2,2846.5,137.7,2844"/>
	<path class="st31" d="M98,2858h35.5 M134,2879H97.9v-29.1H134V2879z"/>
</g>
<g>
	<rect x="90.9" y="2920.3" class="st9" width="168.5" height="34.7"/>
	<text transform="matrix(1 0 0 1 90.9341 2931.6406)" class="st0 st18 st20">Dynamic Dashboard</text>
</g>
<rect x="90.9" y="2953.3" class="st9" width="177.9" height="126.3"/>
<text transform="matrix(1 0 0 1 90.9341 2963.2681)"><tspan x="0" y="0" class="st32 st18 st33">Customisable per user </tspan><tspan x="0" y="18" class="st32 st18 st33">dashboard that supplies all </tspan><tspan x="0" y="36" class="st32 st18 st33">KPI’s in real time in the </tspan><tspan x="0" y="54" class="st32 st18 st33">background of the users </tspan><tspan x="0" y="72" class="st32 st18 st33">screen.</tspan></text>
<line class="st23" x1="91" y1="2909.5" x2="269" y2="2909.5"/>
<g>
	<line class="st37" x1="289" y1="21.5" x2="334" y2="21.5"/>
	<line class="st37" x1="289" y1="32.5" x2="334" y2="32.5"/>
	<line class="st37" x1="289" y1="43.5" x2="334" y2="43.5"/>
</g>
<rect x="27" y="2153" class="st5" width="152" height="79"/>
<g>
	<text transform="matrix(1 0 0 1 54.0747 2212.1904)"><tspan x="0" y="0" class="st3 st18 st38">Logistics – domestic  </tspan><tspan x="12.4" y="11" class="st3 st18 st38">&amp; international </tspan></text>
</g>
<g>
	<path class="st10" d="M111.9,2171c-1.7-1.7-3.7-2.5-10.5-2.5h-1.3h-0.7h-1.3c-6.8,0-8.8,0.9-10.5,2.5c-1.4,1.4-1.8,3.1-1.8,7.1v8.8
		c0,3.9,0.4,5.7,1.8,7.1c1.7,1.7,3.7,2.5,10.5,2.5h1.3h0.7h1.3c6.8,0,8.8-0.9,10.5-2.5c1.4-1.4,1.8-3.1,1.8-7.1v-8.8
		C113.7,2174.1,113.3,2172.4,111.9,2171"/>
	<g>
		<g>
			<path class="st8" d="M99.7,2192.3c-5.4,0-9.8-4.4-9.8-9.9c0-5.4,4.4-9.9,9.8-9.9c5.4,0,9.8,4.4,9.8,9.9
				C109.6,2187.9,105.2,2192.3,99.7,2192.3z M91.4,2183.1c0.3,4.3,3.9,7.7,8.3,7.7c4.4,0,8-3.4,8.3-7.7L91.4,2183.1z M91.4,2181.7
				l16.7,0c-0.4-4.3-4-7.6-8.3-7.6C95.4,2174.1,91.8,2177.4,91.4,2181.7z"/>
		</g>
	</g>
	<g>
		<g>
			<path class="st8" d="M99.7,2192.3c-0.2,0-0.3-0.1-0.5-0.2c-3.4-2.9-5.1-6.1-5.1-9.4c0.1-5,4-8.7,4.9-9.5c0.1-0.2,0.2-0.3,0.4-0.4
				c0.3-0.1,0.6-0.1,0.8,0.1c3.4,2.9,5.1,6.1,5.1,9.4c-0.1,5-4,8.7-4.9,9.5c-0.1,0.2-0.2,0.3-0.4,0.4
				C99.9,2192.2,99.8,2192.3,99.7,2192.3z M99,2175.3c-1.3,1.5-3.3,4.2-3.4,7.4c0,2.5,1.1,4.9,3.4,7.2L99,2175.3z M100.5,2175.1
				l0,14.6c1.3-1.5,3.3-4.2,3.4-7.4C103.9,2179.8,102.7,2177.4,100.5,2175.1z"/>
		</g>
	</g>
</g>
<rect x="182" y="2153" class="st5" width="152" height="79"/>
<g>
	<text transform="matrix(1 0 0 1 206.4702 2212.1904)" class="st3 st18 st38">Storage/warehousing </text>
</g>
<g>
	<g>
		<path class="st10" d="M272.8,2171c-1.7-1.7-3.7-2.5-10.5-2.5H261h-0.7H259c-6.8,0-8.8,0.9-10.5,2.5c-1.4,1.4-1.8,3.1-1.8,7.1v8.8
			c0,3.9,0.4,5.7,1.8,7.1c1.7,1.7,3.7,2.5,10.5,2.5h1.3h0.7h1.3c6.8,0,8.8-0.9,10.5-2.5c1.4-1.4,1.8-3.1,1.8-7.1v-8.8
			C274.6,2174.1,274.2,2172.4,272.8,2171"/>
	</g>
	<g>
		<g>
			<path class="st8" d="M265.5,2193h-9.7c-2,0-3.7-1.7-3.7-3.7v-8.9c0-0.6,0.1-1.2,0.4-1.7c0.2-0.5,0.5-0.9,0.9-1.3l4.4-4.4
				c0.8-0.8,1.8-1.2,2.9-1.2s2.1,0.4,2.8,1.2l4.4,4.4c0.4,0.4,0.7,0.8,0.9,1.3c0.3,0.5,0.4,1.1,0.4,1.7v8.9
				C269.2,2191.4,267.5,2193,265.5,2193z M260.7,2173.3c-0.7,0-1.3,0.3-1.8,0.8l-4.4,4.4c-0.2,0.2-0.4,0.5-0.6,0.9l0,0.1
				c-0.2,0.3-0.3,0.7-0.3,1v8.9c0,1.2,1,2.2,2.2,2.2h9.7c1.2,0,2.2-1,2.2-2.2v-8.9c0-0.4-0.1-0.7-0.3-1l0-0.1
				c-0.1-0.3-0.3-0.6-0.6-0.9l-4.4-4.4C262,2173.6,261.3,2173.3,260.7,2173.3z"/>
		</g>
		<g>
			<path class="st8" d="M265.9,2190.3h-2.2c-0.4,0-0.7-0.3-0.7-0.7v-2c0-0.4,0.3-0.7,0.7-0.7h2.2c0.4,0,0.7,0.3,0.7,0.7v2
				C266.5,2190,266.3,2190.3,265.9,2190.3z M264.4,2189h0.8v-0.6h-0.8V2189z M261.9,2190.3h-2.2c-0.4,0-0.7-0.3-0.7-0.7v-2
				c0-0.4,0.3-0.7,0.7-0.7h2.2c0.4,0,0.7,0.3,0.7,0.7v2C262.5,2190,262.2,2190.3,261.9,2190.3z M260.4,2189h0.8v-0.6h-0.8V2189z
				 M257.7,2190.3h-2.2c-0.4,0-0.7-0.3-0.7-0.7v-2c0-0.4,0.3-0.7,0.7-0.7h2.2c0.4,0,0.7,0.3,0.7,0.7v2
				C258.4,2190,258.1,2190.3,257.7,2190.3z M256.2,2189h0.8v-0.6h-0.8V2189z M265.9,2186.4h-2.2c-0.4,0-0.7-0.3-0.7-0.7v-2
				c0-0.4,0.3-0.7,0.7-0.7h2.2c0.4,0,0.7,0.3,0.7,0.7v2C266.5,2186.1,266.3,2186.4,265.9,2186.4z M264.4,2185.1h0.8v-0.6h-0.8
				V2185.1z M261.9,2186.4h-2.2c-0.4,0-0.7-0.3-0.7-0.7v-2c0-0.4,0.3-0.7,0.7-0.7h2.2c0.4,0,0.7,0.3,0.7,0.7v2
				C262.5,2186.1,262.2,2186.4,261.9,2186.4z M260.4,2185.1h0.8v-0.6h-0.8V2185.1z M265.9,2182.5h-2.2c-0.4,0-0.7-0.3-0.7-0.7v-2
				c0-0.4,0.3-0.7,0.7-0.7h2.2c0.4,0,0.7,0.3,0.7,0.7v2C266.5,2182.2,266.3,2182.5,265.9,2182.5z M264.4,2181.1h0.8v-0.6h-0.8
				V2181.1z"/>
		</g>
	</g>
</g>
<rect x="27" y="2235" class="st5" width="152" height="79"/>
<g>
	<text transform="matrix(1 0 0 1 47.5771 2294.5957)"><tspan x="0" y="0" class="st3 st18 st38">Currency management/ </tspan><tspan x="15.7" y="11" class="st3 st18 st38">trading/hedging </tspan></text>
</g>
<g>
	<path class="st10" d="M115.5,2253.4c-1.7-1.7-3.7-2.5-10.5-2.5h-1.3H103h-1.3c-6.8,0-8.8,0.9-10.5,2.5c-1.4,1.4-1.8,3.1-1.8,7.1
		v8.8c0,3.9,0.4,5.7,1.8,7.1c1.7,1.7,3.7,2.5,10.5,2.5h1.3h0.7h1.3c6.8,0,8.8-0.9,10.5-2.5c1.4-1.4,1.8-3.1,1.8-7.1v-8.8
		C117.3,2256.6,116.9,2254.8,115.5,2253.4"/>
	<path class="st8" d="M108.1,2272.3c-0.5,0.3-1.2,0.5-2.6,0.5c-3,0-4.9-1.9-5.5-5.3h-1.6c-0.3,0-0.5-0.2-0.5-0.5v-0.7
		c0-0.3,0.2-0.5,0.5-0.5h1.4c0-0.3,0-0.7,0-1c0-0.3,0-0.5,0-0.7h-1.4c-0.3,0-0.5-0.2-0.5-0.5v-0.7c0-0.3,0.2-0.5,0.5-0.5h1.6
		c0.7-3.4,2.7-5.3,5.6-5.3c0.9,0,1.8,0.1,2.5,0.5c0.2,0.1,0.3,0.4,0.2,0.7l-0.2,0.8c-0.1,0.3-0.3,0.3-0.6,0.2
		c-0.5-0.3-1.1-0.4-1.8-0.4c-2,0-3.2,1.1-3.6,3.6h3.6c0.3,0,0.5,0.2,0.5,0.5v0.7c0,0.3-0.2,0.5-0.5,0.5h-3.8c0,0.3,0,0.5,0,0.8
		c0,0.4,0,0.7,0,1h3.8c0.3,0,0.5,0.2,0.5,0.5v0.7c0,0.3-0.2,0.5-0.5,0.5h-3.5c0.5,2.4,1.8,3.5,3.5,3.5c0.6,0,1.5-0.3,1.9-0.4
		c0.3-0.1,0.5,0,0.6,0.2l0.2,1C108.4,2272,108.3,2272.2,108.1,2272.3"/>
</g>
<rect x="182" y="2235" class="st5" width="152" height="80"/>
<g>
	<text transform="matrix(1 0 0 1 201.75 2294.5752)"><tspan x="0" y="0" class="st3 st18 st38">Futures management/ </tspan><tspan x="12.3" y="11" class="st3 st18 st38">trading/hedging </tspan></text>
</g>
<g>
	<path class="st10" d="M266.2,2253.4c-1.7-1.7-3.7-2.5-10.5-2.5h-1.3h-0.7h-1.3c-6.8,0-8.8,0.9-10.5,2.5c-1.4,1.4-1.8,3.1-1.8,7.1
		v8.8c0,3.9,0.4,5.7,1.8,7.1c1.7,1.7,3.7,2.5,10.5,2.5h1.3h0.7h1.3c6.8,0,8.8-0.9,10.5-2.5c1.4-1.4,1.8-3.1,1.8-7.1v-8.8
		C268,2256.5,267.6,2254.8,266.2,2253.4"/>
	<g>
		<g>
			<path class="st8" d="M260.7,2273.6h-4c-0.3,0-0.6-0.3-0.6-0.6c0-0.2,0-2.2,1-3.3c0.4-0.4,1-0.7,1.6-0.7c0,0,0,0,0,0
				c0.6,0,1.2,0.2,1.6,0.7c1,1.1,1,3.1,1,3.3C261.4,2273.3,261.1,2273.6,260.7,2273.6z M257.4,2272.4h2.7c-0.1-0.6-0.2-1.4-0.6-1.8
				c-0.2-0.2-0.4-0.3-0.7-0.3c0,0,0,0,0,0c-0.3,0-0.5,0.1-0.7,0.3C257.6,2271,257.5,2271.8,257.4,2272.4z M251.5,2273.6h-4
				c-0.3,0-0.6-0.3-0.6-0.6c0-0.2,0-2.2,1-3.3c0.4-0.4,1-0.7,1.6-0.7c0,0,0,0,0,0c0,0,0,0,0,0c0.6,0,1.2,0.2,1.6,0.7
				c1,1.1,1,3.1,1,3.3C252.1,2273.3,251.8,2273.6,251.5,2273.6z M248.1,2272.4h2.7c-0.1-0.6-0.2-1.4-0.6-1.8
				c-0.2-0.2-0.4-0.3-0.7-0.3c0,0,0,0,0,0c0,0,0,0,0,0c-0.3,0-0.5,0.1-0.7,0.3C248.4,2271,248.2,2271.8,248.1,2272.4z M255.4,2268.9
				c-0.2,0-0.3-0.1-0.5-0.2l-0.9-0.9l-0.9,0.9c-0.2,0.3-0.6,0.3-0.9,0c-0.3-0.2-0.3-0.6,0-0.9l1.1-1.2v-1.6c0-0.3,0.3-0.6,0.6-0.6
				c0.3,0,0.6,0.3,0.6,0.6v1.5l1.2,1.3c0.2,0.3,0.2,0.7,0,0.9C255.7,2268.8,255.6,2268.9,255.4,2268.9z M258.7,2268.8
				c-1,0-1.8-0.8-1.8-1.9c0-1,0.8-1.8,1.8-1.8c1,0,1.8,0.8,1.8,1.8C260.6,2268,259.8,2268.8,258.7,2268.8z M258.7,2266.4
				c-0.3,0-0.6,0.3-0.6,0.6c0,0.3,0.3,0.6,0.6,0.6c0.3,0,0.6-0.3,0.6-0.6C259.3,2266.6,259.1,2266.4,258.7,2266.4z M249.5,2268.8
				c-1,0-1.8-0.8-1.8-1.9c0-1,0.8-1.8,1.8-1.8c1,0,1.9,0.8,1.9,1.8C251.3,2268,250.5,2268.8,249.5,2268.8z M249.5,2266.4
				c-0.3,0-0.6,0.3-0.6,0.6c0,0.3,0.3,0.6,0.6,0.6c0.3,0,0.6-0.3,0.6-0.6C250.1,2266.6,249.8,2266.4,249.5,2266.4z M256.7,2264h-5.2
				c-0.3,0-0.6-0.3-0.6-0.6c0-0.1-0.1-2.8,1.3-4.2c0.5-0.5,1.2-0.8,1.9-0.8c0,0,0,0,0.1,0c0,0,0,0,0.1,0c0.8,0,1.4,0.3,1.9,0.8
				c1.3,1.4,1.3,4.1,1.3,4.2C257.3,2263.7,257,2264,256.7,2264z M252.2,2262.7h3.9c-0.1-0.8-0.3-2-0.9-2.7c-0.3-0.3-0.6-0.4-1-0.4
				c0,0,0,0-0.1,0c0,0,0,0-0.1,0c-0.4,0-0.7,0.1-1,0.4C252.4,2260.7,252.2,2261.9,252.2,2262.7z M254.1,2258.2c-1.2,0-2.2-1-2.2-2.2
				c0-1.2,1-2.2,2.2-2.2c1.2,0,2.2,1,2.2,2.2C256.3,2257.2,255.3,2258.2,254.1,2258.2z M254.1,2255c-0.5,0-1,0.4-1,1
				c0,0.5,0.4,1,1,1c0.5,0,1-0.4,1-1C255.1,2255.4,254.6,2255,254.1,2255z"/>
		</g>
	</g>
</g>
<rect x="182" y="2318" class="st5" width="152" height="79"/>
<rect x="27" y="2318" class="st5" width="152" height="79"/>
<g>
	<text transform="matrix(1 0 0 1 222.8379 2376.9805)" class="st3 st18 st38">Quality control</text>
</g>
<g>
	<text transform="matrix(1 0 0 1 37.7998 2376.9805)"><tspan x="0" y="0" class="st3 st18 st38">Dynamic trading book with  </tspan><tspan x="-6.5" y="11" class="st3 st18 st38">scenario/Monte-Carlo analysis </tspan></text>
</g>
<g>
	<path class="st10" d="M117.3,2335.8c-1.7-1.7-3.7-2.5-10.5-2.5h-1.3h-0.7h-1.3c-6.8,0-8.8,0.9-10.5,2.5c-1.4,1.4-1.8,3.1-1.8,7.1
		v8.8c0,3.9,0.4,5.7,1.8,7.1c1.7,1.7,3.7,2.5,10.5,2.5h1.3h0.7h1.3c6.8,0,8.8-0.9,10.5-2.5c1.4-1.4,1.8-3.1,1.8-7.1v-8.8
		C119.1,2338.9,118.7,2337.2,117.3,2335.8"/>
	<g>
		<path class="st8" d="M102.9,2357.4c-0.2,0-0.4-0.1-0.5-0.2l-3.5-3.5c0,0,0,0,0,0l0,0c-0.1-0.1-0.1-0.1-0.1-0.2c0,0,0,0,0,0
			c0,0,0,0,0,0c0,0,0,0,0,0c0,0,0,0,0,0l0,0c0,0,0,0,0,0l0,0c0,0,0,0,0,0v0c0,0,0,0,0,0l0,0v0l0,0c-0.1-0.1-0.1-0.2-0.1-0.4l0,0
			c0,0,0,0,0,0c0,0,0,0,0,0l0,0c0,0,0,0,0,0l0,0v0c0,0,0,0,0,0l0,0l0,0v0c0,0,0,0,0,0l0,0v0v0v0l0,0l0,0l0,0c0,0,0,0,0,0l0,0l0,0
			l0,0c0,0,0,0,0,0l0,0c0,0,0,0,0,0l0,0l0,0l0,0c0-0.1,0-0.2,0-0.2l0,0l0,0v0h0l0,0c0,0,0,0,0,0l0,0l0,0c0,0,0,0,0,0v0c0,0,0,0,0,0
			c0,0,0,0,0,0c0,0,0,0,0,0l0,0v0l0,0c0-0.1,0.1-0.2,0.2-0.3l3.5-3.5c0.3-0.3,0.8-0.3,1.1,0c0.3,0.3,0.3,0.8,0,1.1l-2.2,2.2h12.9
			c0.4,0,0.8,0.3,0.8,0.8s-0.3,0.8-0.8,0.8h-12.9l2.2,2.2c0.3,0.3,0.3,0.8,0,1.1C103.2,2357.3,103.1,2357.4,102.9,2357.4z
			 M107.5,2348.9c-0.2,0-0.4-0.1-0.5-0.2c-0.3-0.3-0.3-0.8,0-1.1l2.2-2.2H96.2c-0.4,0-0.8-0.3-0.8-0.8c0-0.4,0.3-0.8,0.8-0.8h12.9
			l-2.2-2.2c-0.3-0.3-0.3-0.8,0-1.1c0.3-0.3,0.8-0.3,1.1,0l3.5,3.5h0l0,0l0,0l0,0c0.1,0.1,0.1,0.1,0.2,0.2l0,0v0h0c0,0,0,0,0,0
			s0,0,0,0c0,0,0,0,0,0l0,0l0,0l0,0c0,0,0,0,0,0l0,0l0,0c0,0,0,0,0,0c0,0,0,0,0,0l0,0h0v0l0,0c0,0,0,0,0,0l0,0l0,0v0c0,0,0,0,0,0
			l0,0c0,0.1,0,0.1,0.1,0.2h0v0l0,0c0,0,0,0,0,0l0,0c0,0,0,0,0,0v0l0,0c0,0,0,0,0,0l0,0v0v0v0l0,0v0c0,0,0,0,0,0s0,0,0,0l0,0l0,0
			l0,0c0,0,0,0,0,0l0,0v0l0,0c0,0,0,0,0,0l0,0v0l0,0c0,0.1,0,0.3-0.1,0.4l0,0c0,0,0,0,0,0c0,0,0,0,0,0l0,0l0,0c0,0,0,0,0,0
			c0,0,0,0,0,0l0,0c0,0,0,0,0,0c0,0,0,0,0,0h0c0,0,0,0,0,0l0,0c0,0.1-0.1,0.1-0.1,0.2l0,0l0,0l0,0l-3.5,3.5
			C107.9,2348.9,107.7,2348.9,107.5,2348.9z"/>
	</g>
</g>
<g>
	<path class="st10" d="M269.9,2335.8c-1.7-1.7-3.7-2.5-10.5-2.5h-1.3h-0.7h-1.3c-6.8,0-8.8,0.9-10.5,2.5c-1.4,1.4-1.8,3.1-1.8,7.1
		v8.8c0,3.9,0.4,5.7,1.8,7.1c1.7,1.7,3.7,2.5,10.5,2.5h1.3h0.7h1.3c6.8,0,8.8-0.9,10.5-2.5c1.4-1.4,1.8-3.1,1.8-7.1v-8.8
		C271.7,2338.9,271.3,2337.2,269.9,2335.8"/>
	<g>
		<path class="st8" d="M253.9,2356.6c-0.2,0-0.5-0.1-0.6-0.2l-5.1-4c-0.5-0.4-0.5-1-0.2-1.5c0.4-0.5,1-0.5,1.5-0.2l4.3,3.4
			l12.1-14.5c0.4-0.4,1-0.5,1.5-0.1c0.4,0.4,0.5,1,0.1,1.5l-12.8,15.3C254.5,2356.5,254.2,2356.6,253.9,2356.6z"/>
	</g>
</g>
<polyline class="st2" points="44.5,2868.6 29.9,2854 44.5,2839.5 "/>
<polyline class="st2" points="316.4,2839.5 331,2854 316.4,2868.6 "/>
<g>
	<rect x="29.9" y="3064.6" class="st9" width="315.7" height="27.8"/>
	<text transform="matrix(1 0 0 1 29.8691 3085.2227)" class="st0 st15 st16 st17">customer service</text>
</g>
<g>
	<rect x="29.9" y="3108.6" class="st9" width="300.1" height="884.4"/>
	<text transform="matrix(1 0 0 1 29.8687 3122.7563)"><tspan x="0" y="0" class="st0 st18 st19">Today’s business world is </tspan><tspan x="0" y="25" class="st0 st18 st19">accelerating at an ever faster rate. </tspan><tspan x="0" y="50" class="st0 st18 st19">Most traditional ERP systems do </tspan><tspan x="0" y="75" class="st0 st18 st19">not change from the day you </tspan><tspan x="0" y="100" class="st0 st18 st19">purchase them, they are a sunk </tspan><tspan x="0" y="125" class="st0 st18 st19">cost. Flux is different - the core </tspan><tspan x="0" y="150" class="st0 st18 st19">system will continue to be </tspan><tspan x="0" y="175" class="st0 st18 st19">developed and upgraded free of </tspan><tspan x="0" y="200" class="st0 st18 st19">charge.</tspan><tspan x="0" y="245" class="st8 st18 st20">Additionally, we have found that once </tspan><tspan x="0" y="265" class="st8 st18 st20">companies get access to a digitised version </tspan><tspan x="0" y="285" class="st8 st18 st20">of their processes and data they rapidly </tspan><tspan x="0" y="305" class="st8 st18 st20">develop new ways of doing things. Users </tspan><tspan x="0" y="325" class="st8 st18 st20">know more about their company than ever </tspan><tspan x="0" y="345" class="st8 st18 st20">before, and catch problems when they start </tspan><tspan x="0" y="365" class="st8 st18 st20">rather than at the end of a reporting period. </tspan><tspan x="0" y="385" class="st8 st18 st20">This leads them to suggest process </tspan><tspan x="0" y="405" class="st8 st18 st20">improvements &amp; additional functions to </tspan><tspan x="0" y="425" class="st8 st18 st20">enhance them &amp; their company’s </tspan><tspan x="0" y="445" class="st8 st18 st20">performance.</tspan><tspan x="0" y="485" class="st8 st18 st20">Uniquely Flux provides regular 6–12 month </tspan><tspan x="0" y="505" class="st8 st18 st20">system reviews to see where the Flux </tspan><tspan x="0" y="525" class="st8 st18 st20">system can be further tailored for customer </tspan><tspan x="0" y="545" class="st8 st18 st20">needs. This enables users to change the </tspan><tspan x="0" y="565" class="st8 st18 st20">system to suit their changing business </tspan><tspan x="0" y="585" class="st8 st18 st20">needs – a large departure from traditional, </tspan><tspan x="0" y="605" class="st8 st18 st20">static ERP systems. Flux’s modular software </tspan><tspan x="0" y="625" class="st8 st18 st20">architecture means that new functions &amp; </tspan><tspan x="0" y="645" class="st8 st18 st20">processes can be added quickly with no </tspan><tspan x="0" y="665" class="st8 st18 st20">business disruption.</tspan><tspan x="0" y="753" class="st0 st18 st20">Helping your business run smoother</tspan></text>
</g>
<g>
	<rect x="29.9" y="4198.8" class="st9" width="300.1" height="423.8"/>
	<text transform="matrix(1 0 0 1 29.8687 4210.1987)"><tspan x="0" y="0" class="st0 st18 st20">A Fully Transparent System</tspan><tspan x="0" y="20" class="st8 st18 st20">Flux is based on the concept that a fully </tspan><tspan x="0" y="40" class="st8 st18 st20">transparent workplace leads to greater </tspan><tspan x="0" y="60" class="st8 st18 st20">worker engagement and harmony. All user </tspan><tspan x="0" y="80" class="st8 st18 st20">activity is monitored in real time with user </tspan><tspan x="0" y="100" class="st8 st18 st20">reports helping you identify your best team </tspan><tspan x="0" y="120" class="st8 st18 st20">members and those who require extra </tspan><tspan x="0" y="140" class="st8 st18 st20">attention.</tspan><tspan x="0" y="180" class="st0 st18 st20">Employee satisfaction</tspan><tspan x="0" y="200" class="st8 st18 st20">Employee satisfaction improves as </tspan><tspan x="0" y="220" class="st8 st18 st20">transparent recognition of achievement </tspan><tspan x="0" y="240" class="st8 st18 st20">becomes the norm. Freed from mundane </tspan><tspan x="0" y="260" class="st8 st18 st20">tasks and empowered by easy real time </tspan><tspan x="0" y="280" class="st8 st18 st20">access to all relevant company data, staff </tspan><tspan x="0" y="300" class="st8 st18 st20">become innovative and entrepreneurial.</tspan><tspan x="0" y="340" class="st0 st18 st20">Customer Front End Web Portal</tspan><tspan x="0" y="360" class="st8 st18 st20">If required you can also share analytics &amp; </tspan><tspan x="0" y="380" class="st8 st18 st20">data with your customers via the web </tspan><tspan x="0" y="400" class="st8 st18 st20">portal.</tspan></text>
</g>
<rect x="112.5" y="2793" class="st9" width="135" height="51"/>
<text transform="matrix(1 0 0 1 129.4326 2804.312)" class="st0 st18 st20">Other Features</text>
<rect x="29.9" y="3839" class="st5" width="300.1" height="334"/>
<g>
	<g>
		<circle class="st1" cx="117.9" cy="3894.2" r="40"/>
		<g>
			<path class="st0" d="M93.2,3904c0-1.5,0.2-6.4,2.9-9.2c1.2-1.2,2.8-1.9,4.5-1.9c0,0,0.1,0,0.1,0c0,0,0.1,0,0.1,0
				c1.8,0,3.3,0.7,4.5,1.9c3,3.1,2.9,8.9,2.9,9.5c0,1-0.8,1.8-1.8,1.8H95c-1,0-1.8-0.8-1.8-1.8C93.2,3904.3,93.2,3904.2,93.2,3904z
				 M100.7,3896.6c0,0-0.1,0-0.1,0c-0.8,0-1.4,0.3-1.9,0.8c-1.2,1.2-1.6,3.4-1.8,5.1h7.7c-0.2-1.7-0.6-4-1.8-5.1
				c-0.5-0.5-1.1-0.8-1.9-0.8C100.8,3896.6,100.8,3896.6,100.7,3896.6z M95.4,3887.1c0-2.9,2.4-5.3,5.3-5.3c2.9,0,5.3,2.4,5.3,5.3
				s-2.4,5.3-5.3,5.3C97.8,3892.4,95.4,3890,95.4,3887.1z M102.4,3887.1c0-0.9-0.8-1.7-1.7-1.7c-0.9,0-1.7,0.8-1.7,1.7
				c0,0.9,0.8,1.7,1.7,1.7C101.7,3888.7,102.4,3888,102.4,3887.1z M109,3907.9c0-1.6,0.2-8.1,3.6-11.6c1.5-1.5,3.3-2.3,5.5-2.3
				c0.1,0,0.1,0,0.2,0c0.1,0,0.1,0,0.2,0c2.2,0,4,0.8,5.5,2.3c3.8,3.9,3.6,11.6,3.6,12c0,1-0.8,1.8-1.8,1.8h-14.9
				c-1,0-1.8-0.8-1.8-1.8C109,3908.2,109,3908.1,109,3907.9z M118.3,3897.6c-0.1,0-0.1,0-0.2,0c-1.2,0-2.1,0.4-2.9,1.2
				c-1.7,1.8-2.4,5.3-2.5,7.6h11.2c-0.2-2.3-0.8-5.8-2.5-7.6c-0.8-0.8-1.7-1.2-2.9-1.2C118.4,3897.6,118.3,3897.6,118.3,3897.6z
				 M111.9,3887c0-3.5,2.9-6.3,6.4-6.3c3.5,0,6.4,2.8,6.4,6.3c0,3.5-2.9,6.3-6.4,6.3C114.8,3893.3,111.9,3890.5,111.9,3887z
				 M121,3887c0-1.5-1.2-2.7-2.7-2.7c-1.5,0-2.7,1.2-2.7,2.7c0,1.5,1.2,2.7,2.7,2.7C119.8,3889.7,121,3888.5,121,3887z M128.1,3904
				c0-1.5,0.2-6.4,2.9-9.2c1.2-1.2,2.8-1.9,4.5-1.9c0,0,0.1,0,0.1,0c0,0,0.1,0,0.1,0c1.8,0,3.3,0.7,4.5,1.9c3,3.1,2.9,8.9,2.9,9.5
				c0,1-0.8,1.8-1.8,1.8h-11.5c-1,0-1.8-0.8-1.8-1.8C128.1,3904.3,128.1,3904.2,128.1,3904z M135.6,3896.6c0,0-0.1,0-0.1,0
				c-0.8,0-1.4,0.3-1.9,0.8c-1.2,1.2-1.6,3.4-1.8,5.1h7.7c-0.2-1.7-0.6-4-1.8-5.1c-0.5-0.5-1.1-0.8-1.9-0.8
				C135.7,3896.6,135.7,3896.6,135.6,3896.6z M130.3,3887.1c0-2.9,2.4-5.3,5.3-5.3c2.9,0,5.3,2.4,5.3,5.3s-2.4,5.3-5.3,5.3
				C132.7,3892.4,130.3,3890,130.3,3887.1z M137.3,3887.1c0-0.9-0.8-1.7-1.7-1.7c-0.9,0-1.7,0.8-1.7,1.7c0,0.9,0.8,1.7,1.7,1.7
				C136.6,3888.7,137.3,3888,137.3,3887.1z"/>
		</g>
	</g>
	<g>
		<text transform="matrix(1 0 0 1 71.0498 3968.9521)" class="st3 st18 st20">Your Business</text>
	</g>
	<g>
		<circle class="st1" cx="117.9" cy="4072.3" r="40"/>
		<g>
			<path class="st0" d="M95.1,4082.3v-28.2c0-0.8,0.7-1.5,1.5-1.5h43c0.8,0,1.5,0.7,1.5,1.5v28.2c0,0.8-0.7,1.5-1.5,1.5h-13.9v2.5
				h6.1c0.8,0,1.5,0.7,1.5,1.5v6.7c0,0.8-0.7,1.5-1.5,1.5h-27.4c-0.8,0-1.5-0.7-1.5-1.5v-6.7c0-0.8,0.7-1.5,1.5-1.5h6.1v-2.5H96.6
				C95.8,4083.8,95.1,4083.1,95.1,4082.3z M98.1,4055.6v25.2h40.1v-25.2H98.1z M105.8,4089.2v3.7h24.5v-3.7h-6.1
				c-0.8,0-1.5-0.7-1.5-1.5v-3.8h-9.3v3.8c0,0.8-0.7,1.5-1.5,1.5H105.8z M99.4,4078.3v-20.2c0-0.8,0.7-1.5,1.5-1.5h34.4
				c0.8,0,1.5,0.7,1.5,1.5v20.2c0,0.8-0.7,1.5-1.5,1.5h-34.4C100.1,4079.8,99.4,4079.1,99.4,4078.3z M102.4,4059.6v17.3h31.5v-17.3
				H102.4z"/>
		</g>
	</g>
	<g>
		<text transform="matrix(1 0 0 1 86.0137 4147.1104)" class="st3 st18 st20">Flux BDS</text>
	</g>
	<g>
		<circle class="st1" cx="237.9" cy="4072.2" r="40"/>
		<g>
			<path class="st0" d="M221.5,4077.6v-27.4c0-0.7,0.5-1.2,1.2-1.2h8.8v-2.4c0-0.7,0.5-1.2,1.2-1.2h10.6c0.7,0,1.2,0.5,1.2,1.2v2.4
				h8.8c0.7,0,1.2,0.5,1.2,1.2v27.4c0,0.7-0.5,1.2-1.2,1.2h-3.1v2.3c0,0.7-0.5,1.2-1.2,1.2h-3.2l7,12.6c0.3,0.6,0.1,1.3-0.5,1.6
				c-0.6,0.3-1.3,0.1-1.6-0.5l-7.6-13.8h-3.9v5.2c0,0.7-0.5,1.2-1.2,1.2c-0.7,0-1.2-0.5-1.2-1.2v-5.2H232l-7.6,13.7
				c-0.3,0.6-1.1,0.8-1.6,0.5c-0.6-0.3-0.8-1.1-0.5-1.6l6.9-12.5H227c-0.7,0-1.2-0.5-1.2-1.2v-2.3h-3.1
				C222,4078.8,221.5,4078.3,221.5,4077.6z M223.9,4051.4v25h28.3v-25H223.9z M228.2,4078.9v1h19.7v-1H228.2z M234,4047.7v1h8.2v-1
				H234z M225.1,4068.5c0-0.2,0.1-0.5,0.2-0.7c0.4-0.6,1.1-0.7,1.7-0.3l2.2,1.5l4-5.1c0.4-0.5,1.1-0.6,1.6-0.3l4.3,2.6l2-4.1
				c0.2-0.5,0.7-0.7,1.3-0.7l3.1,0.5l2.4-5.4c0.3-0.6,1-0.9,1.6-0.6c0.6,0.3,0.9,1,0.6,1.6l-2.8,6.2c-0.2,0.5-0.8,0.8-1.3,0.7
				l-3.1-0.5l-2.2,4.5c-0.1,0.3-0.4,0.5-0.7,0.6c-0.3,0.1-0.7,0-1-0.1l-4.5-2.7l-4.1,5.2c-0.4,0.5-1.1,0.6-1.6,0.3l-3.2-2.2
				C225.3,4069.2,225.1,4068.9,225.1,4068.5z"/>
		</g>
		<g>
			<text transform="matrix(1 0 0 1 212.3975 4147.0098)" class="st3 st18 st20">Growth</text>
		</g>
		<g>
			<circle class="st1" cx="237.8" cy="3894.2" r="40"/>
			<g>
				<path class="st0" d="M215.3,3893.4C215.3,3893.4,215.3,3893.3,215.3,3893.4c0-7.6,5-15.6,15.8-16.5l-0.9-0.9
					c-0.7-0.7-0.7-1.9,0-2.6c0.7-0.7,1.9-0.7,2.6,0l4,4h0c0,0,0,0,0,0l0,0c0,0,0,0,0,0l0,0l0,0l0,0c0,0,0,0,0,0l0,0v0l0,0h0l0,0v0v0
					l0,0h0v0h0v0l0,0c0.2,0.2,0.3,0.4,0.4,0.6l0,0l0,0l0,0l0,0l0,0l0,0v0l0,0l0,0l0,0l0,0l0,0l0,0v0v0v0c0,0,0,0,0,0l0,0l0,0l0,0v0
					l0,0l0,0v0l0,0c0,0,0,0,0,0l0,0c0,0,0,0,0,0v0c0,0,0,0,0,0l0,0v0v0c0,0,0,0,0,0v0v0l0,0l0,0l0,0c0,0,0,0,0,0v0v0l0,0
					c0,0,0,0,0,0v0l0,0v0v0l0,0l0,0l0,0l0,0l0,0l0,0v0c0,0,0,0,0,0v0l0,0c0,0,0,0,0,0v0l0,0v0c0,0,0,0,0,0l0,0l0,0c0,0,0,0,0,0l0,0
					l0,0l0,0v0c0,0,0,0,0,0v0l0,0l0,0l0,0l0,0l0,0c0,0,0,0,0,0l0,0v0l0,0c0,0,0,0,0,0l0,0v0l0,0l0,0l0,0c0.1,0.2,0.1,0.4,0.1,0.6v0
					c0,0,0,0,0,0v0c0,0,0,0,0,0l0,0v0c0,0,0,0,0,0l0,0c0,0,0,0,0,0c0,0,0,0,0,0v0v0v0v0v0v0c0,0,0,0,0,0c0,0,0,0,0,0l0,0
					c0,0.3-0.1,0.6-0.3,0.8l0,0c0,0,0,0,0,0l0,0c0,0,0,0,0,0l0,0c0,0,0,0,0,0c0,0,0,0,0,0c0,0,0,0,0,0h0v0c0,0,0,0,0,0l0,0
					c0,0,0,0,0,0l0,0v0l0,0c0,0,0,0,0,0s0,0,0,0c0,0,0,0,0,0l0,0v0l0,0c0,0,0,0,0,0c0,0,0,0,0,0v0l0,0c0,0,0,0,0,0v0c0,0,0,0,0,0
					l0,0c0,0,0,0,0,0v0c0,0,0,0,0,0v0l0,0l0,0c0,0,0,0,0,0v0l0,0h0v0c0,0,0,0,0,0l0,0l0,0c0,0,0,0,0,0v0l0,0c0,0,0,0,0,0
					c0,0,0,0,0,0l0,0c0,0,0,0,0,0c0,0,0,0,0,0c0,0,0,0,0,0c0,0,0,0,0,0l0,0c0,0,0,0,0,0l0,0v0v0c0,0,0,0,0,0l0,0l0,0l0,0v0v0
					c0,0,0,0,0,0s0,0,0,0l0,0l0,0l0,0l0,0v0h0l0,0v0c0,0,0,0,0,0l0,0l0,0l0,0l0,0l0,0c0,0,0,0,0,0l0,0h0c0,0,0,0,0,0l0,0v0l0,0l0,0
					l0,0c0,0,0,0,0,0l0,0l0,0l0,0l0,0v0l0,0c0,0,0,0,0,0l0,0l0,0l0,0c0,0,0,0,0,0h0v0v0l0,0l0,0l0,0c0,0,0,0,0,0h0c0,0,0,0,0,0l0,0
					l0,0l0,0c0,0,0,0,0,0v0c0,0,0,0,0,0c0,0,0,0,0,0c0,0,0,0,0,0c0,0,0,0,0,0l0,0c0,0,0,0,0,0v0l0,0l0,0l0,0l0,0c0,0,0,0,0,0l0,0
					c0,0,0,0,0,0l0,0l0,0l0,0c0,0,0,0,0,0v0c0,0,0,0,0,0l0,0v0l0,0c0,0,0,0,0,0s0,0,0,0l0,0c0,0,0,0,0,0l0,0c0,0,0,0,0,0l0,0l0,0
					l0,0c0,0,0,0,0,0v0c0,0,0,0,0,0l0,0c0,0,0,0,0,0l0,0c0,0,0,0,0,0l0,0l0,0l0,0l0,0c0,0,0,0,0,0l0,0c0,0,0,0,0,0l0,0c0,0,0,0,0,0
					l0,0l0,0l0,0l0,0c0,0,0,0,0,0l0,0l0,0l0,0v0h0v0c0,0,0,0,0,0l0,0v0v0l0,0c0,0,0,0,0,0l0,0l0,0l0,0c0,0,0,0,0,0l0,0h0v0l0,0l0,0
					h0v0l0,0l-4,4c-0.7,0.7-1.9,0.7-2.6,0c-0.7-0.7-0.7-1.9,0-2.6l0.7-0.7c-8.2,0.9-11.9,6.8-12,12.7c0,0,0,0,0,0.1
					c0,6.9,4.9,14,14.4,14.1c1,0,1.8,0.8,1.8,1.8c0,0,0,0,0,0c0,1-0.8,1.8-1.9,1.8C221.6,3911.1,215.3,3902,215.3,3893.4z
					 M238.7,3908.9L238.7,3908.9c0-0.1,0-0.1,0-0.2l0,0v0l0,0c0,0,0,0,0,0s0,0,0,0l0,0v0v0l0,0v0c0,0,0,0,0,0v0c0,0,0,0,0,0l0,0
					c0-0.4,0.2-0.7,0.4-1l0,0l0,0h0v0v0h0l0,0c0,0,0,0,0,0l0,0l0,0c0,0,0,0,0,0l0,0l0,0c0,0,0,0,0,0l0,0c0,0,0,0,0,0l0,0
					c0,0,0,0,0,0c0,0,0,0,0,0l0,0h0c0,0,0,0,0,0c0,0,0,0,0,0v0l0,0c0,0,0,0,0,0l0,0v0l0,0v0l0,0l0,0l0,0c0,0,0,0,0,0c0,0,0,0,0,0
					l0,0c0,0,0,0,0,0l0,0c0,0,0,0,0,0s0,0,0,0v0v0l0,0l0,0c0,0,0,0,0,0v0v0h0l0,0c0,0,0,0,0,0c0,0,0,0,0,0l0,0l0,0c0,0,0,0,0,0l0,0
					l0,0l0,0l4-4c0.7-0.7,1.9-0.7,2.6,0c0.7,0.7,0.7,1.9,0,2.6l-0.7,0.7c8.2-0.9,11.9-6.8,12-12.7c0,0,0,0,0-0.1
					c0-6.9-4.9-14-14.4-14.1c-1,0-1.8-0.8-1.8-1.8c0,0,0,0,0,0c0-1,0.8-1.8,1.9-1.8c11.7,0.1,18,9.2,18,17.8c0,0,0,0,0,0.1
					c0,7.5-5,15.5-15.8,16.4l0.9,0.9c0.7,0.7,0.7,1.9,0,2.6c-0.7,0.7-1.9,0.7-2.6,0l-4-4l0,0l0,0l0,0c0,0,0,0,0,0v0l0,0h0
					c0,0,0,0,0,0v0h0l0,0v0v0l0,0c0,0,0,0,0,0l0,0l0,0l0,0c0,0,0,0,0,0l0,0c0,0,0,0,0,0v0l0,0c0,0,0,0,0,0c0,0,0,0,0,0c0,0,0,0,0,0
					l0,0c0,0,0,0,0,0v0c0,0,0,0,0,0c0,0,0,0,0,0v0l0,0l0,0v0l0,0l0,0v0l0,0c0,0,0,0,0,0l0,0l0,0l0,0l0,0l0,0c0,0,0,0,0,0h0l0,0l0,0
					c0,0,0,0,0,0l0,0c0,0,0,0,0,0l0,0c-0.3-0.3-0.4-0.6-0.4-1l0,0v0l0,0c0,0,0,0,0,0v0c0,0,0,0,0,0l0,0c0,0,0,0,0,0v0
					C238.7,3909,238.7,3908.9,238.7,3908.9z"/>
			</g>
		</g>
		<g>
			<text transform="matrix(1 0 0 1 186.6982 3968.9541)" class="st3 st18 st20"> Free Upgrades</text>
		</g>
	</g>
</g>
<rect y="4631" class="st3" width="360" height="837"/>
<g>
	<rect x="29.9" y="4657.5" class="st9" width="315.7" height="55.7"/>
	<text transform="matrix(1 0 0 1 29.8691 4678.0996)"><tspan x="0" y="0" class="st4 st15 st16 st17">case study:  </tspan><tspan x="0" y="30" class="st4 st15 st16 st17">comex mckinnon</tspan></text>
</g>
<g>
	<rect x="29.9" y="5559" class="st9" width="315.7" height="55.7"/>
	<text transform="matrix(1 0 0 1 29.8691 5579.5898)" class="st0 st15 st16 st17">blog</text>
</g>
<g>
	<rect x="29.9" y="4905" class="st9" width="300.1" height="622"/>
	<text transform="matrix(1 0 0 1 29.8687 4916.3296)"><tspan x="0" y="0" class="st4 st18 st20">Prior to the implementation of Flux, Comex </tspan><tspan x="0" y="20" class="st4 st18 st20">McKinnon was a mid-tier Irish agricultural </tspan><tspan x="0" y="40" class="st4 st18 st20">supply chain management company with </tspan><tspan x="0" y="60" class="st4 st18 st20">turnover of € 108m, handling 450,000 </tspan><tspan x="0" y="80" class="st4 st18 st20">tonnes of product annually. Following the </tspan><tspan x="0" y="100" class="st4 st18 st20">implementation of Flux in 2011, the </tspan><tspan x="0" y="120" class="st4 st18 st20">company began to grow rapidly. By 2013, </tspan><tspan x="0" y="140" class="st4 st18 st20">the company had turnover of € 203m, </tspan><tspan x="0" y="160" class="st4 st18 st20">handling 1,000,000 tonnes of product with </tspan><tspan x="0" y="180" class="st4 st18 st20">one less employee. Due to Flux’s </tspan><tspan x="0" y="200" class="st4 st18 st20">transparent nature, Comex was also trading </tspan><tspan x="0" y="220" class="st4 st18 st20">with less risk and increased profitability.</tspan><tspan x="0" y="260" class="st4 st11 st20">Key Facts</tspan><tspan x="0" y="300" class="st4 st18 st20">€203m turnover with 13 employees</tspan><tspan x="0" y="340" class="st4 st18 st20">1,000,000 tonnes of stock physically moved </tspan><tspan x="0" y="360" class="st4 st18 st20">globally using shipping and trucking with </tspan><tspan x="0" y="380" class="st4 st18 st20">one stock controller and one logistics </tspan><tspan x="0" y="400" class="st4 st18 st20">manager</tspan><tspan x="0" y="440" class="st4 st18 st20">€400m of transactions overseen by one </tspan><tspan x="0" y="460" class="st4 st18 st20">accounts staff</tspan><tspan x="0" y="500" class="st4 st18 st20">88% revenue growth in three years since </tspan><tspan x="0" y="520" class="st4 st18 st20">the implementation of Flux</tspan></text>
</g>
<rect x="31" y="4729" class="st4" width="299.3" height="140.2"/>
<g>
	<g>
		<g>
			<path class="st3" d="M128.4,4787.8c0,0,4.8-1.8,6.1,1.6C134.5,4789.4,131.6,4791.7,128.4,4787.8z"/>
			<path class="st3" d="M127.1,4782.3c0,0,1.7,4.2,4.7,3C131.8,4785.3,131.5,4782,127.1,4782.3z"/>
			<path class="st3" d="M132.4,4782.8c0,0,0.8,6.7,5.6,6.2C138,4789,138.8,4784.3,132.4,4782.8z"/>
			<path class="st3" d="M124.3,4785c0,0,3.7-1.1,4.5,1.5C128.8,4786.5,126.6,4788,124.3,4785z"/>
			<path class="st3" d="M139.6,4786.1c0,0-1.9,9,4.5,10.4C144,4796.5,147.2,4790.8,139.6,4786.1z"/>
			<path class="st3" d="M146.8,4794.1c0,0-7.1,8.1-1.4,13.3C145.5,4807.4,152,4803.3,146.8,4794.1z"/>
			<path class="st3" d="M149,4806.9c0,0-9.7,2.5-8,9.4C141.1,4816.4,148.2,4816.7,149,4806.9z"/>
			<path class="st3" d="M144.9,4817.7c0,0-7.2-2-8.7,3.1C136.2,4820.8,140.7,4823.7,144.9,4817.7z"/>
			<path class="st3" d="M138.8,4823.1c0,0-4.6-3.2-6.9,0C131.9,4823.1,134.3,4826.3,138.8,4823.1z"/>
			<path class="st3" d="M133.3,4825.6c0,0-2.8-3.2-5.1-1.2C128.2,4824.5,129.5,4827.2,133.3,4825.6z"/>
			<path class="st3" d="M128.3,4826.4c0,0-1.7-3-3.8-1.8C124.5,4824.6,125,4827,128.3,4826.4z"/>
			<path class="st3" d="M124.7,4826.3c0,0-1.2-1.6-2.3-0.7C122.5,4825.6,122.9,4826.9,124.7,4826.3z"/>
			<path class="st3" d="M132.2,4791.3c0,0,5.9-1.6,7.1,2.6C139.3,4794,135.6,4796.3,132.2,4791.3z"/>
			<path class="st3" d="M134.7,4795.5c0,0,6.9-0.4,7.3,4.5C141.9,4799.9,137.3,4801.7,134.7,4795.5z"/>
			<path class="st3" d="M135.9,4799.9c0,0,8.3,2.2,6.7,8.1C142.7,4808,136.6,4808.2,135.9,4799.9z"/>
			<path class="st3" d="M136.3,4806.3c0,0,5.8,2.1,4.3,6.2C140.5,4812.5,136.2,4812.3,136.3,4806.3z"/>
			<path class="st3" d="M135.7,4810.6c0,0,4.6,2.7,2.6,6C138.3,4816.5,134.6,4815.6,135.7,4810.6z"/>
			<path class="st3" d="M134.5,4814.3c0,0,3.1,3.7,0.5,6C135,4820.3,132.1,4818.4,134.5,4814.3z"/>
			<path class="st3" d="M132.6,4817.5c0,0,1.5,3.1-0.7,4.2C132,4821.8,130.3,4820,132.6,4817.5z"/>
			<path class="st3" d="M130.6,4820c0,0,0.8,2.6-1.1,3.2C129.5,4823.2,128.5,4821.6,130.6,4820z"/>
			<path class="st3" d="M128.5,4822.3c0,0-0.1,1.8-1.4,1.7C127.1,4824,126.8,4822.7,128.5,4822.3z"/>
			<path class="st3" d="M123.1,4782.5c0,0,1.2,2.2,2.8,1.4C125.9,4783.8,125.5,4782.1,123.1,4782.5z"/>
			<path class="st3" d="M120.2,4783.5c0,0,1.8,1.9,3.2,0.6C123.4,4784.1,122.5,4782.4,120.2,4783.5z"/>
		</g>
		<g>
			<path class="st3" d="M104.8,4798c0,0-4-3.3-1.7-6.1C103.1,4791.9,106.5,4793.3,104.8,4798z"/>
			<path class="st3" d="M100.6,4801.8c0,0,2.7-3.6,0.2-5.6C100.8,4796.3,98.2,4798.1,100.6,4801.8z"/>
			<path class="st3" d="M98.4,4796.9c0,0,5.4-4.1,2.5-7.9C101,4789,96.4,4790.6,98.4,4796.9z"/>
			<path class="st3" d="M104.3,4802.8c0,0-2.8-2.6-0.9-4.7C103.4,4798.2,105.8,4799.4,104.3,4802.8z"/>
			<path class="st3" d="M97.7,4789.1c0,0,8.7-2.8,6.8-9.1C104.5,4780,97.9,4780.1,97.7,4789.1z"/>
			<path class="st3" d="M101,4778.8c0,0,10.6,2.1,12.2-5.4C113.2,4773.4,106.4,4769.7,101,4778.8z"/>
			<path class="st3" d="M111,4770.5c0,0,7,7.1,12.2,2.2C123.1,4772.7,119.9,4766.3,111,4770.5z"/>
			<path class="st3" d="M122.4,4768.6c0,0,1.9,7.2,7,6C129.4,4774.6,129.6,4769.3,122.4,4768.6z"/>
			<path class="st3" d="M130.1,4771.3c0,0-0.5,5.6,3.5,6C133.6,4777.3,135.1,4773.6,130.1,4771.3z"/>
			<path class="st3" d="M135,4774.8c0,0-1.3,4,1.5,5C136.6,4779.8,138.3,4777.3,135,4774.8z"/>
			<path class="st3" d="M138.2,4778.7c0,0-1.8,2.9,0.3,4.2C138.5,4782.9,140.3,4781.3,138.2,4778.7z"/>
			<path class="st3" d="M139.9,4781.9c0,0-0.8,1.8,0.5,2.3C140.4,4784.2,141.3,4783.1,139.9,4781.9z"/>
			<path class="st3" d="M105.9,4792.9c0,0-4.3-4.3-1.3-7.5C104.6,4785.4,108.5,4787.5,105.9,4792.9z"/>
			<path class="st3" d="M108.2,4788.7c0,0-3.8-5.8,0.2-8.5C108.5,4780.1,112.3,4783.2,108.2,4788.7z"/>
			<path class="st3" d="M111.5,4785.3c0,0-2.2-8.2,3.6-9.9C115.1,4775.5,118.3,4780.6,111.5,4785.3z"/>
			<path class="st3" d="M116.8,4781.9c0,0-1-6,3.3-6.8C120.1,4775,122,4778.9,116.8,4781.9z"/>
			<path class="st3" d="M120.8,4780.3c0,0,0.1-5.3,3.9-5.3C124.7,4775,125.7,4778.6,120.8,4780.3z"/>
			<path class="st3" d="M124.7,4779.4c0,0,1.7-4.5,4.9-3.4C129.6,4776,129.4,4779.4,124.7,4779.4z"/>
			<path class="st3" d="M128.4,4779.4c0,0,1.9-2.9,4-1.5C132.4,4777.9,131.6,4780.2,128.4,4779.4z"/>
			<path class="st3" d="M131.5,4779.9c0,0,1.9-2,3.3-0.6C134.8,4779.2,134,4781,131.5,4779.9z"/>
			<path class="st3" d="M134.5,4780.6c0,0,1.6-0.8,2.2,0.4C136.7,4780.9,135.8,4781.8,134.5,4780.6z"/>
			<path class="st3" d="M102.7,4805.1c0,0,1.3-2.1-0.2-3.1C102.5,4802.1,101.2,4803.2,102.7,4805.1z"/>
			<path class="st3" d="M105.1,4807.2c0,0,0.7-2.5-1-3.1C104,4804.1,103,4805.7,105.1,4807.2z"/>
		</g>
		<g>
			<path class="st3" d="M125.6,4813.3c0,0-0.9,5.1-4.5,4.5C121.1,4817.8,120.6,4814.2,125.6,4813.3z"/>
			<path class="st3" d="M131,4815c0,0-4.5-0.6-4.9,2.6C126,4817.6,129,4818.9,131,4815z"/>
			<path class="st3" d="M127.8,4819.3c0,0-6.2-2.6-8.1,1.8C119.7,4821.1,123.4,4824.2,127.8,4819.3z"/>
			<path class="st3" d="M130,4811.3c0,0-0.9,3.7-3.6,3.1C126.5,4814.4,126.3,4811.7,130,4811.3z"/>
			<path class="st3" d="M121.4,4823.9c0,0-6.8-6.2-11.2-1.3C110.2,4822.5,113.5,4828.2,121.4,4823.9z"/>
			<path class="st3" d="M110.9,4826.2c0,0-3.5-10.2-10.8-7.8C100.1,4818.3,100.3,4826,110.9,4826.2z"/>
			<path class="st3" d="M98.6,4821.7c0,0,2.7-9.7-4.2-11.6C94.5,4810,90.6,4816,98.6,4821.7z"/>
			<path class="st3" d="M91.4,4812.7c0,0,5.3-5.2,1.7-9.1C93,4803.7,88.3,4806.1,91.4,4812.7z"/>
			<path class="st3" d="M89.8,4804.7c0,0,5.1-2.4,3.4-6C93.2,4798.7,89.3,4799.2,89.8,4804.7z"/>
			<path class="st3" d="M90.3,4798.7c0,0,4.2-0.9,3.6-3.8C93.9,4794.9,90.9,4794.6,90.3,4798.7z"/>
			<path class="st3" d="M92.2,4794c0,0,3.4,0,3.5-2.4C95.6,4791.6,93.3,4790.8,92.2,4794z"/>
			<path class="st3" d="M94,4790.9c0,0,1.9-0.2,1.8-1.6C95.8,4789.3,94.4,4789.1,94,4790.9z"/>
			<path class="st3" d="M120.6,4814.9c0,0-1.6,5.9-5.8,4.8C114.8,4819.7,114.6,4815.3,120.6,4814.9z"/>
			<path class="st3" d="M115.8,4814.9c0,0-3.1,6.2-7.5,4.1C108.3,4819,109,4814.2,115.8,4814.9z"/>
			<path class="st3" d="M111.3,4813.8c0,0-6,6.1-10.4,1.8C100.9,4815.6,103.8,4810.2,111.3,4813.8z"/>
			<path class="st3" d="M105.6,4810.9c0,0-4.7,3.9-7.5,0.6C98.1,4811.5,100.4,4807.9,105.6,4810.9z"/>
			<path class="st3" d="M102.2,4808.3c0,0-4.6,2.6-6.5-0.7C95.7,4807.6,98.3,4804.8,102.2,4808.3z"/>
			<path class="st3" d="M99.5,4805.4c0,0-4.8,0.8-5.4-2.6C94.1,4802.8,97.2,4801.2,99.5,4805.4z"/>
			<path class="st3" d="M97.7,4802.2c0,0-3.5-0.2-3.3-2.7C94.4,4799.5,96.8,4798.9,97.7,4802.2z"/>
			<path class="st3" d="M96.5,4799.2c0,0-2.6-0.6-2.2-2.5C94.3,4796.6,96.2,4796.5,96.5,4799.2z"/>
			<path class="st3" d="M95.6,4796.2c0,0-1.5-1-0.8-2.1C94.9,4794.2,96.1,4794.5,95.6,4796.2z"/>
			<path class="st3" d="M132.8,4811.5c0,0-2.5-0.1-2.6,1.7C130.2,4813.2,131.9,4813.7,132.8,4811.5z"/>
			<path class="st3" d="M133.4,4808.4c0,0-2.6,0.6-2.1,2.4C131.3,4810.8,133.2,4811,133.4,4808.4z"/>
		</g>
	</g>
	<g>
		<path class="st3" d="M165.9,4796.6c-4.1,0-7.2-3.2-7.2-7.2v0c0-4,3-7.3,7.3-7.3c2.7,0,4.2,0.9,5.6,2.2l-2,2.3
			c-1.1-1-2.2-1.6-3.6-1.6c-2.4,0-4.1,2-4.1,4.4v0c0,2.4,1.7,4.4,4.1,4.4c1.6,0,2.6-0.6,3.7-1.7l2,2
			C170.3,4795.6,168.7,4796.6,165.9,4796.6z"/>
		<path class="st3" d="M180.6,4796.6c-4.3,0-7.5-3.2-7.5-7.2v0c0-4,3.2-7.3,7.5-7.3c4.3,0,7.5,3.2,7.5,7.2v0
			C188.1,4793.3,185,4796.6,180.6,4796.6z M184.9,4789.3c0-2.4-1.8-4.4-4.3-4.4c-2.5,0-4.2,2-4.2,4.4v0c0,2.4,1.8,4.4,4.3,4.4
			C183.2,4793.7,184.9,4791.7,184.9,4789.3L184.9,4789.3z"/>
		<path class="st3" d="M201.9,4796.3v-9.2l-4,6h-0.1l-3.9-6v9.1h-3v-14.1h3.3l3.7,6l3.7-6h3.3v14.1H201.9z"/>
		<path class="st3" d="M208.4,4796.3v-14.1H219v2.8h-7.5v2.9h6.6v2.8h-6.6v3h7.6v2.8H208.4z"/>
		<path class="st3" d="M230.6,4796.3l-3.2-4.8l-3.2,4.8h-3.5l4.9-7.2l-4.7-6.9h3.6l3,4.6l3-4.6h3.5l-4.7,6.9l4.9,7.2H230.6z"/>
		<path class="st3" d="M170.4,4815.7v-9.2l-4,6h-0.1l-3.9-6v9.1h-3v-14.1h3.3l3.7,6l3.7-6h3.3v14.1H170.4z"/>
		<path class="st3" d="M179.7,4809.1c-2.3,0-4-1.8-4-4v0c0-2.2,1.7-4,4.1-4c1.5,0,2.4,0.5,3.1,1.2l-1.1,1.3c-0.6-0.5-1.2-0.9-2-0.9
			c-1.3,0-2.3,1.1-2.3,2.4v0c0,1.3,0.9,2.5,2.3,2.5c0.9,0,1.4-0.4,2.1-0.9l1.1,1.1C182.1,4808.6,181.2,4809.1,179.7,4809.1z"/>
		<path class="st3" d="M194.2,4815.7l-4.4-6l-1.6,1.7v4.3h-3.1v-14.1h3.1v6.2l5.7-6.2h3.7l-5.7,6l6,8.1H194.2z"/>
		<path class="st3" d="M199.9,4815.7v-14.1h3.1v14.1H199.9z"/>
		<path class="st3" d="M216.4,4815.7l-6.8-9v9h-3.1v-14.1h2.9l6.6,8.7v-8.7h3.1v14.1H216.4z"/>
		<path class="st3" d="M232.3,4815.7l-6.8-9v9h-3.1v-14.1h2.9l6.6,8.7v-8.7h3.1v14.1H232.3z"/>
		<path class="st3" d="M245.1,4815.9c-4.3,0-7.5-3.2-7.5-7.2v0c0-4,3.2-7.3,7.5-7.3c4.3,0,7.5,3.2,7.5,7.2v0
			C252.7,4812.6,249.5,4815.9,245.1,4815.9z M249.4,4808.6c0-2.4-1.8-4.4-4.3-4.4c-2.5,0-4.2,2-4.2,4.4v0c0,2.4,1.8,4.4,4.3,4.4
			C247.7,4813.1,249.4,4811.1,249.4,4808.6L249.4,4808.6z"/>
		<path class="st3" d="M265.3,4815.7l-6.8-9v9h-3.1v-14.1h2.9l6.6,8.7v-8.7h3.1v14.1H265.3z"/>
	</g>
</g>
<line class="st39" x1="30" y1="5191.5" x2="330" y2="5191.5"/>
<line class="st39" x1="30" y1="5234.5" x2="330" y2="5234.5"/>
<line class="st39" x1="30" y1="5309.5" x2="330" y2="5309.5"/>
<line class="st39" x1="30" y1="5370.5" x2="330" y2="5370.5"/>
<line class="st39" x1="30" y1="5432.5" x2="330" y2="5432.5"/>
<rect y="5468" class="st1" width="360" height="74"/>
<rect x="9" y="5485" class="st5" width="342" height="37"/>
<g>
	<rect x="9.3" y="5498.3" class="st9" width="342.5" height="18.6"/>
	<text transform="matrix(1 0 0 1 17.2852 5509.7051)" class="st3 st11 st20">For more information contact info@fluxbds.com  </text>
</g>
</svg>
