<?xml version="1.0" encoding="utf-8"?>
<!-- Generator: Adobe Illustrator 18.0.0, SVG Export Plug-In . SVG Version: 6.00 Build 0)  -->
<!DOCTYPE svg PUBLIC "-//W3C//DTD SVG 1.1//EN" "http://www.w3.org/Graphics/SVG/1.1/DTD/svg11.dtd">
<svg version="1.1" id="Layer_1" xmlns="http://www.w3.org/2000/svg" xmlns:xlink="http://www.w3.org/1999/xlink" x="0px" y="0px"
	 viewBox="0 0 128 128" style="enable-background:new 0 0 128 128;" xml:space="preserve">
<style type="text/css">
	.st0{fill:#333333;}
	.st1{fill:#F1EEF6;}
	.st2{fill:#808080;}
	.st3{fill:#1A1A1A;}
	.st4{fill:#E5E5E5;}
	.st5{fill:#D4C8E3;}
	.st6{fill:none;stroke:#FFFFFF;stroke-miterlimit:10;}
	.st7{fill:#D2C6E1;}
	.st8{fill:#4D4D4D;}
	.st9{fill:none;stroke:#B2B2B2;stroke-miterlimit:10;}
	.st10{fill:#FFFFFF;}
	.st11{fill:none;stroke:#808080;stroke-miterlimit:10;}
	.st12{fill:none;stroke:#4D4D4D;stroke-width:2.2691;stroke-linecap:round;stroke-linejoin:round;stroke-miterlimit:10;}
	.st13{fill:none;stroke:#4D4D4D;stroke-width:2.1559;stroke-linecap:round;stroke-linejoin:round;stroke-miterlimit:10;}
	.st14{fill:none;stroke:#4D4D4D;stroke-width:2.1558;stroke-linecap:round;stroke-linejoin:round;stroke-miterlimit:10;}
	.st15{fill:#241E21;}
	.st16{fill:none;stroke:#4D4D4D;stroke-width:2.1618;stroke-linecap:round;stroke-linejoin:round;stroke-miterlimit:10;}
	.st17{fill:none;stroke:#4D4D4D;stroke-width:2.5566;stroke-linecap:round;stroke-linejoin:round;stroke-miterlimit:10;}
	.st18{fill:none;stroke:#4D4D4D;stroke-width:2.3992;stroke-linecap:round;stroke-linejoin:round;stroke-miterlimit:10;}
	.st19{fill:none;stroke:#4D4D4D;stroke-width:2.607;stroke-linecap:round;stroke-linejoin:round;stroke-miterlimit:10;}
	.st20{fill:none;stroke:#4D4D4D;stroke-width:2.0373;stroke-linecap:round;stroke-linejoin:round;stroke-miterlimit:10;}
	.st21{fill:none;stroke:#4D4D4D;stroke-width:1.7268;stroke-linecap:round;stroke-linejoin:round;stroke-miterlimit:10;}
	.st22{fill:none;stroke:#4D4D4D;stroke-width:2.0207;stroke-linecap:round;stroke-linejoin:round;stroke-miterlimit:10;}
	.st23{fill:#666666;}
	.st24{fill:none;stroke:#666666;stroke-miterlimit:10;}
	.st25{fill:none;stroke:#E5E5E5;stroke-miterlimit:10;}
</style>
<g>
	<path class="st10" d="M119.7,11.4c-7.6-7.6-17.1-11.6-48.3-11.6h-5.8h-3.3h-5.8c-31.2,0-40.7,4-48.3,11.6C1.8,17.8,0,25.8,0,43.9
		v40.3c0,18,1.8,26.1,8.3,32.5c7.6,7.6,17.1,11.6,48.3,11.6h5.8h3.3h5.8c31.2,0,40.7-4,48.3-11.6c6.4-6.4,8.3-14.4,8.3-32.5V43.9
		C128,25.8,126.2,17.8,119.7,11.4"/>
	<path class="st8" d="M85.9,98.3c-2.5,1.3-5.6,2.5-12.1,2.5c-13.8,0-22.3-8.7-25.1-24.4h-7.3c-1.4,0-2.2-0.9-2.2-2.3v-3.4
		c0-1.5,0.9-2.4,2.2-2.4h6.4c-0.1-1.5-0.1-3-0.1-4.6c0-1.2,0-2.4,0.1-3.4h-6.4c-1.4,0-2.2-0.9-2.2-2.3v-3.4c0-1.5,0.9-2.4,2.2-2.4
		h7.3c3-15.6,12.3-24.5,25.7-24.5c4.2,0,8.5,0.7,11.6,2.4c1.1,0.6,1.2,1.8,0.9,3.1l-1,3.8c-0.3,1.2-1.6,1.5-2.9,0.9
		c-2.5-1.2-4.9-2-8.3-2c-9.3,0-14.8,5.1-16.7,16.5h16.5c1.5,0,2.4,0.9,2.4,2.4V58c0,1.4-0.9,2.3-2.4,2.3H57.3c0,1.2-0.1,2.4-0.1,3.5
		c0,1.6,0,3.1,0.1,4.5h17.3c1.5,0,2.4,0.9,2.4,2.4v3.4c0,1.4-0.9,2.3-2.4,2.3H58.4c2.4,11.2,8.1,16.1,16.2,16.1c2.9,0,7-1.2,8.8-2
		c1.3-0.6,2.5-0.2,2.7,0.8l0.9,4.5C87.1,97,86.8,97.9,85.9,98.3"/>
</g>
</svg>
