<?xml version="1.0" encoding="utf-8"?>
<!-- Generator: Adobe Illustrator 18.0.0, SVG Export Plug-In . SVG Version: 6.00 Build 0)  -->
<!DOCTYPE svg PUBLIC "-//W3C//DTD SVG 1.1//EN" "http://www.w3.org/Graphics/SVG/1.1/DTD/svg11.dtd">
<svg version="1.1" id="Layer_1" xmlns="http://www.w3.org/2000/svg" xmlns:xlink="http://www.w3.org/1999/xlink" x="0px" y="0px"
	 viewBox="0 0 128 128" style="enable-background:new 0 0 128 128;" xml:space="preserve">
<style type="text/css">
	.st0{fill:#333333;}
	.st1{fill:#F1EEF6;}
	.st2{fill:#808080;}
	.st3{fill:#1A1A1A;}
	.st4{fill:#E5E5E5;}
	.st5{fill:#D4C8E3;}
	.st6{fill:none;stroke:#FFFFFF;stroke-miterlimit:10;}
	.st7{fill:#D2C6E1;}
	.st8{fill:#4D4D4D;}
	.st9{fill:none;stroke:#B2B2B2;stroke-miterlimit:10;}
	.st10{fill:#FFFFFF;}
	.st11{fill:none;stroke:#808080;stroke-miterlimit:10;}
	.st12{fill:none;stroke:#4D4D4D;stroke-width:2.2691;stroke-linecap:round;stroke-linejoin:round;stroke-miterlimit:10;}
	.st13{fill:none;stroke:#4D4D4D;stroke-width:2.1559;stroke-linecap:round;stroke-linejoin:round;stroke-miterlimit:10;}
	.st14{fill:none;stroke:#4D4D4D;stroke-width:2.1558;stroke-linecap:round;stroke-linejoin:round;stroke-miterlimit:10;}
	.st15{fill:#241E21;}
	.st16{fill:none;stroke:#4D4D4D;stroke-width:2.1618;stroke-linecap:round;stroke-linejoin:round;stroke-miterlimit:10;}
	.st17{fill:none;stroke:#4D4D4D;stroke-width:2.5566;stroke-linecap:round;stroke-linejoin:round;stroke-miterlimit:10;}
	.st18{fill:none;stroke:#4D4D4D;stroke-width:2.3992;stroke-linecap:round;stroke-linejoin:round;stroke-miterlimit:10;}
	.st19{fill:none;stroke:#4D4D4D;stroke-width:2.607;stroke-linecap:round;stroke-linejoin:round;stroke-miterlimit:10;}
	.st20{fill:none;stroke:#4D4D4D;stroke-width:2.0373;stroke-linecap:round;stroke-linejoin:round;stroke-miterlimit:10;}
	.st21{fill:none;stroke:#4D4D4D;stroke-width:1.7268;stroke-linecap:round;stroke-linejoin:round;stroke-miterlimit:10;}
	.st22{fill:none;stroke:#4D4D4D;stroke-width:2.0207;stroke-linecap:round;stroke-linejoin:round;stroke-miterlimit:10;}
	.st23{fill:#666666;}
	.st24{fill:none;stroke:#666666;stroke-miterlimit:10;}
	.st25{fill:none;stroke:#E5E5E5;stroke-miterlimit:10;}
</style>
<g>
	<path class="st7" d="M56.2,0c-31.5,0-41,3.8-48.5,11.2C1.8,17,0,24.4,0,42.8v42.4c0,18.4,1.8,25.8,7.7,31.6
		c7.5,7.4,17,11.2,48.5,11.2h15.7c31.5,0,41-3.8,48.5-11.2c5.9-5.8,7.7-13.2,7.7-31.6V42.8c0-18.4-1.8-25.8-7.7-31.6
		C112.8,3.8,103.3,0,71.8,0H56.2z"/>
	<g>
		<path class="st8" d="M96.3,98.1c-1.4,0-2.8-0.9-3.3-2.3l-5.2-13.6H60.4c-7.9,0-14.4-6.5-14.4-14.4V40.5c0-7.9,6.4-14.4,14.4-14.4
			h42c7.9,0,14.4,6.5,14.4,14.4v27.4c0,7.5-5.8,13.7-13.1,14.3l-4,13.4C99.3,97,98,98,96.5,98.1C96.4,98.1,96.4,98.1,96.3,98.1z
			 M60.4,33.2c-4,0-7.3,3.3-7.3,7.3v27.4c0,4,3.3,7.3,7.3,7.3h29.8c1.5,0,2.8,0.9,3.3,2.3l2.4,6.2l1.7-5.9c0.4-1.5,1.8-2.5,3.4-2.5
			h1.4c4,0,7.3-3.3,7.3-7.3V40.5c0-4-3.3-7.3-7.3-7.3H60.4z"/>
	</g>
	<g>
		<path class="st8" d="M72.3,78.8c-1.6,0.2-3.4,0.3-5.3,0.4v2.3c0,3.3-2.7,6-6,6H34.9c-1.5,0-2.8,0.9-3.3,2.3L30,93.9L28.8,90
			c-0.4-1.5-1.8-2.5-3.4-2.5h-1.2c-3.3,0-6-2.7-6-6V57.6c0-3.3,2.7-6,6-6h26.1c0-2.4-0.1-4.7-0.2-7H24.2c-7.2,0-13,5.8-13,13v23.9
			c0,6.7,5.1,12.2,11.6,12.9l3.4,11.4c0.4,1.4,1.7,2.5,3.2,2.5c0,0,0.1,0,0.1,0c1.5,0,2.8-0.9,3.3-2.3l4.5-11.6H61
			c7.2,0,13-5.8,13-13v-3.2C73.5,78.6,72.9,78.7,72.3,78.8"/>
	</g>
</g>
</svg>
