<?xml version="1.0" encoding="utf-8"?>
<!-- Generator: Adobe Illustrator 18.0.0, SVG Export Plug-In . SVG Version: 6.00 Build 0)  -->
<!DOCTYPE svg PUBLIC "-//W3C//DTD SVG 1.1//EN" "http://www.w3.org/Graphics/SVG/1.1/DTD/svg11.dtd">
<svg version="1.1" id="Layer_1" xmlns="http://www.w3.org/2000/svg" xmlns:xlink="http://www.w3.org/1999/xlink" x="0px" y="0px"
	 viewBox="0 0 960 5225" style="enable-background:new 0 0 960 5225;" xml:space="preserve">
<style type="text/css">
	.st0{fill:#333333;}
	.st1{fill:#F1EEF6;}
	.st2{fill:#808080;}
	.st3{fill:#1A1A1A;}
	.st4{fill:#E5E5E5;}
	.st5{fill:#D4C8E3;}
	.st6{fill:none;}
	.st7{font-family:'InfoTextRegular-Roman';}
	.st8{font-size:16;}
	.st9{font-family:'InfoTextSemibold-Roman';}
	.st10{fill:none;stroke:#FFFFFF;stroke-miterlimit:10;}
	.st11{font-family:'InfoTextSemibold-Caps';}
	.st12{font-size:37;}
	.st13{letter-spacing:1;}
	.st14{font-size:23;}
	.st15{fill:#D2C6E1;}
	.st16{fill:#4D4D4D;}
	.st17{fill:#FFFFFF;}
	.st18{font-size:35;}
	.st19{font-family:'InfoTextMedium-Roman';}
	.st20{font-size:13;}
	.st21{font-size:17;}
	.st22{fill:none;stroke:#B2B2B2;stroke-miterlimit:10;}
	.st23{fill:#666666;}
	.st24{font-size:14;}
	.st25{fill:none;stroke:#808080;stroke-miterlimit:10;}
	.st26{fill:none;stroke:#4D4D4D;stroke-width:2.2691;stroke-linecap:round;stroke-linejoin:round;stroke-miterlimit:10;}
	.st27{fill:none;stroke:#4D4D4D;stroke-width:2.1559;stroke-linecap:round;stroke-linejoin:round;stroke-miterlimit:10;}
	.st28{fill:none;stroke:#4D4D4D;stroke-width:2.1558;stroke-linecap:round;stroke-linejoin:round;stroke-miterlimit:10;}
	.st29{fill:#241E21;}
	.st30{fill:none;stroke:#4D4D4D;stroke-width:2.1618;stroke-linecap:round;stroke-linejoin:round;stroke-miterlimit:10;}
	.st31{fill:none;stroke:#4D4D4D;stroke-width:2.5566;stroke-linecap:round;stroke-linejoin:round;stroke-miterlimit:10;}
	.st32{fill:none;stroke:#4D4D4D;stroke-width:2.3992;stroke-linecap:round;stroke-linejoin:round;stroke-miterlimit:10;}
	.st33{fill:none;stroke:#4D4D4D;stroke-width:2.607;stroke-linecap:round;stroke-linejoin:round;stroke-miterlimit:10;}
	.st34{fill:none;stroke:#4D4D4D;stroke-width:2.0373;stroke-linecap:round;stroke-linejoin:round;stroke-miterlimit:10;}
	.st35{fill:none;stroke:#4D4D4D;stroke-width:1.7268;stroke-linecap:round;stroke-linejoin:round;stroke-miterlimit:10;}
	.st36{fill:none;stroke:#4D4D4D;stroke-width:2.0207;stroke-linecap:round;stroke-linejoin:round;stroke-miterlimit:10;}
	.st37{font-family:'InfoText-BoldCaps';}
	.st38{font-size:22.6411;}
	.st39{fill:none;stroke:#666666;stroke-miterlimit:10;}
	.st40{fill:none;stroke:#E5E5E5;stroke-miterlimit:10;}
</style>
<g>
	<defs>
		<rect id="SVGID_1_" y="85" width="960" height="524"/>
	</defs>
	<clipPath id="SVGID_2_">
		<use xlink:href="#SVGID_1_"  style="overflow:visible;"/>
	</clipPath>
	<g transform="matrix(1 0 0 1 0 0)" style="clip-path:url(#SVGID_2_);">
		
			<image style="overflow:visible;" width="4188" height="4200" xlink:href="751D0D42.jpg"  transform="matrix(0.2292 0 0 0.2292 0 85)">
		</image>
	</g>
</g>
<rect y="59" class="st0" width="960" height="30"/>
<rect x="-1" y="4889" class="st1" width="960" height="198"/>
<rect y="3289" class="st1" width="960" height="1797"/>
<rect y="4258" class="st3" width="960" height="630"/>
<rect x="61" y="4370" class="st4" width="388.4" height="182"/>
<rect x="208" y="4950" class="st5" width="544" height="68"/>
<g>
	<g>
		<g>
			<g>
				<path d="M187.3,4446.3c0,0,6.2-2.3,7.9,2.1C195.3,4448.4,191.5,4451.3,187.3,4446.3z"/>
				<path d="M185.7,4439.2c0,0,2.3,5.4,6.1,3.8C191.8,4443,191.4,4438.8,185.7,4439.2z"/>
				<path d="M192.6,4439.9c0,0,1.1,8.7,7.3,8C199.9,4447.9,201,4441.7,192.6,4439.9z"/>
				<path d="M182.2,4442.7c0,0,4.8-1.4,5.8,2C188,4444.6,185,4446.6,182.2,4442.7z"/>
				<g>
					<path d="M201.9,4444.1c0,0-2.5,11.7,5.8,13.5C207.7,4457.6,211.8,4450.2,201.9,4444.1z"/>
				</g>
				<path d="M211.3,4454.5c0,0-9.3,10.5-1.8,17.2C209.5,4471.7,218,4466.5,211.3,4454.5z"/>
				<path d="M214.2,4471.2c0,0-12.6,3.3-10.3,12.2C203.8,4483.4,213.1,4483.8,214.2,4471.2z"/>
				<g>
					<path d="M208.9,4485.1c0,0-9.3-2.6-11.3,4C197.6,4489.2,203.4,4492.9,208.9,4485.1z"/>
				</g>
				<g>
					<path d="M200.9,4492.2c0,0-5.9-4.2-9,0C191.9,4492.2,195.1,4496.3,200.9,4492.2z"/>
				</g>
				<g>
					<path d="M193.8,4495.4c0,0-3.7-4.1-6.6-1.5C187.2,4493.9,188.8,4497.5,193.8,4495.4z"/>
				</g>
				<g>
					<path d="M187.3,4496.4c0,0-2.2-3.9-4.9-2.4C182.3,4494.1,183,4497.1,187.3,4496.4z"/>
				</g>
				<g>
					<path d="M182.6,4496.3c0,0-1.5-2-2.9-1C179.7,4495.3,180.3,4497,182.6,4496.3z"/>
				</g>
				<path d="M192.3,4450.9c0,0,7.7-2.1,9.2,3.4C201.5,4454.3,196.7,4457.3,192.3,4450.9z"/>
				<path d="M195.5,4456.3c0,0,9-0.6,9.5,5.8C205,4462.1,199,4464.3,195.5,4456.3z"/>
				<g>
					<path d="M197.2,4462c0,0,10.7,2.8,8.8,10.5C205.9,4472.5,198,4472.8,197.2,4462z"/>
				</g>
				<path d="M197.6,4470.3c0,0,7.5,2.7,5.5,8.1C203.2,4478.4,197.5,4478.1,197.6,4470.3z"/>
				<g>
					<path d="M196.8,4475.8c0,0,5.9,3.5,3.4,7.8C200.3,4483.6,195.5,4482.4,196.8,4475.8z"/>
				</g>
				<g>
					<path d="M195.3,4480.7c0,0,4,4.8,0.6,7.7C195.9,4488.5,192.2,4486,195.3,4480.7z"/>
				</g>
				<g>
					<path d="M192.9,4484.9c0,0,2,4-0.9,5.5C192,4490.4,189.8,4488,192.9,4484.9z"/>
				</g>
				<g>
					<path d="M190.3,4488.2c0,0,1,3.4-1.4,4.1C188.9,4492.3,187.5,4490.2,190.3,4488.2z"/>
				</g>
				<g>
					<path d="M187.6,4491.1c0,0-0.2,2.3-1.8,2.2C185.8,4493.3,185.4,4491.7,187.6,4491.1z"/>
				</g>
				<path d="M180.6,4439.4c0,0,1.5,2.9,3.6,1.8C184.2,4441.2,183.7,4438.9,180.6,4439.4z"/>
				<path d="M176.7,4440.7c0,0,2.4,2.5,4.1,0.8C180.9,4441.5,179.8,4439.3,176.7,4440.7z"/>
			</g>
			<g>
				<path d="M156.7,4459.5c0,0-5.1-4.2-2.2-7.9C154.6,4451.6,159,4453.4,156.7,4459.5z"/>
				<path d="M151.4,4464.5c0,0,3.5-4.7,0.3-7.2C151.6,4457.3,148.2,4459.7,151.4,4464.5z"/>
				<path d="M148.5,4458.2c0,0,7-5.3,3.3-10.3C151.8,4447.9,145.9,4450,148.5,4458.2z"/>
				<path d="M156.1,4465.8c0,0-3.6-3.4-1.2-6C154.9,4459.8,158.1,4461.4,156.1,4465.8z"/>
				<g>
					<path d="M147.6,4448c0,0,11.3-3.7,8.8-11.8C156.4,4436.2,147.9,4436.3,147.6,4448z"/>
				</g>
				<path d="M151.8,4434.6c0,0,13.8,2.7,15.8-7C167.6,4427.6,158.8,4422.8,151.8,4434.6z"/>
				<path d="M164.8,4423.8c0,0,9.1,9.3,15.8,2.8C180.6,4426.7,176.3,4418.4,164.8,4423.8z"/>
				<g>
					<path d="M179.6,4421.5c0,0,2.4,9.4,9.1,7.7C188.7,4429.2,189,4422.3,179.6,4421.5z"/>
				</g>
				<g>
					<path d="M189.7,4424.9c0,0-0.7,7.2,4.5,7.8C194.2,4432.6,196.1,4427.8,189.7,4424.9z"/>
				</g>
				<g>
					<path d="M196,4429.4c0,0-1.7,5.2,2,6.5C198,4435.9,200.3,4432.7,196,4429.4z"/>
				</g>
				<g>
					<path d="M200.1,4434.5c0,0-2.3,3.8,0.4,5.5C200.6,4440,202.9,4437.8,200.1,4434.5z"/>
				</g>
				<g>
					<path d="M202.4,4438.6c0,0-1,2.3,0.6,3C203,4441.6,204.2,4440.2,202.4,4438.6z"/>
				</g>
				<path d="M158.2,4452.9c0,0-5.6-5.6-1.7-9.7C156.5,4443.2,161.6,4445.9,158.2,4452.9z"/>
				<path d="M161.2,4447.4c0,0-5-7.5,0.3-11.1C161.5,4436.3,166.5,4440.4,161.2,4447.4z"/>
				<g>
					<path d="M165.4,4443.1c0,0-2.9-10.7,4.7-12.8C170.1,4430.3,174.3,4437,165.4,4443.1z"/>
				</g>
				<path d="M172.4,4438.6c0,0-1.4-7.8,4.2-8.9C176.6,4429.7,179.2,4434.8,172.4,4438.6z"/>
				<g>
					<path d="M177.5,4436.5c0,0,0.1-6.9,5-6.9C182.6,4429.7,183.9,4434.4,177.5,4436.5z"/>
				</g>
				<g>
					<path d="M182.5,4435.4c0,0,2.2-5.9,6.4-4.4C188.9,4431,188.7,4435.5,182.5,4435.4z"/>
				</g>
				<g>
					<path d="M187.4,4435.4c0,0,2.5-3.7,5.2-2C192.5,4433.4,191.6,4436.5,187.4,4435.4z"/>
				</g>
				<g>
					<path d="M191.5,4436c0,0,2.4-2.5,4.3-0.8C195.7,4435.2,194.6,4437.4,191.5,4436z"/>
				</g>
				<g>
					<path d="M195.4,4436.9c0,0,2.1-1,2.8,0.5C198.2,4437.4,197,4438.5,195.4,4436.9z"/>
				</g>
				<path d="M154.1,4468.8c0,0,1.7-2.8-0.2-4C153.9,4464.8,152.1,4466.4,154.1,4468.8z"/>
				<path d="M157.1,4471.5c0,0,1-3.3-1.4-4C155.8,4467.5,154.4,4469.6,157.1,4471.5z"/>
			</g>
			<g>
				<path d="M183.7,4479.4c0,0-1.1,6.6-5.8,5.8C177.9,4485.2,177.3,4480.5,183.7,4479.4z"/>
				<path d="M190.7,4481.6c0,0-5.8-0.7-6.4,3.4C184.4,4484.9,188.2,4486.7,190.7,4481.6z"/>
				<path d="M186.7,4487.2c0,0-8.1-3.4-10.6,2.3C176.1,4489.5,180.9,4493.5,186.7,4487.2z"/>
				<path d="M189.5,4476.8c0,0-1.1,4.8-4.6,4.1C184.9,4480.8,184.7,4477.3,189.5,4476.8z"/>
				<g>
					<path d="M178.3,4493.1c0,0-8.8-8-14.6-1.7C163.7,4491.4,168.1,4498.7,178.3,4493.1z"/>
				</g>
				<path d="M164.6,4496.1c0,0-4.5-13.3-14-10.2C150.6,4485.9,150.9,4495.9,164.6,4496.1z"/>
				<path d="M148.8,4490.3c0,0,3.5-12.5-5.4-15.1C143.4,4475.2,138.4,4483,148.8,4490.3z"/>
				<g>
					<path d="M139.4,4478.6c0,0,6.9-6.8,2.1-11.8C141.5,4466.9,135.4,4470,139.4,4478.6z"/>
				</g>
				<g>
					<path d="M137.3,4468.2c0,0,6.6-3.1,4.5-7.8C141.7,4460.4,136.6,4461.1,137.3,4468.2z"/>
				</g>
				<g>
					<path d="M138,4460.4c0,0,5.4-1.1,4.6-5C142.6,4455.5,138.7,4455.1,138,4460.4z"/>
				</g>
				<g>
					<path d="M140.4,4454.3c0,0,4.4,0.1,4.5-3.1C144.9,4451.2,141.9,4450.2,140.4,4454.3z"/>
				</g>
				<g>
					<path d="M142.8,4450.3c0,0,2.5-0.3,2.3-2.1C145.1,4448.3,143.3,4448,142.8,4450.3z"/>
				</g>
				<path d="M177.3,4481.4c0,0-2.1,7.7-7.6,6.3C169.7,4487.7,169.5,4482,177.3,4481.4z"/>
				<path d="M171,4481.5c0,0-4,8-9.7,5.3C161.3,4486.8,162.3,4480.5,171,4481.5z"/>
				<g>
					<path d="M165.2,4480.1c0,0-7.8,7.9-13.5,2.3C151.8,4482.4,155.4,4475.4,165.2,4480.1z"/>
				</g>
				<path d="M157.8,4476.3c0,0-6.1,5.1-9.8,0.8C148,4477.1,151.1,4472.3,157.8,4476.3z"/>
				<g>
					<path d="M153.4,4472.9c0,0-6,3.4-8.5-0.9C145,4472,148.4,4468.4,153.4,4472.9z"/>
				</g>
				<g>
					<path d="M149.9,4469.1c0,0-6.2,1.1-7-3.3C142.9,4465.8,146.9,4463.8,149.9,4469.1z"/>
				</g>
				<g>
					<path d="M147.5,4464.9c0,0-4.5-0.3-4.3-3.5C143.2,4461.4,146.4,4460.7,147.5,4464.9z"/>
				</g>
				<g>
					<path d="M146,4461.1c0,0-3.4-0.8-2.8-3.3C143.2,4457.8,145.7,4457.6,146,4461.1z"/>
				</g>
				<g>
					<path d="M144.9,4457.2c0,0-1.9-1.3-1-2.7C143.9,4454.6,145.4,4455,144.9,4457.2z"/>
				</g>
				<path d="M193.1,4477c0,0-3.2-0.1-3.3,2.2C189.8,4479.2,192,4480,193.1,4477z"/>
				<path d="M193.9,4473c0,0-3.3,0.8-2.8,3.2C191.2,4476.2,193.6,4476.4,193.9,4473z"/>
			</g>
		</g>
		<g>
			<path d="M236.1,4457.7c-5.4,0-9.4-4.2-9.4-9.4v-0.1c0-5.2,3.9-9.5,9.5-9.5c3.4,0,5.5,1.1,7.2,2.8l-2.6,2.9
				c-1.4-1.3-2.8-2.1-4.7-2.1c-3.1,0-5.3,2.6-5.3,5.7v0.1c0,3.1,2.2,5.7,5.3,5.7c2.1,0,3.4-0.8,4.8-2.1l2.6,2.6
				C241.7,4456.4,239.7,4457.7,236.1,4457.7z"/>
			<path d="M255.2,4457.7c-5.6,0-9.7-4.2-9.7-9.4v-0.1c0-5.2,4.1-9.5,9.7-9.5c5.6,0,9.7,4.2,9.7,9.4v0.1
				C264.9,4453.4,260.8,4457.7,255.2,4457.7z M260.7,4448.2c0-3.1-2.3-5.7-5.5-5.7c-3.2,0-5.5,2.6-5.5,5.7v0.1
				c0,3.1,2.3,5.7,5.5,5.7C258.5,4454,260.7,4451.4,260.7,4448.2L260.7,4448.2z"/>
			<path d="M282.8,4457.4v-11.9l-5.1,7.8h-0.1l-5.1-7.7v11.9h-3.9v-18.3h4.3l4.8,7.7l4.8-7.7h4.3v18.3H282.8z"/>
			<path d="M291.2,4457.4v-18.3H305v3.6h-9.8v3.7h8.6v3.6h-8.6v3.8h9.9v3.6H291.2z"/>
			<path d="M320.1,4457.4l-4.1-6.3l-4.1,6.3h-4.6l6.4-9.3l-6.1-9h4.7l3.8,5.9l3.9-5.9h4.6l-6.1,8.9l6.4,9.3H320.1z"/>
			<path d="M241.9,4482.5v-11.9l-5.1,7.8h-0.1l-5.1-7.7v11.9h-3.9v-18.3h4.3l4.8,7.7l4.8-7.7h4.3v18.3H241.9z"/>
			<path d="M254,4474c-3,0-5.2-2.3-5.2-5.2v0c0-2.9,2.2-5.3,5.3-5.3c1.9,0,3.1,0.6,4,1.6l-1.4,1.6c-0.8-0.7-1.6-1.1-2.6-1.1
				c-1.7,0-2.9,1.4-2.9,3.2v0c0,1.7,1.2,3.2,2.9,3.2c1.2,0,1.9-0.5,2.7-1.2l1.4,1.4C257.2,4473.3,256,4474,254,4474z"/>
			<path d="M272.7,4482.5l-5.7-7.8l-2.1,2.2v5.6h-4v-18.3h4v8l7.4-8h4.9l-7.4,7.8l7.8,10.5H272.7z"/>
			<path d="M280.2,4482.5v-18.3h4v18.3H280.2z"/>
			<path d="M301.6,4482.5l-8.9-11.6v11.6h-4v-18.3h3.7l8.6,11.3v-11.3h4v18.3H301.6z"/>
			<path d="M322.2,4482.5l-8.8-11.6v11.6h-4v-18.3h3.7l8.6,11.3v-11.3h4v18.3H322.2z"/>
			<path d="M338.9,4482.8c-5.6,0-9.7-4.2-9.7-9.4v-0.1c0-5.2,4.1-9.5,9.7-9.5c5.6,0,9.7,4.2,9.7,9.4v0.1
				C348.7,4478.6,344.6,4482.8,338.9,4482.8z M344.5,4473.4c0-3.1-2.3-5.7-5.5-5.7c-3.2,0-5.5,2.6-5.5,5.7v0.1
				c0,3.1,2.3,5.7,5.5,5.7C342.2,4479.1,344.5,4476.5,344.5,4473.4L344.5,4473.4z"/>
			<path d="M365.1,4482.5l-8.9-11.6v11.6h-4v-18.3h3.7l8.6,11.3v-11.3h4v18.3H365.1z"/>
		</g>
	</g>
</g>
<g>
	<rect x="510" y="4372.7" class="st6" width="391" height="508.3"/>
	<text transform="matrix(1 0 0 1 510 4384.0454)"><tspan x="0" y="0" class="st4 st7 st8">Prior to the implementation of Flux, Comex McKinnon </tspan><tspan x="0" y="20" class="st4 st7 st8">was a mid-tier Irish agricultural supply chain </tspan><tspan x="0" y="40" class="st4 st7 st8">management company with turnover of € 108m, </tspan><tspan x="0" y="60" class="st4 st7 st8">handling 450,000 tonnes of product annually. Following </tspan><tspan x="0" y="80" class="st4 st7 st8">the implementation of Flux in 2011, the company began </tspan><tspan x="0" y="100" class="st4 st7 st8">to grow rapidly. By 2013, the company had turnover of € </tspan><tspan x="0" y="120" class="st4 st7 st8">203m, handling 1,000,000 tonnes of product with one </tspan><tspan x="0" y="140" class="st4 st7 st8">less employee. Due to Flux’s transparent nature, Comex </tspan><tspan x="0" y="160" class="st4 st7 st8">was also trading with less risk and increased profitability.</tspan><tspan x="0" y="200" class="st4 st9 st8">Key Facts</tspan><tspan x="0" y="240" class="st4 st7 st8">€203m turnover with 13 employees</tspan><tspan x="0" y="280" class="st4 st7 st8">1,000,000 tonnes of stock physically moved globally </tspan><tspan x="0" y="300" class="st4 st7 st8">using shipping and trucking with one stock controller  </tspan><tspan x="0" y="320" class="st4 st7 st8">and one logistics manager</tspan><tspan x="0" y="360" class="st4 st7 st8">€400m of transactions overseen by one accounts staff</tspan><tspan x="0" y="400" class="st4 st7 st8">88% revenue growth in three years since the </tspan><tspan x="0" y="420" class="st4 st7 st8">implementation of Flux</tspan></text>
</g>
<line class="st10" x1="510" y1="4603.5" x2="898" y2="4603.5"/>
<line class="st10" x1="510" y1="4642.5" x2="898" y2="4642.5"/>
<line class="st10" x1="510" y1="4764.5" x2="898" y2="4764.5"/>
<line class="st10" x1="510" y1="4724.5" x2="898" y2="4724.5"/>
<line class="st10" x1="510" y1="4819.5" x2="898" y2="4819.5"/>
<g>
	<rect x="61" y="4301.4" class="st6" width="716" height="67.1"/>
	<text transform="matrix(1 0 0 1 61 4327.709)" class="st4 st11 st12 st13">case study: comex mckinnon</text>
</g>
<g>
	<rect x="238" y="4974.4" class="st6" width="484" height="33.5"/>
	<text transform="matrix(1 0 0 1 245.2988 4990.769)" class="st3 st9 st14">For more information contact info@fluxbds.com  </text>
</g>
<g>
	<rect x="61" y="5137.4" class="st6" width="388.4" height="67.1"/>
	<text transform="matrix(1 0 0 1 61 5163.6631)" class="st3 st11 st12 st13">blog</text>
</g>
<rect x="350" y="220" class="st15" width="91" height="37"/>
<rect y="608" class="st15" width="960" height="309"/>
<g>
	<polygon class="st16" points="131.4,26.6 131.4,31.5 139.8,31.5 139.8,36.9 131.4,36.9 131.4,45.9 123.6,45.9 123.6,20.8 
		143.4,20.8 143.4,26.6 	"/>
	<polygon class="st16" points="154.4,40.1 164.7,40.1 164.7,45.9 146.7,45.9 146.7,20.8 154.4,20.8 	"/>
	<path class="st16" d="M190.2,35.8c0,5.6-0.7,7.3-2.1,8.6c-1.2,1.1-2.6,1.5-5.8,1.5h-7.2c-3.2,0-4.7-0.3-5.8-1.5
		c-1.4-1.4-2.1-3.1-2.1-8.6v-15h7.7v15c0,2.3,0.2,3,0.5,3.3c0.3,0.3,0.9,0.4,2.1,0.4h2.4c1.2,0,1.8-0.1,2.1-0.4
		c0.3-0.3,0.5-1,0.5-3.3v-15h7.7V35.8z"/>
	<polygon class="st16" points="205.8,38.6 205.5,38.6 201,45.9 192.8,45.9 201.2,33.3 193,20.8 201.6,20.8 206,27.7 206.3,27.7 
		210.7,20.8 218.8,20.8 210.6,33.1 218.9,45.9 210.4,45.9 	"/>
	<path class="st16" d="M81.6,46.9h-0.7h-1.2c-6.2,0-8.3-0.8-9.9-2.2c-0.4-0.5-2.3-3.1-1.3-5.5c0.8-1.8,3.5-4.2,12.6-5l0.5,0
		c9,0.8,11.8,3.1,12.5,4.9c1.1,2.7-1.5,5.6-1.5,5.7v0c-1.6,1.4-3.7,2.1-9.8,2.1H81.6z M80.9,19.8h0.7h1.2c6.5,0,8.6,0.8,10.2,2.4
		c0.6,0.8,2,3.1,1.1,5.3c-0.8,1.9-3.6,4.2-12.7,5l-0.4,0c-9-0.7-11.8-3.1-12.5-4.9c-1.1-2.7,1.4-5.6,1.5-5.7l0,0
		c1.6-1.4,3.7-2.1,9.8-2.1H80.9z M87.5,33.4c3.4-0.8,5.8-2,7.2-3.6V37C93.3,35.4,90.9,34.1,87.5,33.4 M67.8,29.7
		c1.4,1.6,3.8,2.9,7.2,3.7c-3.4,0.8-5.8,2-7.2,3.6V29.7z M94.4,21.1c-0.2-0.2-0.3-0.4-0.3-0.4l-0.1,0c-2.2-2.1-5-2.8-11.2-2.8h-1.2
		h-0.7h-1.2c-6.4,0-9.2,0.7-11.4,3c-1.9,1.9-2.3,4.2-2.3,8.1v8.5c0,3.9,0.3,6.2,2.3,8.1c0.1,0.1,0.1,0.1,0.2,0.2c0,0,0,0.1,0.1,0.1
		l0,0c2.2,2,5,2.7,11.1,2.7h1.2h0.7h1.2c6.4,0,9.2-0.7,11.4-3c1.9-1.9,2.3-4.2,2.3-8.1v-8.5C96.5,25.3,96.1,23,94.4,21.1"/>
</g>
<g>
	<rect x="66" y="185.8" class="st6" width="512" height="134.6"/>
	<text transform="matrix(1 0 0 1 66 210.6924)"><tspan x="0" y="0" class="st17 st9 st18">Unlock the true potential of your  </tspan><tspan x="0" y="40" class="st17 st9 st18">business with Flux. </tspan><tspan x="298.7" y="40" class="st9 st18">How?</tspan><tspan x="384.2" y="40" class="st17 st9 st18"> </tspan></text>
</g>
<rect x="510" y="27.8" class="st6" width="318.2" height="46.1"/>
<text transform="matrix(1 0 0 1 545.437 37.043)"><tspan x="0" y="0" class="st2 st19 st20">About   Solutions   Customer Service   Case Study   </tspan><tspan x="257" y="22" class="st2 st19 st20">Blog</tspan></text>
<rect x="66" y="69.9" class="st6" width="318.2" height="18.1"/>
<text transform="matrix(1 0 0 1 66 79.1743)" class="st17 st19 st20">info@fluxbds.com</text>
<g>
	<rect x="60" y="689.3" class="st6" width="816.2" height="73.7"/>
	<text transform="matrix(1 0 0 1 60 705.6592)"><tspan x="0" y="0" class="st0 st7 st14">In a world where rapid change &amp; growth is not just possible but increasingly </tspan><tspan x="0" y="29" class="st0 st7 st14">common Flux is the new Big Data system designed to help.</tspan></text>
</g>
<g>
	<rect x="60" y="645.2" class="st6" width="156" height="27.8"/>
	<text transform="matrix(1 0 0 1 60 671.4937)" class="st0 st11 st12 st13">about</text>
</g>
<g>
	<rect x="60" y="791.8" class="st6" width="390" height="90.4"/>
	<text transform="matrix(1 0 0 1 60 803.1997)"><tspan x="0" y="0" class="st0 st7 st8">Flux enables your team to do what they do best – create </tspan><tspan x="0" y="20" class="st0 st7 st8">and innovate. By digitizing all company processes, </tspan><tspan x="0" y="40" class="st0 st7 st8">management can monitor the health of the enterprise in </tspan><tspan x="0" y="60" class="st0 st7 st8">real time and free up resources to scale rapidly and </tspan></text>
</g>
<g>
	<rect x="510" y="791.8" class="st6" width="373" height="97.2"/>
	<text transform="matrix(1 0 0 1 510 803.1997)"><tspan x="0" y="0" class="st0 st7 st8">Flux is built for you. It is designed to be completely </tspan><tspan x="0" y="20" class="st0 st7 st8">adaptable to your on-going needs. As industry &amp; </tspan><tspan x="0" y="40" class="st0 st7 st8">technological changes impact your business needs, </tspan><tspan x="0" y="60" class="st0 st7 st8">Flux will evolve in tandem.</tspan></text>
</g>
<g>
	<path class="st16" d="M264.7,29h-2.9v2.3h2.6c0.2,0,0.4,0.2,0.4,0.4v0.7c0,0.2-0.2,0.4-0.4,0.4h-2.6v3.9c0,0.2-0.2,0.4-0.4,0.4h-1
		c-0.2,0-0.4-0.2-0.4-0.4v-8.7c0-0.2,0.2-0.4,0.4-0.4h4.2c0.2,0,0.4,0.2,0.4,0.4v0.7C265.1,28.8,264.9,29,264.7,29z"/>
	<path class="st16" d="M268,36.9h-0.9c-0.2,0-0.3-0.2-0.3-0.4v-9.2c0-0.2,0.2-0.4,0.3-0.4h0.9c0.2,0,0.4,0.2,0.4,0.4v9.2
		C268.4,36.7,268.2,36.9,268,36.9z"/>
	<path class="st16" d="M275.4,36.9h-0.7c-0.2,0-0.3-0.1-0.4-0.3l-0.1-0.5c-0.5,0.5-1.1,0.9-1.9,0.9c-1,0-1.8-0.7-1.8-1.8v-4.7
		c0-0.2,0.2-0.4,0.4-0.4h0.9c0.2,0,0.3,0.2,0.3,0.4v4.4c0,0.4,0.2,0.7,0.7,0.7c0.7,0,1.3-0.6,1.3-1.6v-3.5c0-0.2,0.1-0.4,0.3-0.4
		h0.9c0.2,0,0.3,0.2,0.3,0.4v6.1C275.8,36.7,275.6,36.9,275.4,36.9z"/>
	<path class="st16" d="M282.9,36.9h-1.2c-0.2,0-0.4-0.1-0.5-0.3l-1.1-2.2l-1.2,2.2c-0.1,0.2-0.3,0.3-0.5,0.3h-1.2
		c-0.2,0-0.3-0.2-0.2-0.4l2-3.2l-1.8-2.8c-0.1-0.2,0-0.4,0.2-0.4h1.2c0.2,0,0.4,0.1,0.5,0.3l1,1.8l0.9-1.8c0.1-0.2,0.3-0.3,0.5-0.3
		h1.1c0.2,0,0.3,0.2,0.2,0.4l-1.8,2.8l2,3.2C283.2,36.7,283.1,36.9,282.9,36.9z"/>
	<path class="st16" d="M291.5,36.9h-3c-0.2,0-0.4-0.2-0.4-0.4v-8.7c0-0.2,0.2-0.4,0.4-0.4h2.9c1.6,0,2.6,0.9,2.6,2.3
		c0,1-0.4,1.7-1.5,2c1.3,0.2,2,1.2,2,2.4C294.3,35.9,293.3,36.9,291.5,36.9z M290.9,28.9h-1.1v2.4h1.1c0.9,0,1.3-0.4,1.3-1.2
		C292.2,29.2,291.8,28.9,290.9,28.9z M291,32.6h-1.2v2.9h1.4c0.8,0,1.3-0.5,1.3-1.5C292.5,33.1,291.9,32.6,291,32.6z"/>
	<path class="st16" d="M297,28.9c-0.6,0-1-0.4-1-1c0-0.6,0.4-1,1-1c0.6,0,1,0.4,1,1C298,28.5,297.6,28.9,297,28.9z M297.5,36.9h-0.9
		c-0.2,0-0.4-0.2-0.4-0.4v-6.1c0-0.2,0.2-0.4,0.4-0.4h0.9c0.2,0,0.3,0.2,0.3,0.4v6.1C297.8,36.7,297.7,36.9,297.5,36.9z"/>
	<path class="st16" d="M302.6,39.8c-1.6,0-2.9-0.5-2.9-2.1c0-0.2,0.2-0.4,0.3-0.4l0.9,0c0.2,0,0.3,0.1,0.3,0.3
		c0.1,0.6,0.8,0.8,1.4,0.8c0.9,0,1.4-0.4,1.4-0.9c0-0.5-0.2-0.7-0.9-0.7h-1.4c-0.8,0-1.6-0.2-1.6-1.2c0-0.5,0.3-0.8,0.6-1.1
		c-0.6-0.4-1-1.1-1-2c0-1.6,1-2.5,2.6-2.5c0.4,0,0.9,0.1,1.2,0.1h1.6c0.3,0,0.4,0.1,0.4,0.4v0.4c0,0.3-0.1,0.4-0.3,0.4l-0.7,0.1
		c0.3,0.3,0.4,0.7,0.4,1.2c0,1.5-1,2.5-2.6,2.5c-0.2,0-0.5,0-0.7-0.1c-0.1,0.1-0.1,0.2-0.1,0.3c0,0.3,0.2,0.3,0.5,0.3h1.3
		c1.3,0,2.2,0.5,2.2,1.9C305.5,39.3,304.1,39.8,302.6,39.8z M302.3,31.2c-0.7,0-1,0.4-1,1.3c0,0.9,0.4,1.3,1,1.3c0.7,0,1-0.4,1-1.3
		C303.4,31.6,303,31.2,302.3,31.2z"/>
	<path class="st16" d="M313.8,36.9h-2.5c-0.2,0-0.4-0.2-0.4-0.4v-8.7c0-0.2,0.2-0.4,0.4-0.4h2.4c1.7,0,3.5,0.8,3.5,4.7
		C317.2,35.1,316.4,36.9,313.8,36.9z M314.9,29.5c-0.3-0.4-0.8-0.6-1.4-0.6h-0.8v6.6h0.8c1.4,0,2-0.6,2-3.3
		C315.4,30.9,315.3,30,314.9,29.5z"/>
	<path class="st16" d="M323.6,36.9h-0.8c-0.2,0-0.3-0.1-0.4-0.4l-0.1-0.4c-0.4,0.6-1,0.9-1.8,0.9c-1.2,0-1.9-0.8-1.9-2.1
		c0-1.3,0.9-2.1,2.4-2.2l1.2-0.1v-0.3c0-0.6-0.2-0.9-1-0.9c-0.6,0-1.1,0.2-1.4,0.2c-0.2,0.1-0.4,0-0.4-0.2l-0.2-0.7
		c-0.1-0.2,0-0.3,0.2-0.4c0.3-0.1,1.1-0.3,1.8-0.3c2.1,0,2.6,1.2,2.6,2.7V35c0,0.3,0,0.7,0.1,1.1l0.1,0.4
		C323.9,36.8,323.8,36.9,323.6,36.9z M322.1,33.7l-0.7,0c-0.7,0-1.2,0.3-1.2,1.2c0,0.6,0.4,0.8,0.7,0.8c0.7,0,1.2-0.5,1.2-1.1V33.7z
		"/>
	<path class="st16" d="M328.4,36.8c-0.3,0.1-0.6,0.2-1.2,0.2c-0.9,0-1.4-0.6-1.4-1.6v-4h-0.5c-0.2,0-0.3-0.2-0.3-0.4v-0.5
		c0-0.2,0.2-0.4,0.3-0.4h0.5v-1.5c0-0.2,0.1-0.4,0.3-0.5l0.9-0.2c0.3-0.1,0.4,0.1,0.4,0.4v1.8h0.7c0.2,0,0.3,0.2,0.3,0.4V31
		c0,0.2-0.2,0.4-0.3,0.4h-0.7v3.7c0,0.3,0.2,0.4,0.3,0.4s0.3,0,0.4-0.1c0.2-0.1,0.3,0,0.4,0.2l0.1,0.7
		C328.7,36.6,328.6,36.7,328.4,36.8z"/>
	<path class="st16" d="M334.7,36.9h-0.8c-0.2,0-0.3-0.1-0.4-0.4l-0.1-0.4c-0.4,0.6-1,0.9-1.8,0.9c-1.2,0-1.9-0.8-1.9-2.1
		c0-1.3,0.9-2.1,2.4-2.2l1.2-0.1v-0.3c0-0.6-0.2-0.9-1-0.9c-0.6,0-1.1,0.2-1.4,0.2c-0.2,0.1-0.4,0-0.4-0.2l-0.2-0.7
		c-0.1-0.2,0-0.3,0.2-0.4c0.3-0.1,1.1-0.3,1.8-0.3c2.1,0,2.6,1.2,2.6,2.7V35c0,0.3,0,0.7,0.1,1.1l0.1,0.4
		C335,36.8,334.9,36.9,334.7,36.9z M333.2,33.7l-0.7,0c-0.7,0-1.2,0.3-1.2,1.2c0,0.6,0.4,0.8,0.7,0.8c0.7,0,1.2-0.5,1.2-1.1V33.7z"
		/>
	<path class="st16" d="M342.9,37c-1.2,0-2.1-0.3-2.3-0.4c-0.2-0.1-0.3-0.3-0.2-0.4l0.2-0.8c0-0.2,0.2-0.3,0.4-0.2
		c0.3,0.1,1.1,0.4,1.9,0.4c0.8,0,1.3-0.4,1.3-1.2c0-0.8-0.6-1.1-1.3-1.5l-0.6-0.3c-0.9-0.4-1.8-1.1-1.8-2.6c0-1.5,1.1-2.6,2.9-2.6
		c1,0,1.6,0.3,1.9,0.4c0.2,0.1,0.2,0.3,0.2,0.4l-0.2,0.7c0,0.2-0.2,0.3-0.4,0.2c-0.2-0.1-0.7-0.3-1.5-0.3c-0.8,0-1.2,0.4-1.2,1.1
		c0,0.6,0.7,0.9,1.4,1.3l0.7,0.4c0.9,0.4,1.6,1.2,1.6,2.6C345.9,35.9,344.8,37,342.9,37z"/>
	<path class="st16" d="M350.5,37.4c-0.3,1.2-0.9,1.8-1.7,2.2l-0.3,0.1c-0.2,0.1-0.4,0-0.5-0.2l-0.4-0.7c-0.1-0.2,0-0.4,0.2-0.5
		l0.2-0.1c0.5-0.3,0.8-0.7,1-1.1l0.1-0.3h-0.5c-0.2,0-0.4-0.1-0.4-0.3l-1.6-6c-0.1-0.2,0.1-0.4,0.3-0.4h1.1c0.2,0,0.3,0.1,0.4,0.3
		l1,4.6c0.1,0.5,0.1,0.9,0.1,0.9c0-0.1,0.1-0.6,0.2-1l1.1-4.6c0-0.2,0.2-0.3,0.4-0.3h1c0.2,0,0.3,0.2,0.3,0.4L350.5,37.4z"/>
	<path class="st16" d="M355.5,37c-1.1,0-1.8-0.3-2-0.4c-0.2-0.1-0.3-0.3-0.2-0.4l0.2-0.7c0.1-0.2,0.2-0.3,0.4-0.2
		c0.3,0.1,0.9,0.4,1.6,0.4c0.5,0,0.7-0.2,0.7-0.6c0-0.5-0.5-0.7-1.1-1c-0.8-0.4-1.7-0.8-1.7-2c0-1.1,0.8-2,2.2-2
		c0.7,0,1.1,0.1,1.6,0.3c0.2,0.1,0.3,0.3,0.2,0.4l-0.2,0.5c-0.1,0.2-0.2,0.3-0.4,0.2c-0.3-0.1-0.7-0.3-1.1-0.3
		c-0.5,0-0.7,0.3-0.7,0.6c0,0.4,0.5,0.6,1.1,0.9c0.8,0.4,1.6,0.9,1.6,2.1C357.8,36.1,357.1,37,355.5,37z"/>
	<path class="st16" d="M362.1,36.8c-0.3,0.1-0.6,0.2-1.2,0.2c-0.9,0-1.4-0.6-1.4-1.6v-4H359c-0.2,0-0.3-0.2-0.3-0.4v-0.5
		c0-0.2,0.2-0.4,0.3-0.4h0.5v-1.5c0-0.2,0.1-0.4,0.3-0.5l0.9-0.2c0.3-0.1,0.4,0.1,0.4,0.4v1.8h0.7c0.2,0,0.4,0.2,0.4,0.4V31
		c0,0.2-0.2,0.4-0.4,0.4h-0.7v3.7c0,0.3,0.2,0.4,0.3,0.4c0.1,0,0.3,0,0.4-0.1c0.2-0.1,0.3,0,0.4,0.2l0.1,0.7
		C362.4,36.6,362.3,36.7,362.1,36.8z"/>
	<path class="st16" d="M368.3,34h-3.3c0.1,0.9,0.3,1.6,1.5,1.6c0.6,0,1.1-0.2,1.4-0.3c0.2-0.1,0.3,0.1,0.4,0.2l0.2,0.7
		c0.1,0.2,0,0.3-0.2,0.4c-0.2,0.1-0.9,0.4-2,0.4c-1.8,0-3-1.1-3-3.5c0-2.1,1-3.5,2.7-3.5c1.7,0,2.6,1.1,2.6,3.6
		C368.7,33.8,368.5,34,368.3,34z M366.1,31.3c-0.6,0-0.9,0.5-1,1.6h2C367,32.1,366.8,31.3,366.1,31.3z"/>
	<path class="st16" d="M378.7,36.9h-0.9c-0.2,0-0.4-0.2-0.4-0.4v-4.5c0-0.4-0.2-0.7-0.6-0.7c-0.7,0-1.2,0.6-1.2,1.5v3.7
		c0,0.2-0.2,0.4-0.4,0.4h-0.9c-0.2,0-0.4-0.2-0.4-0.4v-4.5c0-0.4-0.2-0.7-0.6-0.7c-0.7,0-1.2,0.6-1.2,1.5v3.7c0,0.2-0.2,0.4-0.4,0.4
		h-0.9c-0.2,0-0.3-0.2-0.3-0.4v-6.1c0-0.2,0.2-0.4,0.3-0.4h0.7c0.2,0,0.3,0.1,0.4,0.3l0.1,0.4c0.5-0.6,1.1-0.9,1.9-0.9
		c0.8,0,1.3,0.4,1.6,1c0.4-0.5,1-1,1.9-1c1.1,0,1.7,0.7,1.7,1.8v4.8C379.1,36.7,378.9,36.9,378.7,36.9z"/>
	<path class="st16" d="M383,37c-1.1,0-1.8-0.3-2-0.4c-0.2-0.1-0.3-0.3-0.2-0.4l0.2-0.7c0.1-0.2,0.2-0.3,0.4-0.2
		c0.3,0.1,0.9,0.4,1.6,0.4c0.5,0,0.7-0.2,0.7-0.6c0-0.5-0.5-0.7-1.1-1c-0.8-0.4-1.7-0.8-1.7-2c0-1.1,0.8-2,2.2-2
		c0.7,0,1.1,0.1,1.6,0.3c0.2,0.1,0.3,0.3,0.2,0.4l-0.2,0.5c-0.1,0.2-0.2,0.3-0.4,0.2c-0.3-0.1-0.7-0.3-1.1-0.3
		c-0.5,0-0.7,0.3-0.7,0.6c0,0.4,0.5,0.6,1.1,0.9c0.8,0.4,1.6,0.9,1.6,2.1C385.3,36.1,384.5,37,383,37z"/>
</g>
<g>
	<rect x="60" y="1522" class="st6" width="390" height="157"/>
	<text transform="matrix(1 0 0 1 60 1533.3599)"><tspan x="0" y="0" class="st16 st7 st8">Once a new sale is made, stocks, invoicing, accounts, and </tspan><tspan x="0" y="20" class="st16 st7 st8">workflow all update in real time without any user </tspan><tspan x="0" y="40" class="st16 st7 st8">involvement. The single database means that this </tspan><tspan x="0" y="60" class="st16 st7 st8">happens without any lag regardless of the device or </tspan><tspan x="0" y="80" class="st16 st7 st8">location that the sale is recorded on. Having a unified </tspan><tspan x="0" y="100" class="st16 st7 st8">database also results in data only needing to be inputted </tspan><tspan x="0" y="120" class="st16 st7 st8">once - a major time saver compared with today’s </tspan><tspan x="0" y="140" class="st16 st7 st8">traditional ERP systems.</tspan></text>
</g>
<g>
	<rect x="510" y="1522" class="st6" width="390" height="70"/>
	<text transform="matrix(1 0 0 1 510 1533.3599)"><tspan x="0" y="0" class="st16 st7 st8">All transactions are constantly monitored and compared </tspan><tspan x="0" y="20" class="st16 st7 st8">by Flux. If a suspicious looking transaction occurs, the </tspan><tspan x="0" y="40" class="st16 st7 st8">relevant user is notified immediately to assess the issue.</tspan></text>
</g>
<g>
	<rect x="62.1" y="1761" class="st6" width="837.9" height="260"/>
	<text transform="matrix(1 0 0 1 62.1021 1777.3608)"><tspan x="0" y="0" class="st16 st9 st14">Implementation</tspan><tspan x="0" y="29" class="st16 st7 st14">Flux’s core framework is for everyone. Specialisation arises from installing industry </tspan><tspan x="0" y="58" class="st16 st7 st14">specific apps on top of the core platform. If Flux have not already created the app </tspan><tspan x="0" y="87" class="st16 st7 st14">your company needs, then this will be done as part of the implementation process. </tspan><tspan x="0" y="116" class="st16 st7 st14">Current apps include:</tspan></text>
</g>
<g>
	<rect x="60" y="2236" class="st6" width="390" height="175.6"/>
	<text transform="matrix(1 0 0 1 60 2247.3589)"><tspan x="0" y="0" class="st0 st7 st8">Consultation</tspan><tspan x="0" y="20" class="st16 st7 st8">The Flux team is also available on a consultancy basis. We </tspan><tspan x="0" y="40" class="st16 st7 st8">specialise in analysing processes to see if they can be </tspan><tspan x="0" y="60" class="st16 st7 st8">digitised and automated.</tspan></text>
</g>
<g>
	<rect x="510" y="2236" class="st6" width="390" height="238.4"/>
	<text transform="matrix(1 0 0 1 510 2247.3589)"><tspan x="0" y="0" class="st0 st7 st8">Global Access</tspan><tspan x="0" y="20" class="st16 st7 st8">Flux is an entirely cloud based system that is accessible </tspan><tspan x="0" y="40" class="st16 st7 st8">from any device, anywhere in the world, at any time. The </tspan><tspan x="0" y="60" class="st16 st7 st8">system synchronises in real time; if you add a sale on </tspan><tspan x="0" y="80" class="st16 st7 st8">your mobile device everyone in the office will see their </tspan><tspan x="0" y="100" class="st16 st7 st8">screens update to reflect the sale immediately. We also </tspan><tspan x="0" y="120" class="st16 st7 st8">offer Flux as a local server based system if customers </tspan><tspan x="0" y="140" class="st16 st7 st8">prefer to host the system locally.</tspan></text>
</g>
<g>
	<rect x="60" y="1010" class="st6" width="840" height="78.5"/>
	<text transform="matrix(1 0 0 1 60 1026.3296)"><tspan x="0" y="0" class="st16 st7 st14">Flux is built on a single database that enables users to have a personalised dashboard </tspan><tspan x="0" y="29" class="st16 st7 st14">showing all relevant activities occurring in real time on any device, anywhere in the </tspan><tspan x="0" y="58" class="st16 st7 st14">world.</tspan></text>
</g>
<g>
	<rect x="60.8" y="967" class="st6" width="326.2" height="27.8"/>
	<text transform="matrix(1 0 0 1 60.7607 993.2695)" class="st0 st11 st12 st13">solutions</text>
</g>
<g>
	<rect x="60" y="1151" class="st6" width="836" height="46.5"/>
	<text transform="matrix(1 0 0 1 60 1167.3574)" class="st16 st9 st14">Core components of the system reflect the requirements of any business</text>
</g>
<g>
	<rect x="707.9" y="1418.1" class="st6" width="191.3" height="64.6"/>
	<text transform="matrix(1 0 0 1 707.8889 1430.1772)" class="st0 st7 st21">Employee analytics</text>
</g>
<g>
	<path class="st15" d="M369.6,1211.8c-12.3,0-16.1,1.5-19,4.4c-2.3,2.3-3,5.2-3,12.4v16.6c0,7.2,0.7,10.1,3,12.4
		c2.9,2.9,6.7,4.4,19,4.4h6.1c12.3,0,16.1-1.5,19-4.4c2.3-2.3,3-5.2,3-12.4v-16.6c0-7.2-0.7-10.1-3-12.4c-2.9-2.9-6.7-4.4-19-4.4
		H369.6z"/>
	<g>
		<g>
			<path class="st16" d="M372.7,1258L372.7,1258c-0.2,0-0.5-0.1-0.7-0.2c-0.1,0-0.1-0.1-0.2-0.1l-16.8-10.5
				c-0.4-0.3-0.6-0.7-0.6-1.2v-17.9c0,0,0-0.1,0-0.1c0-0.5,0.3-0.9,0.7-1.1c0,0,0,0,0,0l16.9-10.5c0.4-0.3,1-0.3,1.5,0l16.9,10.5
				c0,0,0,0,0,0c0.4,0.2,0.7,0.7,0.7,1.1c0,0,0,0.1,0,0.1v17.9c0,0.5-0.2,0.9-0.6,1.2l-16.8,10.5c-0.1,0-0.1,0.1-0.2,0.1
				C373.2,1258,372.9,1258,372.7,1258z M357.1,1245.3l14.2,8.9v-14.7l-14.2-8.8V1245.3z M374.1,1239.5v14.7l14.2-8.9v-14.6
				L374.1,1239.5z M366.7,1233.4l6,3.7l14.3-8.9l-6.1-3.8L366.7,1233.4z M358.4,1228.2l5.7,3.6l14.2-9l-5.7-3.5L358.4,1228.2z"/>
		</g>
	</g>
</g>
<g>
	<rect x="425" y="1213.5" class="st6" width="186.8" height="64.6"/>
	<text transform="matrix(1 0 0 1 424.9644 1225.5991)" class="st0 st7 st21">Stock Management</text>
</g>
<g>
	<path class="st15" d="M82.3,1320.5c-12.4,0-16.2,1.5-19.1,4.4c-2.3,2.3-3,5.2-3,12.5v16.7c0,7.3,0.7,10.2,3,12.5
		c2.9,2.9,6.7,4.4,19.1,4.4h6.2c12.4,0,16.2-1.5,19.1-4.4c2.3-2.3,3-5.2,3-12.5v-16.7c0-7.3-0.7-10.2-3-12.5
		c-2.9-2.9-6.7-4.4-19.1-4.4H82.3z"/>
	<g>
		<path class="st16" d="M98.3,1362.9h-26c-0.8,0-1.4-0.6-1.4-1.4v-32.2c0-0.8,0.6-1.4,1.4-1.4h17.4c0.1,0,0.1,0,0.2,0l0,0h0l0,0h0h0
			h0h0l0,0c0.1,0,0.1,0,0.2,0l0,0l0,0l0,0c0.2,0.1,0.5,0.2,0.6,0.4l8.6,9c0.2,0.3,0.4,0.6,0.4,1l0,23.2
			C99.7,1362.3,99.1,1362.9,98.3,1362.9z M73.8,1360.2H97l0-20.4h-7.2c-0.8,0-1.4-0.6-1.4-1.4v-7.6H73.8V1360.2z M91.2,1337h3.9
			l-3.9-4.1V1337z M92.9,1356.2H77.8c-0.8,0-1.4-0.6-1.4-1.4c0-0.8,0.6-1.4,1.4-1.4h15.2c0.8,0,1.4,0.6,1.4,1.4
			C94.3,1355.6,93.7,1356.2,92.9,1356.2z M92.9,1350.9H77.8c-0.8,0-1.4-0.6-1.4-1.4c0-0.8,0.6-1.4,1.4-1.4h15.2
			c0.8,0,1.4,0.6,1.4,1.4C94.3,1350.3,93.7,1350.9,92.9,1350.9z M92.9,1345.9H77.8c-0.8,0-1.4-0.6-1.4-1.4c0-0.8,0.6-1.4,1.4-1.4
			h15.2c0.8,0,1.4,0.6,1.4,1.4C94.3,1345.3,93.7,1345.9,92.9,1345.9z"/>
	</g>
</g>
<g>
	<path class="st15" d="M369.8,1320.5c-12.4,0-16.2,1.5-19.1,4.4c-2.3,2.3-3,5.2-3,12.5v16.7c0,7.3,0.7,10.2,3,12.5
		c2.9,2.9,6.7,4.4,19.1,4.4h6.2c12.4,0,16.2-1.5,19.1-4.4c2.3-2.3,3-5.2,3-12.5v-16.7c0-7.3-0.7-10.2-3-12.5
		c-2.9-2.9-6.7-4.4-19.1-4.4H369.8z"/>
	<g>
		<path class="st16" d="M360.3,1361c-0.5,0-1-0.3-1.2-0.8l-5.5-11.1c-0.3-0.7-0.1-1.5,0.6-1.9c0.7-0.3,1.5-0.1,1.9,0.6l4.2,8.4
			l10.1-24.1c0.2-0.5,0.7-0.8,1.2-0.8c0.5,0,1,0.3,1.3,0.7l9.2,17l4.1-7.7c0.3-0.5,0.8-0.7,1.3-0.7c0.5,0,1,0.3,1.2,0.8l3.6,8
			c0.3,0.7,0,1.5-0.7,1.8c-0.7,0.3-1.5,0-1.8-0.7l-2.4-5.4l-4,7.4c-0.2,0.5-0.7,0.7-1.2,0.7h0c-0.5,0-1-0.3-1.2-0.7l-9-16.7
			l-10.2,24.2C361.4,1360.6,360.9,1360.9,360.3,1361C360.3,1361,360.3,1361,360.3,1361z"/>
	</g>
</g>
<g>
	<path class="st15" d="M656.7,1211.8c-12.4,0-16.2,1.5-19.1,4.4c-2.3,2.3-3,5.2-3,12.5v16.7c0,7.3,0.7,10.2,3,12.5
		c2.9,2.9,6.7,4.4,19.1,4.4h6.2c12.4,0,16.2-1.5,19.1-4.4c2.3-2.3,3-5.2,3-12.5v-16.7c0-7.3-0.7-10.2-3-12.5
		c-2.9-2.9-6.7-4.4-19.1-4.4H656.7z"/>
	<g>
		<path class="st16" d="M672.5,1250.5c-0.6,0-1.1-0.4-1.3-0.9l-2.1-5.3h-10.8c-3.1,0-5.7-2.5-5.7-5.7v-10.8c0-3.1,2.5-5.7,5.7-5.7
			h16.6c3.1,0,5.7,2.5,5.7,5.7v10.8c0,3-2.3,5.4-5.2,5.6l-1.6,5.3C673.7,1250.1,673.2,1250.5,672.5,1250.5
			C672.6,1250.5,672.6,1250.5,672.5,1250.5z M658.4,1224.9c-1.6,0-2.9,1.3-2.9,2.9v10.8c0,1.6,1.3,2.9,2.9,2.9h11.8
			c0.6,0,1.1,0.4,1.3,0.9l0.9,2.4l0.7-2.3c0.2-0.6,0.7-1,1.3-1h0.6c1.6,0,2.9-1.3,2.9-2.9v-10.8c0-1.6-1.3-2.9-2.9-2.9H658.4z"/>
	</g>
	<g>
		<path class="st16" d="M663.1,1242.9c-0.6,0.1-1.3,0.1-2.1,0.2v0.9c0,1.3-1.1,2.3-2.4,2.3h-10.3c-0.6,0-1.1,0.4-1.3,0.9l-0.6,1.6
			l-0.5-1.5c-0.2-0.6-0.7-1-1.3-1h-0.5c-1.3,0-2.4-1.1-2.4-2.3v-9.4c0-1.3,1.1-2.4,2.4-2.4h10.3c0-0.9,0-1.9-0.1-2.8h-10.2
			c-2.8,0-5.1,2.3-5.1,5.1v9.4c0,2.6,2,4.8,4.6,5.1l1.3,4.5c0.2,0.6,0.7,1,1.3,1c0,0,0,0,0.1,0c0.6,0,1.1-0.4,1.3-0.9l1.8-4.6h9.3
			c2.8,0,5.1-2.3,5.1-5.1v-1.3C663.5,1242.8,663.3,1242.9,663.1,1242.9"/>
	</g>
</g>
<g>
	<rect x="707.9" y="1213.5" class="st6" width="191.3" height="64.6"/>
	<text transform="matrix(1 0 0 1 707.8889 1225.5991)" class="st0 st7 st21">CRM</text>
</g>
<g>
	<path class="st15" d="M656.7,1416.2c-12.4,0-16.2,1.5-19.1,4.4c-2.3,2.3-3,5.2-3,12.5v16.7c0,7.3,0.7,10.2,3,12.5
		c2.9,2.9,6.7,4.4,19.1,4.4h6.2c12.4,0,16.2-1.5,19.1-4.4c2.3-2.3,3-5.2,3-12.5v-16.7c0-7.3-0.7-10.2-3-12.5
		c-2.9-2.9-6.7-4.4-19.1-4.4H656.7z"/>
	<g>
		<path class="st16" d="M670.2,1458.9h-20.8c-0.7,0-1.4-0.6-1.4-1.3c0-0.4-0.3-10.8,4.7-15.9c1.8-1.9,4.1-2.9,6.9-2.9
			c0.1,0,0.2,0,0.2,0c0.1,0,0.2,0,0.2,0c2.7,0,5,1,6.9,2.9c5,5.1,4.7,15.5,4.7,15.9C671.6,1458.3,671,1458.9,670.2,1458.9z
			 M650.8,1456.1h18c-0.1-2.8-0.7-9.2-3.9-12.5c-1.3-1.4-2.9-2-4.9-2c-0.1,0-0.2,0-0.2,0c-0.1,0-0.2,0-0.2,0c-2,0-3.5,0.7-4.9,2
			C651.5,1446.9,650.9,1453.3,650.8,1456.1z M659.8,1435.8c-3.3,0-5.9-2.7-5.9-5.9c0-3.3,2.7-5.9,5.9-5.9c3.3,0,5.9,2.7,5.9,5.9
			C665.7,1433.1,663.1,1435.8,659.8,1435.8z M659.8,1426.7c-1.7,0-3.2,1.4-3.2,3.1c0,1.7,1.4,3.1,3.2,3.1c1.7,0,3.2-1.4,3.2-3.1
			C663,1428.1,661.5,1426.7,659.8,1426.7z"/>
	</g>
</g>
<g>
	<path class="st15" d="M656.7,1320.6c-12.4,0-16.2,1.5-19.1,4.4c-2.3,2.3-3,5.2-3,12.5v16.7c0,7.3,0.7,10.2,3,12.5
		c2.9,2.9,6.7,4.4,19.1,4.4h6.2c12.4,0,16.2-1.5,19.1-4.4c2.3-2.3,3-5.2,3-12.5v-16.7c0-7.3-0.7-10.2-3-12.5
		c-2.9-2.9-6.7-4.4-19.1-4.4H656.7z"/>
	<g>
		<path class="st16" d="M667,1359.6c-0.9,0.5-2.1,0.9-4.5,0.9c-5.2,0-8.4-3.3-9.4-9.1h-2.7c-0.5,0-0.8-0.3-0.8-0.8v-1.3
			c0-0.6,0.3-0.9,0.8-0.9h2.4c0-0.6,0-1.1,0-1.7c0-0.4,0-0.9,0-1.3h-2.4c-0.5,0-0.8-0.3-0.8-0.8v-1.3c0-0.6,0.3-0.9,0.8-0.9h2.7
			c1.1-5.8,4.6-9.2,9.6-9.2c1.6,0,3.2,0.2,4.3,0.9c0.4,0.2,0.4,0.7,0.3,1.2l-0.4,1.4c-0.1,0.4-0.6,0.6-1.1,0.3
			c-0.9-0.4-1.8-0.8-3.1-0.8c-3.5,0-5.5,1.9-6.3,6.1h6.2c0.6,0,0.9,0.3,0.9,0.9v1.3c0,0.5-0.3,0.8-0.9,0.8h-6.5c0,0.4,0,0.9,0,1.3
			c0,0.6,0,1.2,0,1.7h6.5c0.6,0,0.9,0.3,0.9,0.9v1.3c0,0.5-0.3,0.8-0.9,0.8h-6.1c0.9,4.2,3.1,6,6.1,6c1.1,0,2.6-0.4,3.3-0.8
			c0.5-0.2,0.9-0.1,1,0.3l0.3,1.7C667.5,1359.1,667.3,1359.4,667,1359.6"/>
	</g>
</g>
<g>
	<path class="st15" d="M369.8,1416.2c-12.4,0-16.2,1.5-19.1,4.4c-2.3,2.3-3,5.2-3,12.5v16.7c0,7.3,0.7,10.2,3,12.5
		c2.9,2.9,6.7,4.4,19.1,4.4h6.2c12.4,0,16.2-1.5,19.1-4.4c2.3-2.3,3-5.2,3-12.5v-16.7c0-7.3-0.7-10.2-3-12.5
		c-2.9-2.9-6.7-4.4-19.1-4.4H369.8z"/>
	<g>
		<path class="st16" d="M383.4,1460.1c-0.8,0-1.4-0.6-1.4-1.4v-1.3c-1.2-0.2-2.4-0.7-3.4-1.4l-0.9,0.9c-0.5,0.5-1.4,0.5-2,0
			c-0.5-0.5-0.5-1.4,0-2l0.9-0.9c-0.7-1-1.3-2.2-1.5-3.4H374c-0.8,0-1.4-0.6-1.4-1.4s0.6-1.4,1.4-1.4h1.1c0.2-1.3,0.7-2.5,1.4-3.6
			l-0.8-0.8c-0.5-0.5-0.5-1.4,0-2c0.5-0.5,1.4-0.5,2,0l0.7,0.7c1-0.8,2.3-1.3,3.6-1.5v-1c0-0.8,0.6-1.4,1.4-1.4
			c0.8,0,1.4,0.6,1.4,1.4v1c1.3,0.2,2.5,0.8,3.6,1.5l0.7-0.7c0.5-0.5,1.4-0.5,2,0c0.5,0.5,0.5,1.4,0,2l-0.8,0.8
			c0.7,1,1.2,2.2,1.4,3.6h1.1c0.8,0,1.4,0.6,1.4,1.4s-0.6,1.4-1.4,1.4h-1.2c-0.2,1.3-0.8,2.4-1.5,3.4l0.9,0.9c0.5,0.5,0.5,1.4,0,2
			c-0.5,0.5-1.4,0.5-2,0l-0.9-0.9c-1,0.7-2.2,1.2-3.4,1.4v1.3C384.8,1459.4,384.2,1460.1,383.4,1460.1z M383.4,1443.4
			c-3.1,0-5.6,2.5-5.6,5.6c0,3.1,2.5,5.6,5.6,5.6s5.6-2.5,5.6-5.6C389.1,1446,386.5,1443.4,383.4,1443.4z M364.1,1449.8
			c-0.8,0-1.4-0.6-1.4-1.4v-2.1c-1.8-0.2-3.4-0.9-4.8-1.9l-1.4,1.4c-0.5,0.5-1.4,0.5-2,0c-0.5-0.5-0.5-1.4,0-2l1.4-1.4
			c-1.1-1.4-1.8-3-2.1-4.8H352c-0.8,0-1.4-0.6-1.4-1.4c0-0.8,0.6-1.4,1.4-1.4h1.8c0.2-1.9,0.9-3.6,2-5l-1.2-1.2
			c-0.5-0.5-0.5-1.4,0-2c0.5-0.5,1.4-0.5,2,0l1.2,1.2c1.4-1.1,3.2-1.9,5-2.1v-1.6c0-0.8,0.6-1.4,1.4-1.4c0.8,0,1.4,0.6,1.4,1.4v1.6
			c1.9,0.3,3.6,1,5,2.1l1.2-1.2c0.5-0.5,1.4-0.5,2,0s0.5,1.4,0,2l-1.2,1.2c1.1,1.4,1.8,3.1,2,5h1.8c0.8,0,1.4,0.6,1.4,1.4
			c0,0.8-0.6,1.4-1.4,1.4h-1.9c-0.3,1.8-1,3.4-2.1,4.8l1.4,1.4c0.5,0.5,0.5,1.4,0,2c-0.5,0.5-1.4,0.5-2,0l-1.4-1.4
			c-1.4,1-3,1.7-4.8,1.9v2.1C365.5,1449.2,364.9,1449.8,364.1,1449.8z M364.1,1428.4c-4.2,0-7.6,3.4-7.6,7.6c0,4.2,3.4,7.6,7.6,7.6
			c4.2,0,7.6-3.4,7.6-7.6C371.7,1431.9,368.3,1428.4,364.1,1428.4z"/>
	</g>
</g>
<g>
	<path class="st15" d="M82.3,1416.2c-12.4,0-16.2,1.5-19.1,4.4c-2.3,2.3-3,5.2-3,12.5v16.7c0,7.3,0.7,10.2,3,12.5
		c2.9,2.9,6.7,4.4,19.1,4.4h6.2c12.4,0,16.2-1.5,19.1-4.4c2.3-2.3,3-5.2,3-12.5v-16.7c0-7.3-0.7-10.2-3-12.5
		c-3-2.9-6.7-4.4-19.1-4.4H82.3z"/>
	<g>
		<g>
			<path class="st16" d="M77.6,1449.8c-0.3,0-0.5-0.1-0.7-0.2l-10.4-6.5c-0.4-0.3-0.7-0.7-0.6-1.2c0-0.5,0.2-0.9,0.6-1.2l10.4-6.5
				c0.6-0.4,1.5-0.2,1.9,0.4c0.4,0.6,0.2,1.5-0.4,1.9l-8.6,5.4l8.6,5.4c0.6,0.4,0.8,1.3,0.4,1.9
				C78.5,1449.5,78.1,1449.8,77.6,1449.8z"/>
		</g>
		<g>
			<path class="st16" d="M81.5,1453.7c-0.1,0-0.3,0-0.4-0.1c-0.7-0.2-1-1-0.8-1.7l7.8-21.3c0.2-0.7,1-1,1.7-0.8c0.7,0.2,1,1,0.8,1.7
				l-7.8,21.3C82.6,1453.4,82.1,1453.7,81.5,1453.7z"/>
		</g>
		<g>
			<path class="st16" d="M93.1,1449.8c-0.5,0-0.9-0.2-1.2-0.6c-0.4-0.6-0.2-1.5,0.4-1.9l8.6-5.4l-8.6-5.4c-0.6-0.4-0.8-1.3-0.4-1.9
				c0.4-0.6,1.3-0.8,1.9-0.4l10.4,6.5c0.4,0.3,0.7,0.7,0.6,1.2c0,0.5-0.2,0.9-0.6,1.2l-10.4,6.5
				C93.6,1449.7,93.4,1449.8,93.1,1449.8z"/>
		</g>
	</g>
</g>
<g>
	<g>
		<path class="st15" d="M82.3,1211.8c-12.4,0-16.2,1.5-19.1,4.4c-2.3,2.3-3,5.2-3,12.5v16.7c0,7.3,0.7,10.2,3,12.5
			c2.9,2.9,6.7,4.4,19.1,4.4h6.2c12.4,0,16.2-1.5,19.1-4.4c2.3-2.3,3-5.2,3-12.5v-16.7c0-7.3-0.7-10.2-3-12.5
			c-2.9-2.9-6.7-4.4-19.1-4.4H82.3z"/>
		<g>
			<g>
				<path class="st16" d="M104.5,1250.8H66.3c-0.8,0-1.4-0.6-1.4-1.4v-24.8c0-0.8,0.6-1.4,1.4-1.4h38.2c0.8,0,1.4,0.6,1.4,1.4v24.8
					C105.8,1250.2,105.2,1250.8,104.5,1250.8z M67.7,1248.1h35.4v-22H67.7V1248.1z M80.4,1245.1h-8.9c-0.8,0-1.4-0.6-1.4-1.3
					c0-0.5-0.1-5,2.2-7.4c0.9-1,2.1-1.5,3.5-1.5c0,0,0.1,0,0.1,0c1.4-0.1,2.7,0.5,3.6,1.5c2.3,2.4,2.2,6.9,2.2,7.4
					C81.7,1244.5,81.1,1245.1,80.4,1245.1z M72.9,1242.4h6c-0.1-1.3-0.5-3.1-1.4-4c-0.4-0.4-1-0.6-1.6-0.6c-0.6,0.1-1.2,0.2-1.6,0.6
					C73.4,1239.3,73.1,1241,72.9,1242.4z M99.1,1243.5H85.7c-0.8,0-1.4-0.6-1.4-1.4s0.6-1.4,1.4-1.4h13.4c0.8,0,1.4,0.6,1.4,1.4
					S99.8,1243.5,99.1,1243.5z M99.1,1237.9H85.7c-0.8,0-1.4-0.6-1.4-1.4s0.6-1.4,1.4-1.4h13.4c0.8,0,1.4,0.6,1.4,1.4
					S99.8,1237.9,99.1,1237.9z M99.1,1232.5H85.7c-0.8,0-1.4-0.6-1.4-1.4c0-0.8,0.6-1.4,1.4-1.4h13.4c0.8,0,1.4,0.6,1.4,1.4
					C100.4,1231.9,99.8,1232.5,99.1,1232.5z"/>
			</g>
		</g>
		<g>
			<path class="st16" d="M75.9,1228.5c-2.1,0-3.8,1.7-3.8,3.8c0,2.1,1.7,3.8,3.8,3.8c2.1,0,3.8-1.7,3.8-3.8
				C79.7,1230.2,78,1228.5,75.9,1228.5 M75.9,1230.8c0.8,0,1.5,0.7,1.5,1.5c0,0.8-0.7,1.5-1.5,1.5c-0.8,0-1.5-0.7-1.5-1.5
				C74.4,1231.5,75.1,1230.8,75.9,1230.8"/>
		</g>
	</g>
	<g>
		<rect x="134.5" y="1213.5" class="st6" width="183.6" height="85.9"/>
		<text transform="matrix(1 0 0 1 134.5476 1225.5991)"><tspan x="0" y="0" class="st0 st7 st21">Accounts, including real </tspan><tspan x="0" y="20" class="st0 st7 st21">time trial balance, </tspan><tspan x="0" y="40" class="st0 st7 st21">balance sheet, P&amp;L, and </tspan><tspan x="0" y="60" class="st0 st7 st21">cash-ﬂow</tspan></text>
	</g>
	<line class="st22" x1="60" y1="1197.5" x2="320" y2="1197.5"/>
</g>
<line class="st22" x1="348" y1="1197.5" x2="608" y2="1197.5"/>
<line class="st22" x1="635" y1="1197.5" x2="896" y2="1197.5"/>
<g>
	<rect x="425" y="1322.5" class="st6" width="186.8" height="64.6"/>
	<text transform="matrix(1 0 0 1 424.9644 1334.5366)" class="st0 st7 st21">Analytics</text>
</g>
<g>
	<rect x="707.9" y="1322.5" class="st6" width="191.3" height="64.6"/>
	<text transform="matrix(1 0 0 1 707.8889 1334.5366)"><tspan x="0" y="0" class="st0 st7 st21">Integrated electronic </tspan><tspan x="0" y="20" class="st0 st7 st21">payment system</tspan></text>
</g>
<g>
	<rect x="134.5" y="1322.5" class="st6" width="183.6" height="85.9"/>
	<text transform="matrix(1 0 0 1 134.5476 1334.5366)" class="st0 st7 st21">Invoicing/contracts</text>
</g>
<g>
	<rect x="425" y="1418.1" class="st6" width="186.8" height="64.6"/>
	<text transform="matrix(1 0 0 1 424.9644 1430.1772)" class="st0 st7 st21">Workﬂow management</text>
</g>
<g>
	<rect x="134.5" y="1418.1" class="st6" width="183.6" height="85.9"/>
	<text transform="matrix(1 0 0 1 134.5476 1430.1772)"><tspan x="0" y="0" class="st0 st7 st21">Web based HTML5 </tspan><tspan x="0" y="20" class="st0 st7 st21">Customer/Supplier </tspan><tspan x="0" y="40" class="st0 st7 st21">interface</tspan></text>
</g>
<line class="st22" x1="60" y1="1306.5" x2="320" y2="1306.5"/>
<line class="st22" x1="348" y1="1306.5" x2="608" y2="1306.5"/>
<line class="st22" x1="635" y1="1306.5" x2="896" y2="1306.5"/>
<line class="st22" x1="60" y1="1401.5" x2="320" y2="1401.5"/>
<line class="st22" x1="348" y1="1401.5" x2="608" y2="1401.5"/>
<line class="st22" x1="635" y1="1401.5" x2="896" y2="1401.5"/>
<rect x="59" y="1896" class="st5" width="276" height="144"/>
<g>
	<text transform="matrix(1 0 0 1 66.0732 2007.3838)" class="st3 st7 st21">Logistics – domestic &amp; international </text>
</g>
<g>
	<path class="st17" d="M213.7,1928.8c-3-3-6.8-4.6-19.1-4.6h-2.3H191h-2.3c-12.3,0-16.1,1.6-19.1,4.6c-2.5,2.5-3.3,5.7-3.3,12.9
		v15.9c0,7.1,0.7,10.3,3.3,12.9c3,3,6.8,4.6,19.1,4.6h2.3h1.3h2.3c12.4,0,16.1-1.6,19.1-4.6c2.6-2.5,3.3-5.7,3.3-12.9v-15.9
		C217,1934.5,216.3,1931.3,213.7,1928.8"/>
	<g>
		<g>
			<path class="st16" d="M191.6,1967.5c-9.9,0-17.9-8-17.9-17.9c0-9.9,8-17.9,17.9-17.9c9.9,0,17.9,8,17.9,17.9
				C209.5,1959.5,201.5,1967.5,191.6,1967.5z M176.5,1950.8c0.6,7.9,7.2,14.1,15.2,14.1c8,0,14.5-6.2,15.2-14L176.5,1950.8z
				 M176.5,1948.2l30.3,0.1c-0.7-7.8-7.2-13.9-15.2-13.9C183.7,1934.3,177.2,1940.4,176.5,1948.2z"/>
		</g>
	</g>
	<g>
		<g>
			<path class="st16" d="M191.6,1967.5c-0.3,0-0.6-0.1-0.9-0.3c-6.2-5.3-9.3-11.1-9.2-17.2c0.1-9.1,7.3-15.9,9-17.3
				c0.1-0.3,0.4-0.5,0.6-0.6c0.5-0.2,1-0.1,1.4,0.2c6.2,5.3,9.3,11.1,9.2,17.2c-0.1,9.1-7.3,15.9-9,17.3c-0.1,0.3-0.4,0.5-0.6,0.6
				C192,1967.4,191.8,1967.5,191.6,1967.5z M190.3,1936.5c-2.4,2.7-6.1,7.6-6.2,13.5c-0.1,4.5,2,8.9,6.1,13.1L190.3,1936.5z
				 M193,1936.2l-0.1,26.6c2.4-2.7,6.1-7.6,6.2-13.5C199.2,1944.8,197.1,1940.4,193,1936.2z"/>
		</g>
	</g>
</g>
<rect x="623" y="1896" class="st5" width="276" height="144"/>
<g>
	<text transform="matrix(1 0 0 1 676.0188 2007.3838)"><tspan x="0" y="0" class="st3 st7 st21">Currency management/ </tspan><tspan x="24.3" y="20" class="st3 st7 st21">trading/hedging </tspan></text>
</g>
<rect x="342" y="1896" class="st5" width="275" height="144"/>
<rect x="60" y="2046" class="st5" width="276" height="145"/>
<rect x="624" y="2046" class="st5" width="276" height="145"/>
<rect x="342" y="2046" class="st5" width="275" height="145"/>
<g>
	<text transform="matrix(1 0 0 1 400.1797 2007.3838)" class="st3 st7 st21">Storage/warehousing </text>
</g>
<g>
	<g>
		<path class="st17" d="M506.6,1928.8c-3-3-6.8-4.6-19.1-4.6h-2.3h-1.3h-2.3c-12.3,0-16.1,1.6-19.1,4.6c-2.5,2.5-3.3,5.7-3.3,12.9
			v15.9c0,7.1,0.7,10.3,3.3,12.9c3,3,6.8,4.6,19.1,4.6h2.3h1.3h2.3c12.4,0,16.1-1.6,19.1-4.6c2.5-2.5,3.3-5.7,3.3-12.9v-15.9
			C509.9,1934.5,509.2,1931.3,506.6,1928.8"/>
	</g>
	<g>
		<g>
			<path class="st16" d="M493.4,1968.9h-17.7c-3.7,0-6.7-3-6.7-6.7v-16.2c0-1.1,0.3-2.1,0.7-3c0.4-0.9,0.9-1.7,1.6-2.4l8-8
				c1.4-1.4,3.2-2.2,5.2-2.2c2,0,3.8,0.8,5.2,2.2l8,8c0.7,0.7,1.2,1.5,1.6,2.4c0.5,0.9,0.7,2,0.7,3v16.2
				C500.1,1965.9,497.1,1968.9,493.4,1968.9z M484.6,1933c-1.2,0-2.4,0.5-3.3,1.4l-8,8c-0.5,0.5-0.8,1-1,1.6l-0.1,0.1
				c-0.3,0.6-0.5,1.2-0.5,1.9v16.2c0,2.2,1.8,4,4,4h17.7c2.2,0,4-1.8,4-4v-16.2c0-0.7-0.2-1.3-0.5-1.9l-0.1-0.1
				c-0.2-0.6-0.6-1.1-1-1.6l-8-8C487,1933.4,485.8,1933,484.6,1933z"/>
		</g>
		<g>
			<path class="st16" d="M494.1,1963.9h-3.9c-0.7,0-1.2-0.5-1.2-1.2v-3.6c0-0.7,0.5-1.2,1.2-1.2h3.9c0.7,0,1.2,0.5,1.2,1.2v3.6
				C495.3,1963.4,494.7,1963.9,494.1,1963.9z M491.3,1961.5h1.5v-1.1h-1.5V1961.5z M486.7,1963.9h-3.9c-0.7,0-1.2-0.5-1.2-1.2v-3.6
				c0-0.7,0.5-1.2,1.2-1.2h3.9c0.7,0,1.2,0.5,1.2,1.2v3.6C487.9,1963.4,487.4,1963.9,486.7,1963.9z M484,1961.5h1.5v-1.1H484V1961.5
				z M479.2,1963.9h-3.9c-0.7,0-1.2-0.5-1.2-1.2v-3.6c0-0.7,0.5-1.2,1.2-1.2h3.9c0.7,0,1.2,0.5,1.2,1.2v3.6
				C480.4,1963.4,479.9,1963.9,479.2,1963.9z M476.5,1961.5h1.5v-1.1h-1.5V1961.5z M494.1,1956.8h-3.9c-0.7,0-1.2-0.5-1.2-1.2v-3.6
				c0-0.7,0.5-1.2,1.2-1.2h3.9c0.7,0,1.2,0.5,1.2,1.2v3.6C495.3,1956.3,494.7,1956.8,494.1,1956.8z M491.3,1954.4h1.5v-1.1h-1.5
				V1954.4z M486.7,1956.8h-3.9c-0.7,0-1.2-0.5-1.2-1.2v-3.6c0-0.7,0.5-1.2,1.2-1.2h3.9c0.7,0,1.2,0.5,1.2,1.2v3.6
				C487.9,1956.3,487.4,1956.8,486.7,1956.8z M484,1954.4h1.5v-1.1H484V1954.4z M494.1,1949.6h-3.9c-0.7,0-1.2-0.5-1.2-1.2v-3.6
				c0-0.7,0.5-1.2,1.2-1.2h3.9c0.7,0,1.2,0.5,1.2,1.2v3.6C495.3,1949.1,494.7,1949.6,494.1,1949.6z M491.3,1947.2h1.5v-1.1h-1.5
				V1947.2z"/>
		</g>
	</g>
</g>
<g>
	<text transform="matrix(1 0 0 1 110.7087 2157.3477)"><tspan x="0" y="0" class="st3 st7 st21">Futures management/ </tspan><tspan x="18.9" y="20" class="st3 st7 st21">trading/hedging </tspan></text>
</g>
<g>
	<text transform="matrix(1 0 0 1 708.3015 2157.3477)" class="st3 st7 st21">Quality control</text>
</g>
<g>
	<text transform="matrix(1 0 0 1 346.418 2157.3477)"><tspan x="0" y="0" class="st3 st7 st21">Dynamic trading book with scenario/ </tspan><tspan x="56.6" y="20" class="st3 st7 st21">Monte-Carlo analysis </tspan></text>
</g>
<g>
	<path class="st17" d="M784.3,1928.8c-3-3-6.8-4.6-19.1-4.6h-2.3h-1.3h-2.3c-12.3,0-16.1,1.6-19.1,4.6c-2.5,2.5-3.3,5.7-3.3,12.9
		v15.9c0,7.1,0.7,10.3,3.3,12.9c3,3,6.8,4.6,19.1,4.6h2.3h1.3h2.3c12.4,0,16.1-1.6,19.1-4.6c2.6-2.5,3.3-5.7,3.3-12.9v-15.9
		C787.6,1934.5,786.9,1931.3,784.3,1928.8"/>
	<path class="st16" d="M770.9,1963.2c-1,0.5-2.2,1-4.8,1c-5.5,0-8.8-3.5-9.9-9.7h-2.9c-0.6,0-0.9-0.3-0.9-0.9v-1.4
		c0-0.6,0.3-0.9,0.9-0.9h2.5c0-0.6,0-1.2,0-1.8c0-0.5,0-0.9,0-1.4h-2.5c-0.6,0-0.9-0.3-0.9-0.9v-1.4c0-0.6,0.3-0.9,0.9-0.9h2.9
		c1.2-6.2,4.9-9.7,10.2-9.7c1.7,0,3.4,0.3,4.6,0.9c0.4,0.3,0.5,0.7,0.3,1.2l-0.4,1.5c-0.1,0.5-0.6,0.6-1.1,0.3c-1-0.5-2-0.8-3.3-0.8
		c-3.7,0-5.9,2-6.6,6.5h6.5c0.6,0,0.9,0.3,0.9,0.9v1.4c0,0.6-0.3,0.9-0.9,0.9h-6.8c0,0.5,0,0.9,0,1.4c0,0.6,0,1.2,0,1.8h6.8
		c0.6,0,0.9,0.3,0.9,0.9v1.4c0,0.6-0.3,0.9-0.9,0.9H760c0.9,4.4,3.2,6.4,6.4,6.4c1.1,0,2.8-0.5,3.5-0.8c0.5-0.3,1-0.1,1.1,0.3
		l0.3,1.8C771.4,1962.7,771.3,1963,770.9,1963.2"/>
</g>
<g>
	<path class="st17" d="M213.7,2078.7c-3-3-6.8-4.6-19.1-4.6h-2.3H191h-2.3c-12.3,0-16.1,1.6-19.1,4.6c-2.5,2.5-3.3,5.7-3.3,12.9
		v15.9c0,7.1,0.7,10.3,3.3,12.9c3,3,6.8,4.6,19.1,4.6h2.3h1.3h2.3c12.4,0,16.1-1.6,19.1-4.6c2.6-2.5,3.3-5.7,3.3-12.9v-15.9
		C217,2084.5,216.3,2081.3,213.7,2078.7"/>
	<g>
		<g>
			<path class="st16" d="M203.7,2115.6h-7.3c-0.6,0-1.1-0.5-1.1-1.1c0-0.4-0.1-4.1,1.8-6.1c0.8-0.8,1.8-1.3,3-1.2c0,0,0.1,0,0.1,0
				c1.1,0,2.1,0.4,2.9,1.2c1.9,2,1.8,5.6,1.8,6.1C204.8,2115.1,204.3,2115.6,203.7,2115.6z M197.6,2113.3h4.9
				c-0.1-1.1-0.4-2.5-1.1-3.3c-0.4-0.4-0.8-0.5-1.3-0.5c0,0-0.1,0-0.1,0c-0.5,0-0.9,0.2-1.2,0.5
				C198,2110.7,197.7,2112.2,197.6,2113.3z M186.9,2115.6h-7.3c-0.6,0-1.1-0.5-1.1-1.1c0-0.4-0.1-4.1,1.8-6.1
				c0.8-0.8,1.8-1.2,2.9-1.2c0,0,0.1,0,0.1,0c0,0,0.1,0,0.1,0c1.1,0,2.1,0.4,2.9,1.2c1.9,2,1.8,5.6,1.8,6.1
				C188,2115.1,187.5,2115.6,186.9,2115.6z M180.8,2113.3h4.9c-0.1-1.1-0.4-2.5-1.1-3.3c-0.3-0.3-0.7-0.5-1.2-0.5c0,0-0.1,0-0.1,0
				c0,0-0.1,0-0.1,0c-0.5,0-0.9,0.2-1.2,0.5C181.2,2110.7,180.9,2112.2,180.8,2113.3z M194.1,2106.9c-0.3,0-0.6-0.1-0.8-0.4
				l-1.6-1.7l-1.6,1.7c-0.4,0.5-1.2,0.5-1.6,0.1c-0.5-0.4-0.5-1.2-0.1-1.6l2.1-2.2v-2.9c0-0.6,0.5-1.1,1.1-1.1
				c0.6,0,1.1,0.5,1.1,1.1v2.8l2.1,2.3c0.4,0.5,0.4,1.2-0.1,1.6C194.6,2106.8,194.3,2106.9,194.1,2106.9z M200.1,2106.8
				c-1.9,0-3.4-1.5-3.4-3.4c0-1.9,1.5-3.4,3.4-3.4c1.9,0,3.4,1.5,3.4,3.4C203.4,2105.3,201.9,2106.8,200.1,2106.8z M200.1,2102.4
				c-0.6,0-1.1,0.5-1.1,1.1c0,0.6,0.5,1.1,1.1,1.1c0.6,0,1.1-0.5,1.1-1.1C201.1,2102.8,200.7,2102.4,200.1,2102.4z M183.2,2106.8
				c-1.9,0-3.4-1.5-3.4-3.4c0-1.9,1.5-3.4,3.4-3.4c1.9,0,3.4,1.5,3.4,3.4C186.6,2105.3,185.1,2106.8,183.2,2106.8z M183.2,2102.4
				c-0.6,0-1.1,0.5-1.1,1.1c0,0.6,0.5,1.1,1.1,1.1c0.6,0,1.1-0.5,1.1-1.1C184.3,2102.8,183.8,2102.4,183.2,2102.4z M196.4,2098.1
				h-9.4c-0.6,0-1.1-0.5-1.1-1.1c0-0.2-0.1-5.1,2.3-7.6c0.9-1,2.1-1.5,3.5-1.5c0,0,0.1,0,0.1,0c0,0,0.1,0,0.1,0
				c1.4,0,2.5,0.5,3.5,1.5c2.4,2.5,2.3,7.4,2.3,7.6C197.5,2097.6,197,2098.1,196.4,2098.1z M188.1,2095.8h7.1
				c-0.1-1.5-0.5-3.7-1.6-4.8c-0.5-0.5-1.1-0.8-1.8-0.8c0,0-0.1,0-0.1,0c0,0-0.1,0-0.1,0c-0.7,0-1.3,0.2-1.8,0.8
				C188.6,2092.1,188.2,2094.3,188.1,2095.8z M191.6,2087.5c-2.2,0-4-1.8-4-4c0-2.2,1.8-4,4-4c2.2,0,4,1.8,4,4
				C195.7,2085.7,193.9,2087.5,191.6,2087.5z M191.6,2081.7c-1,0-1.7,0.8-1.7,1.7c0,1,0.8,1.7,1.7,1.7c1,0,1.7-0.8,1.7-1.7
				C193.4,2082.5,192.6,2081.7,191.6,2081.7z"/>
		</g>
	</g>
</g>
<g>
	<path class="st17" d="M506.6,2078.7c-3-3-6.8-4.6-19.1-4.6h-2.3h-1.3h-2.3c-12.3,0-16.1,1.6-19.1,4.6c-2.5,2.5-3.3,5.7-3.3,12.9
		v15.9c0,7.1,0.7,10.3,3.3,12.9c3,3,6.8,4.6,19.1,4.6h2.3h1.3h2.3c12.4,0,16.1-1.6,19.1-4.6c2.5-2.5,3.3-5.7,3.3-12.9v-15.9
		C509.9,2084.5,509.2,2081.3,506.6,2078.7"/>
	<g>
		<path class="st16" d="M480.3,2118c-0.4,0-0.7-0.1-1-0.4l-6.3-6.3c0,0,0,0,0,0l0,0c-0.1-0.1-0.2-0.2-0.3-0.4c0,0,0,0,0,0
			c0,0,0,0,0,0c0,0,0,0,0,0c0,0,0,0,0,0l0,0c0,0,0,0,0,0h0c0,0,0,0,0,0c0,0,0,0,0,0s0,0,0,0l0,0c0,0,0,0,0,0l0,0
			c-0.1-0.2-0.1-0.4-0.1-0.6l0,0c0,0,0,0,0,0c0,0,0,0,0,0c0,0,0,0,0,0s0,0,0,0l0,0c0,0,0,0,0,0s0,0,0,0v0l0,0c0,0,0,0,0,0s0,0,0,0v0
			v0v0c0,0,0,0,0,0s0,0,0,0v0l0,0c0,0,0,0,0,0s0,0,0,0v0l0,0c0,0,0,0,0,0l0,0v0l0,0c0,0,0,0,0,0l0,0c0-0.1,0-0.3,0.1-0.4l0,0
			c0,0,0,0,0,0c0,0,0,0,0,0c0,0,0,0,0,0l0,0c0,0,0,0,0,0c0,0,0,0,0,0l0,0c0,0,0,0,0,0s0,0,0,0c0,0,0,0,0,0c0,0,0,0,0,0c0,0,0,0,0,0
			l0,0c0,0,0,0,0,0l0,0c0.1-0.2,0.2-0.3,0.3-0.5l6.3-6.3c0.5-0.5,1.4-0.5,1.9,0c0.5,0.5,0.5,1.4,0,1.9l-3.9,4h23.6
			c0.8,0,1.4,0.6,1.4,1.4s-0.6,1.4-1.4,1.4h-23.6l3.9,4c0.5,0.5,0.5,1.4,0,1.9C481,2117.9,480.7,2118,480.3,2118z M488.8,2102.7
			c-0.4,0-0.7-0.1-1-0.4c-0.5-0.5-0.5-1.4,0-1.9l3.9-4h-23.5c-0.8,0-1.4-0.6-1.4-1.4s0.6-1.4,1.4-1.4h23.5l-3.9-4
			c-0.5-0.5-0.5-1.4,0-1.9c0.5-0.5,1.4-0.5,1.9,0l6.3,6.3c0,0,0,0,0,0l0,0c0,0,0,0,0,0v0c0.1,0.1,0.2,0.3,0.3,0.4l0,0c0,0,0,0,0,0
			c0,0,0,0,0,0c0,0,0,0,0,0s0,0,0,0c0,0,0,0,0,0l0,0l0,0l0,0c0,0,0,0,0,0l0,0l0,0c0,0,0,0,0,0c0,0,0,0,0,0v0c0,0,0,0,0,0v0
			c0,0,0,0,0,0c0,0,0,0,0,0v0c0,0,0,0,0,0v0l0,0l0,0c0,0.1,0.1,0.2,0.1,0.4c0,0,0,0,0,0v0l0,0c0,0,0,0,0,0l0,0c0,0,0,0,0,0
			c0,0,0,0,0,0h0c0,0,0,0,0,0s0,0,0,0v0v0c0,0,0,0,0,0l0,0v0c0,0,0,0,0,0s0,0,0,0l0,0l0,0c0,0,0,0,0,0v0l0,0c0,0,0,0,0,0l0,0v0l0,0
			v0l0,0c0,0.3,0,0.5-0.1,0.7l0,0c0,0,0,0,0,0c0,0,0,0,0,0l0,0h0c0,0,0,0,0,0c0,0,0,0,0,0l0,0c0,0,0,0,0,0c0,0,0,0,0,0l0,0
			c0,0,0,0,0,0l0,0c-0.1,0.1-0.1,0.2-0.2,0.3l0,0l0,0c0,0,0,0,0,0l-6.3,6.3C489.5,2102.5,489.2,2102.7,488.8,2102.7z"/>
	</g>
</g>
<g>
	<path class="st17" d="M784.3,2078.7c-3-3-6.8-4.6-19.1-4.6h-2.3h-1.3h-2.3c-12.3,0-16.1,1.6-19.1,4.6c-2.5,2.5-3.3,5.7-3.3,12.9
		v15.9c0,7.1,0.7,10.3,3.3,12.9c3,3,6.8,4.6,19.1,4.6h2.3h1.3h2.3c12.4,0,16.1-1.6,19.1-4.6c2.6-2.5,3.3-5.7,3.3-12.9v-15.9
		C787.6,2084.5,786.9,2081.3,784.3,2078.7"/>
	<g>
		<path class="st16" d="M755.3,2116.6c-0.4,0-0.8-0.1-1.2-0.4l-9.2-7.2c-0.8-0.6-1-1.8-0.3-2.7c0.6-0.8,1.8-1,2.7-0.3l7.8,6.1
			l22-26.4c0.7-0.8,1.9-0.9,2.7-0.2c0.8,0.7,0.9,1.9,0.2,2.7l-23.2,27.9C756.4,2116.4,755.8,2116.6,755.3,2116.6z"/>
	</g>
</g>
<g>
	<rect x="60" y="2499.7" class="st6" width="838.7" height="40.4"/>
	<text transform="matrix(1 0 0 1 60 2516.0718)" class="st16 st9 st14">Other features</text>
</g>
<g>
	<rect x="60.5" y="2862.6" class="st6" width="168.5" height="34.7"/>
	<text transform="matrix(1 0 0 1 60.5264 2873.9316)" class="st0 st7 st8">Database Snap Shots</text>
</g>
<g>
	<rect x="60.5" y="2911.4" class="st6" width="177.9" height="126.3"/>
	<text transform="matrix(1 0 0 1 60.5264 2921.2979)"><tspan x="0" y="0" class="st23 st7 st24">Take fully functional point in </tspan><tspan x="0" y="17" class="st23 st7 st24">time database snapshots for </tspan><tspan x="0" y="34" class="st23 st7 st24">audit purposes.</tspan></text>
</g>
<line class="st25" x1="60" y1="2851.5" x2="238" y2="2851.5"/>
<g>
	<path class="st5" d="M109.8,2783.9c-3.1-3.1-7-4.8-19.9-4.8h-2.4h-1.4h-2.4c-12.8,0-16.7,1.6-19.9,4.8c-2.6,2.6-3.4,5.9-3.4,13.3
		v16.5c0,7.4,0.7,10.7,3.4,13.3c3.1,3.1,7,4.8,19.9,4.8h2.4h1.4h2.4c12.8,0,16.7-1.6,19.9-4.8c2.6-2.6,3.4-5.9,3.4-13.3v-16.5
		C113.2,2789.8,112.4,2786.5,109.8,2783.9"/>
	<line class="st26" x1="92" y1="2798.4" x2="92" y2="2814.9"/>
	<path class="st26" d="M85.6,2797.7c-1-1.4-2.7-2.3-4.6-2.3c-1.9,0-3.5,0.9-4.6,2.3h-5.2v17.8h31v-17.8H85.6z"/>
	<circle class="st26" cx="79.9" cy="2806.1" r="5.8"/>
	<path class="st16" d="M82.7,2806.1c0,1.6-1.3,2.8-2.8,2.8c-1.6,0-2.8-1.3-2.8-2.8c0-1.6,1.3-2.8,2.8-2.8
		C81.4,2803.3,82.7,2804.6,82.7,2806.1"/>
</g>
<path class="st5" d="M325,2786.3c-3-3-6.7-4.5-18.9-4.5h-2.3h-1.3h-2.3c-12.2,0-15.9,1.6-18.9,4.5c-2.5,2.5-3.2,5.6-3.2,12.6v15.7
	c0,7,0.7,10.1,3.2,12.6c3,3,6.7,4.5,18.9,4.5h2.3h1.3h2.3c12.2,0,15.9-1.6,18.9-4.5c2.5-2.5,3.2-5.6,3.2-12.6v-15.7
	C328.2,2791.9,327.5,2788.8,325,2786.3"/>
<g>
	<rect x="278.2" y="2862.6" class="st6" width="168.5" height="34.7"/>
	<text transform="matrix(1 0 0 1 278.2256 2873.9316)"><tspan x="0" y="0" class="st0 st7 st8">Easy Transfer of </tspan><tspan x="0" y="22" class="st0 st7 st8">Historical Data</tspan></text>
</g>
<line class="st25" x1="278" y1="2851.5" x2="456" y2="2851.5"/>
<g>
	<path class="st27" d="M315.3,2813.1h-19.9 M299.1,2818l-4.9-4.9 M299.1,2808.1l-4.9,4.9 M289.6,2801.1h19.9 M305.8,2796.1l4.9,4.9
		 M305.8,2806l4.9-4.9"/>
</g>
<path class="st5" d="M552.2,2786.3c-3-3-6.7-4.5-18.9-4.5H531h-1.3h-2.3c-12.2,0-15.9,1.6-18.9,4.5c-2.5,2.5-3.2,5.6-3.2,12.6v15.7
	c0,7,0.7,10.1,3.2,12.6c3,3,6.7,4.5,18.9,4.5h2.3h1.3h2.3c12.2,0,15.9-1.6,18.9-4.5c2.5-2.5,3.2-5.6,3.2-12.6v-15.7
	C555.4,2791.9,554.7,2788.8,552.2,2786.3"/>
<g>
	<rect x="505.4" y="2862.6" class="st6" width="168.5" height="34.7"/>
	<text transform="matrix(1 0 0 1 505.3945 2873.9316)" class="st0 st7 st8">Customisable</text>
</g>
<g>
	<rect x="505.4" y="2911.4" class="st6" width="177.9" height="126.3"/>
	<text transform="matrix(1 0 0 1 505.3945 2921.2979)"><tspan x="0" y="0" class="st23 st7 st24">All areas are for industry </tspan><tspan x="0" y="18" class="st23 st7 st24">specific needs.</tspan></text>
</g>
<line class="st25" x1="505" y1="2851.5" x2="683" y2="2851.5"/>
<g>
	<path class="st28" d="M524.9,2814.6l-2.4-2.4l17.8-17.8l2.4,2.4L524.9,2814.6z M515.8,2821.3l4.4-11.3l7,7L515.8,2821.3z
		 M527.2,2817l-7-7l17.8-17.8l7,7L527.2,2817z"/>
	<polygon class="st29" points="518.3,2815.7 521.5,2818.9 516.5,2820.6 	"/>
</g>
<path class="st5" d="M770.4,2786.3c-3-3-6.7-4.5-18.9-4.5h-2.3H748h-2.3c-12.2,0-15.9,1.6-18.9,4.5c-2.5,2.5-3.2,5.6-3.2,12.6v15.7
	c0,7,0.7,10.1,3.2,12.6c3,3,6.7,4.5,18.9,4.5h2.3h1.3h2.3c12.2,0,15.9-1.6,18.9-4.5c2.5-2.5,3.2-5.6,3.2-12.6v-15.7
	C773.6,2791.9,772.9,2788.8,770.4,2786.3"/>
<g>
	<rect x="723.6" y="2862.6" class="st6" width="168.5" height="34.7"/>
	<text transform="matrix(1 0 0 1 723.6201 2873.9316)" class="st0 st7 st8">Sensor Data Readiness</text>
</g>
<g>
	<rect x="723.6" y="2911.4" class="st6" width="177.9" height="126.3"/>
	<text transform="matrix(1 0 0 1 723.6201 2921.2979)"><tspan x="0" y="0" class="st23 st7 st24">The “Internet of Things” will </tspan><tspan x="0" y="17" class="st23 st7 st24">soon be proliferating </tspan><tspan x="0" y="34" class="st23 st7 st24">industries with sensor driven </tspan><tspan x="0" y="51" class="st23 st7 st24">data, Flux is built to </tspan><tspan x="0" y="68" class="st23 st7 st24">anticipate this.</tspan></text>
</g>
<line class="st25" x1="723" y1="2851.5" x2="901" y2="2851.5"/>
<g>
	<path class="st30" d="M761.2,2816.8l1.2,1.2 M752,2807.6l1.2,1.2 M753.2,2816.8l-1.2,1.2 M762.4,2807.6l-1.2,1.2 M751.6,2812.8
		h-1.8 M764.6,2812.8h-1.8 M757.2,2818.4v1.8 M757.2,2805.5v1.8 M762.7,2812.7c0,3-2.4,5.5-5.5,5.5c-3,0-5.5-2.4-5.5-5.5
		c0-3,2.4-5.5,5.5-5.5C760.2,2807.2,762.7,2809.7,762.7,2812.7z M747.2,2807.8l1.6,1.6 M735.4,2796.1l1.6,1.6 M737,2807.8l-1.6,1.6
		 M748.8,2796.1l-1.6,1.6 M734.9,2802.7h-2.3 M751.6,2802.7h-2.3 M742.1,2809.9v2.3 M742.1,2793.3v2.3 M749.2,2802.6
		c0,3.9-3.1,7-7,7c-3.9,0-7-3.1-7-7c0-3.9,3.1-7,7-7C746,2795.6,749.2,2798.7,749.2,2802.6z"/>
</g>
<g>
	<rect x="60.5" y="3079.9" class="st6" width="168.5" height="34.7"/>
	<text transform="matrix(1 0 0 1 60.5264 3091.2246)" class="st0 st7 st8">Sandbox Interface</text>
</g>
<g>
	<rect x="60.5" y="3130.7" class="st6" width="177.9" height="126.3"/>
	<text transform="matrix(1 0 0 1 60.5264 3140.5898)"><tspan x="0" y="0" class="st23 st7 st24">Modular software platform </tspan><tspan x="0" y="17" class="st23 st7 st24">means you decide what it’s in </tspan><tspan x="0" y="34" class="st23 st7 st24">front of you, you shape the</tspan><tspan x="0" y="51" class="st23 st7 st24">system every day or every </tspan><tspan x="0" y="68" class="st23 st7 st24">minute as your needs </tspan><tspan x="0" y="85" class="st23 st7 st24">change.</tspan></text>
</g>
<line class="st25" x1="60" y1="3068.5" x2="238" y2="3068.5"/>
<g>
	<path class="st5" d="M107.3,3003.6c-3-3-6.7-4.5-18.9-4.5h-2.3h-1.3h-2.3c-12.2,0-15.9,1.6-18.9,4.5c-2.5,2.5-3.2,5.6-3.2,12.6
		v15.7c0,7,0.7,10.1,3.2,12.6c3,3,6.7,4.5,18.9,4.5h2.3h1.3h2.3c12.2,0,15.9-1.6,18.9-4.5c2.5-2.5,3.2-5.6,3.2-12.6v-15.7
		C110.5,3009.2,109.8,3006.1,107.3,3003.6"/>
	<g>
		<path class="st28" d="M89.1,3017.8c0,1.9-1.6,3.5-3.5,3.5c-2,0-3.5-1.6-3.5-3.5c0-1.9,1.6-3.5,3.5-3.5
			C87.5,3014.2,89.1,3015.8,89.1,3017.8z M85.7,3025.8c8.3,0,7.9,13.5,7.9,13.5H77.4c0,0-0.4-13.5,7.9-13.5"/>
		<path class="st16" d="M99.8,3008.8H71.2c-0.6,0-1.1,0.5-1.1,1.1v18.5c0,0.6,0.5,1.1,1.1,1.1h8.2c0.7-0.9,1.6-1.6,2.6-2.2h-9.7
			V3011h26.4v16.3h-9.1c0.7,0.5,1.3,1.2,1.7,2.2h8.5c0.6,0,1.1-0.5,1.1-1.1v-18.5C100.9,3009.3,100.4,3008.8,99.8,3008.8"/>
		<path class="st28" d="M93.2,3032.9h5.2 M72.7,3032.9h5.2"/>
	</g>
</g>
<path class="st5" d="M324.6,3003.6c-3-3-6.7-4.5-18.9-4.5h-2.3h-1.3H300c-12.2,0-15.9,1.6-18.9,4.5c-2.5,2.5-3.2,5.6-3.2,12.6v15.7
	c0,7,0.7,10.1,3.2,12.6c3,3,6.7,4.5,18.9,4.5h2.3h1.3h2.3c12.2,0,15.9-1.6,18.9-4.5c2.5-2.5,3.2-5.6,3.2-12.6v-15.7
	C327.9,3009.2,327.2,3006.1,324.6,3003.6"/>
<g>
	<rect x="277.9" y="3079.9" class="st6" width="168.5" height="34.7"/>
	<text transform="matrix(1 0 0 1 277.874 3091.2246)" class="st0 st7 st8">Speed</text>
</g>
<g>
	<rect x="277.9" y="3130.7" class="st6" width="177.9" height="126.3"/>
	<text transform="matrix(1 0 0 1 277.874 3140.5898)"><tspan x="0" y="0" class="st23 st7 st24">Unlike established ERP </tspan><tspan x="0" y="17" class="st23 st7 st24">companies, Flux is built on </tspan><tspan x="0" y="34" class="st23 st7 st24">new, “clean” code which, </tspan><tspan x="0" y="51" class="st23 st7 st24">allied to a single database, </tspan><tspan x="0" y="68" class="st23 st7 st24">means unrivalled speed in </tspan><tspan x="0" y="85" class="st23 st7 st24">every facet of the system.</tspan></text>
</g>
<line class="st25" x1="278" y1="3068.5" x2="456" y2="3068.5"/>
<g>
	<path class="st31" d="M295.7,3030.1l-9.6-6 M286.1,3024l9.6-6"/>
	<line class="st32" x1="299.4" y1="3033.9" x2="306.5" y2="3014.2"/>
	<path class="st31" d="M310,3018l9.6,6 M319.6,3024.1l-9.6,6"/>
</g>
<path class="st5" d="M552.2,3003.6c-3-3-6.7-4.5-18.9-4.5H531h-1.3h-2.3c-12.2,0-15.9,1.6-18.9,4.5c-2.5,2.5-3.2,5.6-3.2,12.6v15.7
	c0,7,0.7,10.1,3.2,12.6c3,3,6.7,4.5,18.9,4.5h2.3h1.3h2.3c12.2,0,15.9-1.6,18.9-4.5c2.5-2.5,3.2-5.6,3.2-12.6v-15.7
	C555.4,3009.2,554.7,3006.1,552.2,3003.6"/>
<g>
	<rect x="505.4" y="3079.9" class="st6" width="168.5" height="34.7"/>
	<text transform="matrix(1 0 0 1 505.3945 3091.2246)" class="st0 st7 st8">Intuitive Navigation</text>
</g>
<g>
	<rect x="505.4" y="3130.7" class="st6" width="177.9" height="126.3"/>
	<text transform="matrix(1 0 0 1 505.3945 3140.5898)"><tspan x="0" y="0" class="st23 st7 st24">No screen is more than</tspan><tspan x="0" y="17" class="st23 st7 st24">three clicks away from</tspan><tspan x="0" y="34" class="st23 st7 st24">another.</tspan></text>
</g>
<line class="st25" x1="505" y1="3068.5" x2="683" y2="3068.5"/>
<g>
	<path class="st28" d="M530,3026.1l4.5,4.5 M530.7,3034.8l8.1-8.1 M543.8,3030.8c1.9,1.9,1.9,4.9,0,6.8l-2.2,2.2
		c-1.9,1.9-4.9,1.9-6.8,0l-6-6c-1.9-1.9-1.9-4.9,0-6.8l2.2-2.2c1.9-1.9,4.9-1.9,6.8,0L543.8,3030.8z M528.6,3006.8
		c0.4,0.5,1.1,2.5-0.2,4.1c-1.1,1.5-2.8,2.1-4.5,2.6c-2.9,0.9-6.7,1.7-8,4.9c-0.7,1.7-0.3,4.1,1.5,5c1.4,0.7,3,0.1,4.4-0.2
		c2.9-0.7,6.8,0,8,3.1"/>
</g>
<path class="st5" d="M770.4,2568c-3-3-6.7-4.5-18.9-4.5h-2.3H748h-2.3c-12.2,0-15.9,1.6-18.9,4.5c-2.5,2.5-3.2,5.6-3.2,12.6v15.7
	c0,7,0.7,10.1,3.2,12.6c3,3,6.7,4.5,18.9,4.5h2.3h1.3h2.3c12.2,0,15.9-1.6,18.9-4.5c2.5-2.5,3.2-5.6,3.2-12.6v-15.7
	C773.6,2573.6,772.9,2570.5,770.4,2568"/>
<g>
	<path class="st27" d="M741.4,2588.8c3.6,0,3.4,5.8,3.4,5.8h-6.9c0,0-0.2-5.8,3.4-5.8 M748.9,2593.3h10.4 M748.9,2588.9h10.4
		 M748.9,2584.8h10.4 M763.5,2599h-29.7v-19.3h29.7V2599z"/>
	<path class="st16" d="M741.3,2582.7c-1.6,0-3,1.3-3,3c0,1.6,1.3,3,3,3c1.6,0,3-1.3,3-3C744.3,2584.1,742.9,2582.7,741.3,2582.7
		 M741.3,2584.5c0.6,0,1.2,0.5,1.2,1.2c0,0.6-0.5,1.2-1.2,1.2c-0.6,0-1.2-0.5-1.2-1.2C740.1,2585,740.6,2584.5,741.3,2584.5"/>
</g>
<g>
	<path class="st5" d="M107.3,2568c-3-3-6.7-4.5-18.9-4.5h-2.3h-1.3h-2.3c-12.2,0-15.9,1.6-18.9,4.5c-2.5,2.5-3.2,5.6-3.2,12.6v15.7
		c0,7,0.7,10.1,3.2,12.6c3,3,6.7,4.5,18.9,4.5h2.3h1.3h2.3c12.2,0,15.9-1.6,18.9-4.5c2.5-2.5,3.2-5.6,3.2-12.6v-15.7
		C110.5,2573.6,109.8,2570.5,107.3,2568"/>
	<path class="st33" d="M67.6,2582h35.5 M103.6,2603H67.5v-29.1h36.1V2603z"/>
</g>
<g>
	<rect x="60.5" y="2644.3" class="st6" width="168.5" height="34.7"/>
	<text transform="matrix(1 0 0 1 60.5264 2655.6406)" class="st0 st7 st8">Dynamic Dashboard</text>
</g>
<rect x="60.5" y="2693.3" class="st6" width="177.9" height="126.3"/>
<text transform="matrix(1 0 0 1 60.5264 2703.2681)"><tspan x="0" y="0" class="st23 st7 st24">Customisable per user </tspan><tspan x="0" y="17" class="st23 st7 st24">dashboard that supplies all </tspan><tspan x="0" y="34" class="st23 st7 st24">KPI’s in real time in the </tspan><tspan x="0" y="51" class="st23 st7 st24">background of the users </tspan><tspan x="0" y="68" class="st23 st7 st24">screen.</tspan></text>
<line class="st25" x1="60" y1="2633.5" x2="238" y2="2633.5"/>
<path class="st5" d="M325.5,2568c-3-3-6.7-4.5-18.9-4.5h-2.3h-1.3h-2.3c-12.2,0-15.9,1.6-18.9,4.5c-2.5,2.5-3.2,5.6-3.2,12.6v15.7
	c0,7,0.7,10.1,3.2,12.6c3,3,6.7,4.5,18.9,4.5h2.3h1.3h2.3c12.2,0,15.9-1.6,18.9-4.5c2.5-2.5,3.2-5.6,3.2-12.6v-15.7
	C328.8,2573.6,328,2570.5,325.5,2568"/>
<g>
	<rect x="278.8" y="2644.3" class="st6" width="168.5" height="34.7"/>
	<text transform="matrix(1 0 0 1 278.752 2655.6406)" class="st0 st7 st8">Dynamic Reporting</text>
</g>
<rect x="278.8" y="2693.3" class="st6" width="177.9" height="126.3"/>
<text transform="matrix(1 0 0 1 278.752 2703.2681)"><tspan x="0" y="0" class="st23 st7 st24">Real-time KPI’s &amp; reports that </tspan><tspan x="0" y="17" class="st23 st7 st24">are filterable, drillable and </tspan><tspan x="0" y="34" class="st23 st7 st24">exportable, not just static </tspan><tspan x="0" y="51" class="st23 st7 st24">pdf’s.</tspan></text>
<line class="st25" x1="278" y1="2633.5" x2="456" y2="2633.5"/>
<path class="st5" d="M552.2,2568c-3-3-6.7-4.5-18.9-4.5H531h-1.3h-2.3c-12.2,0-15.9,1.6-18.9,4.5c-2.5,2.5-3.2,5.6-3.2,12.6v15.7
	c0,7,0.7,10.1,3.2,12.6c3,3,6.7,4.5,18.9,4.5h2.3h1.3h2.3c12.2,0,15.9-1.6,18.9-4.5c2.5-2.5,3.2-5.6,3.2-12.6v-15.7
	C555.4,2573.6,554.7,2570.5,552.2,2568"/>
<g>
	<rect x="505.4" y="2644.3" class="st6" width="168.5" height="34.7"/>
	<text transform="matrix(1 0 0 1 505.3945 2655.6406)"><tspan x="0" y="0" class="st0 st7 st8">Full Email &amp; Phone </tspan><tspan x="0" y="22" class="st0 st7 st8">System Integration</tspan></text>
</g>
<g>
	<rect x="505.4" y="2693.3" class="st6" width="177.9" height="126.3"/>
	<text transform="matrix(1 0 0 1 505.3945 2703.2686)"><tspan x="0" y="0" class="st23 st7 st24">All calls logged and can be </tspan><tspan x="0" y="17" class="st23 st7 st24">recorded too if required.</tspan></text>
</g>
<line class="st25" x1="505" y1="2633.5" x2="683" y2="2633.5"/>
<g>
	<rect x="723.6" y="2644.3" class="st6" width="168.5" height="34.7"/>
	<text transform="matrix(1 0 0 1 723.6201 2655.6406)"><tspan x="0" y="0" class="st0 st7 st8">User Defined Access </tspan><tspan x="0" y="22" class="st0 st7 st8">Levels</tspan></text>
</g>
<line class="st25" x1="723" y1="2633.5" x2="901" y2="2633.5"/>
<g>
	<path class="st27" d="M295,2598.9h9.9 M294.4,2596.1h9.9 M294.4,2592.8h9.9 M307.8,2588.8h-5.6v-5.9L307.8,2588.8z M290.8,2604
		v-21.1h11.4l5.6,5.9l0,15.2H290.8z"/>
	<path class="st16" d="M311.4,2578h-16.9c-0.6,0-1.1,0.5-1.1,1.1v3.8h2.2v-2.7h14.7v18.8h-2.5c0.4,0.6,0.4,1.3,0,2
		c0,0-0.1,0.1-0.1,0.1h3.7c0.6,0,1.1-0.5,1.1-1.1v-20.9C312.5,2578.5,312,2578,311.4,2578"/>
	<path class="st16" d="M315.6,2574.7h-16.9c-0.6,0-1.1,0.5-1.1,1.1v2.9c0.3,0.1,0.6,0.2,0.9,0.5c-0.3-0.3,0.7-0.1,0.9-0.1
		c0.1,0,0.2,0,0.3,0v-2.3h14.7v18.8h-3.1c0.1,0.2,0.2,0.4,0.2,0.6c0.2,0.6,0,1.2-0.2,1.6h4.2c0.6,0,1.1-0.5,1.1-1.1v-20.9
		C316.7,2575.2,316.2,2574.7,315.6,2574.7"/>
</g>
<g>
	<rect x="521.9" y="2574.7" class="st34" width="17.2" height="29.7"/>
	<line class="st35" x1="528.7" y1="2577.4" x2="532.4" y2="2577.4"/>
	<path class="st36" d="M522.1,2580.2H539 M522.1,2598.6H539"/>
	<path class="st16" d="M531.8,2601.5c0,0.7-0.5,1.2-1.2,1.2c-0.7,0-1.2-0.5-1.2-1.2c0-0.7,0.5-1.2,1.2-1.2
		C531.2,2600.3,531.8,2600.8,531.8,2601.5"/>
	<path class="st28" d="M515.7,2593.4c0,0-4-3.4-0.1-7.7 M518.2,2591.5c0,0-2-1.7,0-3.9 M545.1,2585.7c0,0,4,3.4,0.1,7.7
		 M542.6,2587.7c0,0,2,1.7,0,3.9"/>
</g>
<rect x="60" y="3783.6" class="st5" width="840" height="178.3"/>
<g>
	<circle class="st1" cx="212.8" cy="3859.2" r="40"/>
	<g>
		<path class="st0" d="M187.9,3869.1c0-1.5,0.2-6.4,2.9-9.2c1.2-1.2,2.8-1.9,4.5-1.9c0,0,0.1,0,0.1,0c0,0,0.1,0,0.1,0
			c1.8,0,3.3,0.7,4.5,1.9c3,3.1,2.9,8.9,2.9,9.5c0,1-0.8,1.8-1.8,1.8h-11.5c-1,0-1.8-0.8-1.8-1.8
			C187.9,3869.4,187.9,3869.3,187.9,3869.1z M195.4,3861.6c0,0-0.1,0-0.1,0c-0.8,0-1.4,0.3-1.9,0.8c-1.2,1.2-1.6,3.4-1.8,5.1h7.7
			c-0.2-1.7-0.6-4-1.8-5.1c-0.5-0.5-1.1-0.8-1.9-0.8C195.5,3861.7,195.5,3861.7,195.4,3861.6z M190.1,3852.1c0-2.9,2.4-5.3,5.3-5.3
			c2.9,0,5.3,2.4,5.3,5.3c0,2.9-2.4,5.3-5.3,5.3C192.5,3857.4,190.1,3855,190.1,3852.1z M197.1,3852.1c0-0.9-0.8-1.7-1.7-1.7
			c-0.9,0-1.7,0.8-1.7,1.7c0,0.9,0.8,1.7,1.7,1.7C196.4,3853.8,197.1,3853,197.1,3852.1z M203.7,3872.9c0-1.6,0.2-8.1,3.6-11.6
			c1.5-1.5,3.3-2.3,5.5-2.3c0.1,0,0.1,0,0.2,0c0.1,0,0.1,0,0.2,0c2.2,0,4,0.8,5.5,2.3c3.8,3.9,3.6,11.6,3.6,12c0,1-0.8,1.8-1.8,1.8
			h-14.9c-1,0-1.8-0.8-1.8-1.8C203.7,3873.2,203.7,3873.1,203.7,3872.9z M212.9,3862.6c-0.1,0-0.1,0-0.2,0c-1.2,0-2.1,0.4-2.9,1.2
			c-1.7,1.8-2.4,5.3-2.5,7.6h11.2c-0.2-2.3-0.8-5.8-2.5-7.6c-0.8-0.8-1.7-1.2-2.9-1.2C213.1,3862.6,213,3862.6,212.9,3862.6z
			 M206.6,3852c0-3.5,2.9-6.3,6.4-6.3c3.5,0,6.4,2.8,6.4,6.3c0,3.5-2.9,6.3-6.4,6.3C209.4,3858.4,206.6,3855.5,206.6,3852z
			 M215.7,3852c0-1.5-1.2-2.7-2.7-2.7c-1.5,0-2.7,1.2-2.7,2.7c0,1.5,1.2,2.7,2.7,2.7C214.5,3854.7,215.7,3853.5,215.7,3852z
			 M222.8,3869.1c0-1.5,0.2-6.4,2.9-9.2c1.2-1.2,2.8-1.9,4.5-1.9c0,0,0.1,0,0.1,0c0,0,0.1,0,0.1,0c1.8,0,3.3,0.7,4.5,1.9
			c3,3.1,2.9,8.9,2.9,9.5c0,1-0.8,1.8-1.8,1.8h-11.5c-1,0-1.8-0.8-1.8-1.8C222.8,3869.4,222.8,3869.3,222.8,3869.1z M230.3,3861.6
			c0,0-0.1,0-0.1,0c-0.8,0-1.4,0.3-1.9,0.8c-1.2,1.2-1.6,3.4-1.8,5.1h7.7c-0.2-1.7-0.6-4-1.8-5.1c-0.5-0.5-1.1-0.8-1.9-0.8
			C230.4,3861.7,230.4,3861.7,230.3,3861.6z M225,3852.1c0-2.9,2.4-5.3,5.3-5.3s5.3,2.4,5.3,5.3c0,2.9-2.4,5.3-5.3,5.3
			S225,3855,225,3852.1z M232,3852.1c0-0.9-0.8-1.7-1.7-1.7c-0.9,0-1.7,0.8-1.7,1.7c0,0.9,0.8,1.7,1.7,1.7
			C231.3,3853.8,232,3853,232,3852.1z"/>
	</g>
</g>
<g>
	<text transform="matrix(1 0 0 1 165.7275 3934)" class="st3 st7 st8">Your Business</text>
</g>
<g>
	<circle class="st1" cx="390.9" cy="3859.2" r="40"/>
	<g>
		<path class="st0" d="M368,3869.2V3841c0-0.8,0.7-1.5,1.5-1.5h43c0.8,0,1.5,0.7,1.5,1.5v28.2c0,0.8-0.7,1.5-1.5,1.5h-13.9v2.5h6.1
			c0.8,0,1.5,0.7,1.5,1.5v6.7c0,0.8-0.7,1.5-1.5,1.5h-27.4c-0.8,0-1.5-0.7-1.5-1.5v-6.7c0-0.8,0.7-1.5,1.5-1.5h6.1v-2.5h-13.9
			C368.6,3870.6,368,3870,368,3869.2z M370.9,3842.5v25.2H411v-25.2H370.9z M378.7,3876.1v3.7h24.5v-3.7h-6.1
			c-0.8,0-1.5-0.7-1.5-1.5v-3.8h-9.3v3.8c0,0.8-0.7,1.5-1.5,1.5H378.7z M372.3,3865.2V3845c0-0.8,0.7-1.5,1.5-1.5h34.4
			c0.8,0,1.5,0.7,1.5,1.5v20.2c0,0.8-0.7,1.5-1.5,1.5h-34.4C372.9,3866.7,372.3,3866,372.3,3865.2z M375.2,3846.4v17.3h31.5v-17.3
			H375.2z"/>
	</g>
</g>
<g>
	<text transform="matrix(1 0 0 1 358.8477 3934)" class="st3 st7 st8">Flux BDS</text>
</g>
<circle class="st1" cx="747.2" cy="3859.2" r="40"/>
<g>
	<path class="st0" d="M730.6,3864.6v-27.4c0-0.7,0.5-1.2,1.2-1.2h8.8v-2.4c0-0.7,0.5-1.2,1.2-1.2h10.6c0.7,0,1.2,0.5,1.2,1.2v2.4
		h8.8c0.7,0,1.2,0.5,1.2,1.2v27.4c0,0.7-0.5,1.2-1.2,1.2h-3.1v2.3c0,0.7-0.5,1.2-1.2,1.2H755l7,12.6c0.3,0.6,0.1,1.3-0.5,1.6
		c-0.6,0.3-1.3,0.1-1.6-0.5l-7.6-13.8h-3.9v5.2c0,0.7-0.5,1.2-1.2,1.2c-0.7,0-1.2-0.5-1.2-1.2v-5.2h-4.9l-7.6,13.7
		c-0.3,0.6-1.1,0.8-1.6,0.5c-0.6-0.3-0.8-1.1-0.5-1.6l6.9-12.5h-2.2c-0.7,0-1.2-0.5-1.2-1.2v-2.3h-3.1
		C731.1,3865.8,730.6,3865.3,730.6,3864.6z M733,3838.4v25h28.3v-25H733z M737.3,3865.8v1H757v-1H737.3z M743.1,3834.7v1h8.2v-1
		H743.1z M734.2,3855.5c0-0.2,0.1-0.5,0.2-0.7c0.4-0.6,1.1-0.7,1.7-0.3l2.2,1.5l4-5.1c0.4-0.5,1.1-0.6,1.6-0.3l4.3,2.6l2-4.1
		c0.2-0.5,0.7-0.7,1.3-0.7l3.1,0.5l2.4-5.4c0.3-0.6,1-0.9,1.6-0.6c0.6,0.3,0.9,1,0.6,1.6l-2.8,6.2c-0.2,0.5-0.8,0.8-1.3,0.7
		l-3.1-0.5l-2.2,4.5c-0.1,0.3-0.4,0.5-0.7,0.6c-0.3,0.1-0.7,0-1-0.1l-4.5-2.7l-4.1,5.2c-0.4,0.5-1.1,0.6-1.6,0.3l-3.2-2.2
		C734.4,3856.2,734.2,3855.9,734.2,3855.5z"/>
</g>
<g>
	<text transform="matrix(1 0 0 1 721.5029 3934)" class="st3 st7 st8">Growth</text>
</g>
<g>
	<circle class="st1" cx="569.1" cy="3859.2" r="40"/>
	<g>
		<path class="st0" d="M546.4,3858.4C546.4,3858.4,546.4,3858.4,546.4,3858.4c0-7.6,5-15.6,15.8-16.5l-0.9-0.9
			c-0.7-0.7-0.7-1.9,0-2.6s1.9-0.7,2.6,0l4,4h0c0,0,0,0,0,0l0,0c0,0,0,0,0,0l0,0l0,0l0,0c0,0,0,0,0,0l0,0l0,0l0,0h0l0,0l0,0v0l0,0h0
			c0,0,0,0,0,0h0l0,0l0,0c0.2,0.2,0.3,0.4,0.4,0.6l0,0l0,0l0,0c0,0,0,0,0,0l0,0l0,0v0l0,0l0,0l0,0l0,0l0,0l0,0v0l0,0c0,0,0,0,0,0
			l0,0l0,0l0,0l0,0c0,0,0,0,0,0l0,0l0,0v0l0,0l0,0c0,0,0,0,0,0c0,0,0,0,0,0v0v0l0,0v0v0c0,0,0,0,0,0v0v0l0,0l0,0l0,0c0,0,0,0,0,0
			l0,0v0c0,0,0,0,0,0s0,0,0,0v0l0,0v0v0l0,0l0,0l0,0l0,0l0,0l0,0v0c0,0,0,0,0,0c0,0,0,0,0,0l0,0c0,0,0,0,0,0v0l0,0v0l0,0l0,0l0,0
			c0,0,0,0,0,0l0,0l0,0l0,0v0c0,0,0,0,0,0v0l0,0l0,0l0,0l0,0l0,0c0,0,0,0,0,0l0,0v0l0,0c0,0,0,0,0,0l0,0c0,0,0,0,0,0l0,0l0,0l0,0
			c0.1,0.2,0.1,0.4,0.1,0.6v0c0,0,0,0,0,0v0c0,0,0,0,0,0l0,0v0c0,0,0,0,0,0l0,0v0c0,0,0,0,0,0l0,0v0v0v0v0v0v0c0,0,0,0,0,0v0
			c0,0.3-0.1,0.6-0.3,0.8l0,0c0,0,0,0,0,0l0,0c0,0,0,0,0,0l0,0c0,0,0,0,0,0c0,0,0,0,0,0c0,0,0,0,0,0h0v0l0,0l0,0c0,0,0,0,0,0l0,0
			c0,0,0,0,0,0l0,0c0,0,0,0,0,0s0,0,0,0c0,0,0,0,0,0l0,0c0,0,0,0,0,0l0,0c0,0,0,0,0,0c0,0,0,0,0,0v0l0,0c0,0,0,0,0,0v0c0,0,0,0,0,0
			l0,0c0,0,0,0,0,0v0c0,0,0,0,0,0c0,0,0,0,0,0l0,0l0,0l0,0v0l0,0h0v0c0,0,0,0,0,0l0,0c0,0,0,0,0,0c0,0,0,0,0,0v0l0,0c0,0,0,0,0,0
			c0,0,0,0,0,0l0,0c0,0,0,0,0,0c0,0,0,0,0,0c0,0,0,0,0,0c0,0,0,0,0,0l0,0c0,0,0,0,0,0l0,0v0v0c0,0,0,0,0,0l0,0l0,0l0,0l0,0v0
			c0,0,0,0,0,0s0,0,0,0l0,0l0,0l0,0l0,0v0h0l0,0l0,0l0,0l0,0l0,0l0,0l0,0c0,0,0,0,0,0c0,0,0,0,0,0l0,0h0c0,0,0,0,0,0l0,0
			c0,0,0,0,0,0l0,0l0,0l0,0c0,0,0,0,0,0l0,0l0,0l0,0l0,0v0l0,0c0,0,0,0,0,0l0,0l0,0l0,0c0,0,0,0,0,0h0c0,0,0,0,0,0v0l0,0l0,0l0,0
			c0,0,0,0,0,0h0c0,0,0,0,0,0l0,0l0,0l0,0c0,0,0,0,0,0v0c0,0,0,0,0,0c0,0,0,0,0,0l0,0c0,0,0,0,0,0l0,0l0,0l0,0l0,0l0,0c0,0,0,0,0,0
			l0,0c0,0,0,0,0,0l0,0c0,0,0,0,0,0l0,0l0,0l0,0c0,0,0,0,0,0v0c0,0,0,0,0,0l0,0l0,0l0,0c0,0,0,0,0,0s0,0,0,0l0,0c0,0,0,0,0,0l0,0
			c0,0,0,0,0,0l0,0c0,0,0,0,0,0v0c0,0,0,0,0,0l0,0c0,0,0,0,0,0l0,0c0,0,0,0,0,0l0,0c0,0,0,0,0,0l0,0c0,0,0,0,0,0l0,0l0,0
			c0,0,0,0,0,0l0,0c0,0,0,0,0,0l0,0c0,0,0,0,0,0h0l0,0l0,0l0,0c0,0,0,0,0,0l0,0l0,0l0,0v0h0v0c0,0,0,0,0,0l0,0v0l0,0l0,0
			c0,0,0,0,0,0l0,0l0,0l0,0c0,0,0,0,0,0l0,0h0l0,0l0,0l0,0h0v0l0,0l-4,4c-0.7,0.7-1.9,0.7-2.6,0c-0.7-0.7-0.7-1.9,0-2.6l0.7-0.7
			c-8.2,0.9-11.9,6.8-12,12.7c0,0,0,0,0,0.1c0,6.9,4.9,14,14.4,14.1c1,0,1.8,0.8,1.8,1.8c0,0,0,0,0,0c0,1-0.8,1.8-1.9,1.8
			C552.7,3876.1,546.4,3867,546.4,3858.4z M569.8,3873.9L569.8,3873.9c0-0.1,0-0.1,0-0.2l0,0v0l0,0c0,0,0,0,0,0v0l0,0v0v0l0,0v0v0v0
			c0,0,0,0,0,0l0,0c0-0.4,0.2-0.7,0.4-1l0,0l0,0h0v0v0h0l0,0c0,0,0,0,0,0l0,0l0,0c0,0,0,0,0,0l0,0l0,0c0,0,0,0,0,0l0,0c0,0,0,0,0,0
			l0,0c0,0,0,0,0,0c0,0,0,0,0,0c0,0,0,0,0,0h0c0,0,0,0,0,0c0,0,0,0,0,0v0l0,0c0,0,0,0,0,0h0v0l0,0v0l0,0l0,0c0,0,0,0,0,0l0,0
			c0,0,0,0,0,0l0,0c0,0,0,0,0,0l0,0c0,0,0,0,0,0l0,0l0,0v0l0,0l0,0c0,0,0,0,0,0v0l0,0h0l0,0c0,0,0,0,0,0c0,0,0,0,0,0l0,0l0,0
			c0,0,0,0,0,0l0,0l0,0l0,0l4-4c0.7-0.7,1.9-0.7,2.6,0c0.7,0.7,0.7,1.9,0,2.6l-0.7,0.7c8.2-0.9,11.9-6.8,12-12.7c0,0,0,0,0-0.1
			c0-6.9-4.9-14-14.4-14.1c-1,0-1.8-0.8-1.8-1.8v0c0-1,0.8-1.8,1.9-1.8c11.7,0.1,18,9.2,18,17.8c0,0,0,0,0,0.1
			c0,7.5-5,15.5-15.8,16.4l0.9,0.9c0.7,0.7,0.7,1.9,0,2.6c-0.7,0.7-1.9,0.7-2.6,0l-4-4l0,0l0,0l0,0c0,0,0,0,0,0v0l0,0h0c0,0,0,0,0,0
			v0h0l0,0l0,0v0l0,0l0,0l0,0l0,0l0,0c0,0,0,0,0,0l0,0c0,0,0,0,0,0l0,0l0,0c0,0,0,0,0,0c0,0,0,0,0,0c0,0,0,0,0,0l0,0c0,0,0,0,0,0v0
			c0,0,0,0,0,0l0,0v0l0,0l0,0c0,0,0,0,0,0l0,0l0,0l0,0l0,0c0,0,0,0,0,0s0,0,0,0l0,0l0,0l0,0l0,0c0,0,0,0,0,0h0c0,0,0,0,0,0v0
			c0,0,0,0,0,0l0,0l0,0l0,0c-0.3-0.3-0.4-0.6-0.4-1l0,0v0l0,0c0,0,0,0,0,0v0v0l0,0c0,0,0,0,0,0v0
			C569.8,3874.1,569.8,3874,569.8,3873.9z"/>
	</g>
</g>
<g>
	<text transform="matrix(1 0 0 1 517.7471 3933.999)" class="st3 st7 st8"> Free Upgrades</text>
</g>
<g>
	<rect x="60" y="3387.3" class="st6" width="840" height="120.4"/>
	<text transform="matrix(1 0 0 1 60 3403.6592)"><tspan x="0" y="0" class="st16 st7 st14">Today’s business world is accelerating at an ever faster rate. Most traditional ERP </tspan><tspan x="0" y="29" class="st16 st7 st14">systems do not change from the day you purchase them, they are a sunk cost. Flux is </tspan><tspan x="0" y="58" class="st16 st7 st14">different - the core system will continue to be developed and upgraded free of </tspan><tspan x="0" y="87" class="st16 st7 st14">charge.</tspan></text>
</g>
<g>
	<rect x="60" y="3508" class="st6" width="390" height="150"/>
	<text transform="matrix(1 0 0 1 60 3519.3599)"><tspan x="0" y="0" class="st16 st7 st8">Additionally, we have found that once companies get </tspan><tspan x="0" y="20" class="st16 st7 st8">access to a digitised version of their processes and data </tspan><tspan x="0" y="40" class="st16 st7 st8">they rapidly develop new ways of doing things. Users </tspan><tspan x="0" y="60" class="st16 st7 st8">know more about their company than ever before, and </tspan><tspan x="0" y="80" class="st16 st7 st8">catch problems when they start rather than at the end of </tspan><tspan x="0" y="100" class="st16 st7 st8">a reporting period. This leads them to suggest process </tspan><tspan x="0" y="120" class="st16 st7 st8">improvements &amp; additional functions to enhance them &amp; </tspan></text>
</g>
<g>
	<rect x="510" y="3508" class="st6" width="390" height="150"/>
	<text transform="matrix(1 0 0 1 510 3519.3599)"><tspan x="0" y="0" class="st16 st7 st8">Uniquely Flux provides regular 6–12 month system </tspan><tspan x="0" y="20" class="st16 st7 st8">reviews to see where the Flux system can be further </tspan><tspan x="0" y="40" class="st16 st7 st8">tailored for customer needs. This enables users to </tspan><tspan x="0" y="60" class="st16 st7 st8">change the system to suit their changing business needs </tspan><tspan x="0" y="80" class="st16 st7 st8">– a large departure from traditional, static ERP systems. </tspan><tspan x="0" y="100" class="st16 st7 st8">Flux’s modular software architecture means that new </tspan><tspan x="0" y="120" class="st16 st7 st8">functions &amp; processes can be added quickly with no </tspan></text>
</g>
<g>
	<rect x="60" y="3331.2" class="st6" width="447" height="27.8"/>
	<text transform="matrix(1 0 0 1 60 3357.4937)" class="st0 st11 st12 st13">customer service</text>
</g>
<g>
	<path class="st23" d="M467,3583"/>
	<g>
		<path class="st16" d="M466.9,3583.7c1.1,0,1.5-1.4,0.2-1.4C466,3582.3,465.6,3583.7,466.9,3583.7L466.9,3583.7z"/>
	</g>
</g>
<text transform="matrix(0 -1 1 0 792.8154 4061.7139)" class="st16 st37 st38"> </text>
<g>
	<rect x="510" y="4007" class="st6" width="390" height="222.8"/>
	<text transform="matrix(1 0 0 1 510 4018.3599)"><tspan x="0" y="0" class="st0 st7 st8">Employee satisfaction</tspan><tspan x="0" y="20" class="st16 st7 st8">Employee satisfaction improves as transparent </tspan><tspan x="0" y="40" class="st16 st7 st8">recognition of achievement becomes the norm. Freed </tspan><tspan x="0" y="60" class="st16 st7 st8">from mundane tasks and empowered by easy real time </tspan><tspan x="0" y="80" class="st16 st7 st8">access to all relevant company data, staff become </tspan><tspan x="0" y="100" class="st16 st7 st8">innovative and entrepreneurial.</tspan><tspan x="0" y="140" class="st0 st7 st8">Customer Front End Web Portal</tspan><tspan x="0" y="160" class="st16 st7 st8">If required you can also share analytics &amp; data with your </tspan><tspan x="0" y="180" class="st16 st7 st8">customers via the web portal.</tspan></text>
</g>
<g>
	<rect x="60" y="4007" class="st6" width="390" height="172.3"/>
	<text transform="matrix(1 0 0 1 60 4018.3599)"><tspan x="0" y="0" class="st0 st7 st8">A Fully Transparent System</tspan><tspan x="0" y="20" class="st16 st7 st8">Flux is based on the concept that a fully transparent </tspan><tspan x="0" y="40" class="st16 st7 st8">workplace leads to greater worker engagement and </tspan><tspan x="0" y="60" class="st16 st7 st8">harmony. All user activity is monitored in real time with </tspan><tspan x="0" y="80" class="st16 st7 st8">user reports helping you identify your best team </tspan><tspan x="0" y="100" class="st16 st7 st8">members and those who require extra attention.</tspan></text>
</g>
<g>
	<rect x="60" y="3750" class="st6" width="840" height="26"/>
	<text transform="matrix(1 0 0 1 60 3766.3301)" class="st0 st9 st14">Helping your business run smoother</text>
</g>
</svg>
