<?xml version="1.0" encoding="utf-8"?>
<!-- Generator: Adobe Illustrator 18.0.0, SVG Export Plug-In . SVG Version: 6.00 Build 0)  -->
<!DOCTYPE svg PUBLIC "-//W3C//DTD SVG 1.1//EN" "http://www.w3.org/Graphics/SVG/1.1/DTD/svg11.dtd">
<svg version="1.1" id="Layer_1" xmlns="http://www.w3.org/2000/svg" xmlns:xlink="http://www.w3.org/1999/xlink" x="0px" y="0px"
	 viewBox="0 0 128 128" style="enable-background:new 0 0 128 128;" xml:space="preserve">
<style type="text/css">
	.st0{fill:#333333;}
	.st1{fill:#F1EEF6;}
	.st2{fill:#808080;}
	.st3{fill:#1A1A1A;}
	.st4{fill:#E5E5E5;}
	.st5{fill:#D4C8E3;}
	.st6{fill:none;stroke:#FFFFFF;stroke-miterlimit:10;}
	.st7{fill:#D2C6E1;}
	.st8{fill:#4D4D4D;}
	.st9{fill:none;stroke:#B2B2B2;stroke-miterlimit:10;}
	.st10{fill:#FFFFFF;}
	.st11{fill:none;stroke:#808080;stroke-miterlimit:10;}
	.st12{fill:none;stroke:#4D4D4D;stroke-width:2.2691;stroke-linecap:round;stroke-linejoin:round;stroke-miterlimit:10;}
	.st13{fill:none;stroke:#4D4D4D;stroke-width:2.1559;stroke-linecap:round;stroke-linejoin:round;stroke-miterlimit:10;}
	.st14{fill:none;stroke:#4D4D4D;stroke-width:2.1558;stroke-linecap:round;stroke-linejoin:round;stroke-miterlimit:10;}
	.st15{fill:#241E21;}
	.st16{fill:none;stroke:#4D4D4D;stroke-width:2.1618;stroke-linecap:round;stroke-linejoin:round;stroke-miterlimit:10;}
	.st17{fill:none;stroke:#4D4D4D;stroke-width:2.5566;stroke-linecap:round;stroke-linejoin:round;stroke-miterlimit:10;}
	.st18{fill:none;stroke:#4D4D4D;stroke-width:2.3992;stroke-linecap:round;stroke-linejoin:round;stroke-miterlimit:10;}
	.st19{fill:none;stroke:#4D4D4D;stroke-width:2.607;stroke-linecap:round;stroke-linejoin:round;stroke-miterlimit:10;}
	.st20{fill:none;stroke:#4D4D4D;stroke-width:2.0373;stroke-linecap:round;stroke-linejoin:round;stroke-miterlimit:10;}
	.st21{fill:none;stroke:#4D4D4D;stroke-width:1.7268;stroke-linecap:round;stroke-linejoin:round;stroke-miterlimit:10;}
	.st22{fill:none;stroke:#4D4D4D;stroke-width:2.0207;stroke-linecap:round;stroke-linejoin:round;stroke-miterlimit:10;}
	.st23{fill:#666666;}
	.st24{fill:none;stroke:#666666;stroke-miterlimit:10;}
	.st25{fill:none;stroke:#E5E5E5;stroke-miterlimit:10;}
</style>
<g>
	<path class="st10" d="M119.7,11.4c-7.6-7.6-17.1-11.6-48.3-11.6h-5.8h-3.3h-5.8c-31.2,0-40.7,4-48.3,11.6C1.8,17.8,0,25.8,0,43.9
		v40.3c0,18,1.8,26.1,8.3,32.5c7.6,7.6,17.1,11.6,48.3,11.6h5.8h3.3h5.8c31.2,0,40.7-4,48.3-11.6c6.4-6.4,8.3-14.4,8.3-32.5V43.9
		C128,25.8,126.2,17.8,119.7,11.4"/>
	<g>
		<g>
			<path class="st8" d="M94.5,104.4H76.1c-1.6,0-2.8-1.2-2.9-2.8c0-1-0.2-10.3,4.6-15.3c2-2,4.6-3.2,7.5-3c0.1,0,0.1,0,0.2,0
				c2.8,0,5.3,1,7.2,3c4.8,5,4.7,14.3,4.6,15.3C97.3,103.2,96,104.4,94.5,104.4z M79.1,98.6h12.4c-0.3-2.7-1-6.4-2.9-8.3
				c-0.9-0.9-2-1.2-3.3-1.3c-0.1,0-0.1,0-0.2,0c-1.3,0-2.2,0.4-3.1,1.3C80.1,92.2,79.4,95.9,79.1,98.6z M51.9,104.4H33.5
				c-1.6,0-2.8-1.2-2.9-2.8c0-1-0.2-10.3,4.6-15.3c1.9-2,4.4-3,7.2-3c0.1,0,0.1,0,0.2,0c0.1,0,0.1,0,0.2,0c2.8,0,5.3,1,7.2,3
				c4.8,5,4.7,14.3,4.6,15.3C54.8,103.2,53.5,104.4,51.9,104.4z M36.6,98.6h12.4c-0.3-2.7-1-6.4-2.9-8.3c-0.8-0.9-1.8-1.3-3.1-1.3
				c-0.1,0-0.1,0-0.2,0c-0.1,0-0.1,0-0.2,0c-1.3,0-2.2,0.4-3.1,1.3C37.6,92.2,36.8,95.9,36.6,98.6z M70.1,82.5
				c-0.8,0-1.6-0.3-2.1-0.9l-4-4.3L60,81.5c-1.1,1.2-2.9,1.2-4.1,0.2c-1.2-1.1-1.2-2.9-0.2-4.1L61,72v-7.3c0-1.6,1.3-2.9,2.9-2.9
				c1.6,0,2.9,1.3,2.9,2.9v7.1l5.4,5.9c1.1,1.2,1,3-0.2,4.1C71.5,82.2,70.8,82.5,70.1,82.5z M85.3,82.2c-4.7,0-8.5-3.8-8.5-8.5
				c0-4.7,3.8-8.5,8.5-8.5c4.7,0,8.5,3.8,8.5,8.5C93.8,78.4,90,82.2,85.3,82.2z M85.3,71c-1.5,0-2.7,1.2-2.7,2.7
				c0,1.5,1.2,2.7,2.7,2.7c1.5,0,2.7-1.2,2.7-2.7C88,72.2,86.8,71,85.3,71z M42.7,82.2c-4.7,0-8.5-3.8-8.5-8.5
				c0-4.7,3.8-8.5,8.5-8.5c4.7,0,8.5,3.8,8.5,8.5C51.2,78.4,47.4,82.2,42.7,82.2z M42.7,71c-1.5,0-2.7,1.2-2.7,2.7
				c0,1.5,1.2,2.7,2.7,2.7c1.5,0,2.7-1.2,2.7-2.7C45.4,72.2,44.2,71,42.7,71z M75.9,60.2H52.1c-1.6,0-2.9-1.2-2.9-2.8
				c0-0.5-0.3-12.9,5.8-19.2c2.4-2.4,5.3-3.7,8.8-3.7c0.1,0,0.2,0,0.3,0c0.1,0,0.2,0,0.3,0c3.5,0,6.4,1.2,8.8,3.7
				c6.1,6.3,5.8,18.7,5.8,19.2C78.8,58.9,77.5,60.2,75.9,60.2z M55,54.4H73c-0.3-3.8-1.3-9.3-4.1-12.2c-1.2-1.3-2.8-1.9-4.6-1.9
				c-0.1,0-0.2,0-0.3,0c-0.1,0-0.2,0-0.3,0c-1.9,0-3.4,0.6-4.6,1.9C56.3,45,55.3,50.6,55,54.4z M64,33.4c-5.6,0-10.2-4.6-10.2-10.2
				c0-5.6,4.6-10.2,10.2-10.2c5.6,0,10.2,4.6,10.2,10.2C74.2,28.9,69.6,33.4,64,33.4z M64,18.9c-2.4,0-4.4,2-4.4,4.4
				c0,2.4,2,4.4,4.4,4.4c2.4,0,4.4-2,4.4-4.4C68.4,20.8,66.4,18.9,64,18.9z"/>
		</g>
	</g>
</g>
</svg>
