<?xml version="1.0" standalone="no"?>
<!DOCTYPE svg PUBLIC "-//W3C//DTD SVG 1.1//EN" "http://www.w3.org/Graphics/SVG/1.1/DTD/svg11.dtd" >
<svg xmlns="http://www.w3.org/2000/svg">
<metadata></metadata>
<defs>
<font id="infotextbold" horiz-adv-x="1114" >
<font-face units-per-em="2048" ascent="1638" descent="-410" />
<missing-glyph horiz-adv-x="409" />
<glyph unicode="&#xfb01;" horiz-adv-x="1056" d="M-10 852v90q0 23 16.5 39t38.5 16h105v125q0 80 20 144.5t65.5 110.5t116 72t170.5 26q39 0 84 -5.5t87 -12.5t78 -17t58 -21q23 -10 28 -27.5t-1 -39.5l-35 -129q-6 -20 -20.5 -26.5t-42.5 -0.5q-10 2 -34 8t-53.5 13.5t-62.5 12.5t-61 5q-70 0 -100.5 -30.5 t-30.5 -90.5v-117h497q23 0 39.5 -16t16.5 -39v-887q0 -23 -16.5 -39t-39.5 -16h-155q-23 0 -39.5 16.5t-16.5 38.5v742h-286v-742q0 -23 -16.5 -39t-39.5 -16h-155q-23 0 -39 16.5t-16 38.5v742h-105q-23 0 -39 16t-16 39z" />
<glyph unicode="&#xfb02;" horiz-adv-x="1155" d="M-10 852v90q0 23 16.5 39t38.5 16h105v146q0 61 19 121.5t63 107.5t118 76t185 29q123 0 222 -30t158 -50q23 -8 38.5 -19.5t15.5 -34.5v-1034q0 -41 8 -60.5t35 -19.5q14 0 33.5 3.5t29.5 5.5q51 12 60 -37l20 -131q6 -39 -35 -56q-76 -29 -180 -28q-131 0 -184.5 68.5 t-53.5 185.5v964q-27 6 -72.5 18.5t-99.5 12.5q-70 0 -92 -28.5t-22 -71.5v-138h137q23 0 39 -16t16 -39v-90q0 -23 -16.5 -39t-38.5 -16h-137v-742q0 -23 -16.5 -39t-39.5 -16h-155q-23 0 -39 16.5t-16 38.5v742h-105q-23 0 -39 16t-16 39z" />
<glyph horiz-adv-x="0" />
<glyph unicode="&#xd;" horiz-adv-x="409" />
<glyph unicode=" "  horiz-adv-x="409" />
<glyph unicode="&#x09;" horiz-adv-x="409" />
<glyph unicode="&#xa0;" horiz-adv-x="409" />
<glyph unicode="!" horiz-adv-x="569" d="M121 150q0 68 48 115.5t116 47.5t116 -47.5t48 -115.5t-48.5 -115t-115.5 -47q-68 0 -116 47t-48 115zM152 1372q0 23 16 39t39 16h155q23 0 39.5 -16t16.5 -39l-25 -874q0 -23 -16.5 -39.5t-38.5 -16.5h-109q-23 0 -39 16.5t-16 39.5z" />
<glyph unicode="&#x22;" horiz-adv-x="886" d="M117 1401q-2 23 15.5 39t39.5 16h145q23 0 40.5 -16.5t15.5 -38.5l-25 -369q-2 -23 -17.5 -39t-37.5 -16h-98q-23 0 -38.5 16.5t-17.5 38.5zM514 1401q-2 23 15.5 39t39.5 16h146q23 0 40 -16.5t15 -38.5l-25 -369q-2 -23 -17 -39t-38 -16h-98q-23 0 -38 16.5t-17 38.5z " />
<glyph unicode="#" horiz-adv-x="1292" d="M61 477l13 78q4 23 18 39t37 16h184l33 236h-168q-23 0 -41 16.5t-14 38.5l12 78q4 23 18.5 39t36.5 16h185l43 303q4 25 20.5 38.5t38.5 13.5h98q23 0 35.5 -15.5t7.5 -38.5l-43 -301h232l43 303q4 25 20.5 38.5t38.5 13.5h99q23 0 35 -15.5t8 -38.5l-43 -301h168 q23 0 41 -12t14 -35l-12 -86q-4 -23 -18.5 -39t-37.5 -16h-182l-35 -236h168q23 0 41.5 -12t13.5 -35l-12 -86q-4 -23 -18.5 -39t-36.5 -16h-182l-54 -367q-4 -23 -22.5 -39t-40.5 -16h-90q-23 0 -37 16.5t-10 38.5l53 367h-232l-53 -367q-4 -23 -22.5 -39t-40.5 -16h-90 q-23 0 -37.5 16.5t-10.5 38.5l54 367h-170q-23 0 -41.5 16.5t-14.5 38.5zM514 610h231l33 236h-229z" />
<glyph unicode="$" horiz-adv-x="1284" d="M186 975q0 158 98.5 260t276.5 125v139q0 23 16.5 39t38.5 16h82q23 0 39.5 -16t16.5 -39v-139q86 -8 145 -17.5t115 -29.5q39 -12 28 -62l-26 -127q-4 -25 -22.5 -32t-47.5 2q-53 16 -93 23t-99 11v-335q74 -20 143.5 -49t123.5 -75t86 -113t32 -165q0 -72 -20.5 -136.5 t-66.5 -116.5t-120 -90t-178 -54v-170q0 -23 -16.5 -39t-39.5 -16h-82q-23 0 -39 16t-16 39v164q-100 4 -184 16t-156 41q-18 8 -26.5 26.5t-4.5 41.5l29 133q4 23 25.5 31t42.5 2q37 -12 106.5 -30t167.5 -24v373q-72 18 -139.5 44t-119.5 69t-84 106.5t-32 157.5zM432 985 q0 -53 34 -89t95 -56v286q-68 -10 -98.5 -42.5t-30.5 -98.5zM754 236q61 14 97 49.5t36 103.5q0 59 -35 97t-98 61v-311z" />
<glyph unicode="%" horiz-adv-x="1912" d="M80 952q0 201 86 308.5t260 107.5t259 -107.5t85 -308.5q0 -205 -85 -319.5t-259 -114.5t-260 115t-86 319zM309 954q0 -139 26.5 -191t88.5 -52q61 0 88 54t27 189q0 117 -23.5 173.5t-89.5 56.5q-55 0 -86 -54.5t-31 -175.5zM643 -25l408 1409q6 23 27.5 37.5 t43.5 14.5h97q31 0 43 -21.5t4 -50.5l-408 -1409q-6 -23 -27.5 -37t-44.5 -14h-96q-31 0 -43 21.5t-4 49.5zM1143 420q0 201 86 308.5t260 107.5t259 -107.5t85 -308.5q0 -205 -85 -319.5t-259 -114.5t-260 114.5t-86 319.5zM1372 422q0 -139 26.5 -191.5t88.5 -52.5 q61 0 88 54.5t27 189.5q0 117 -24 173t-89 56q-55 0 -86 -54t-31 -175z" />
<glyph unicode="&#x26;" horiz-adv-x="1167" d="M37 377q0 63 17.5 115.5t47 95.5t67.5 76.5t81 60.5q-23 25 -46.5 55.5t-44 70.5t-33.5 88t-13 110q0 162 102 258t283 96q76 0 141.5 -23.5t113.5 -67.5t74.5 -105.5t26.5 -137.5q0 -66 -19.5 -120t-52 -99t-75.5 -81t-89 -64l203 -224q6 33 8 66t2 63v54q0 23 16.5 39 t39.5 16h123q23 0 39 -16.5t16 -38.5v-56q0 -90 -17.5 -170t-54.5 -151l109 -123q35 -41 -4 -76l-105 -98q-16 -16 -39.5 -16.5t-38.5 16.5l-94 106q-63 -53 -146 -81.5t-198 -28.5q-100 0 -182 27.5t-139.5 78.5t-88 123t-30.5 162zM324 393q0 -51 15 -87t39.5 -58.5 t56.5 -32.5t65 -10q53 0 97 14t79 39l-273 303q-33 -31 -56 -73t-23 -95zM365 1069q0 -39 9 -66.5t25.5 -51t38 -46t45.5 -49.5q51 37 83 87t32 122q0 68 -30.5 103.5t-84.5 35.5q-51 0 -84.5 -34.5t-33.5 -100.5z" />
<glyph unicode="'" horiz-adv-x="477" d="M111 1401q-2 23 15 39t40 16h145q23 0 40.5 -16.5t15.5 -38.5l-25 -369q-2 -23 -17.5 -39t-37.5 -16h-99q-23 0 -38 16.5t-17 38.5z" />
<glyph unicode="(" horiz-adv-x="546" d="M72 655q0 229 60.5 443.5t152.5 386.5q12 23 32.5 31t38.5 0l84 -35q23 -10 31 -29.5t0 -42.5q-59 -170 -96 -351t-37 -403q0 -223 37 -415.5t96 -362.5q8 -23 0 -42t-31 -30l-84 -34q-23 -10 -42 -1t-29 31q-43 84 -82 184.5t-69 211t-46 227.5t-16 231z" />
<glyph unicode=")" horiz-adv-x="546" d="M75.5 -165q-7.5 20 0.5 42q59 170 96 362.5t37 415.5q0 221 -37 402.5t-96 351.5q-8 23 0 42t30 30l84 35q18 8 39 -0.5t33 -30.5q92 -172 152.5 -386.5t60.5 -443.5q0 -115 -16.5 -231.5t-46 -227t-68.5 -211t-82 -184.5q-10 -23 -29.5 -32t-42.5 2l-84 34 q-23 10 -30.5 30z" />
<glyph unicode="*" horiz-adv-x="882" d="M55 1143l27 82q8 23 27.5 33t42.5 4l190 -62v201q0 23 16.5 39t38.5 16h86q23 0 39.5 -16.5t16.5 -38.5v-201l192 64q23 8 41.5 -2.5t26.5 -32.5l28 -82q8 -23 -3 -43.5t-31 -26.5l-193 -61l121 -164q14 -18 10 -39.5t-22 -36.5l-70 -51q-18 -14 -42 -11t-36 21l-117 162 l-118 -164q-14 -18 -36 -22t-40 10l-70 51q-20 14 -23 36.5t9 41.5l117 162l-193 61q-23 8 -33 27.5t-2 42.5z" />
<glyph unicode="+" horiz-adv-x="1042" d="M84 471v86q0 23 16.5 39t38.5 16h271v291q0 23 16 39t39 16h94q23 0 39 -16t16 -39v-291h271q23 0 39 -16t16 -39v-86q0 -23 -16.5 -39t-38.5 -16h-271v-299q0 -23 -16 -39.5t-39 -16.5h-94q-23 0 -39 16.5t-16 39.5v299h-271q-23 0 -39 16.5t-16 38.5z" />
<glyph unicode="," horiz-adv-x="448" d="M32 -114.5q-5 18.5 11 38.5q35 41 51 70t-6 51q-16 18 -29.5 45t-13.5 60q0 68 48 115.5t116 47.5q78 0 121 -51t43 -129q0 -82 -43 -160.5t-137 -156.5q-18 -16 -38 -23.5t-40 8.5l-62 52q-16 14 -21 32.5z" />
<glyph unicode="-" horiz-adv-x="632" d="M72 485v115q0 23 16 39t39 16h383q23 0 39 -16t16 -39v-115q0 -23 -16.5 -39t-38.5 -16h-383q-23 0 -39 16.5t-16 38.5z" />
<glyph unicode="." horiz-adv-x="417" d="M45 150q0 68 48 115.5t116 47.5t116 -47.5t48 -115.5t-48.5 -116t-115.5 -48q-68 0 -116 48t-48 116z" />
<glyph unicode="/" horiz-adv-x="659" d="M33 -121l459 1579q6 23 27.5 37t43.5 14h96q31 0 43.5 -21.5t4.5 -49.5l-459 -1579q-6 -23 -27.5 -37.5t-44.5 -14.5h-96q-31 0 -43 21.5t-4 50.5z" />
<glyph unicode="0" horiz-adv-x="925" d="M47 573q0 127 25.5 232.5t78 182.5t130 119t182.5 42q109 0 187.5 -45t128.5 -123t75 -182.5t25 -225.5q0 -111 -20.5 -217t-70 -188t-129 -132t-196.5 -50q-111 0 -189.5 45t-129 122.5t-74 185t-23.5 234.5zM317 573q0 -176 35 -272t107 -96q41 0 69.5 26.5t46 75.5 t25.5 116.5t8 149.5q0 193 -39 277t-110 84q-74 0 -108 -97.5t-34 -263.5z" />
<glyph unicode="1" horiz-adv-x="808" d="M53 900q6 22 29 32l410 209q39 20 71.5 6t32.5 -72v-858h106q23 0 39.5 -16.5t16.5 -38.5v-107q0 -23 -16.5 -39t-39.5 -16h-524q-23 0 -39 16.5t-16 38.5v107q0 23 16.5 39t38.5 16h152v574l-137 -74q-20 -10 -42 -4t-32 26l-62 119q-10 20 -4 42z" />
<glyph unicode="2" horiz-adv-x="886" d="M51 57v95q0 29 4 49t27 37q150 123 241 200.5t140 135t64.5 102.5t15.5 102q0 55 -40 94t-112 39q-49 0 -95 -20.5t-101 -56.5q-23 -14 -44.5 -7t-31.5 29l-62 117q-10 20 -3 41.5t26 32.5q80 49 154.5 75.5t158.5 26.5q102 0 180 -27.5t131.5 -77t80 -117t26.5 -147.5 q0 -68 -16.5 -131t-60.5 -127.5t-125 -136.5t-210 -154h369q23 0 40 -17t17 -40v-117q0 -23 -17 -40t-40 -17h-659q-23 0 -40.5 17.5t-17.5 39.5z" />
<glyph unicode="3" horiz-adv-x="843" d="M23 -137q-2 23 8 36t32 13q104 0 189.5 14.5t147 45t94 80.5t32.5 122q0 90 -66.5 139t-219.5 49q-35 0 -45.5 17.5t-10.5 42.5v131q0 20 12.5 36.5t41.5 16.5q117 0 178 47t61 115q0 72 -38 107.5t-91 35.5t-97 -15t-81 -38q-23 -12 -44.5 -12t-33.5 22l-63 125 q-25 49 20 76q59 35 144.5 57.5t158.5 22.5q90 0 163 -27.5t124 -78t78.5 -120t27.5 -153.5q0 -72 -27.5 -136.5t-78.5 -113.5l-25 -18q90 -49 136.5 -134t46.5 -196q0 -244 -185.5 -373t-529.5 -129q-43 0 -47 51z" />
<glyph unicode="4" horiz-adv-x="978" d="M41 102v111q0 20 4 33.5t14 36.5l328 807q18 45 72 45h168q27 0 36 -18.5t-1 -43.5l-336 -790h196l45 360q4 23 18.5 39t37.5 16h104q23 0 39 -16t16 -39v-360h97q23 0 39 -16.5t16 -39.5v-125q0 -23 -16.5 -39t-38.5 -16h-97v-264q0 -23 -16 -39t-39 -16h-156 q-23 0 -39 16t-16 39v264h-420q-23 0 -39 16.5t-16 38.5z" />
<glyph unicode="5" horiz-adv-x="880" d="M61 487l23 592q2 23 18.5 39.5t38.5 16.5h551q23 0 39.5 -16.5t16.5 -39.5v-125q0 -23 -16.5 -39t-39.5 -16h-354l-8 -250q37 23 73.5 31t79.5 8q154 0 249 -111.5t95 -316.5q0 -162 -51 -274.5t-143 -182t-218 -100.5t-274 -31q-20 0 -35.5 11.5t-19.5 37.5l-14 140 q-4 23 8 39t37 16q227 0 335.5 84t108.5 225q0 113 -34.5 165t-110.5 52q-41 0 -73 -17t-71 -46q-14 -10 -31.5 -15.5t-45.5 11.5l-97 51q-18 10 -28.5 21.5t-8.5 39.5z" />
<glyph unicode="6" horiz-adv-x="946" d="M66 610q0 78 10 165t32.5 171t60.5 161t95.5 134t133 92t175.5 35q61 0 105.5 -6t91.5 -23q25 -8 29 -24.5t-2 -38.5l-33 -135q-14 -53 -62 -37q-55 18 -131 18q-33 0 -68.5 -18.5t-67.5 -54t-56.5 -90t-32.5 -125.5q35 37 86 63.5t111 26.5q88 0 153.5 -37t109.5 -100.5 t65.5 -149.5t21.5 -184q0 -215 -103.5 -341t-297.5 -126q-129 0 -212 52t-131.5 139t-65.5 199.5t-17 233.5zM340 463q0 -72 13.5 -118t34 -73.5t47 -38t52.5 -10.5q23 0 47.5 9.5t44 34t32 68.5t12.5 114t-13.5 115.5t-35 73.5t-46 39t-47.5 11t-48 -10t-45.5 -37t-34 -70 t-13.5 -108z" />
<glyph unicode="7" horiz-adv-x="849" d="M-18 944v135q0 23 16 39.5t39 16.5h733q41 0 53.5 -25t-0.5 -63l-403 -1237q-16 -49 -66 -50h-176q-27 0 -39 18.5t-2 43.5l385 1067h-485q-23 0 -39 16.5t-16 38.5z" />
<glyph unicode="8" horiz-adv-x="940" d="M53 373q0 74 17.5 127t47 93t68.5 68.5t82 53.5q-35 20 -65.5 44.5t-53 59.5t-36 84t-13.5 117q0 76 27 139.5t76 109.5t118.5 72.5t153.5 26.5q174 0 273.5 -97t99.5 -253q0 -59 -13.5 -102.5t-37 -75t-55 -55t-68.5 -44.5q43 -23 81 -50t67.5 -69t47 -99.5t17.5 -137.5 q0 -188 -111.5 -293.5t-302.5 -105.5q-94 0 -171 26.5t-132 76.5t-86 122t-31 162zM342 399q0 -92 36 -132t95 -40q53 0 89 39t36 133q0 47 -11.5 82t-29.5 60.5t-45 45t-57 36.5q-49 -37 -81 -86.5t-32 -137.5zM365 1020q0 -76 33.5 -116t86.5 -73q45 35 74 76t29 113 t-36 102.5t-77 30.5t-75.5 -30.5t-34.5 -102.5z" />
<glyph unicode="9" horiz-adv-x="933" d="M53 682q0 215 103.5 341t298.5 126q129 0 212 -52.5t131 -139.5t65.5 -200.5t17.5 -234.5q0 -231 -51.5 -406t-157.5 -282q-82 -82 -189.5 -122t-269.5 -40q-20 0 -30.5 13.5t-12.5 33.5l-10 158q-2 20 12 29.5t33 9.5q80 0 148.5 23.5t120.5 70.5t85 120t41 169 q-35 -37 -86 -63.5t-111 -26.5q-88 0 -153.5 37t-109.5 100.5t-65.5 150.5t-21.5 185zM324 686q0 -70 13 -117t34.5 -74.5t46 -39t47.5 -11.5t48.5 11.5t46 37t33.5 69.5t13 110q0 72 -13 118t-33.5 73.5t-47.5 37.5t-53 10q-23 0 -47.5 -9t-44 -33.5t-31.5 -68.5t-12 -114z " />
<glyph unicode=":" horiz-adv-x="475" d="M102 150q0 68 48.5 115.5t115.5 47.5q68 0 116 -47.5t48 -115.5t-48 -116t-116 -48t-116 48t-48 116zM102 784q0 68 48.5 116t115.5 48q68 0 116 -48t48 -116t-48 -115.5t-116 -47.5t-116 48t-48 115z" />
<glyph unicode=";" horiz-adv-x="481" d="M89.5 -114.5q-5.5 18.5 10.5 38.5q35 41 52 70q16 29 -7 51q-16 18 -29.5 45t-13.5 60q0 68 48.5 115.5t115.5 47.5q78 0 121 -51t43 -129q0 -82 -43 -160.5t-137 -156.5q-18 -16 -37.5 -23.5t-40.5 8.5l-61 52q-16 14 -21.5 32.5zM102 784q0 68 48.5 116t115.5 48 q68 0 116 -48t48 -116t-48 -115.5t-116 -47.5t-116 48t-48 115z" />
<glyph unicode="&#x3c;" horiz-adv-x="927" d="M72 573v86q0 37 32 52l693 342q23 10 41 -2.5t18 -34.5v-119q0 -39 -35 -55l-506 -217l502 -170q39 -14 39 -54v-118q0 -23 -18.5 -35t-40.5 -2l-693 276q-16 6 -24 21.5t-8 29.5z" />
<glyph unicode="=" horiz-adv-x="1224" d="M104 383v115q0 23 16.5 39t39.5 16h905q23 0 39 -16.5t16 -38.5v-115q0 -23 -16.5 -39t-38.5 -16h-905q-23 0 -39.5 16t-16.5 39zM104 743v115q0 23 16.5 39t39.5 16h905q23 0 39 -16t16 -39v-115q0 -23 -16.5 -39t-38.5 -16h-905q-23 0 -39.5 16.5t-16.5 38.5z" />
<glyph unicode="&#x3e;" horiz-adv-x="927" d="M72 283v118q0 39 39 54l501 170l-506 217q-35 16 -34 55v119q0 23 18.5 35t40.5 2l692 -342q33 -14 33 -52v-86q0 -14 -8 -29.5t-25 -21.5l-692 -276q-23 -10 -41 2t-18 35z" />
<glyph unicode="?" horiz-adv-x="768" d="M53 1337q2 17 23 27q78 43 146.5 60.5t133.5 17.5q80 0 145.5 -25.5t114 -73t74 -112t25.5 -144.5q0 -104 -39 -177.5t-85 -134t-85 -119t-39 -132.5v-41q0 -23 -16.5 -39t-38.5 -16h-156q-23 0 -39 16.5t-16 38.5v74q0 78 39 147.5t85 133t85 123t39 116.5q0 47 -26 83 t-79 36q-45 0 -82 -14.5t-74 -32.5q-25 -12 -38 -7t-23 23l-66 135q-10 20 -8 37zM178 150q0 68 48 115.5t116 47.5t116 -47.5t48 -115.5t-48 -116t-116 -48t-116 48t-48 116z" />
<glyph unicode="@" horiz-adv-x="1867" d="M121 387q0 190 63.5 372.5t183 326t288.5 230.5t382 87q186 0 323.5 -59.5t225.5 -159t131 -229.5t43 -273q0 -160 -31.5 -290t-92 -220t-147.5 -139t-196 -49t-160 61t-55 166q-45 -96 -130 -160.5t-183 -64.5q-115 0 -185.5 88t-70.5 266q0 125 37 245t99.5 215 t143 153.5t171.5 58.5q82 0 127 -35t63 -92l31 71q16 37 57 37h113q43 0 34 -43l-94 -538q-12 -66 -15 -110t2 -69.5t21.5 -36t45.5 -10.5q27 0 58.5 26t59 83t46 147t18.5 217q0 115 -25.5 215.5t-86 176t-160 118.5t-246.5 43q-125 0 -243 -57t-209 -162.5t-146.5 -257 t-55.5 -340.5q0 -158 42 -274.5t116 -192t172 -112.5t213 -37q156 0 307 69q29 12 47.5 7t30.5 -21t20.5 -36.5t14.5 -39.5q6 -18 4 -44.5t-43 -47.5q-109 -53 -208 -70.5t-216 -17.5q-139 0 -271 53.5t-235.5 155.5t-166 254t-62.5 346zM774 307q0 -51 20.5 -84t61.5 -33 q59 0 102 50.5t72 127t42 169t13 176.5q0 55 -26.5 83.5t-67.5 28.5q-33 0 -70.5 -35.5t-70.5 -103.5t-54.5 -164t-21.5 -215z" />
<glyph unicode="A" horiz-adv-x="1138" d="M6 72l356 1265q6 23 28 37.5t44 14.5h236q23 0 43 -14.5t28 -37.5l383 -1265q3 -12 3 -22q0 -16 -7 -28q-12 -22 -43 -22h-184q-27 0 -46.5 13.5t-25.5 37.5l-65 256h-400l-61 -256q-14 -51 -72 -51h-170q-31 0 -43 22q-7 13 -7 28q0 10 3 22zM414 553h280l-112 479 q-6 23 -10.5 52.5t-8.5 59.5t-7 57.5t-5 47.5q-4 -43 -12.5 -106.5t-18.5 -110.5z" />
<glyph unicode="B" d="M135 55v1278q0 23 17.5 39.5t40.5 16.5h432q90 0 159.5 -28t117.5 -77t73.5 -115.5t25.5 -144.5q0 -98 -46 -169t-152 -114q123 -35 191.5 -127t68.5 -217q0 -190 -103.5 -293.5t-306.5 -103.5h-460q-23 0 -40.5 16.5t-17.5 38.5zM412 236h184q78 0 126 54t48 142 q0 37 -14.5 72t-40 61.5t-63.5 43t-85 16.5h-155v-389zM412 836h137q86 0 130 47.5t44 117.5q0 74 -41 119t-127 45h-143v-329z" />
<glyph unicode="C" horiz-adv-x="950" d="M49 696q0 156 39 286t110.5 223t176 145.5t237.5 52.5q59 0 131 -11.5t134 -45.5q23 -12 29.5 -32t-3.5 -42l-53 -109q-14 -28 -39 -28q-12 0 -27 6q-31 14 -68.5 22t-76.5 8q-68 0 -124 -25.5t-96 -81.5t-62.5 -147.5t-22.5 -222.5q0 -127 20.5 -216t60.5 -144t97 -81 t131 -26q33 0 75 10.5t77 26.5q18 8 37.5 3t27.5 -23l53 -125q6 -15 6 -27q0 -8 -3 -16q-7 -18 -21 -27q-70 -35 -141.5 -49t-145.5 -14q-129 0 -232.5 46t-176 135t-111.5 222t-39 307z" />
<glyph unicode="D" horiz-adv-x="1105" d="M135 57v1274q0 23 17.5 40.5t40.5 17.5h368q49 0 104.5 -8.5t110.5 -34t106.5 -72.5t90.5 -124t62.5 -188.5t23.5 -267.5q0 -152 -21.5 -278.5t-76 -219t-148.5 -144.5t-238 -52h-382q-23 0 -40.5 17.5t-17.5 39.5zM412 233h94q76 0 127 24t83 78t45 143t13 222 q0 229 -56 347t-202 118h-104v-932z" />
<glyph unicode="E" horiz-adv-x="991" d="M135 57v1274q0 23 17.5 40.5t40.5 17.5h647q23 0 40 -17.5t17 -40.5v-121q0 -23 -17.5 -40t-39.5 -17h-428v-307h381q23 0 40 -17.5t17 -40.5v-110q0 -23 -17.5 -40t-39.5 -17h-381v-375h446q23 0 40 -17.5t17 -40.5v-131q0 -23 -17 -40t-40 -17h-665q-23 0 -40.5 17.5 t-17.5 39.5z" />
<glyph unicode="F" horiz-adv-x="899" d="M135 57v1274q0 23 17.5 40.5t40.5 17.5h620q23 0 40 -17.5t17 -40.5v-121q0 -23 -17 -40t-40 -17h-401v-317h352q23 0 40 -17.5t17 -40.5v-110q0 -23 -17.5 -40.5t-39.5 -17.5h-352v-553q0 -23 -17.5 -40t-40.5 -17h-161q-23 0 -40.5 17.5t-17.5 39.5z" />
<glyph unicode="G" horiz-adv-x="1112" d="M47 698q0 156 39 286t111.5 223t177 144.5t237.5 51.5q104 0 194.5 -21.5t162.5 -60.5q33 -18 33 -46q0 -13 -7 -28l-49 -104q-17 -34 -46 -34q-13 0 -28 7q-53 23 -109 39t-145 16q-133 0 -207.5 -113.5t-74.5 -375.5q0 -131 20.5 -218t58.5 -140.5t93 -76t127 -22.5 q51 0 92 13v335h-139q-23 0 -40.5 17.5t-17.5 40.5v121q0 23 17.5 40t40.5 17h356q23 0 40 -17.5t17 -39.5v-615q0 -41 -12 -63.5t-59 -38.5q-59 -20 -136 -34.5t-163 -14.5q-166 0 -277.5 53t-179.5 148.5t-97.5 226.5t-29.5 284z" />
<glyph unicode="H" horiz-adv-x="1177" d="M135 57v1274q0 23 17.5 40.5t40.5 17.5h161q23 0 40.5 -17.5t17.5 -40.5v-477h354v477q0 23 17.5 40.5t39.5 17.5h162q23 0 40 -17.5t17 -40.5v-1274q0 -23 -17 -40t-40 -17h-162q-23 0 -40 17.5t-17 39.5v564h-354v-564q0 -23 -17.5 -40t-40.5 -17h-161 q-23 0 -40.5 17.5t-17.5 39.5z" />
<glyph unicode="I" horiz-adv-x="546" d="M131 57v1274q0 23 17.5 40.5t39.5 17.5h170q23 0 40.5 -17.5t17.5 -40.5v-1274q0 -23 -17.5 -40t-40.5 -17h-170q-23 0 -40 17.5t-17 39.5z" />
<glyph unicode="J" horiz-adv-x="546" d="M-9 -229q5 20 29 34l56 33q35 20 47 44t12 61v1388q0 23 17.5 40.5t40.5 17.5h161q23 0 40.5 -17.5t17.5 -40.5v-1421q0 -98 -42 -162.5t-137 -114.5l-92 -49q-12 -6 -25 -6q-9 0 -18 3q-24 7 -35 28l-65 119q-8 16 -8 31q0 6 1 12z" />
<glyph unicode="K" horiz-adv-x="1064" d="M135 55v1278q0 23 17.5 39.5t40.5 16.5h161q23 0 40.5 -16.5t17.5 -39.5v-497l309 505q16 29 37.5 38.5t52.5 9.5h186q35 0 45.5 -24t-10.5 -52l-373 -547l404 -690q13 -23 13 -40q0 -8 -3 -16q-10 -20 -45 -20h-205q-31 0 -53 9t-37 38l-321 627v-619q0 -23 -17.5 -39 t-40.5 -16h-161q-23 0 -40.5 16.5t-17.5 38.5z" />
<glyph unicode="L" horiz-adv-x="894" d="M135 57v1274q0 23 17.5 40.5t40.5 17.5h161q23 0 40.5 -17.5t17.5 -40.5v-1085h413q23 0 40.5 -17.5t17.5 -40.5v-131q0 -23 -17.5 -40t-40.5 -17h-632q-23 0 -40.5 17.5t-17.5 39.5z" />
<glyph unicode="M" horiz-adv-x="1476" d="M72 57l110 1274q2 23 22.5 40.5t43.5 17.5h233q23 0 45.5 -14.5t26.5 -37.5l156 -770q4 -20 8 -53t7 -68.5t6 -71.5t5 -63q2 27 5 63t6.5 72.5t7.5 69.5t8 51l162 770q4 23 26.5 37.5t44.5 14.5h228q23 0 43 -17.5t22 -40.5l109 -1274v-5q-1 -20 -13 -35q-14 -17 -36 -17 h-166q-23 0 -44.5 17.5t-21.5 39.5l-26 838v56v86t1 88t1 63q-4 -29 -9.5 -69t-10.5 -82t-11 -79.5t-12 -62.5l-160 -696q-4 -23 -26.5 -37.5t-45.5 -14.5h-172q-23 0 -45 14.5t-27 37.5l-151 696q-6 23 -11 60.5t-11.5 79.5t-12.5 83t-10 70q0 -16 1 -57t2 -87.5t1 -88.5 v-60l-31 -838q-2 -23 -22.5 -40t-42.5 -17h-164q-23 0 -37 18q-12 15 -12 34v5z" />
<glyph unicode="N" horiz-adv-x="1226" d="M135 55v1278q0 23 17.5 39.5t40.5 16.5h231q25 0 52.5 -12.5t35.5 -35.5l256 -704q23 -66 43 -150t49 -184q-10 100 -16 203.5t-6 181.5v645q0 23 17 39.5t40 16.5h143q23 0 40.5 -16.5t17.5 -39.5v-1278q0 -23 -17.5 -39t-40.5 -16h-247q-47 0 -64 47l-276 733 q-25 63 -46.5 156.5t-46.5 187.5q6 -47 12.5 -105t12.5 -115.5t10 -108t4 -82.5v-658q0 -23 -17.5 -39t-39.5 -16h-147q-23 0 -40.5 16.5t-17.5 38.5z" />
<glyph unicode="O" d="M55 688q0 338 125 526.5t379 188.5q246 0 372 -179.5t126 -535.5q0 -342 -122 -522t-376 -180q-252 0 -378 178t-126 524zM340 696q0 -113 8 -204t30.5 -154.5t65.5 -97t113 -33.5t114 34.5t66.5 98t30.5 153.5t8 203q0 104 -8 194.5t-31.5 156t-66.5 103.5t-113 38 q-72 0 -114 -38t-65.5 -104.5t-30.5 -155.5t-7 -194z" />
<glyph unicode="P" horiz-adv-x="1048" d="M135 57v1274q0 23 17.5 40.5t40.5 17.5h385q211 0 319.5 -111.5t108.5 -304.5q0 -96 -32 -173t-89.5 -131.5t-135 -84t-169.5 -29.5h-168v-498q0 -23 -17.5 -40t-40.5 -17h-161q-23 0 -40.5 17.5t-17.5 39.5zM412 791h147q82 0 128 50t46 132q0 86 -44 133t-130 47h-147 v-362z" />
<glyph unicode="Q" horiz-adv-x="1142" d="M55 688q0 338 125 526.5t379 188.5q246 0 372 -179.5t126 -535.5q0 -168 -30 -300t-95 -224q47 -47 98 -77t100 -56q23 -10 31 -33q3 -9 3 -18q0 -14 -7 -27l-67 -119q-22 -37 -51 -37q-12 0 -25 6q-78 41 -138.5 95.5t-113.5 126.5q-41 -18 -95.5 -28.5t-107.5 -10.5 q-252 0 -378 178t-126 524zM340 696q0 -113 8 -204t30.5 -154.5t65.5 -97t113 -33.5t114 34.5t66.5 98t30.5 153.5t8 203q0 104 -8 194.5t-31.5 156t-66.5 103.5t-113 38q-72 0 -114 -38t-65.5 -104.5t-30.5 -155.5t-7 -194z" />
<glyph unicode="R" horiz-adv-x="1120" d="M135 55v1278q0 23 17.5 39.5t40.5 16.5h374q133 0 217 -37t131.5 -91.5t64.5 -119t17 -119.5q0 -135 -71.5 -221t-200.5 -115q53 -16 104.5 -58t81.5 -106q18 -39 44 -100.5t52.5 -126t50.5 -123.5t36 -92q9 -23 9 -41q0 -9 -2 -17q-7 -22 -48 -22h-179q-31 0 -53 13.5 t-37 52.5q-23 68 -48 158.5t-62 172.5t-87 139.5t-122 57.5h-53v-539q0 -23 -17.5 -39t-40.5 -16h-161q-23 0 -40.5 16.5t-17.5 38.5zM412 799h125q88 0 134 55t46 133q0 27 -9.5 55.5t-27.5 53t-49 40t-74 15.5h-145v-352z" />
<glyph unicode="S" horiz-adv-x="929" d="M51 119l29 129q4 23 26.5 33t45.5 2q63 -23 128.5 -41.5t143.5 -18.5q39 0 73.5 8.5t61.5 26.5t43 48t16 73q0 57 -28.5 97t-74.5 68.5t-103.5 53.5t-112.5 53q-47 25 -90 54.5t-76 71.5t-52.5 98.5t-19.5 132.5q0 84 30 156.5t85 125.5t133 83t174 30q86 0 157 -15.5 t130 -37.5q23 -10 28 -27.5t1 -40.5l-29 -121q-4 -23 -20.5 -32t-44.5 1q-47 16 -92.5 32t-120.5 16q-72 0 -117 -41t-45 -115q0 -35 15 -60.5t42 -45t61.5 -37t73.5 -35.5q66 -33 131.5 -68t118.5 -84t86 -117.5t33 -168.5q0 -104 -34 -182.5t-95.5 -131.5t-145.5 -79.5 t-182 -26.5q-94 0 -186 17t-164 46q-20 7 -28 27q-6 13 -6 29q0 7 1 14z" />
<glyph unicode="T" horiz-adv-x="923" d="M0 1196v135q0 23 17.5 40.5t39.5 17.5h809q23 0 40.5 -17.5t17.5 -40.5v-135q0 -23 -17.5 -40t-40.5 -17h-266v-1082q0 -23 -17.5 -40t-39.5 -17h-162q-23 0 -40 17.5t-17 39.5v1082h-267q-23 0 -40 17.5t-17 39.5z" />
<glyph unicode="U" horiz-adv-x="1196" d="M123 449v882q0 57 55 58h164q57 0 57 -58v-878q0 -123 44 -183.5t149 -60.5q117 0 161 57.5t44 186.5v878q0 57 57 58h164q55 0 55 -58v-882q0 -227 -122 -345t-353 -118t-353 117.5t-122 345.5z" />
<glyph unicode="V" horiz-adv-x="1101" d="M14 1317q-3 11 -3 21q-1 16 7 30q12 22 43 21h183q57 0 73 -60l205 -854q16 -61 24.5 -144t14.5 -173q8 90 17.5 172t25.5 145l199 850q14 63 76 64h161q32 1 44 -21q7 -12 7 -28q0 -11 -4 -23l-360 -1266q-6 -23 -27.5 -37t-44.5 -14h-198q-23 0 -44.5 14.5t-27.5 36.5z " />
<glyph unicode="W" horiz-adv-x="1673" d="M53 1317q-1 8 -1 15q0 20 8 36q10 22 40 21h187q29 0 49 -15.5t24 -46.5l95 -864q2 -25 5 -61.5t6 -76.5t5 -79t4 -72q8 66 16.5 147.5t18.5 141.5l149 866q8 59 74 60h232q63 0 73 -60l156 -862q12 -66 20.5 -140.5t16.5 -152.5q2 31 5 70t7 80t7 76.5t5 60.5l86 868 q4 29 23.5 44.5t46.5 15.5h158q31 1 41 -21q7 -15 7 -35q0 -8 -1 -16l-189 -1266q-4 -23 -26.5 -37t-44.5 -14h-260q-23 0 -45.5 14.5t-26.5 36.5l-158 924q-4 20 -6 55t-5 73t-6 73.5t-5 58.5q-2 -23 -4 -58.5t-4 -73.5t-5.5 -74t-7.5 -56l-153 -922q-4 -23 -26.5 -37 t-45.5 -14h-264q-23 0 -45.5 14.5t-26.5 36.5z" />
<glyph unicode="X" horiz-adv-x="1095" d="M14 20q-3 7 -3 16q0 16 12 38l362 649l-324 592q-16 31 -7 52.5t42 21.5h207q29 0 50.5 -13.5t31.5 -34.5l170 -380l170 380q10 23 31.5 35.5t50.5 12.5h172q33 0 42 -20.5t-7 -53.5l-312 -578l371 -663q10 -20 10 -36q0 -8 -3 -16q-9 -22 -42 -22h-207q-29 0 -50 13.5 t-31 33.5l-218 457l-215 -457q-25 -47 -81 -47h-179q-33 0 -43 20z" />
<glyph unicode="Y" horiz-adv-x="1050" d="M23 1368q10 21 45 21h196q29 0 51.5 -12.5t30.5 -35.5l156 -432q16 -47 26.5 -105.5t14.5 -98.5q4 41 14 99t27 105l159 432q8 23 31 35.5t51 12.5h172q33 0 43 -21q5 -9 5 -20q0 -15 -9 -33l-364 -764v-494q0 -23 -17.5 -40t-40.5 -17h-161q-23 0 -40.5 17.5t-17.5 39.5 v484l-366 774q-10 19 -10 35q0 9 4 18z" />
<glyph unicode="Z" horiz-adv-x="1019" d="M84 57v131q0 29 6 50.5t21 46.5l393 665q49 86 86 134.5t72 70.5q-47 -10 -81 -12t-92 -2h-327q-23 0 -40.5 17.5t-17.5 39.5v133q0 23 17.5 40.5t40.5 17.5h706q23 0 40.5 -17.5t17.5 -40.5v-121q0 -29 -8.5 -50t-22.5 -44l-397 -674q-47 -82 -85 -129t-73 -69 q41 8 80 11t94 3h371q23 0 40 -17.5t17 -39.5v-144q0 -23 -17.5 -40t-39.5 -17h-744q-23 0 -40 17.5t-17 39.5z" />
<glyph unicode="[" horiz-adv-x="550" d="M135 -274v1785q0 23 16.5 39.5t38.5 16.5h295q23 0 39.5 -16.5t16.5 -39.5v-73q0 -23 -16.5 -39.5t-39.5 -16.5h-135v-1527h135q23 0 39.5 -16.5t16.5 -39.5v-73q0 -23 -16.5 -39.5t-39.5 -16.5h-295q-23 0 -39 16.5t-16 39.5z" />
<glyph unicode="\" horiz-adv-x="638" d="M-27 1438q-8 29 4.5 50t42.5 21h97q23 0 44 -14t27 -37l459 -1579q8 -29 -4 -50.5t-43 -21.5h-96q-23 0 -44.5 14.5t-27.5 37.5z" />
<glyph unicode="]" horiz-adv-x="550" d="M10 -201q0 23 16.5 39.5t39.5 16.5h135v1527h-135q-23 0 -39.5 16.5t-16.5 39.5v73q0 23 16.5 39.5t39.5 16.5h294q23 0 39.5 -16.5t16.5 -39.5v-1785q0 -23 -16.5 -39.5t-39.5 -16.5h-294q-23 0 -39.5 16.5t-16.5 39.5v73z" />
<glyph unicode="^" horiz-adv-x="1198" d="M74 632.5q-4 22.5 6 45.5l385 745q18 33 53 33h197q35 0 53 -33l385 -745q10 -23 6 -45.5t-24 -32.5l-119 -59q-18 -10 -42 -5t-34 27l-330 651l-329 -651q-10 -23 -34 -28t-42 6l-107 59q-20 10 -24 32.5z" />
<glyph unicode="_" horiz-adv-x="1024" d="M0 -182q0 23 17.5 40t39.5 17h910q23 0 40 -17.5t17 -39.5v-62q0 -23 -17.5 -40t-39.5 -17h-910q-23 0 -40 17.5t-17 39.5v62z" />
<glyph unicode="`" horiz-adv-x="724" d="M119 1366l63 119q12 23 30.5 25.5t35.5 -7.5l340 -207q41 -25 18 -65l-41 -78q-10 -20 -27.5 -22.5t-39.5 8.5l-355 155q-49 23 -24 72z" />
<glyph unicode="a" horiz-adv-x="933" d="M55 305q0 66 18.5 122t59.5 99t106.5 71t159.5 34l166 12q0 80 -24.5 112.5t-112.5 32.5q-53 0 -109.5 -11t-95.5 -23q-29 -10 -46 0t-21 32l-29 115q-2 10 -2 19q0 35 37 47q25 8 59.5 16t72.5 14.5t76 10.5t70 4q141 0 220 -40t117 -101.5t46 -135t8 -141.5v-324v-73.5 t9 -81.5l10 -60q1 -8 1 -15q0 -40 -48 -40h-133q-47 0 -58 57l-8 49q-39 -55 -111.5 -87.5t-166.5 -32.5q-141 0 -206 86t-65 233zM319 305q0 -55 31 -77.5t58 -22.5q70 0 113.5 42t43.5 91v125q-59 0 -104 -5t-77 -22.5t-48.5 -48.5t-16.5 -82z" />
<glyph unicode="b" horiz-adv-x="985" d="M111 55v1346q0 23 16 39t39 16h156q23 0 39 -16.5t16 -38.5v-494q35 41 88 73t133 32q68 0 122 -29t85 -59q72 -72 97.5 -181.5t25.5 -230.5q0 -166 -29 -269.5t-77 -159.5t-108.5 -76.5t-123.5 -20.5q-76 0 -141.5 44t-92.5 99l-16 -74q-6 -25 -25.5 -40t-42.5 -15h-106 q-23 0 -39 16.5t-16 38.5zM367 498q0 -150 34.5 -213.5t98.5 -63.5q35 0 63.5 12.5t48 44t29.5 85t10 135.5q0 152 -32.5 220t-118.5 68q-66 0 -99.5 -67.5t-33.5 -220.5z" />
<glyph unicode="c" horiz-adv-x="794" d="M51 512q0 104 29 195.5t86 159t143 106.5t201 39q96 0 184 -35q29 -10 35 -28.5t2 -35.5l-37 -116q-6 -18 -21.5 -29.5t-43.5 -3.5q-23 6 -43.5 12t-55.5 6q-98 0 -151 -64.5t-53 -205.5q0 -154 47 -222.5t162 -68.5q29 0 63.5 3t63.5 14q27 8 40 -2.5t17 -32.5l22 -121 q2 -9 2 -17q0 -12 -4 -20q-6 -14 -30 -25q-49 -18 -105.5 -26t-114.5 -8q-100 0 -181 30.5t-138 95t-88 164t-31 236.5z" />
<glyph unicode="d" horiz-adv-x="985" d="M57 512q0 121 26 230.5t97 181.5q31 31 85 59.5t122 28.5q80 0 133 -32t88 -73v494q0 23 16.5 39t39.5 16h155q23 0 39 -16.5t16 -38.5v-1346q0 -23 -16 -39t-39 -16h-106q-23 0 -42.5 15.5t-25.5 39.5l-16 74q-27 -55 -92.5 -99t-141.5 -44q-63 0 -123.5 20.5 t-108.5 76.5t-77 159.5t-29 269.5zM334 498q0 -82 10 -135.5t29.5 -84t48.5 -43t63 -12.5q63 0 98 62.5t35 212.5q0 154 -33.5 220t-99.5 66q-86 0 -118.5 -67.5t-32.5 -218.5z" />
<glyph unicode="e" horiz-adv-x="917" d="M51 502q0 111 27.5 205t79 161.5t126 105.5t169.5 38q205 0 300 -136.5t95 -388.5q0 -23 -16.5 -39t-38.5 -16h-463q4 -49 13 -89t30.5 -67.5t60.5 -43t103 -15.5q59 0 105 11.5t87 27.5q27 10 39 -1t18 -32l41 -119q8 -23 -3 -38t-29 -23q-70 -31 -140.5 -44t-171.5 -13 q-199 0 -315.5 127t-116.5 389zM330 602h252q-2 39 -8.5 76t-19.5 64.5t-35.5 44t-59.5 16.5t-60.5 -17.5t-38 -45t-21.5 -63.5t-9 -75z" />
<glyph unicode="f" horiz-adv-x="624" d="M-10 852v90q0 23 16.5 39t38.5 16h105v152q0 70 14 128t47 101t84 66.5t125 23.5q66 0 121 -13t100 -34q23 -10 28 -27q2 -8 2 -17q0 -11 -3 -23l-37 -115q-6 -20 -24.5 -27.5t-39.5 0.5q-16 6 -36.5 11.5t-41.5 5.5q-31 0 -52 -23.5t-21 -58.5v-150h147q23 0 39 -16 t16 -39v-90q0 -23 -16 -39t-39 -16h-147v-742q0 -23 -16.5 -39t-39.5 -16h-155q-23 0 -39 16.5t-16 38.5v742h-105q-23 0 -39 16t-16 39z" />
<glyph unicode="g" horiz-adv-x="958" d="M61 -109q0 23 16.5 41.5t39.5 16.5l147 -6q25 -2 35 -15.5t16 -36.5q16 -61 70.5 -82.5t118.5 -21.5q100 0 147 35t47 84q0 53 -25.5 71.5t-101.5 18.5h-213q-41 0 -84 7t-78.5 27.5t-58 57.5t-22.5 94q0 49 23.5 89t58.5 73q-63 47 -99.5 121t-36.5 170 q0 180 107.5 275.5t288.5 95.5q35 0 64.5 -4.5t62.5 -4.5h243q35 0 49.5 -14t14.5 -43v-66q0 -35 -8.5 -45t-30.5 -14l-53 -12q23 -39 40 -79t17 -89q0 -172 -105.5 -272.5t-291.5 -100.5q-45 0 -97 10q-6 -10 -10 -17t-4 -19q0 -27 20.5 -33t45.5 -6h192q152 0 241 -68 t89 -207q0 -98 -42 -162.5t-106.5 -104.5t-141.5 -56.5t-148 -16.5q-82 0 -160 15.5t-138.5 50.5t-98.5 94t-40 149zM322 641q0 -59 11 -94t29.5 -54.5t43 -25.5t53.5 -6q27 0 51.5 7t43.5 26.5t31.5 55.5t12.5 91t-11.5 89t-29.5 51.5t-44 23.5t-54 6q-29 0 -54.5 -6 t-44 -23.5t-28.5 -51.5t-10 -89z" />
<glyph unicode="h" horiz-adv-x="987" d="M111 55v1346q0 23 16 39t39 16h156q23 0 39 -16.5t16 -38.5v-500q41 45 105.5 78t144.5 33q117 0 184.5 -70t67.5 -186v-701q0 -23 -16.5 -39t-39.5 -16h-155q-23 0 -39.5 16.5t-16.5 38.5v647q0 37 -18.5 61.5t-65.5 24.5q-66 0 -108.5 -55t-42.5 -147v-531 q0 -23 -16.5 -39t-38.5 -16h-156q-23 0 -39 16.5t-16 38.5z" />
<glyph unicode="i" horiz-adv-x="526" d="M113 1311q0 66 43 112.5t108 46.5q66 0 109 -46.5t43 -112.5t-43 -113t-109 -47t-108.5 47t-42.5 113zM135 55v887q0 23 16.5 39t38.5 16h156q23 0 39 -16t16 -39v-887q0 -23 -16 -39t-39 -16h-156q-23 0 -39 16.5t-16 38.5z" />
<glyph unicode="j" horiz-adv-x="526" d="M43 -219l47 26q35 20 40 57.5t5 69.5v1006q0 23 16.5 40t38.5 17h156q23 0 39 -16t16 -39v-958q0 -51 -1 -97.5t-12 -87.5t-38.5 -78.5t-83.5 -70.5l-100 -62q-16 -10 -34 -10q-4 0 -9 1q-23 3 -35 24l-59 102q-10 17 -10 39q0 25 24 37zM113 1311q0 66 43 112.5 t108 46.5q66 0 109 -46.5t43 -112.5t-43 -113t-109 -47t-108.5 47t-42.5 113z" />
<glyph unicode="k" horiz-adv-x="929" d="M111 55v1346q0 23 16 39t39 16h156q23 0 39 -16.5t16 -38.5v-787l201 336q29 47 79 47h201q25 0 33 -20.5t-8 -42.5l-262 -363l301 -508q7 -14 7 -27q0 -8 -3 -16q-8 -20 -33 -20h-215q-53 0 -80 51l-221 441v-437q0 -23 -16.5 -39t-38.5 -16h-156q-23 0 -39 16.5 t-16 38.5z" />
<glyph unicode="l" horiz-adv-x="563" d="M111 240v1161q0 23 16 39t39 16h156q23 0 39 -16.5t16 -38.5v-1092q0 -41 8 -60.5t35 -19.5q14 0 33.5 3.5t29.5 5.5t18 2q34 0 42 -39l20 -131q1 -5 1 -10q0 -32 -36 -46q-73 -28 -173 -28h-7q-131 0 -184 68.5t-53 185.5z" />
<glyph unicode="m" horiz-adv-x="1460" d="M111 55v887q0 23 16 39t39 16h119q25 0 39 -13t18 -36l14 -61q49 55 121 90t137 35q168 0 226 -131q49 59 121.5 95t142.5 36q113 0 180.5 -71t67.5 -206v-680q0 -23 -16.5 -39t-39.5 -16h-155q-23 0 -39.5 16.5t-16.5 38.5v647q0 45 -23.5 65.5t-49.5 20.5 q-68 0 -108 -54t-40 -148v-531q0 -23 -16.5 -39t-38.5 -16h-156q-23 0 -39 16.5t-16 38.5v647q0 45 -23.5 65.5t-50.5 20.5q-68 0 -107.5 -54t-39.5 -148v-531q0 -23 -16.5 -39t-38.5 -16h-156q-23 0 -39 16.5t-16 38.5z" />
<glyph unicode="n" horiz-adv-x="987" d="M111 55v887q0 23 16 39t39 16h119q25 0 39 -13t18 -36l14 -65q59 63 125 96t146 33q117 0 184.5 -70t67.5 -186v-701q0 -23 -16.5 -39t-39.5 -16h-155q-23 0 -39.5 16.5t-16.5 38.5v647q0 37 -18.5 61.5t-65.5 24.5q-66 0 -108.5 -56t-42.5 -146v-531q0 -23 -16.5 -39 t-38.5 -16h-156q-23 0 -39 16.5t-16 38.5z" />
<glyph unicode="o" horiz-adv-x="935" d="M51 502q0 233 107.5 371.5t310.5 138.5q100 0 178 -36t131 -102.5t80 -160.5t27 -211t-25.5 -212t-78 -163t-130.5 -104.5t-182 -36.5q-209 0 -313.5 137t-104.5 379zM315 504q0 -88 12.5 -144.5t34 -88t49 -44t56.5 -12.5q31 0 58.5 12.5t49 44t34 88t12.5 144.5 q0 86 -12.5 141t-34 87t-49 44t-58.5 12t-57.5 -12t-48 -44t-34 -87t-12.5 -141z" />
<glyph unicode="p" horiz-adv-x="985" d="M111 -352v1294q0 23 16 39t39 16h106q23 0 42.5 -15t25.5 -40l16 -74q27 55 92.5 99.5t141.5 44.5q63 0 123.5 -20.5t108.5 -77t77 -160t29 -269.5q0 -121 -25.5 -230.5t-97.5 -180.5q-31 -31 -85 -59.5t-122 -28.5q-80 0 -133 31.5t-88 72.5v-442q0 -23 -16.5 -39.5 t-38.5 -16.5h-156q-23 0 -39 16.5t-16 39.5zM367 500q0 -154 33.5 -220.5t99.5 -66.5q86 0 117.5 67.5t31.5 219.5q0 82 -10 135t-29.5 84t-47 43t-62.5 12q-63 0 -98 -62.5t-35 -211.5z" />
<glyph unicode="q" horiz-adv-x="985" d="M57 485q0 166 29 269.5t77 160t108.5 77t123.5 20.5q76 0 141.5 -44t92.5 -100l16 74q6 25 25.5 40t42.5 15h106q23 0 39 -16t16 -39v-1294q0 -23 -16 -39.5t-39 -16.5h-155q-23 0 -39.5 16.5t-16.5 39.5v442q-35 -41 -88 -72.5t-133 -31.5q-68 0 -122 28.5t-85 59.5 q-72 72 -97.5 181.5t-25.5 229.5zM338 500q0 -152 30.5 -219.5t116.5 -67.5q66 0 99.5 66.5t33.5 220.5q0 150 -34.5 212t-98.5 62q-35 0 -62.5 -12t-46 -43t-28.5 -84t-10 -135z" />
<glyph unicode="r" horiz-adv-x="718" d="M111 55v887q0 23 16 39t39 16h110q23 0 42.5 -15t25.5 -40l16 -61q41 57 94.5 94t135.5 37q68 0 104 -17q34 -15 44 -37q5 -12 6 -26q0 -9 -3 -19l-43 -147q-8 -25 -27.5 -34t-33.5 -9q-23 0 -41 7t-35.5 16.5t-33 16.5t-31.5 7q-59 0 -89 -66.5t-30 -226.5v-422 q0 -23 -16.5 -39t-38.5 -16h-156q-23 0 -39 16.5t-16 38.5z" />
<glyph unicode="s" horiz-adv-x="776" d="M43 115l37 114q8 23 24.5 36.5t40.5 2.5q55 -20 111.5 -38.5t114.5 -18.5q49 0 70.5 18.5t21.5 51.5q0 27 -16.5 49t-43 42.5t-60.5 39t-71 39.5q-37 20 -73.5 45.5t-64.5 57.5t-45 73t-17 92q0 125 82 209t243 84q39 0 70 -2t58.5 -7.5t56 -13.5t63.5 -22 q23 -10 36 -26.5t5 -39.5l-35 -92q-10 -23 -25.5 -36t-37.5 -5q-31 10 -73 25.5t-95 15.5q-43 0 -62.5 -22.5t-19.5 -51.5q0 -41 51 -72.5t117 -66.5q39 -23 79 -49.5t72.5 -61t52 -81t19.5 -105.5q0 -55 -18.5 -111.5t-59.5 -101.5t-106.5 -72.5t-161.5 -27.5 q-80 0 -160 18.5t-145 44.5q-37 14 -37 48q0 8 2 18z" />
<glyph unicode="t" horiz-adv-x="630" d="M-10 852v90q0 23 16.5 39t38.5 16h105v211q0 29 10 52.5t39 29.5l149 35q11 2 19 2q21 -1 33 -13q16 -18 16 -54v-263h125q23 0 39 -16t16 -39v-90q0 -23 -16.5 -39t-38.5 -16h-125v-488q0 -41 16.5 -60.5t44.5 -19.5q14 0 31.5 1t28.5 6q10 2 18 2q33 0 41 -39l25 -129 q1 -5 1 -10q0 -34 -36 -46q-37 -12 -91.5 -20t-107.5 -8q-129 0 -183 68.5t-54 185.5v557h-105q-23 0 -39 16t-16 39z" />
<glyph unicode="u" horiz-adv-x="987" d="M98 242v700q0 23 16.5 39t39.5 16h155q23 0 39.5 -16t16.5 -39v-647q0 -37 23.5 -61.5t70.5 -24.5q66 0 114 56.5t48 146.5v530q0 23 16 39t39 16h155q23 0 39.5 -16t16.5 -39v-887q0 -23 -16.5 -39t-39.5 -16h-118q-25 0 -39.5 13.5t-18.5 35.5l-14 62 q-119 -125 -281 -125q-117 0 -189.5 69.5t-72.5 186.5z" />
<glyph unicode="v" horiz-adv-x="894" d="M20 930q-4 14 -4 25q0 15 8 25q14 17 35 17h191q51 0 61 -51l123 -581q10 -49 14.5 -107.5t10.5 -114.5q4 55 10 112.5t16 111.5l119 579q10 51 62 51h170q23 0 36 -17q7 -9 7 -23q0 -12 -5 -27l-256 -879q-16 -51 -65 -51h-209q-49 0 -65 51z" />
<glyph unicode="w" horiz-adv-x="1454" d="M20 930q-3 13 -3 23q-1 16 7 27q12 17 35 17h181q23 0 40 -14t21 -37l92 -561l6 -48t7.5 -66.5t6.5 -67.5t5 -51q2 16 6 47.5t8 67.5t8 69t9 49l126 561q10 51 62 51h205q51 0 61 -51l125 -561q4 -16 9 -48t10.5 -66.5t9.5 -67.5t6 -51q2 16 5 48.5t7 68.5t7 69t8 49 l96 559q10 51 61 51h152q23 0 35 -17q7 -10 7 -26q0 -11 -3 -24l-207 -879q-12 -51 -66 -51h-229q-25 0 -43.5 13.5t-22.5 37.5l-106 557q-10 47 -15.5 108.5t-11.5 121.5q-4 -66 -10 -126.5t-16 -103.5l-129 -557q-12 -51 -66 -51h-215q-53 0 -65 51z" />
<glyph unicode="x" horiz-adv-x="968" d="M23 20q-3 7 -3 14q0 13 9 27l288 457l-264 418q-14 23 -5 42t32 19h199q53 0 77 -45l138 -254l135 254q25 45 78 45h172q23 0 33 -19.5t-7 -41.5l-260 -410l295 -465q10 -14 10 -27q0 -8 -4 -15q-10 -19 -33 -19h-198q-53 0 -78 45l-166 309l-166 -309q-25 -45 -78 -45 h-172q-23 0 -32 20z" />
<glyph unicode="y" horiz-adv-x="911" d="M25 934q-4 13 -4 23q0 13 7 23q13 17 35 17h181q47 0 61 -51l146 -584q10 -41 12 -73.5t4 -75.5q6 35 14 68.5t19 80.5l131 584q10 51 61 51h160q23 0 36 -17q7 -10 7 -24q0 -12 -4 -26l-262 -981q-41 -147 -109.5 -226t-157.5 -120l-45 -21q-13 -6 -24 -6q-10 0 -18 4 q-19 8 -29 31l-58 110q-10 23 -1.5 42.5t30.5 29.5q78 37 130 103.5t75 177.5h-76q-49 0 -65 51z" />
<glyph unicode="z" horiz-adv-x="796" d="M49 55v90q0 23 8.5 39.5t20.5 36.5l315 504q29 47 68 78q-37 -6 -82 -6h-252q-23 0 -39 16t-16 39v90q0 23 16 39t39 16h543q23 0 39 -16t16 -39v-84q0 -29 -8 -45t-19 -33l-313 -504q-16 -23 -34.5 -46t-35.5 -35q39 6 82 6h287q23 0 39 -16.5t16 -39.5v-90 q0 -23 -16 -39t-39 -16h-580q-23 0 -39 16.5t-16 38.5z" />
<glyph unicode="{" horiz-adv-x="667" d="M61 618v84q0 39 33 46q61 10 109.5 69.5t48.5 159.5v334q0 61 19.5 109t50 81t68.5 49.5t75 16.5h137q23 0 39 -16.5t16 -39.5v-53q0 -23 -16 -39t-39 -16h-35q-33 0 -52 -13.5t-30.5 -37t-14.5 -52t-3 -59.5v-313q0 -70 -21.5 -118t-51 -79t-59.5 -47t-48 -20 q20 -4 51 -17.5t59.5 -43.5t49 -80t20.5 -126v-381q0 -31 3 -62.5t14.5 -58t31 -44t51.5 -17.5h35q23 0 39 -16.5t16 -38.5v-53q0 -23 -16 -39.5t-39 -16.5h-137q-39 0 -77 16.5t-68.5 49.5t-49 81t-18.5 109v420q0 51 -14.5 93t-37 72t-51 46t-57.5 21q-31 4 -31 40z" />
<glyph unicode="|" horiz-adv-x="507" d="M135 -455v1934q0 23 17.5 40t40.5 17h122q23 0 40.5 -17.5t17.5 -39.5v-1934q0 -23 -17.5 -40t-40.5 -17h-122q-23 0 -40.5 17.5t-17.5 39.5z" />
<glyph unicode="}" horiz-adv-x="667" d="M10 -221q0 23 16.5 39t39.5 16h34q33 0 52.5 17.5t30 44t14.5 58.5t4 62v381q0 76 21.5 126t51 81t59 44.5t48.5 15.5q-23 4 -54.5 22.5t-59 50t-47 79.5t-19.5 112v313q0 31 -4 59.5t-14.5 52t-30 37t-52.5 13.5h-34q-23 0 -39.5 16.5t-16.5 38.5v53q0 23 16.5 39.5 t39.5 16.5h137q37 0 74.5 -16.5t68.5 -49.5t50.5 -81t19.5 -109v-334q0 -100 48 -159.5t109 -69.5q33 -6 33 -46v-84q0 -37 -31 -40q-29 -4 -57.5 -20.5t-51 -46.5t-36.5 -72t-14 -93v-420q0 -61 -18.5 -109t-49.5 -81t-68.5 -49.5t-76.5 -16.5h-137q-23 0 -39.5 16.5 t-16.5 39.5v53z" />
<glyph unicode="~" horiz-adv-x="1107" d="M71 604q3 17 13 35q16 29 42 59.5t57.5 55t70.5 40t84 15.5q53 0 107.5 -19.5t111.5 -46.5q57 -25 112.5 -51t106.5 -26q45 0 71.5 22.5t49.5 46.5q16 18 36.5 15.5t35.5 -19.5l53 -59q16 -18 13 -35t-13 -35q-16 -29 -41 -59.5t-57.5 -55t-71.5 -40t-84 -15.5 q-53 0 -108.5 21.5t-110.5 46.5q-57 27 -113.5 51t-105.5 24q-47 0 -73 -23.5t-48 -45.5q-20 -20 -39.5 -15t-32.5 19l-53 59q-16 18 -13 35z" />
<glyph unicode="&#xa1;" horiz-adv-x="569" d="M121 907q0 68 48 116t116 48t116 -48t48 -116t-48.5 -115t-115.5 -47q-68 0 -116 47.5t-48 114.5zM152 -313l24 874q0 23 16.5 39t38.5 16h109q23 0 39 -16t16 -39l23 -874q0 -23 -16.5 -39.5t-39.5 -16.5h-155q-23 0 -39 16.5t-16 39.5z" />
<glyph unicode="&#xa2;" horiz-adv-x="962" d="M84 512q0 90 24.5 174t77 152.5t133 114.5t191.5 61v137q0 23 16.5 39t38.5 16h60q23 0 39 -16t16 -39v-139q92 -12 151 -35q29 -10 35 -28.5t2 -35.5l-32 -114q-4 -18 -20.5 -30.5t-45.5 -2.5q-16 4 -38.5 11t-51.5 11v-569q41 4 70.5 11.5t46.5 11.5q27 8 41 -3.5 t18 -33.5l29 -125q4 -23 -3.5 -36t-31.5 -24q-31 -10 -74 -20t-96 -14v-152q0 -23 -16.5 -39t-38.5 -16h-60q-23 0 -39 16.5t-16 38.5v148q-96 8 -175 43.5t-134.5 100t-86 161t-30.5 225.5zM354 514q0 -240 156 -287v553q-156 -51 -156 -266z" />
<glyph unicode="&#xa3;" horiz-adv-x="1099" d="M143 676v98q0 23 16.5 39t39.5 16h92v121q0 68 7 141.5t44 135t115 101.5t219 40q66 0 129 -10t117 -27q47 -14 34 -65l-28 -115q-6 -23 -22.5 -33t-45.5 0q-39 12 -78 19.5t-92 7.5q-47 0 -73.5 -12.5t-40 -32t-16.5 -46t-3 -55.5v-170h223q23 0 39.5 -16t16.5 -39v-98 q0 -23 -16.5 -39t-39.5 -16h-223v-93q0 -78 -28.5 -156.5t-69.5 -133.5h461q23 0 40 -17.5t17 -40.5v-123q0 -23 -17.5 -40t-39.5 -17h-682q-23 0 -40.5 17.5t-17.5 39.5v95q0 23 7.5 47t17.5 43q35 59 60.5 136t25.5 150v93h-92q-23 0 -39.5 16t-16.5 39z" />
<glyph unicode="&#xa4;" horiz-adv-x="894" d="M85 212q-3 24 9 44l58 88q-29 41 -41.5 95.5t-12.5 111.5q0 61 12.5 118.5t41.5 98.5l-58 88q-12 18 -9 43t21 35l136 82q23 14 47 9t37 -32l45 -90q37 6 78 6h35.5t33.5 -4q2 6 9.5 18.5t15.5 26t15 25.5t11 20q12 27 36 30t44 -9l137 -82q20 -12 23.5 -33.5t-8.5 -42.5 l-64 -96q29 -41 44.5 -92.5t15.5 -114.5q0 -59 -15.5 -111.5t-44.5 -93.5l64 -96q12 -18 7 -42t-22 -34l-137 -82q-20 -12 -41.5 -9t-38.5 30l-51 90q-14 -4 -33.5 -4h-35.5q-41 0 -78 6l-45 -90q-12 -27 -37 -32t-47 9l-136 82q-18 10 -21 34zM322 557q0 -41 5 -78 t18 -64.5t38 -45t63 -17.5q123 0 123 207q0 39 -5 75t-19.5 64.5t-38 46t-60.5 17.5q-55 0 -89.5 -49t-34.5 -156z" />
<glyph unicode="&#xa5;" horiz-adv-x="1148" d="M68 1344.5q10 21.5 45 21.5h192q29 0 51.5 -12.5t30.5 -34.5l166 -455q14 -37 19.5 -83t13.5 -107q10 61 15 107t20 83l167 455q8 23 31 35t51 12h166q33 0 44.5 -21.5t-5.5 -52.5l-237 -495h149q23 0 39 -16.5t16 -39.5v-86q0 -23 -16 -39t-39 -16h-246l-26 -61v-74h272 q23 0 39 -16.5t16 -38.5v-86q0 -23 -16 -39.5t-39 -16.5h-272v-211q0 -23 -17.5 -40t-40.5 -17h-161q-23 0 -40.5 17.5t-17.5 39.5v211h-272q-23 0 -39 16.5t-16 39.5v86q0 23 16 39t39 16h272v59l-35 76h-237q-23 0 -39 16.5t-16 38.5v86q0 23 16 39.5t39 16.5h143 l-235 495q-16 31 -6 52.5z" />
<glyph unicode="&#xa6;" horiz-adv-x="507" d="M135 332q0 23 17.5 40t40.5 17h122q23 0 40.5 -17.5t17.5 -39.5v-787q0 -23 -17.5 -40t-40.5 -17h-122q-23 0 -40.5 17.5t-17.5 39.5v787zM135 692v787q0 23 17.5 40t40.5 17h122q23 0 40.5 -17.5t17.5 -39.5v-787q0 -23 -17.5 -40t-40.5 -17h-122q-23 0 -40.5 17.5 t-17.5 39.5z" />
<glyph unicode="&#xa7;" horiz-adv-x="954" d="M74 575q0 41 13 80t35.5 72t52.5 57.5t65 36.5q-47 47 -74 118t-27 144q0 78 31 142.5t87 109.5t134 70t174 25q66 0 120 -14.5t99 -26.5q14 -4 23.5 -18.5t3.5 -37.5l-39 -147q-4 -16 -14 -25.5t-33 -1.5q-43 16 -87 25.5t-87 9.5q-74 0 -109.5 -35t-35.5 -80 q0 -37 23.5 -66.5t61 -56t87 -53t98.5 -55.5q45 -27 85 -57.5t70.5 -70.5t49 -91t18.5 -117q0 -88 -39 -149.5t-106 -92.5q47 -45 70.5 -110.5t23.5 -145.5q0 -74 -26.5 -138t-83 -112.5t-144.5 -76t-211 -27.5q-25 0 -58.5 4t-68.5 11.5t-66.5 14.5t-52.5 13q-37 12 -31 49 l31 162q10 51 56 33q16 -6 41.5 -13.5t55 -14.5t58.5 -11t51 -4q78 0 125 28.5t47 83.5q0 45 -22.5 79t-60 61.5t-86 52t-97.5 51.5q-47 25 -88 53.5t-73.5 65.5t-51 85t-18.5 111zM342 612q0 -41 20.5 -71.5t53.5 -55t76 -48t90 -48.5q23 20 37 48t14 55q0 39 -19.5 68.5 t-50.5 54t-71.5 45t-83.5 45.5q-29 -16 -47.5 -39t-18.5 -54z" />
<glyph unicode="&#xa8;" horiz-adv-x="944" d="M125 1292q0 59 43 102.5t102 43.5t102.5 -43.5t43.5 -102.5t-43 -102t-103 -43q-59 0 -102 43t-43 102zM528 1292q0 59 43 102.5t103 43.5q59 0 102 -43.5t43 -102.5t-43 -102t-102 -43t-102.5 43t-43.5 102z" />
<glyph unicode="&#xa9;" horiz-adv-x="1630" d="M188 694q0 152 50.5 281t139.5 224t211 149.5t267 54.5q143 0 266 -54.5t212 -149.5t139.5 -224t50.5 -281t-50.5 -280.5t-139.5 -224t-212 -149.5t-266 -54q-145 0 -267 54t-211 149.5t-139.5 224.5t-50.5 280zM354 694q0 -119 36 -222t102.5 -179t158.5 -120t205 -44 t205 44t158.5 120t102.5 179t36 222t-36 222.5t-102.5 179t-158.5 120t-205 44.5t-205 -44.5t-158.5 -120t-102.5 -179t-36 -222.5zM553 696q0 190 91 303t265 113q31 0 70 -8t70 -19q16 -6 18 -19t-2 -30l-23 -84q-8 -31 -43 -16q-31 10 -73 10q-41 0 -74 -11t-56.5 -39 t-37 -77t-13.5 -125q0 -72 13.5 -119t37 -75.5t57.5 -41t75 -12.5q18 0 49 6.5t49 12.5q14 4 27.5 0t17.5 -25l19 -84q10 -39 -23 -51q-29 -12 -78 -18t-90 -6q-164 0 -255 107.5t-91 307.5z" />
<glyph unicode="&#xaa;" horiz-adv-x="813" d="M88 934q0 100 59.5 172t202.5 82l125 8q0 61 -19.5 85t-84.5 24q-35 0 -80 -5.5t-76 -15.5q-23 -8 -34 0t-17 25l-23 88q-4 16 1 29.5t28 19.5q39 12 99.5 23.5t111.5 11.5q109 0 168 -31t88 -79t35 -104.5t6 -107.5v-250v-53.5t4 -56.5l10 -51q4 -18 -7 -29.5t-30 -11.5 h-100q-37 0 -43 43l-6 36q-29 -43 -85 -70.5t-128 -27.5q-109 0 -157 67.5t-48 178.5zM90 475v62q0 23 16.5 39t38.5 16h506q23 0 39.5 -16.5t16.5 -38.5v-62q0 -23 -16.5 -39t-39.5 -16h-506q-23 0 -39 16.5t-16 38.5zM291 934q0 -43 22.5 -58.5t42.5 -15.5q53 0 86 33 t33 70v96q-88 0 -136 -25.5t-48 -99.5z" />
<glyph unicode="&#xab;" horiz-adv-x="1208" d="M72 510.5q0 19.5 10 32.5l272 403q12 16 35 20.5t39 -5.5l133 -84q16 -10 21.5 -35t-4.5 -41l-205 -291l200 -285q10 -16 9.5 -40.5t-17.5 -34.5l-137 -91q-16 -10 -39.5 -5t-34.5 22l-272 401q-10 14 -10 33.5zM604 510.5q0 19.5 10 32.5l273 403q12 16 34.5 20.5 t39.5 -5.5l133 -84q16 -10 21 -35t-5 -41l-205 -291l201 -285q10 -16 9 -40.5t-17 -34.5l-137 -91q-16 -10 -40 -5t-34 22l-273 401q-10 14 -10 33.5z" />
<glyph unicode="&#xac;" horiz-adv-x="1038" d="M72 483v115q0 23 16 39t39 16h758q23 0 39 -16t16 -39v-414q0 -23 -16.5 -39t-38.5 -16h-119q-23 0 -39 16.5t-16 38.5v244h-584q-23 0 -39 16.5t-16 38.5z" />
<glyph unicode="&#xad;" horiz-adv-x="632" d="M72 485v115q0 23 16 39t39 16h383q23 0 39 -16t16 -39v-115q0 -23 -16.5 -39t-38.5 -16h-383q-23 0 -39 16.5t-16 38.5z" />
<glyph unicode="&#xae;" horiz-adv-x="1630" d="M188 694q0 152 50.5 281t139.5 224t211 149.5t267 54.5q143 0 266 -54.5t212 -149.5t139.5 -224t50.5 -281t-50.5 -280.5t-139.5 -224t-212 -149.5t-266 -54q-145 0 -267 54t-211 149.5t-139.5 224.5t-50.5 280zM354 694q0 -119 36 -222t102.5 -179t158.5 -120t205 -44 t205 44t158.5 120t102.5 179t36 222t-36 222.5t-102.5 179t-158.5 120t-205 44.5t-205 -44.5t-158.5 -120t-102.5 -179t-36 -222.5zM604 348v707q0 41 43 41h240q70 0 117 -21.5t73.5 -53.5t37.5 -67.5t11 -62.5q0 -74 -33.5 -125t-107.5 -72q29 -14 54.5 -35.5t45.5 -72.5 q6 -14 19.5 -46t28 -66t28 -66t19.5 -46q10 -25 4 -40t-35 -15h-123q-16 0 -29.5 7.5t-19.5 29.5q-12 39 -27.5 90t-35 95t-48 75t-67.5 31h-11v-287q0 -41 -43 -41h-98q-43 0 -43 41zM788 780h48q47 0 71.5 24.5t24.5 65.5q0 31 -18.5 54.5t-65.5 23.5h-60v-168z" />
<glyph unicode="&#xaf;" horiz-adv-x="755" d="M129 1272v61q0 23 16.5 39.5t38.5 16.5h387q23 0 39.5 -16.5t16.5 -39.5v-61q0 -23 -16.5 -39t-39.5 -16h-387q-23 0 -39 16t-16 39z" />
<glyph unicode="&#xb0;" horiz-adv-x="755" d="M109 1151q0 66 20.5 124t58 101t92 68.5t121.5 25.5q135 0 220.5 -86.5t85.5 -244.5q0 -59 -18.5 -114.5t-56.5 -99.5t-96.5 -71t-136.5 -27q-137 0 -213.5 91.5t-76.5 232.5zM283 1155q0 -182 127 -182q59 0 90.5 44t31.5 128q0 180 -126 180q-59 0 -91 -45t-32 -125z " />
<glyph unicode="&#xb1;" horiz-adv-x="964" d="M41 55v86q0 23 16.5 39.5t38.5 16.5h766q23 0 39.5 -16.5t16.5 -39.5v-86q0 -23 -16.5 -39t-39.5 -16h-766q-23 0 -39 16.5t-16 38.5zM41 651v86q0 23 16.5 39.5t38.5 16.5h281v243q0 23 16.5 39.5t38.5 16.5h94q23 0 39.5 -16.5t16.5 -39.5v-243h280q23 0 39.5 -16.5 t16.5 -39.5v-86q0 -23 -16.5 -39t-39.5 -16h-280v-254q0 -23 -16.5 -39t-39.5 -16h-94q-23 0 -39 16t-16 39v254h-281q-23 0 -39 16.5t-16 38.5z" />
<glyph unicode="&#xb2;" horiz-adv-x="745" d="M90 637v100q0 20 2 33.5t19 26.5q104 86 166.5 135t94 82t41 55.5t9.5 54.5q0 35 -24.5 55.5t-61.5 20.5q-33 0 -68 -14.5t-63 -34.5q-16 -10 -30.5 -6t-22.5 20l-58 109q-8 14 -2 28.5t19 22.5q55 35 110 56.5t115 21.5q143 0 228 -71.5t85 -188.5q0 -47 -10 -87 t-40 -79t-82 -80t-136 -92h240q39 0 38 -39v-129q0 -16 -11 -28.5t-27 -12.5h-492q-16 0 -27.5 12.5t-11.5 28.5z" />
<glyph unicode="&#xb3;" horiz-adv-x="690" d="M72 526q-4 35 28 35q68 0 125.5 6t98.5 23.5t64.5 49.5t23.5 81q0 63 -44 92t-143 29q-23 0 -31 12t-8 29v112q0 14 8.5 25.5t28.5 11.5q78 0 116 27.5t38 75.5q0 37 -21.5 56t-56.5 19q-25 0 -54.5 -12t-56.5 -27q-16 -8 -31.5 -8t-23.5 17l-57 114q-18 35 14 54 q20 12 50 22t61.5 17.5t63.5 11.5t59 4q129 0 203.5 -74t74.5 -192q0 -55 -25.5 -103.5t-70.5 -83.5q63 -35 98 -94t35 -137q0 -86 -38 -150.5t-106.5 -109.5t-166 -67.5t-215.5 -22.5q-29 0 -33 34z" />
<glyph unicode="&#xb4;" horiz-adv-x="878" d="M111 1231q-23 41 18 65l340 207q16 10 34.5 7t31.5 -25l63 -119q25 -49 -25 -72l-354 -155q-23 -10 -40 -8t-27 22z" />
<glyph unicode="&#xb6;" horiz-adv-x="1189" d="M98 965q0 201 103.5 312.5t296.5 111.5h553q23 0 40 -17.5t17 -40.5v-1573q0 -23 -17.5 -40t-39.5 -17h-119q-23 0 -40.5 17.5t-17.5 39.5v1411h-182v-1411q0 -23 -17.5 -40t-39.5 -17h-119q-23 0 -40 17.5t-17 39.5v826q-76 0 -141.5 29.5t-114.5 80.5t-77 121t-28 150z " />
<glyph unicode="&#xb7;" horiz-adv-x="606" d="M109 655q0 41 15 78t40.5 64.5t61.5 44t79 16.5q84 0 138.5 -60.5t54.5 -144.5q0 -82 -55.5 -140t-141.5 -58q-84 0 -138 58t-54 142z" />
<glyph unicode="&#xb8;" horiz-adv-x="659" d="M133 -328l23 62q6 16 23.5 22t35.5 0q16 -6 36.5 -11t41.5 -5q29 0 46 12t17 33q0 27 -16 40t-57 13h-25.5t-28.5 10q-8 6 -12 19.5t0 30.5l53 182h146l-27 -127q72 -8 113 -52t41 -120q0 -35 -12.5 -71t-41 -65.5t-76.5 -48t-120 -18.5q-31 0 -65.5 6t-65.5 23 q-23 10 -29 28.5t0 36.5z" />
<glyph unicode="&#xb9;" horiz-adv-x="643" d="M60.5 1210.5q5.5 14.5 21.5 22.5l332 153q31 14 58.5 10.5t27.5 -44.5v-572h53q39 0 39 -39v-131q0 -39 -39 -39h-385q-39 0 -39 39v131q0 39 39 39h90v305l-82 -38q-14 -6 -29.5 -2t-23.5 18l-60 119q-8 14 -2.5 28.5z" />
<glyph unicode="&#xba;" horiz-adv-x="813" d="M92 1087q0 178 81 286t237 108q78 0 136 -29t98 -81t60.5 -124t20.5 -160t-19.5 -161.5t-59.5 -125.5t-98.5 -82t-137.5 -30q-160 0 -239 106.5t-79 292.5zM117 475v62q0 23 16.5 39t38.5 16h475q23 0 39 -16.5t16 -38.5v-62q0 -23 -16 -39t-39 -16h-475q-23 0 -39 16.5 t-16 38.5zM295 1087q0 -68 9 -110.5t25.5 -68t36 -36t42.5 -10.5t43 10.5t36.5 36t25.5 68t9 110.5q0 66 -9 109t-25.5 68.5t-37 36t-42.5 10.5q-23 0 -43.5 -10.5t-36 -36t-24.5 -68.5t-9 -109z" />
<glyph unicode="&#xbb;" horiz-adv-x="1208" d="M93 841.5q5 24.5 22 35.5l133 84q16 10 38.5 6t35.5 -21l272 -403q10 -12 10 -31.5t-10 -34.5l-272 -401q-10 -16 -34 -21.5t-40 4.5l-137 91q-16 10 -17.5 34.5t8.5 40.5l201 285l-205 291q-10 16 -5 40.5zM619.5 184.5q-1.5 24.5 9.5 40.5l200 285l-204 291 q-10 16 -5 40.5t21 35.5l133 84q16 10 39 6t35 -21l272 -403q10 -12 10 -31.5t-10 -34.5l-272 -401q-10 -16 -33.5 -21.5t-40.5 4.5l-137 91q-16 10 -17.5 34.5z" />
<glyph unicode="&#xbc;" horiz-adv-x="1671" d="M60.5 1210.5q5.5 14.5 21.5 22.5l332 153q31 14 58.5 10.5t27.5 -44.5v-572h53q39 0 39 -39v-131q0 -39 -39 -39h-385q-39 0 -39 39v131q0 39 39 39h90v305l-84 -38q-33 -14 -51 16l-60 119q-8 14 -2.5 28.5zM508 -29l424 1463q6 23 27.5 37t44.5 14h96q31 0 43 -21.5 t4 -50.5l-424 -1462q-6 -23 -27.5 -37t-44.5 -14h-96q-31 0 -43 21.5t-4 49.5zM991 205v125q0 14 5 23t10 26l178 561q4 16 18.5 23.5t30.5 7.5h176q18 0 23.5 -13.5t-0.5 -29.5l-205 -557h116l39 245q4 16 13.5 27.5t25.5 11.5h95q39 0 38 -39v-245h37q39 0 39 -39v-127 q0 -16 -11 -27.5t-28 -11.5h-37v-141q0 -39 -38 -39h-138q-16 0 -27.5 11t-11.5 28v141h-309q-39 0 -39 39z" />
<glyph unicode="&#xbd;" horiz-adv-x="1654" d="M60.5 1210.5q5.5 14.5 21.5 22.5l332 153q31 14 58.5 10.5t27.5 -44.5v-572h53q39 0 39 -39v-131q0 -39 -39 -39h-385q-39 0 -39 39v131q0 39 39 39h90v305l-84 -38q-33 -14 -51 16l-60 119q-8 14 -2.5 28.5zM504 -29l424 1463q6 23 27.5 37t43.5 14h97q31 0 43 -21.5 t4 -50.5l-424 -1462q-6 -23 -27.5 -37t-44.5 -14h-96q-31 0 -43 21.5t-4 49.5zM999 41v100q0 20 2.5 33.5t18.5 26.5q104 86 166.5 135t94.5 82t41 55.5t9 54.5q0 35 -24.5 55.5t-61.5 20.5q-33 0 -67.5 -14.5t-63.5 -34.5q-16 -10 -30.5 -6t-22.5 20l-57 109q-8 14 -2 28.5 t18 22.5q55 35 111.5 56.5t115.5 21.5q143 0 227.5 -71.5t84.5 -188.5q0 -47 -10.5 -87t-40 -79t-82 -80t-136.5 -92h240q39 0 39 -39v-129q0 -16 -11.5 -28.5t-27.5 -12.5h-492q-16 0 -27.5 12.5t-11.5 28.5z" />
<glyph unicode="&#xbe;" horiz-adv-x="1714" d="M72 526q-4 35 28 35q68 0 125.5 6t98.5 23.5t64.5 49.5t23.5 81q0 63 -44 92t-143 29q-23 0 -31 12t-8 29v112q0 14 8.5 25.5t28.5 11.5q78 0 116 27.5t38 75.5q0 37 -21.5 56t-56.5 19q-25 0 -54.5 -12t-56.5 -27q-16 -8 -31.5 -8t-23.5 17l-57 114q-18 35 14 54 q20 12 50 22t61.5 17.5t63.5 11.5t59 4q129 0 203.5 -74t74.5 -192q0 -55 -25.5 -103.5t-70.5 -83.5q63 -35 98 -94t35 -137q0 -86 -38 -150.5t-106.5 -109.5t-166 -67.5t-215.5 -22.5q-29 0 -33 34zM553 -29l424 1463q6 23 27.5 37t44.5 14h96q31 0 43 -21.5t4 -50.5 l-424 -1462q-6 -23 -27.5 -37t-44.5 -14h-96q-31 0 -43 21.5t-4 49.5zM1036 205v125q0 14 4 23t9 26l178 561q4 16 19.5 23.5t31.5 7.5h174q18 0 24.5 -13.5t0.5 -29.5l-207 -557h116l41 245q4 16 13.5 27.5t25.5 11.5h93q39 0 38 -39v-245h37q39 0 39 -39v-127 q0 -16 -11 -27.5t-28 -11.5h-37v-141q0 -39 -38 -39h-138q-16 0 -27.5 11t-11.5 28v141h-307q-39 0 -39 39z" />
<glyph unicode="&#xbf;" horiz-adv-x="768" d="M61 -31q0 104 39 178t85 134.5t85 119t39 131.5v41q0 23 16.5 39.5t39.5 16.5h155q23 0 39 -16.5t16 -39.5v-73q0 -78 -38.5 -147.5t-84.5 -133t-85 -123t-39 -116.5q0 -47 25.5 -83t78.5 -36q45 0 82 14t74 33q25 12 38 7t23 -24l66 -135q10 -20 8 -36.5t-23 -26.5 q-78 -43 -146.5 -60.5t-133.5 -17.5q-80 0 -145.5 25.5t-113.5 72.5t-74 111.5t-26 144.5zM272 907q0 68 48.5 116t115.5 48q68 0 116 -48t48 -116t-48 -116t-116 -48t-116 48.5t-48 115.5z" />
<glyph unicode="&#xc0;" horiz-adv-x="1138" d="M6 72l356 1265q6 23 28 37.5t44 14.5h236q23 0 43 -14.5t28 -37.5l383 -1265q8 -29 -4 -50.5t-43 -21.5h-184q-27 0 -46.5 13.5t-25.5 37.5l-65 256h-400l-61 -256q-14 -51 -72 -51h-170q-31 0 -43 21.5t-4 50.5zM238 1694l63 118q12 23 30.5 26t35.5 -7l340 -207 q41 -25 18 -65l-41 -78q-10 -20 -27.5 -22.5t-40.5 7.5l-354 156q-49 23 -24 72zM414 553h280l-112 479q-6 23 -10.5 52.5t-8.5 59.5t-7 57.5t-5 47.5q-4 -43 -12.5 -106.5t-18.5 -110.5z" />
<glyph unicode="&#xc1;" horiz-adv-x="1138" d="M6 72l356 1265q6 23 28 37.5t44 14.5h236q23 0 43 -14.5t28 -37.5l383 -1265q8 -29 -4 -50.5t-43 -21.5h-184q-27 0 -46.5 13.5t-25.5 37.5l-65 256h-400l-61 -256q-14 -51 -72 -51h-170q-31 0 -43 21.5t-4 50.5zM377 1559q-23 41 18 65l340 207q16 10 34.5 7t31.5 -26 l63 -118q25 -49 -24 -72l-355 -156q-23 -10 -40 -8t-27 23zM414 553h280l-112 479q-6 23 -10.5 52.5t-8.5 59.5t-7 57.5t-5 47.5q-4 -43 -12.5 -106.5t-18.5 -110.5z" />
<glyph unicode="&#xc2;" horiz-adv-x="1138" d="M6 72l356 1265q6 23 28 37.5t44 14.5h236q23 0 43 -14.5t28 -37.5l383 -1265q8 -29 -4 -50.5t-43 -21.5h-184q-27 0 -46.5 13.5t-25.5 37.5l-65 256h-400l-61 -256q-14 -51 -72 -51h-170q-31 0 -43 21.5t-4 50.5zM195 1587q4 21 20 33l283 215q43 31 82 0l282 -215 q16 -10 19.5 -32.5t-7.5 -39.5l-30 -49q-10 -16 -30.5 -21t-43.5 7l-231 131l-232 -131q-25 -14 -44 -7t-30 21l-30 49q-12 18 -8 39zM414 553h280l-112 479q-6 23 -10.5 52.5t-8.5 59.5t-7 57.5t-5 47.5q-4 -43 -12.5 -106.5t-18.5 -110.5z" />
<glyph unicode="&#xc3;" horiz-adv-x="1138" d="M6 72l356 1265q6 23 28 37.5t44 14.5h236q23 0 43 -14.5t28 -37.5l383 -1265q8 -29 -4 -50.5t-43 -21.5h-184q-27 0 -46.5 13.5t-25.5 37.5l-65 256h-400l-61 -256q-14 -51 -72 -51h-170q-31 0 -43 21.5t-4 50.5zM199 1654.5q4 18.5 14 31.5q43 49 94 76.5t129 27.5 q47 0 78 -13.5t57.5 -28.5t56 -28.5t74.5 -13.5q35 0 57.5 9t43.5 30q10 10 28.5 9t28.5 -15l35 -47q12 -16 8 -35t-14 -31q-43 -49 -94.5 -76.5t-128.5 -27.5q-47 0 -78 13t-57.5 28.5t-56.5 29t-75 13.5q-35 0 -57.5 -9.5t-42.5 -29.5q-10 -10 -28.5 -9t-28.5 15l-35 47 q-12 16 -8 34.5zM414 553h280l-112 479q-6 23 -10.5 52.5t-8.5 59.5t-7 57.5t-5 47.5q-4 -43 -12.5 -106.5t-18.5 -110.5z" />
<glyph unicode="&#xc4;" horiz-adv-x="1138" d="M6 72l356 1265q6 23 28 37.5t44 14.5h236q23 0 43 -14.5t28 -37.5l383 -1265q8 -29 -4 -50.5t-43 -21.5h-184q-27 0 -46.5 13.5t-25.5 37.5l-65 256h-400l-61 -256q-14 -51 -72 -51h-170q-31 0 -43 21.5t-4 50.5zM176 1620q0 59 43 102t103 43q59 0 102 -43t43 -102 t-43 -102t-102 -43t-102.5 43t-43.5 102zM414 553h280l-112 479q-6 23 -10.5 52.5t-8.5 59.5t-7 57.5t-5 47.5q-4 -43 -12.5 -106.5t-18.5 -110.5zM637 1620q0 59 43 102t102 43t102.5 -43t43.5 -102t-43 -102t-103 -43q-59 0 -102 43t-43 102z" />
<glyph unicode="&#xc5;" horiz-adv-x="1138" d="M10 72l369 1265q-61 68 -62 162q0 49 18.5 93t51.5 77t76 52.5t92 19.5t92 -19.5t76 -52.5t51.5 -77t18.5 -93q0 -47 -17.5 -89t-46.5 -75l399 -1263q10 -29 -3 -50.5t-44 -21.5h-190q-27 0 -46.5 13.5t-25.5 37.5l-65 256h-398l-61 -256q-14 -51 -72 -51h-166 q-31 0 -43 21.5t-4 50.5zM414 553h278l-112 489q-4 14 -7.5 41t-7.5 54.5t-8 54.5t-6 41q-2 -14 -5 -40t-8.5 -53.5t-9.5 -53t-8 -44.5zM451 1499q0 -47 28.5 -80t75.5 -33t75.5 33t28.5 80t-28.5 80t-75.5 33t-75.5 -33t-28.5 -80z" />
<glyph unicode="&#xc6;" horiz-adv-x="1675" d="M-12 72l610 1265q10 23 29.5 37.5t42.5 14.5h846q23 0 40 -17.5t17 -40.5v-121q0 -23 -17.5 -40t-39.5 -17h-429v-307h381q23 0 40.5 -17.5t17.5 -40.5v-110q0 -23 -17.5 -40t-40.5 -17h-381v-375h447q23 0 40 -17.5t17 -40.5v-131q0 -23 -17.5 -40t-39.5 -17h-666 q-23 0 -40 18.5t-17 40.5v248h-393l-107 -256q-20 -51 -71 -51h-205q-31 0 -45.5 22.5t-1.5 49.5zM535 553h276v520l4 176q-6 -18 -14 -46.5t-18.5 -57.5t-20.5 -55.5t-19 -45.5z" />
<glyph unicode="&#xc7;" horiz-adv-x="950" d="M47 696q0 156 39 286t111.5 223t177 145.5t237.5 52.5q59 0 131 -11.5t134 -45.5q23 -12 29.5 -32t-3.5 -42l-53 -109q-20 -41 -66 -22q-63 29 -145 28q-68 0 -124 -24.5t-96 -80.5t-61.5 -147.5t-21.5 -222.5q0 -127 20.5 -216t60.5 -144t96 -80t130 -25q33 0 75 9.5 t77 25.5q18 8 37.5 3t27.5 -23l53 -125q10 -25 3 -43.5t-21 -26.5q-59 -31 -121.5 -45t-128.5 -18l-12 -33q72 -8 112.5 -52t40.5 -120q0 -35 -12 -71t-40.5 -65.5t-77 -48t-119.5 -18.5q-31 0 -66 6t-65 23q-23 10 -29 28.5t0 36.5l22 62q6 16 23.5 22t36.5 0 q16 -6 36.5 -11t41.5 -5q29 0 46 12t17 33q0 27 -16.5 40t-57.5 13h-25.5t-27.5 10q-8 6 -12 19.5t0 30.5l28 98q-207 39 -324.5 215t-117.5 485z" />
<glyph unicode="&#xc8;" horiz-adv-x="991" d="M129 57v1274q0 23 17.5 40.5t39.5 17.5h648q23 0 40 -17.5t17 -40.5v-121q0 -23 -17.5 -40t-39.5 -17h-428v-307h380q23 0 40.5 -17.5t17.5 -40.5v-110q0 -23 -17.5 -40t-40.5 -17h-380v-375h446q23 0 40 -17.5t17 -40.5v-131q0 -23 -17.5 -40t-39.5 -17h-666 q-23 0 -40 17.5t-17 39.5zM236 1694l63 118q12 23 30.5 26t35.5 -7l340 -207q41 -25 18 -65l-41 -78q-10 -20 -27.5 -22.5t-40.5 7.5l-354 156q-49 23 -24 72z" />
<glyph unicode="&#xc9;" horiz-adv-x="991" d="M129 57v1274q0 23 17.5 40.5t39.5 17.5h648q23 0 40 -17.5t17 -40.5v-121q0 -23 -17.5 -40t-39.5 -17h-428v-307h380q23 0 40.5 -17.5t17.5 -40.5v-110q0 -23 -17.5 -40t-40.5 -17h-380v-375h446q23 0 40 -17.5t17 -40.5v-131q0 -23 -17.5 -40t-39.5 -17h-666 q-23 0 -40 17.5t-17 39.5zM289 1559q-23 41 18 65l340 207q16 10 34.5 7t31.5 -26l63 -118q25 -49 -24 -72l-355 -156q-23 -10 -40 -8t-27 23z" />
<glyph unicode="&#xca;" horiz-adv-x="991" d="M129 57v1274q0 23 17.5 40.5t39.5 17.5h648q23 0 40 -17.5t17 -40.5v-121q0 -23 -17.5 -40t-39.5 -17h-428v-307h380q23 0 40.5 -17.5t17.5 -40.5v-110q0 -23 -17.5 -40t-40.5 -17h-380v-375h446q23 0 40 -17.5t17 -40.5v-131q0 -23 -17.5 -40t-39.5 -17h-666 q-23 0 -40 17.5t-17 39.5zM162 1587q4 21 20 33l283 215q43 31 82 0l282 -215q16 -10 19.5 -32.5t-6.5 -39.5l-31 -49q-10 -16 -30.5 -21t-43.5 7l-231 131l-232 -131q-25 -14 -44 -7t-29 21l-31 49q-12 18 -8 39z" />
<glyph unicode="&#xcb;" horiz-adv-x="991" d="M129 57v1274q0 23 17.5 40.5t39.5 17.5h648q23 0 40 -17.5t17 -40.5v-121q0 -23 -17.5 -40t-39.5 -17h-428v-307h380q23 0 40.5 -17.5t17.5 -40.5v-110q0 -23 -17.5 -40t-40.5 -17h-380v-375h446q23 0 40 -17.5t17 -40.5v-131q0 -23 -17.5 -40t-39.5 -17h-666 q-23 0 -40 17.5t-17 39.5zM141 1620q0 59 43 102t103 43q59 0 102 -43t43 -102t-43 -102t-102 -43t-102.5 43t-43.5 102zM602 1620q0 59 43 102t103 43q59 0 102 -43t43 -102t-43 -102t-102 -43t-102.5 43t-43.5 102z" />
<glyph unicode="&#xcc;" horiz-adv-x="546" d="M8 1694l64 118q12 23 30.5 26t34.5 -7l340 -207q41 -25 19 -65l-41 -78q-10 -20 -27.5 -22.5t-40.5 7.5l-354 156q-49 23 -25 72zM131 57v1274q0 23 17.5 40.5t39.5 17.5h170q23 0 40.5 -17.5t17.5 -40.5v-1274q0 -23 -17.5 -40t-40.5 -17h-170q-23 0 -40 17.5t-17 39.5z " />
<glyph unicode="&#xcd;" horiz-adv-x="546" d="M94 1559q-23 41 19 65l340 207q16 10 34.5 7t30.5 -26l64 -118q25 -49 -25 -72l-354 -156q-23 -10 -40.5 -8t-27.5 23zM131 57v1274q0 23 17.5 40.5t39.5 17.5h170q23 0 40.5 -17.5t17.5 -40.5v-1274q0 -23 -17.5 -40t-40.5 -17h-170q-23 0 -40 17.5t-17 39.5z" />
<glyph unicode="&#xce;" horiz-adv-x="546" d="M-65 1587q4 21 20 33l283 215q43 31 81 0l283 -215q16 -10 19.5 -32.5t-7.5 -39.5l-30 -49q-10 -16 -31 -21t-43 7l-231 131l-232 -131q-25 -14 -44 -7t-30 21l-30 49q-12 18 -8 39zM131 57v1274q0 23 17.5 40.5t39.5 17.5h170q23 0 40.5 -17.5t17.5 -40.5v-1274 q0 -23 -17.5 -40t-40.5 -17h-170q-23 0 -40 17.5t-17 39.5z" />
<glyph unicode="&#xcf;" horiz-adv-x="546" d="M-84 1620q0 59 43 102t102 43t102.5 -43t43.5 -102t-43 -102t-103 -43q-59 0 -102 43t-43 102zM131 57v1274q0 23 17.5 40.5t39.5 17.5h170q23 0 40.5 -17.5t17.5 -40.5v-1274q0 -23 -17.5 -40t-40.5 -17h-170q-23 0 -40 17.5t-17 39.5zM377 1620q0 59 43 102t102 43 t102.5 -43t43.5 -102t-43 -102t-103 -43q-59 0 -102 43t-43 102z" />
<glyph unicode="&#xd0;" horiz-adv-x="1105" d="M37 678v115q0 23 16.5 39t38.5 16h43v483q0 23 17.5 40.5t40.5 17.5h368q49 0 104.5 -8.5t110.5 -34t106.5 -72.5t90.5 -124t62.5 -188.5t23.5 -267.5q0 -152 -21.5 -278.5t-76 -219t-148.5 -144.5t-238 -52h-382q-23 0 -40.5 17.5t-17.5 39.5v566h-43q-23 0 -39 16 t-16 39zM412 233h94q76 0 127 24t83 78t45 143t13 222q0 229 -56 347t-202 118h-104v-317h63q23 0 39 -16.5t16 -38.5v-115q0 -23 -16 -39t-39 -16h-63v-390z" />
<glyph unicode="&#xd1;" horiz-adv-x="1206" d="M129 55v1278q0 23 17.5 39.5t39.5 16.5h201q25 0 45.5 -12.5t30.5 -35.5l297 -692q8 -23 15 -38t13.5 -29.5t11.5 -30.5t9 -39h2q-4 47 -4 85v75l-4 661q0 23 17.5 39.5t39.5 16.5h148q23 0 40 -16.5t17 -39.5v-1278q0 -23 -17.5 -39t-39.5 -16h-205q-25 0 -45.5 12.5 t-30.5 34.5l-293 694q-18 43 -29.5 68t-19.5 70h-2q4 -47 4 -85v-75l4 -664q0 -23 -17.5 -39t-39.5 -16h-148q-23 0 -40 16.5t-17 38.5zM244 1654.5q4 18.5 14 31.5q43 49 94 76.5t129 27.5q47 0 78 -13.5t57.5 -28.5t56 -28.5t75.5 -13.5q35 0 57 9t43 30q10 10 28.5 9 t28.5 -15l35 -47q12 -16 8 -35t-14 -31q-43 -49 -94.5 -76.5t-128.5 -27.5q-47 0 -78 13t-57.5 28.5t-56.5 29t-75 13.5q-35 0 -57 -9.5t-43 -29.5q-10 -10 -28.5 -9t-28.5 15l-35 47q-12 16 -8 34.5z" />
<glyph unicode="&#xd2;" d="M53 688q0 338 125 526.5t379 188.5q246 0 372 -179.5t126 -535.5q0 -342 -122 -522t-376 -180q-252 0 -378 178t-126 524zM215 1694l64 118q12 23 30.5 26t34.5 -7l340 -207q41 -25 18 -65l-40 -78q-10 -20 -28 -22.5t-40 7.5l-354 156q-49 23 -25 72zM344 696 q0 -113 7 -204t28.5 -154.5t63.5 -97t112 -33.5t113 34.5t64.5 98t28.5 153.5t7 203q0 104 -7 194.5t-29.5 156t-64.5 103.5t-112 38q-72 0 -113 -38t-63.5 -104.5t-28.5 -155.5t-6 -194z" />
<glyph unicode="&#xd3;" d="M53 688q0 338 125 526.5t379 188.5q246 0 372 -179.5t126 -535.5q0 -342 -122 -522t-376 -180q-252 0 -378 178t-126 524zM344 696q0 -113 7 -204t28.5 -154.5t63.5 -97t112 -33.5t113 34.5t64.5 98t28.5 153.5t7 203q0 104 -7 194.5t-29.5 156t-64.5 103.5t-112 38 q-72 0 -113 -38t-63.5 -104.5t-28.5 -155.5t-6 -194zM365 1559q-23 41 18 65l340 207q16 10 34.5 7t30.5 -26l64 -118q25 -49 -25 -72l-354 -156q-23 -10 -40 -8t-27 23z" />
<glyph unicode="&#xd4;" d="M53 688q0 338 125 526.5t379 188.5q246 0 372 -179.5t126 -535.5q0 -342 -122 -522t-376 -180q-252 0 -378 178t-126 524zM217 1587q4 21 21 33l282 215q43 31 82 0l283 -215q16 -10 19 -32.5t-7 -39.5l-31 -49q-10 -16 -30.5 -21t-42.5 7l-232 131l-231 -131 q-25 -14 -44.5 -7t-29.5 21l-31 49q-12 18 -8 39zM344 696q0 -113 7 -204t28.5 -154.5t63.5 -97t112 -33.5t113 34.5t64.5 98t28.5 153.5t7 203q0 104 -7 194.5t-29.5 156t-64.5 103.5t-112 38q-72 0 -113 -38t-63.5 -104.5t-28.5 -155.5t-6 -194z" />
<glyph unicode="&#xd5;" d="M53 688q0 338 125 526.5t379 188.5q246 0 372 -179.5t126 -535.5q0 -342 -122 -522t-376 -180q-252 0 -378 178t-126 524zM211 1654.5q4 18.5 14 31.5q43 49 94.5 76.5t129.5 27.5q47 0 77.5 -13.5t57 -28.5t56.5 -28.5t75 -13.5q35 0 57.5 9t42.5 30q10 10 28.5 9 t28.5 -15l35 -47q12 -16 8 -35t-14 -31q-43 -49 -94 -76.5t-129 -27.5q-47 0 -78 13t-57.5 28.5t-56 29t-74.5 13.5q-35 0 -57.5 -9.5t-43.5 -29.5q-10 -10 -28.5 -9t-28.5 15l-35 47q-12 16 -8 34.5zM344 696q0 -113 7 -204t28.5 -154.5t63.5 -97t112 -33.5t113 34.5 t64.5 98t28.5 153.5t7 203q0 104 -7 194.5t-29.5 156t-64.5 103.5t-112 38q-72 0 -113 -38t-63.5 -104.5t-28.5 -155.5t-6 -194z" />
<glyph unicode="&#xd6;" d="M53 688q0 338 125 526.5t379 188.5q246 0 372 -179.5t126 -535.5q0 -342 -122 -522t-376 -180q-252 0 -378 178t-126 524zM182 1620q0 59 43 102t103 43q59 0 102 -43t43 -102t-43 -102t-102 -43t-102.5 43t-43.5 102zM344 696q0 -113 7 -204t28.5 -154.5t63.5 -97 t112 -33.5t113 34.5t64.5 98t28.5 153.5t7 203q0 104 -7 194.5t-29.5 156t-64.5 103.5t-112 38q-72 0 -113 -38t-63.5 -104.5t-28.5 -155.5t-6 -194zM643 1620q0 59 43 102t102 43t102.5 -43t43.5 -102t-43 -102t-103 -43q-59 0 -102 43t-43 102z" />
<glyph unicode="&#xd7;" horiz-adv-x="1042" d="M88 167.5q0 22.5 16 39.5l285 285l-278 276q-16 16 -16.5 39.5t16.5 40.5l61 59q16 16 38.5 16.5t39.5 -16.5l278 -276l279 276q16 16 38.5 16.5t39.5 -16.5l65 -65q16 -16 16.5 -39t-16.5 -39l-276 -279l280 -280q16 -16 16.5 -39t-16.5 -39l-61 -61q-16 -16 -39 -16.5 t-39 16.5l-280 280l-285 -285q-16 -16 -39 -16t-39 16l-68 68q-16 16 -16 38.5z" />
<glyph unicode="&#xd8;" d="M55 688q0 338 125 526.5t379 188.5q115 0 201 -39l39 92q10 25 32.5 32t42.5 -3l44 -19q20 -10 31.5 -29.5t0.5 -43.5l-53 -127q160 -179 160 -578q0 -342 -122 -522t-376 -180q-111 0 -190 32l-47 -104q-10 -25 -32 -30t-42 3l-45 19q-20 8 -30.5 29.5t-0.5 44.5l57 131 q-174 174 -174 577zM346 696q0 -86 4 -160.5t15 -134.5l313 742q-49 45 -121 45t-113 -38t-63.5 -104.5t-28.5 -155.5t-6 -194zM449 238q43 -31 108 -31q70 0 113 34.5t64.5 98t28.5 153.5t7 203q0 74 -3 141.5t-13 125.5z" />
<glyph unicode="&#xd9;" d="M117 449v882q0 57 55 58h164q57 0 57 -58v-885q0 -123 44 -183t149 -60q117 0 161 57t44 186v885q0 57 57 58h164q55 0 55 -58v-882q0 -227 -122 -345t-353 -118t-353 117.5t-122 345.5zM256 1694l63 118q12 23 31 26t35 -7l340 -207q41 -25 18 -65l-41 -78 q-10 -20 -27.5 -22.5t-39.5 7.5l-354 156q-49 23 -25 72z" />
<glyph unicode="&#xda;" d="M117 449v882q0 57 55 58h164q57 0 57 -58v-885q0 -123 44 -183t149 -60q117 0 161 57t44 186v885q0 57 57 58h164q55 0 55 -58v-882q0 -227 -122 -345t-353 -118t-353 117.5t-122 345.5zM426 1559q-23 41 18 65l340 207q16 10 35 7t31 -26l63 -118q25 -49 -24 -72 l-354 -156q-23 -10 -40.5 -8t-27.5 23z" />
<glyph unicode="&#xdb;" d="M117 449v882q0 57 55 58h164q57 0 57 -58v-885q0 -123 44 -183t149 -60q117 0 161 57t44 186v885q0 57 57 58h164q55 0 55 -58v-882q0 -227 -122 -345t-353 -118t-353 117.5t-122 345.5zM252 1574.5q4 20.5 20 33.5l283 215q43 31 82 0l283 -215q16 -10 19 -33t-7 -39 l-31 -49q-10 -16 -30.5 -21.5t-43.5 7.5l-231 131l-231 -131q-25 -14 -44.5 -7t-29.5 21l-31 49q-12 18 -8 38.5z" />
<glyph unicode="&#xdc;" horiz-adv-x="1196" d="M117 449v882q0 57 55 58h164q57 0 57 -58v-885q0 -123 44 -183t149 -60q117 0 161 57t44 186v885q0 57 57 58h164q55 0 55 -58v-882q0 -227 -122 -345t-353 -118t-353 117.5t-122 345.5zM219 1620q0 59 43 102t103 43q59 0 102 -43t43 -102t-43 -102t-102 -43t-102.5 43 t-43.5 102zM680 1620q0 59 43 102t102 43t102.5 -43t43.5 -102t-43 -102t-103 -43q-59 0 -102 43t-43 102z" />
<glyph unicode="&#xdd;" horiz-adv-x="1050" d="M23 1367.5q10 21.5 45 21.5h196q29 0 51.5 -12.5t30.5 -35.5l156 -432q16 -47 26.5 -105.5t14.5 -98.5q4 41 14 99t27 105l159 432q8 23 31 35.5t51 12.5h172q33 0 43.5 -21.5t-4.5 -52.5l-364 -764v-494q0 -23 -17.5 -40t-40.5 -17h-161q-23 0 -40.5 17.5t-17.5 39.5 v484l-366 774q-16 31 -6 52.5zM399 1559q-23 41 19 65l340 207q16 10 34.5 7t30.5 -26l64 -118q25 -49 -25 -72l-354 -156q-23 -10 -40 -8t-28 23z" />
<glyph unicode="&#xde;" horiz-adv-x="1048" d="M135 57v1274q0 23 17.5 40.5t40.5 17.5h161q23 0 40.5 -17.5t17.5 -40.5v-219h166q211 0 319.5 -111.5t108.5 -304.5q0 -96 -32 -173t-89.5 -131t-135 -83.5t-169.5 -29.5h-168v-222q0 -23 -17.5 -40t-40.5 -17h-161q-23 0 -40.5 17.5t-17.5 39.5zM412 514h147 q82 0 128 50t46 132q0 86 -44 133.5t-130 47.5h-147v-363z" />
<glyph unicode="&#xdf;" horiz-adv-x="1122" d="M0 848v90q0 23 16.5 39t38.5 16h84v86q0 100 32 173t88 120t134 70.5t168 23.5q172 0 277.5 -87t105.5 -240q0 -72 -26.5 -122t-65.5 -91q-41 -43 -76 -76t-35 -74q0 -35 19.5 -59.5t52.5 -46.5l98 -72q33 -25 65 -53.5t56.5 -66.5t39.5 -86t15 -107q0 -147 -94 -223 t-241 -76q-78 0 -138.5 13t-89.5 24q-23 8 -31 24t-4 39l25 121q4 23 22.5 36t43.5 5q37 -12 70.5 -20.5t60.5 -8.5q96 0 96 90q0 57 -48 98.5t-112 92.5q-57 45 -101 102t-44 148q0 82 40 137t87 102q29 29 50 61.5t21 79.5q0 53 -38.5 82t-94.5 29q-86 0 -123.5 -51 t-37.5 -141v-994q0 -23 -16.5 -39t-39.5 -16h-155q-23 0 -39.5 16.5t-16.5 38.5v738h-84q-23 0 -39 16t-16 39z" />
<glyph unicode="&#xe0;" horiz-adv-x="933" d="M55 305q0 66 18.5 122t59.5 99t106.5 71t159.5 34l166 12q0 80 -24.5 112.5t-112.5 32.5q-53 0 -109.5 -11t-95.5 -23q-29 -10 -46 0t-21 32l-29 115q-12 51 35 66q25 8 59.5 16t72.5 14.5t76 10.5t70 4q141 0 220 -40t117 -101.5t46 -135t8 -141.5v-324v-73.5t9 -81.5 l10 -60q10 -55 -47 -55h-133q-47 0 -58 57l-8 49q-39 -55 -111.5 -87.5t-166.5 -32.5q-141 0 -206 86t-65 233zM180 1366l64 119q12 23 30.5 25.5t34.5 -7.5l340 -207q41 -25 19 -65l-41 -78q-10 -20 -27.5 -22.5t-40.5 8.5l-354 155q-49 23 -25 72zM319 305q0 -55 31 -77.5 t58 -22.5q70 0 113.5 42t43.5 91v125q-59 0 -104 -5t-77 -22.5t-48.5 -48.5t-16.5 -82z" />
<glyph unicode="&#xe1;" horiz-adv-x="933" d="M55 305q0 66 18.5 122t59.5 99t106.5 71t159.5 34l166 12q0 80 -24.5 112.5t-112.5 32.5q-53 0 -109.5 -11t-95.5 -23q-29 -10 -46 0t-21 32l-29 115q-12 51 35 66q25 8 59.5 16t72.5 14.5t76 10.5t70 4q141 0 220 -40t117 -101.5t46 -135t8 -141.5v-324v-73.5t9 -81.5 l10 -60q10 -55 -47 -55h-133q-47 0 -58 57l-8 49q-39 -55 -111.5 -87.5t-166.5 -32.5q-141 0 -206 86t-65 233zM233 1231q-23 41 19 65l340 207q16 10 34.5 7t30.5 -25l64 -119q25 -49 -25 -72l-354 -155q-23 -10 -40 -8t-28 22zM319 305q0 -55 31 -77.5t58 -22.5 q70 0 113.5 42t43.5 91v125q-59 0 -104 -5t-77 -22.5t-48.5 -48.5t-16.5 -82z" />
<glyph unicode="&#xe2;" horiz-adv-x="933" d="M55 305q0 66 18.5 122t59.5 99t106.5 71t159.5 34l166 12q0 80 -24.5 112.5t-112.5 32.5q-53 0 -109.5 -11t-95.5 -23q-29 -10 -46 0t-21 32l-29 115q-12 51 35 66q25 8 59.5 16t72.5 14.5t76 10.5t70 4q141 0 220 -40t117 -101.5t46 -135t8 -141.5v-324v-73.5t9 -81.5 l10 -60q10 -55 -47 -55h-133q-47 0 -58 57l-8 49q-39 -55 -111.5 -87.5t-166.5 -32.5q-141 0 -206 86t-65 233zM86 1259.5q4 20.5 20 32.5l283 215q43 31 82 0l283 -215q16 -10 19 -32.5t-7 -38.5l-31 -50q-10 -16 -30.5 -21t-42.5 7l-232 131l-231 -131q-25 -14 -44.5 -7 t-29.5 21l-31 50q-12 18 -8 38.5zM319 305q0 -55 31 -77.5t58 -22.5q70 0 113.5 42t43.5 91v125q-59 0 -104 -5t-77 -22.5t-48.5 -48.5t-16.5 -82z" />
<glyph unicode="&#xe3;" horiz-adv-x="933" d="M55 305q0 66 18.5 122t59.5 99t106.5 71t159.5 34l166 12q0 80 -24.5 112.5t-112.5 32.5q-53 0 -109.5 -11t-95.5 -23q-29 -10 -46 0t-21 32l-29 115q-12 51 35 66q25 8 59.5 16t72.5 14.5t76 10.5t70 4q141 0 220 -40t117 -101.5t46 -135t8 -141.5v-324v-73.5t9 -81.5 l10 -60q10 -55 -47 -55h-133q-47 0 -58 57l-8 49q-39 -55 -111.5 -87.5t-166.5 -32.5q-141 0 -206 86t-65 233zM117 1327q4 19 14 31q43 49 94 76.5t129 27.5q47 0 78 -13t57.5 -28.5t56 -29t75.5 -13.5q35 0 57 9.5t43 29.5q10 10 28.5 9t28.5 -15l35 -47q12 -16 8 -34.5 t-14 -31.5q-43 -49 -94 -76.5t-129 -27.5q-47 0 -78 13.5t-57.5 28.5t-56.5 28.5t-75 13.5q-35 0 -57 -9t-43 -30q-10 -10 -28.5 -9t-28.5 15l-35 47q-12 16 -8 35zM319 305q0 -55 31 -77.5t58 -22.5q70 0 113.5 42t43.5 91v125q-59 0 -104 -5t-77 -22.5t-48.5 -48.5 t-16.5 -82z" />
<glyph unicode="&#xe4;" horiz-adv-x="933" d="M55 305q0 66 18.5 122t59.5 99t106.5 71t159.5 34l166 12q0 80 -24.5 112.5t-112.5 32.5q-53 0 -109.5 -11t-95.5 -23q-29 -10 -46 0t-21 32l-29 115q-12 51 35 66q25 8 59.5 16t72.5 14.5t76 10.5t70 4q141 0 220 -40t117 -101.5t46 -135t8 -141.5v-324v-73.5t9 -81.5 l10 -60q10 -55 -47 -55h-133q-47 0 -58 57l-8 49q-39 -55 -111.5 -87.5t-166.5 -32.5q-141 0 -206 86t-65 233zM115 1292q0 59 43 102.5t102 43.5t102.5 -43.5t43.5 -102.5t-43.5 -102t-102.5 -43t-102 43t-43 102zM319 305q0 -55 31 -77.5t58 -22.5q70 0 113.5 42t43.5 91 v125q-59 0 -104 -5t-77 -22.5t-48.5 -48.5t-16.5 -82zM518 1292q0 59 43 102.5t103 43.5q59 0 102 -43.5t43 -102.5t-43 -102t-102 -43t-102.5 43t-43.5 102z" />
<glyph unicode="&#xe5;" horiz-adv-x="933" d="M55 305q0 66 18.5 122t59.5 99t106.5 71t159.5 34l166 12q0 80 -24.5 112.5t-112.5 32.5q-53 0 -109.5 -11t-95.5 -23q-29 -10 -46 0t-21 32l-29 115q-12 51 35 66q25 8 59.5 16t72.5 14.5t76 10.5t70 4q141 0 220 -40t117 -101.5t46 -135t8 -141.5v-324v-73.5t9 -81.5 l10 -60q10 -55 -47 -55h-133q-47 0 -58 57l-8 49q-39 -55 -111.5 -87.5t-166.5 -32.5q-141 0 -206 86t-65 233zM242 1350q0 49 18.5 93t51 76.5t75.5 52t92 19.5t92 -19.5t76 -52t51.5 -76.5t18.5 -93t-18.5 -93.5t-51.5 -77t-76 -52t-92 -19.5t-92 19.5t-75.5 52t-51 76.5 t-18.5 94zM319 305q0 -55 31 -77.5t58 -22.5q70 0 113.5 42t43.5 91v125q-59 0 -104 -5t-77 -22.5t-48.5 -48.5t-16.5 -82zM375 1350q0 -47 28.5 -80t75.5 -33t76 33t29 80t-29 79.5t-76 32.5t-75.5 -32.5t-28.5 -79.5z" />
<glyph unicode="&#xe6;" horiz-adv-x="1398" d="M47 301q0 66 18.5 124t60.5 102t107.5 70t159.5 26h164q0 43 -4 74.5t-18.5 52t-42 31t-72.5 10.5q-47 0 -106.5 -8.5t-98.5 -20.5q-53 -14 -68 33l-28 114q-4 20 1 38t34 28q27 8 60.5 16t71.5 14.5t75.5 10.5t70.5 4q205 0 285 -105q41 51 98 78t135 27 q203 0 299.5 -138t96.5 -386q0 -23 -16.5 -39.5t-39.5 -16.5h-463q4 -53 13.5 -96t31 -72.5t60.5 -46t102 -16.5q59 0 105.5 11t87.5 28q27 10 39 -1t18 -32l41 -119q8 -23 -3 -38t-30 -23q-37 -16 -69.5 -27.5t-68.5 -17.5t-78 -9.5t-95 -3.5q-115 0 -194.5 43t-133.5 121 q-59 -88 -150 -126t-186 -38q-141 0 -205.5 88.5t-64.5 235.5zM313 301q0 -55 30 -76.5t56 -21.5q70 0 114 44t44 93v104q-59 0 -104 -4t-76 -19t-47.5 -43t-16.5 -77zM827 623h248q-6 80 -30.5 134t-88.5 54q-61 0 -91.5 -55.5t-37.5 -132.5z" />
<glyph unicode="&#xe7;" horiz-adv-x="794" d="M51 512q0 104 29 195.5t86 159t143 106.5t201 39q96 0 184 -35q29 -10 35 -28.5t2 -35.5l-37 -118q-6 -18 -21.5 -29.5t-43.5 -3.5q-23 6 -43.5 12t-55.5 6q-96 0 -147 -63.5t-51 -204.5q0 -154 46 -221.5t157 -67.5q29 0 63.5 3t63.5 14q27 8 40 -2.5t17 -32.5l22 -123 q4 -23 -2 -37t-30 -25q-47 -16 -99.5 -24t-105.5 -10l-12 -33q72 -8 112.5 -52t40.5 -120q0 -35 -12 -71t-41 -65.5t-77 -48t-120 -18.5q-31 0 -65.5 6t-65.5 23q-23 10 -29 28.5t1 36.5l22 62q6 16 23.5 22t35.5 0q16 -6 37 -11t41 -5q29 0 46.5 12t17.5 33q0 27 -16.5 40 t-57.5 13h-25.5t-27.5 10q-8 6 -12.5 19.5t-0.5 30.5l31 104q-141 37 -220 161t-79 349z" />
<glyph unicode="&#xe8;" horiz-adv-x="917" d="M51 502q0 111 27.5 205t79 161.5t126 105.5t169.5 38q205 0 300 -136.5t95 -388.5q0 -23 -16.5 -39t-38.5 -16h-463q4 -49 13 -89t30.5 -67.5t60.5 -43t103 -15.5q59 0 105 11.5t87 27.5q27 10 39 -1t18 -32l41 -119q8 -23 -3 -38t-29 -23q-70 -31 -140.5 -44t-171.5 -13 q-199 0 -315.5 127t-116.5 389zM160 1366l63 119q12 23 30.5 25.5t35.5 -7.5l340 -207q41 -25 18 -65l-41 -78q-10 -20 -27.5 -22.5t-39.5 8.5l-355 155q-49 23 -24 72zM330 602h252q-2 39 -8.5 76t-19.5 64.5t-35.5 44t-59.5 16.5t-60.5 -17.5t-38 -45t-21.5 -63.5t-9 -75z " />
<glyph unicode="&#xe9;" horiz-adv-x="917" d="M51 502q0 111 27.5 205t79 161.5t126 105.5t169.5 38q205 0 300 -136.5t95 -388.5q0 -23 -16.5 -39t-38.5 -16h-463q4 -49 13 -89t30.5 -67.5t60.5 -43t103 -15.5q59 0 105 11.5t87 27.5q27 10 39 -1t18 -32l41 -119q8 -23 -3 -38t-29 -23q-70 -31 -140.5 -44t-171.5 -13 q-199 0 -315.5 127t-116.5 389zM254 1231q-23 41 18 65l340 207q16 10 35 7t31 -25l63 -119q25 -49 -24 -72l-355 -155q-23 -10 -40 -8t-27 22zM330 602h252q-2 39 -8.5 76t-19.5 64.5t-35.5 44t-59.5 16.5t-60.5 -17.5t-38 -45t-21.5 -63.5t-9 -75z" />
<glyph unicode="&#xea;" horiz-adv-x="917" d="M51 502q0 111 27.5 205t79 161.5t126 105.5t169.5 38q205 0 300 -136.5t95 -388.5q0 -23 -16.5 -39t-38.5 -16h-463q4 -49 13 -89t30.5 -67.5t60.5 -43t103 -15.5q59 0 105 11.5t87 27.5q27 10 39 -1t18 -32l41 -119q8 -23 -3 -38t-29 -23q-70 -31 -140.5 -44t-171.5 -13 q-199 0 -315.5 127t-116.5 389zM96 1259.5q4 20.5 21 32.5l282 215q43 31 82 0l283 -215q16 -10 19 -32.5t-7 -38.5l-31 -50q-10 -16 -30.5 -21t-42.5 7l-232 131l-231 -131q-25 -14 -44.5 -7t-29.5 21l-31 50q-12 18 -8 38.5zM330 602h252q-2 39 -8.5 76t-19.5 64.5 t-35.5 44t-59.5 16.5t-60.5 -17.5t-38 -45t-21.5 -63.5t-9 -75z" />
<glyph unicode="&#xeb;" horiz-adv-x="917" d="M51 502q0 111 27.5 205t79 161.5t126 105.5t169.5 38q205 0 300 -136.5t95 -388.5q0 -23 -16.5 -39t-38.5 -16h-463q4 -49 13 -89t30.5 -67.5t60.5 -43t103 -15.5q59 0 105 11.5t87 27.5q27 10 39 -1t18 -32l41 -119q8 -23 -3 -38t-29 -23q-70 -31 -140.5 -44t-171.5 -13 q-199 0 -315.5 127t-116.5 389zM104 1292q0 59 43 102.5t103 43.5q59 0 102 -43.5t43 -102.5t-43 -102t-102 -43t-102.5 43t-43.5 102zM330 602h252q-2 39 -8.5 76t-19.5 64.5t-35.5 44t-59.5 16.5t-60.5 -17.5t-38 -45t-21.5 -63.5t-9 -75zM508 1292q0 59 43 102.5 t102 43.5t102.5 -43.5t43.5 -102.5t-43 -102t-103 -43q-59 0 -102 43t-43 102z" />
<glyph unicode="&#xec;" horiz-adv-x="526" d="M-10 1366l63 119q12 23 30.5 25.5t35.5 -7.5l340 -207q41 -25 18 -65l-41 -78q-10 -20 -27.5 -22.5t-39.5 8.5l-355 155q-49 23 -24 72zM135 55v887q0 23 16.5 39t38.5 16h156q23 0 39 -16t16 -39v-887q0 -23 -16 -39t-39 -16h-156q-23 0 -39 16.5t-16 38.5z" />
<glyph unicode="&#xed;" horiz-adv-x="526" d="M23 1231q-23 41 18 65l340 207q16 10 34.5 7t30.5 -25l64 -119q25 -49 -25 -72l-354 -155q-23 -10 -40 -8t-28 22zM135 55v887q0 23 16.5 39t38.5 16h156q23 0 39 -16t16 -39v-887q0 -23 -16 -39t-39 -16h-156q-23 0 -39 16.5t-16 38.5z" />
<glyph unicode="&#xee;" horiz-adv-x="526" d="M-108 1259.5q4 20.5 20 32.5l283 215q43 31 81 0l283 -215q16 -10 19.5 -32.5t-7.5 -38.5l-30 -50q-10 -16 -31 -21t-43 7l-231 131l-232 -131q-25 -14 -44 -7t-30 21l-30 50q-12 18 -8 38.5zM135 55v887q0 23 16.5 39t38.5 16h156q23 0 39 -16t16 -39v-887 q0 -23 -16 -39t-39 -16h-156q-23 0 -39 16.5t-16 38.5z" />
<glyph unicode="&#xef;" horiz-adv-x="526" d="M-111 1292q0 59 43 102.5t103 43.5q59 0 102 -43.5t43 -102.5t-43 -102t-102 -43t-102.5 43t-43.5 102zM135 55v887q0 23 16.5 39t38.5 16h156q23 0 39 -16t16 -39v-887q0 -23 -16 -39t-39 -16h-156q-23 0 -39 16.5t-16 38.5zM293 1292q0 59 43 102.5t102 43.5 t102.5 -43.5t43.5 -102.5t-43 -102t-103 -43q-59 0 -102 43t-43 102z" />
<glyph unicode="&#xf0;" horiz-adv-x="962" d="M53 432q0 193 104.5 302.5t282.5 109.5q29 0 66 -8.5t61 -24.5q-31 88 -100 168l-59 -39q-16 -10 -27.5 -10t-28.5 14l-90 78q-35 31 0 53l53 35q-41 27 -83 49.5t-87 38.5q-20 8 -31.5 30.5t1.5 55.5l35 98q10 25 30.5 33t63.5 -6q70 -23 144.5 -60.5t146.5 -97.5l73 47 q18 12 30.5 11.5t29.5 -15.5l90 -80q31 -27 -8 -53l-74 -47q98 -117 159.5 -273.5t61.5 -355.5q0 -127 -30.5 -221t-88 -157.5t-136.5 -95t-175 -31.5q-193 0 -303.5 118.5t-110.5 333.5zM307 434q0 -104 41 -176t129 -72q45 0 77 22.5t51.5 61.5t28.5 92.5t9 112.5 q0 33 -3 70t-7 63q-18 16 -58 29.5t-112 13.5q-80 0 -118 -56t-38 -161z" />
<glyph unicode="&#xf1;" horiz-adv-x="987" d="M111 55v887q0 23 16 39t39 16h119q25 0 39 -13t18 -36l14 -65q59 63 125 96t146 33q117 0 184.5 -70t67.5 -186v-701q0 -23 -16.5 -39t-39.5 -16h-155q-23 0 -39.5 16.5t-16.5 38.5v647q0 37 -18.5 61.5t-65.5 24.5q-66 0 -108.5 -56t-42.5 -146v-531q0 -23 -16.5 -39 t-38.5 -16h-156q-23 0 -39 16.5t-16 38.5zM146 1327q4 19 14 31q43 49 94 76.5t129 27.5q47 0 78 -13t57.5 -28.5t56 -29t74.5 -13.5q35 0 57.5 9.5t43.5 29.5q10 10 28.5 9t28.5 -15l35 -47q12 -16 8 -34.5t-14 -31.5q-43 -49 -94.5 -76.5t-129.5 -27.5q-47 0 -77.5 13.5 t-57 28.5t-56.5 28.5t-75 13.5q-35 0 -57.5 -9t-42.5 -30q-10 -10 -28.5 -9t-29.5 15l-34 47q-12 16 -8 35z" />
<glyph unicode="&#xf2;" horiz-adv-x="935" d="M51 502q0 233 107.5 371.5t310.5 138.5q100 0 178 -36t131 -102.5t80 -160.5t27 -211t-25.5 -212t-78 -163t-130.5 -104.5t-182 -36.5q-209 0 -313.5 137t-104.5 379zM160 1366l63 119q12 23 30.5 25.5t35.5 -7.5l340 -207q41 -25 18 -65l-41 -78q-10 -20 -27.5 -22.5 t-39.5 8.5l-355 155q-49 23 -24 72zM315 504q0 -88 12.5 -144.5t34 -88t49 -44t56.5 -12.5q31 0 58.5 12.5t49 44t34 88t12.5 144.5q0 86 -12.5 141t-34 87t-49 44t-58.5 12t-57.5 -12t-48 -44t-34 -87t-12.5 -141z" />
<glyph unicode="&#xf3;" horiz-adv-x="935" d="M51 502q0 233 107.5 371.5t310.5 138.5q100 0 178 -36t131 -102.5t80 -160.5t27 -211t-25.5 -212t-78 -163t-130.5 -104.5t-182 -36.5q-209 0 -313.5 137t-104.5 379zM274 1231q-23 41 19 65l340 207q16 10 34.5 7t30.5 -25l64 -119q25 -49 -25 -72l-354 -155 q-23 -10 -40 -8t-28 22zM315 504q0 -88 12.5 -144.5t34 -88t49 -44t56.5 -12.5q31 0 58.5 12.5t49 44t34 88t12.5 144.5q0 86 -12.5 141t-34 87t-49 44t-58.5 12t-57.5 -12t-48 -44t-34 -87t-12.5 -141z" />
<glyph unicode="&#xf4;" horiz-adv-x="935" d="M51 502q0 233 107.5 371.5t310.5 138.5q100 0 178 -36t131 -102.5t80 -160.5t27 -211t-25.5 -212t-78 -163t-130.5 -104.5t-182 -36.5q-209 0 -313.5 137t-104.5 379zM100.5 1259.5q3.5 20.5 20.5 32.5l282 215q43 31 82 0l283 -215q16 -10 19.5 -32.5t-7.5 -38.5 l-30 -50q-10 -16 -31 -21t-43 7l-232 131l-231 -131q-25 -14 -44 -7t-30 21l-30 50q-12 18 -8.5 38.5zM315 504q0 -88 12.5 -144.5t34 -88t49 -44t56.5 -12.5q31 0 58.5 12.5t49 44t34 88t12.5 144.5q0 86 -12.5 141t-34 87t-49 44t-58.5 12t-57.5 -12t-48 -44t-34 -87 t-12.5 -141z" />
<glyph unicode="&#xf5;" horiz-adv-x="935" d="M51 502q0 233 107.5 371.5t310.5 138.5q100 0 178 -36t131 -102.5t80 -160.5t27 -211t-25.5 -212t-78 -163t-130.5 -104.5t-182 -36.5q-209 0 -313.5 137t-104.5 379zM107 1327q4 19 14 31q43 49 94 76.5t129 27.5q47 0 78 -13t57.5 -28.5t56 -29t74.5 -13.5 q35 0 57.5 9.5t43.5 29.5q10 10 28.5 9t28.5 -15l35 -47q12 -16 8 -34.5t-14 -31.5q-43 -49 -94.5 -76.5t-129.5 -27.5q-47 0 -77.5 13.5t-57 28.5t-56.5 28.5t-75 13.5q-35 0 -57.5 -9t-42.5 -30q-10 -10 -28.5 -9t-28.5 15l-35 47q-12 16 -8 35zM315 504 q0 -88 12.5 -144.5t34 -88t49 -44t56.5 -12.5q31 0 58.5 12.5t49 44t34 88t12.5 144.5q0 86 -12.5 141t-34 87t-49 44t-58.5 12t-57.5 -12t-48 -44t-34 -87t-12.5 -141z" />
<glyph unicode="&#xf6;" horiz-adv-x="935" d="M51 502q0 233 107.5 371.5t310.5 138.5q100 0 178 -36t131 -102.5t80 -160.5t27 -211t-25.5 -212t-78 -163t-130.5 -104.5t-182 -36.5q-209 0 -313.5 137t-104.5 379zM115 1292q0 59 43 102.5t102 43.5t102.5 -43.5t43.5 -102.5t-43.5 -102t-102.5 -43t-102 43t-43 102z M315 504q0 -88 12.5 -144.5t34 -88t49 -44t56.5 -12.5q31 0 58.5 12.5t49 44t34 88t12.5 144.5q0 86 -12.5 141t-34 87t-49 44t-58.5 12t-57.5 -12t-48 -44t-34 -87t-12.5 -141zM518 1292q0 59 43 102.5t103 43.5q59 0 102 -43.5t43 -102.5t-43 -102t-102 -43t-102.5 43 t-43.5 102z" />
<glyph unicode="&#xf7;" horiz-adv-x="1619" d="M-10 852v90q0 23 16.5 39t38.5 16h105v111q0 166 69.5 253t218.5 87q61 0 119.5 -13.5t104.5 -33.5q23 -10 27.5 -27.5t-1.5 -40.5l-37 -114q-6 -20 -21.5 -27.5t-33.5 -1.5q-16 6 -41 12t-45 6q-94 0 -94 -116v-95h297v125q0 80 20.5 144.5t65.5 110.5t115.5 72 t170.5 26q39 0 84 -4.5t88 -12.5t79 -17t59 -20q23 -10 27.5 -27.5t-1.5 -39.5l-37 -135q-6 -20 -20 -27.5t-43 0.5q-12 2 -35.5 9t-53.5 15.5t-61.5 13.5t-60.5 5q-70 0 -100.5 -30.5t-30.5 -90.5v-117h498q23 0 39 -16t16 -39v-887q0 -23 -16.5 -39t-38.5 -16h-156 q-23 0 -39 16.5t-16 38.5v742h-287v-742q0 -23 -16.5 -39t-38.5 -16h-156q-23 0 -39 16.5t-16 38.5v742h-295l-2 -742q0 -23 -16.5 -39t-39.5 -16h-155q-23 0 -39 16.5t-16 38.5v742h-105q-23 0 -39 16t-16 39z" />
<glyph unicode="&#xf8;" horiz-adv-x="935" d="M51 502q0 233 107.5 371.5t310.5 138.5q63 0 123 -17l26 66q10 23 33 30t43 -1l45 -19q20 -8 30.5 -29.5t0.5 -44.5l-35 -79q74 -66 112 -172.5t38 -243.5q0 -117 -25.5 -212t-78 -163t-130.5 -104.5t-182 -36.5q-72 0 -123 14l-31 -74q-10 -25 -32.5 -31t-42.5 5l-43 18 q-20 10 -31.5 29.5t-1.5 44.5l37 84q-150 133 -150 426zM317 504q0 -90 13 -148l182 426q-23 6 -45 6q-31 0 -57.5 -12t-47 -44t-33 -87t-12.5 -141zM428 219q10 -4 19.5 -4h19.5q31 0 57.5 12.5t48 44t33.5 88t12 144.5q0 80 -12 135z" />
<glyph unicode="&#xf9;" horiz-adv-x="987" d="M98 242v700q0 23 16.5 39t39.5 16h155q23 0 39.5 -16t16.5 -39v-647q0 -37 23.5 -61.5t70.5 -24.5q66 0 114 56.5t48 146.5v530q0 23 16 39t39 16h155q23 0 39.5 -16t16.5 -39v-887q0 -23 -16.5 -39t-39.5 -16h-118q-25 0 -39.5 13.5t-18.5 35.5l-14 62 q-119 -125 -281 -125q-117 0 -189.5 69.5t-72.5 186.5zM193 1366l63 119q12 23 30.5 25.5t35.5 -7.5l340 -207q41 -25 18 -65l-41 -78q-10 -20 -27.5 -22.5t-40.5 8.5l-354 155q-49 23 -24 72z" />
<glyph unicode="&#xfa;" horiz-adv-x="987" d="M98 242v700q0 23 16.5 39t39.5 16h155q23 0 39.5 -16t16.5 -39v-647q0 -37 23.5 -61.5t70.5 -24.5q66 0 114 56.5t48 146.5v530q0 23 16 39t39 16h155q23 0 39.5 -16t16.5 -39v-887q0 -23 -16.5 -39t-39.5 -16h-118q-25 0 -39.5 13.5t-18.5 35.5l-14 62 q-119 -125 -281 -125q-117 0 -189.5 69.5t-72.5 186.5zM293 1231q-23 41 18 65l340 207q16 10 35 7t31 -25l63 -119q25 -49 -24 -72l-355 -155q-23 -10 -40 -8t-27 22z" />
<glyph unicode="&#xfb;" horiz-adv-x="987" d="M98 242v700q0 23 16.5 39t39.5 16h155q23 0 39.5 -16t16.5 -39v-647q0 -37 23.5 -61.5t70.5 -24.5q66 0 114 56.5t48 146.5v530q0 23 16 39t39 16h155q23 0 39.5 -16t16.5 -39v-887q0 -23 -16.5 -39t-39.5 -16h-118q-25 0 -39.5 13.5t-18.5 35.5l-14 62 q-119 -125 -281 -125q-117 0 -189.5 69.5t-72.5 186.5zM117 1259.5q4 20.5 20 32.5l283 215q43 31 82 0l282 -215q16 -10 19.5 -32.5t-6.5 -38.5l-31 -50q-10 -16 -30.5 -21t-43.5 7l-231 131l-232 -131q-25 -14 -44 -7t-29 21l-31 50q-12 18 -8 38.5z" />
<glyph unicode="&#xfc;" horiz-adv-x="987" d="M98 242v700q0 23 16.5 39t39.5 16h155q23 0 39.5 -16t16.5 -39v-647q0 -37 23.5 -61.5t70.5 -24.5q66 0 114 56.5t48 146.5v530q0 23 16 39t39 16h155q23 0 39.5 -16t16.5 -39v-887q0 -23 -16.5 -39t-39.5 -16h-118q-25 0 -39.5 13.5t-18.5 35.5l-14 62 q-119 -125 -281 -125q-117 0 -189.5 69.5t-72.5 186.5zM145 1292q0 59 43 102.5t103 43.5q59 0 102 -43.5t43 -102.5t-43 -102t-102 -43t-102.5 43t-43.5 102zM549 1292q0 59 43 102.5t102 43.5t102.5 -43.5t43.5 -102.5t-43 -102t-103 -43q-59 0 -102 43t-43 102z" />
<glyph unicode="&#xfd;" horiz-adv-x="911" d="M25 934q-10 29 3 46t35 17h181q47 0 61 -51l146 -584q10 -41 12 -73.5t4 -75.5q6 35 14 68.5t19 80.5l131 584q10 51 61 51h160q23 0 36 -17t3 -50l-262 -981q-41 -147 -109.5 -226t-157.5 -120l-45 -21q-23 -10 -42 -2t-29 31l-58 110q-10 23 -1.5 42.5t30.5 29.5 q78 37 130 103.5t75 177.5h-76q-49 0 -65 51zM313 1231q-23 41 19 65l340 207q16 10 34.5 7t30.5 -25l64 -119q25 -49 -25 -72l-354 -155q-23 -10 -40 -8t-28 22z" />
<glyph unicode="&#xfe;" horiz-adv-x="985" d="M111 -352v1753q0 23 16 39t39 16h156q23 0 39 -16.5t16 -38.5v-494q35 41 88 73t133 32q68 0 122 -29t85 -59q72 -72 97.5 -181.5t25.5 -230.5q0 -166 -29 -269.5t-77 -159.5t-108.5 -76.5t-123.5 -20.5t-120.5 32.5t-92.5 77.5v-448q0 -23 -16.5 -39.5t-38.5 -16.5h-156 q-23 0 -39 16.5t-16 39.5zM367 498q0 -150 34.5 -213.5t98.5 -63.5q35 0 63.5 12.5t48 44t29.5 85t10 135.5q0 152 -32.5 220t-118.5 68q-66 0 -99.5 -67.5t-33.5 -220.5z" />
<glyph unicode="&#xff;" horiz-adv-x="911" d="M25 934q-10 29 3 46t35 17h181q47 0 61 -51l146 -584q10 -41 12 -73.5t4 -75.5q6 35 14 68.5t19 80.5l131 584q10 51 61 51h160q23 0 36 -17t3 -50l-262 -981q-41 -147 -109.5 -226t-157.5 -120l-45 -21q-23 -10 -42 -2t-29 31l-58 110q-10 23 -1.5 42.5t30.5 29.5 q78 37 130 103.5t75 177.5h-76q-49 0 -65 51zM119 1292q0 59 43 102.5t102 43.5t102.5 -43.5t43.5 -102.5t-43 -102t-103 -43q-59 0 -102 43t-43 102zM522 1292q0 59 43 102.5t103 43.5q59 0 102 -43.5t43 -102.5t-43 -102t-102 -43t-102.5 43t-43.5 102z" />
<glyph unicode="&#x152;" horiz-adv-x="1554" d="M55 688q0 338 125 526.5t379 188.5q35 0 79 -7t91 -7h674q23 0 40 -17.5t17 -40.5v-121q0 -23 -17.5 -40t-39.5 -17h-428v-307h381q23 0 40 -17.5t17 -40.5v-110q0 -23 -17.5 -40t-39.5 -17h-381v-375h446q23 0 40.5 -17.5t17.5 -40.5v-131q0 -23 -17.5 -40t-40.5 -17 h-692q-45 0 -90 -7t-80 -7q-252 0 -378 178t-126 524zM340 696q0 -113 8 -204t30.5 -154.5t65.5 -97t113 -33.5q43 0 78 5t63 19v930q-29 16 -63.5 21.5t-77.5 5.5q-72 0 -114 -38t-65.5 -104.5t-30.5 -155.5t-7 -194z" />
<glyph unicode="&#x153;" horiz-adv-x="1454" d="M41 502q0 117 27.5 212t80 163.5t130 105.5t180.5 37q88 0 159.5 -31t118.5 -90q47 57 116 89t151 32q203 0 301 -140t98 -388q0 -23 -16.5 -39.5t-38.5 -16.5h-465q4 -53 13 -95t30.5 -70.5t59.5 -45t101 -16.5q59 0 105.5 11t87.5 28q27 10 39 -1t18 -32l41 -119 q8 -23 -3 -38t-29 -23q-37 -16 -70 -27.5t-69 -17.5t-78 -9.5t-95 -3.5q-86 0 -166 29t-129 94q-47 -57 -117.5 -90t-162.5 -33q-207 0 -312.5 141.5t-105.5 383.5zM307 504q0 -88 12.5 -145.5t33 -91.5t48 -47t56.5 -13q31 0 57.5 13t48 47t33.5 91.5t12 145.5 q0 86 -12 142t-33.5 90t-48.5 47.5t-57 13.5q-31 0 -57.5 -13.5t-47 -47.5t-33 -90t-12.5 -142zM883 610h245q-6 90 -28.5 145.5t-89.5 55.5q-70 0 -95.5 -56.5t-31.5 -144.5z" />
<glyph unicode="&#x178;" horiz-adv-x="1050" d="M23 1367.5q10 21.5 45 21.5h196q29 0 51.5 -12.5t30.5 -35.5l156 -432q16 -47 26.5 -105.5t14.5 -98.5q4 41 14 99t27 105l159 432q8 23 31 35.5t51 12.5h172q33 0 43.5 -21.5t-4.5 -52.5l-364 -764v-494q0 -23 -17.5 -40t-40.5 -17h-161q-23 0 -40.5 17.5t-17.5 39.5 v484l-366 774q-16 31 -6 52.5zM178 1620q0 59 43 102t103 43q59 0 102 -43t43 -102t-43 -102t-102 -43t-102.5 43t-43.5 102zM639 1620q0 59 43 102t102 43t102.5 -43t43.5 -102t-43 -102t-103 -43q-59 0 -102 43t-43 102z" />
<glyph unicode="&#x2c6;" horiz-adv-x="831" d="M76 1259.5q4 20.5 20 32.5l283 215q43 31 82 0l282 -215q16 -10 19.5 -32.5t-6.5 -38.5l-31 -50q-10 -16 -30.5 -21t-43.5 7l-231 131l-232 -131q-25 -14 -44 -7t-29 21l-31 50q-12 18 -8 38.5z" />
<glyph unicode="&#x2dc;" horiz-adv-x="958" d="M127 1327q4 19 14 31q43 49 94.5 76.5t129.5 27.5q47 0 77.5 -13t57 -28.5t56.5 -29t75 -13.5q35 0 57.5 9.5t42.5 29.5q10 10 28.5 9t28.5 -15l35 -47q12 -16 8 -34.5t-14 -31.5q-43 -49 -94 -76.5t-129 -27.5q-47 0 -78 13.5t-57.5 28.5t-56 28.5t-74.5 13.5 q-35 0 -57.5 -9t-43.5 -30q-10 -10 -28.5 -9t-28.5 15l-35 47q-12 16 -8 35z" />
<glyph unicode="&#x2000;" horiz-adv-x="925" />
<glyph unicode="&#x2001;" horiz-adv-x="1850" />
<glyph unicode="&#x2002;" horiz-adv-x="925" />
<glyph unicode="&#x2003;" horiz-adv-x="1850" />
<glyph unicode="&#x2004;" horiz-adv-x="616" />
<glyph unicode="&#x2005;" horiz-adv-x="462" />
<glyph unicode="&#x2006;" horiz-adv-x="308" />
<glyph unicode="&#x2007;" horiz-adv-x="308" />
<glyph unicode="&#x2008;" horiz-adv-x="231" />
<glyph unicode="&#x2009;" horiz-adv-x="370" />
<glyph unicode="&#x200a;" horiz-adv-x="102" />
<glyph unicode="&#x2010;" horiz-adv-x="632" d="M72 485v115q0 23 16 39t39 16h383q23 0 39 -16t16 -39v-115q0 -23 -16.5 -39t-38.5 -16h-383q-23 0 -39 16.5t-16 38.5z" />
<glyph unicode="&#x2011;" horiz-adv-x="632" d="M72 485v115q0 23 16 39t39 16h383q23 0 39 -16t16 -39v-115q0 -23 -16.5 -39t-38.5 -16h-383q-23 0 -39 16.5t-16 38.5z" />
<glyph unicode="&#x2012;" horiz-adv-x="632" d="M72 485v115q0 23 16 39t39 16h383q23 0 39 -16t16 -39v-115q0 -23 -16.5 -39t-38.5 -16h-383q-23 0 -39 16.5t-16 38.5z" />
<glyph unicode="&#x2013;" horiz-adv-x="1024" d="M0 512v115q0 23 16.5 39t38.5 16h914q23 0 39 -16.5t16 -38.5v-115q0 -23 -16.5 -39t-38.5 -16h-914q-23 0 -39 16t-16 39z" />
<glyph unicode="&#x2014;" horiz-adv-x="2048" d="M0 512v115q0 23 16.5 39t38.5 16h1938q23 0 39 -16.5t16 -38.5v-115q0 -23 -16.5 -39t-38.5 -16h-1938q-23 0 -39 16t-16 39z" />
<glyph unicode="&#x2018;" horiz-adv-x="448" d="M82 1192q0 82 43 161t137 156q18 16 37.5 23.5t40.5 -8.5l61 -51q16 -14 21.5 -33t-10.5 -39q-35 -41 -52 -70q-14 -27 9 -49q16 -18 28.5 -46t12.5 -60q0 -68 -48.5 -116t-115.5 -48q-78 0 -121 51t-43 129z" />
<glyph unicode="&#x2019;" horiz-adv-x="448" d="M32 1095.5q-5 18.5 11 39.5q35 41 51 69q16 29 -6 51q-16 18 -29.5 45t-13.5 60q0 68 48 116t116 48q78 0 121 -51.5t43 -129.5q0 -82 -43 -160.5t-137 -156.5q-18 -16 -38 -23.5t-40 9.5l-62 51q-16 14 -21 32.5z" />
<glyph unicode="&#x201a;" horiz-adv-x="448" d="M32 -117q-5 19 11 39q35 41 51 70t-6 51q-16 18 -29.5 45t-13.5 59q0 68 48 116t116 48q78 0 121 -51t43 -129q0 -82 -43 -161t-137 -156q-18 -16 -38 -23.5t-40 8.5l-62 51q-16 14 -21 33z" />
<glyph unicode="&#x201c;" horiz-adv-x="888" d="M82 1192q0 82 43 161t137 156q18 16 37.5 23.5t40.5 -8.5l61 -51q16 -14 21.5 -33t-10.5 -39q-35 -41 -52 -70q-14 -27 9 -49q16 -18 28.5 -46t12.5 -60q0 -68 -48.5 -116t-115.5 -48q-78 0 -121 51t-43 129zM522 1192q0 82 43 161t137 156q18 16 38 23.5t40 -8.5l62 -51 q16 -14 21 -33t-11 -39q-35 -41 -51 -70q-14 -27 8 -49q16 -18 28.5 -46t12.5 -60q0 -68 -48 -116t-116 -48q-78 0 -121 51t-43 129z" />
<glyph unicode="&#x201d;" horiz-adv-x="888" d="M32 1095.5q-5 18.5 11 39.5q35 41 51 69q16 29 -6 51q-16 18 -29.5 45t-13.5 60q0 68 48 116t116 48q78 0 121 -51.5t43 -129.5q0 -82 -43 -160.5t-137 -156.5q-18 -16 -38 -23.5t-40 9.5l-62 51q-16 14 -21 32.5zM472.5 1095.5q-5.5 18.5 10.5 39.5q35 41 52 69 q16 29 -7 51q-16 18 -29.5 45t-13.5 60q0 68 48.5 116t115.5 48q78 0 121 -51.5t43 -129.5q0 -82 -43 -160.5t-137 -156.5q-18 -16 -38 -23.5t-40 9.5l-61 51q-16 14 -21.5 32.5z" />
<glyph unicode="&#x201e;" horiz-adv-x="888" d="M32 -114.5q-5 18.5 11 38.5q35 41 51 70t-6 51q-16 18 -29.5 45t-13.5 60q0 68 48 115.5t116 47.5q78 0 121 -51t43 -129q0 -82 -43 -160.5t-137 -156.5q-18 -16 -38 -23.5t-40 8.5l-62 52q-16 14 -21 32.5zM472.5 -114.5q-5.5 18.5 10.5 38.5q35 41 52 70q16 29 -7 51 q-16 18 -29.5 45t-13.5 60q0 68 48.5 115.5t115.5 47.5q78 0 121 -51t43 -129q0 -82 -43 -160.5t-137 -156.5q-18 -16 -38 -23.5t-40 8.5l-61 52q-16 14 -21.5 32.5z" />
<glyph unicode="&#x2022;" horiz-adv-x="905" d="M164 651q0 59 22.5 112.5t61.5 93.5t92 63.5t113 23.5q59 0 112 -23.5t92 -63.5t61.5 -93.5t22.5 -112.5t-22.5 -112.5t-61.5 -93t-92 -63.5t-112 -24t-112.5 24t-92.5 63.5t-61.5 93t-22.5 112.5z" />
<glyph unicode="&#x2026;" horiz-adv-x="1441" d="M45 150q0 68 48 115.5t116 47.5t116 -47.5t48 -115.5t-48.5 -116t-115.5 -48q-68 0 -116 48t-48 116zM557 150q0 68 48 115.5t116 47.5t116 -47.5t48 -115.5t-48.5 -116t-115.5 -48q-68 0 -116 48t-48 116zM1069 150q0 68 48 115.5t116 47.5t116 -47.5t48 -115.5 t-48.5 -116t-115.5 -48q-68 0 -116 48t-48 116z" />
<glyph unicode="&#x202f;" horiz-adv-x="370" />
<glyph unicode="&#x2039;" horiz-adv-x="673" d="M70 510.5q0 19.5 10 32.5l272 403q12 16 35 20.5t39 -5.5l133 -84q16 -10 21.5 -35t-5.5 -41l-204 -291l200 -285q10 -16 9.5 -40.5t-17.5 -34.5l-137 -91q-16 -10 -40 -5t-34 22l-272 401q-10 14 -10 33.5z" />
<glyph unicode="&#x203a;" horiz-adv-x="675" d="M93 841.5q5 24.5 22 35.5l133 84q16 10 38.5 6t35.5 -21l272 -403q10 -12 10 -31.5t-10 -34.5l-272 -401q-10 -16 -34 -21.5t-40 4.5l-137 91q-16 10 -17.5 34.5t8.5 40.5l201 285l-205 291q-10 16 -5 40.5z" />
<glyph unicode="&#x205f;" horiz-adv-x="462" />
<glyph unicode="&#x2122;" horiz-adv-x="1619" d="M0 1325v98q0 14 10 23.5t23 9.5h528q33 0 33 -33v-98q0 -33 -33 -33h-172v-594q0 -33 -33 -32h-118q-12 0 -22.5 9t-10.5 23v594h-172q-12 0 -22.5 9.5t-10.5 23.5zM655 698l74 725q2 14 14.5 23.5t26.5 9.5h143q12 0 26.5 -7t18.5 -22l113 -389q6 -23 9 -42t7 -40 q4 20 9.5 40t11.5 42l104 389q4 14 18.5 21.5t26.5 7.5h140q16 0 28.5 -9t14.5 -24l78 -725q0 -33 -33 -32h-117q-14 0 -26.5 9t-12.5 23l-22 439q0 14 -1 37.5t-3 46.5q-6 -23 -10.5 -43.5t-10.5 -40.5l-100 -357q-4 -14 -17.5 -21t-27.5 -7h-109q-16 0 -28.5 7t-16.5 21 l-100 359q-4 14 -11.5 50t-11.5 52q-2 -29 -1 -58.5t-1 -45.5l-22 -439q0 -14 -13.5 -23t-29.5 -9h-107q-14 0 -23.5 9t-7.5 23z" />
<glyph unicode="&#x25fc;" horiz-adv-x="993" d="M0 0v993h993v-993h-993z" />
</font>
</defs>
</svg>
