<?xml version="1.0" encoding="utf-8"?>
<!-- Generator: Adobe Illustrator 18.0.0, SVG Export Plug-In . SVG Version: 6.00 Build 0)  -->
<!DOCTYPE svg PUBLIC "-//W3C//DTD SVG 1.1//EN" "http://www.w3.org/Graphics/SVG/1.1/DTD/svg11.dtd">
<svg version="1.1" id="Layer_1" xmlns="http://www.w3.org/2000/svg" xmlns:xlink="http://www.w3.org/1999/xlink" x="0px" y="0px"
	 viewBox="0 0 50.4 50.4" style="enable-background:new 0 0 50.4 50.4;" xml:space="preserve">
<style type="text/css">
	.st0{fill:#D4C8E3;}
	.st1{fill:#333333;}
	.st2{fill:#F1EEF6;}
	.st3{fill:#808080;}
	.st4{fill:#1A1A1A;}
	.st5{fill:#E5E5E5;}
	.st6{fill:none;stroke:#FFFFFF;stroke-miterlimit:10;}
	.st7{fill:#D2C6E1;}
	.st8{fill:#4D4D4D;}
	.st9{fill:none;stroke:#B2B2B2;stroke-miterlimit:10;}
	.st10{fill:#FFFFFF;}
	.st11{fill:none;stroke:#808080;stroke-miterlimit:10;}
	.st12{fill:none;stroke:#4D4D4D;stroke-width:2.2691;stroke-linecap:round;stroke-linejoin:round;stroke-miterlimit:10;}
	.st13{fill:none;stroke:#4D4D4D;stroke-width:2.1559;stroke-linecap:round;stroke-linejoin:round;stroke-miterlimit:10;}
	.st14{fill:none;stroke:#4D4D4D;stroke-width:2.1558;stroke-linecap:round;stroke-linejoin:round;stroke-miterlimit:10;}
	.st15{fill:#241E21;}
	.st16{fill:none;stroke:#4D4D4D;stroke-width:2.1618;stroke-linecap:round;stroke-linejoin:round;stroke-miterlimit:10;}
	.st17{fill:none;stroke:#4D4D4D;stroke-width:2.5566;stroke-linecap:round;stroke-linejoin:round;stroke-miterlimit:10;}
	.st18{fill:none;stroke:#4D4D4D;stroke-width:2.3992;stroke-linecap:round;stroke-linejoin:round;stroke-miterlimit:10;}
	.st19{fill:none;stroke:#4D4D4D;stroke-width:2.607;stroke-linecap:round;stroke-linejoin:round;stroke-miterlimit:10;}
	.st20{fill:none;stroke:#4D4D4D;stroke-width:2.0373;stroke-linecap:round;stroke-linejoin:round;stroke-miterlimit:10;}
	.st21{fill:none;stroke:#4D4D4D;stroke-width:1.7268;stroke-linecap:round;stroke-linejoin:round;stroke-miterlimit:10;}
	.st22{fill:none;stroke:#4D4D4D;stroke-width:2.0207;stroke-linecap:round;stroke-linejoin:round;stroke-miterlimit:10;}
	.st23{fill:#666666;}
	.st24{fill:none;stroke:#666666;stroke-miterlimit:10;}
	.st25{fill:none;stroke:#E5E5E5;stroke-miterlimit:10;}
</style>
<g>
	<path class="st7" d="M22.1,0C9.7,0,6,1.5,3,4.4C0.7,6.7,0,9.6,0,16.9v16.7C0,40.8,0.7,43.7,3,46C6,49,9.7,50.4,22.1,50.4h6.2
		c12.4,0,16.2-1.5,19.1-4.4c2.3-2.3,3-5.2,3-12.5V16.9c0-7.3-0.7-10.2-3-12.5C44.5,1.5,40.7,0,28.3,0H22.1z"/>
	<g>
		<path class="st8" d="M35.6,42.7H14.8c-0.7,0-1.4-0.6-1.4-1.3c0-0.4-0.3-10.8,4.7-15.9c1.8-1.9,4.1-2.9,6.9-2.9c0.1,0,0.2,0,0.2,0
			c0.1,0,0.2,0,0.2,0c2.7,0,5,1,6.9,2.9c5,5.1,4.7,15.5,4.7,15.9C37,42.1,36.4,42.7,35.6,42.7z M16.2,39.9h18
			c-0.1-2.8-0.7-9.2-3.9-12.5c-1.3-1.4-2.9-2-4.9-2c-0.1,0-0.2,0-0.2,0c-0.1,0-0.2,0-0.2,0c-2,0-3.5,0.7-4.9,2
			C16.9,30.7,16.3,37.1,16.2,39.9z M25.2,19.6c-3.3,0-5.9-2.7-5.9-5.9c0-3.3,2.7-5.9,5.9-5.9c3.3,0,5.9,2.7,5.9,5.9
			C31.2,16.9,28.5,19.6,25.2,19.6z M25.2,10.5c-1.7,0-3.2,1.4-3.2,3.1c0,1.7,1.4,3.1,3.2,3.1c1.7,0,3.2-1.4,3.2-3.1
			C28.4,11.9,27,10.5,25.2,10.5z"/>
	</g>
</g>
</svg>
