<?xml version="1.0" encoding="utf-8"?>
<!-- Generator: Adobe Illustrator 18.0.0, SVG Export Plug-In . SVG Version: 6.00 Build 0)  -->
<!DOCTYPE svg PUBLIC "-//W3C//DTD SVG 1.1//EN" "http://www.w3.org/Graphics/SVG/1.1/DTD/svg11.dtd">
<svg version="1.1" id="Layer_1" xmlns="http://www.w3.org/2000/svg" xmlns:xlink="http://www.w3.org/1999/xlink" x="0px" y="0px"
	 viewBox="0 0 50.7 50.9" style="enable-background:new 0 0 50.7 50.9;" xml:space="preserve">
<style type="text/css">
	.st0{fill:#D4C8E3;}
	.st1{fill:#333333;}
	.st2{fill:#F1EEF6;}
	.st3{fill:#808080;}
	.st4{fill:#1A1A1A;}
	.st5{fill:#E5E5E5;}
	.st6{fill:none;stroke:#FFFFFF;stroke-miterlimit:10;}
	.st7{fill:#D2C6E1;}
	.st8{fill:#4D4D4D;}
	.st9{fill:none;stroke:#B2B2B2;stroke-miterlimit:10;}
	.st10{fill:#FFFFFF;}
	.st11{fill:none;stroke:#808080;stroke-miterlimit:10;}
	.st12{fill:none;stroke:#4D4D4D;stroke-width:2.2691;stroke-linecap:round;stroke-linejoin:round;stroke-miterlimit:10;}
	.st13{fill:none;stroke:#4D4D4D;stroke-width:2.1559;stroke-linecap:round;stroke-linejoin:round;stroke-miterlimit:10;}
	.st14{fill:none;stroke:#4D4D4D;stroke-width:2.1558;stroke-linecap:round;stroke-linejoin:round;stroke-miterlimit:10;}
	.st15{fill:#241E21;}
	.st16{fill:none;stroke:#4D4D4D;stroke-width:2.1618;stroke-linecap:round;stroke-linejoin:round;stroke-miterlimit:10;}
	.st17{fill:none;stroke:#4D4D4D;stroke-width:2.5566;stroke-linecap:round;stroke-linejoin:round;stroke-miterlimit:10;}
	.st18{fill:none;stroke:#4D4D4D;stroke-width:2.3992;stroke-linecap:round;stroke-linejoin:round;stroke-miterlimit:10;}
	.st19{fill:none;stroke:#4D4D4D;stroke-width:2.607;stroke-linecap:round;stroke-linejoin:round;stroke-miterlimit:10;}
	.st20{fill:none;stroke:#4D4D4D;stroke-width:2.0373;stroke-linecap:round;stroke-linejoin:round;stroke-miterlimit:10;}
	.st21{fill:none;stroke:#4D4D4D;stroke-width:1.7268;stroke-linecap:round;stroke-linejoin:round;stroke-miterlimit:10;}
	.st22{fill:none;stroke:#4D4D4D;stroke-width:2.0207;stroke-linecap:round;stroke-linejoin:round;stroke-miterlimit:10;}
	.st23{fill:#666666;}
	.st24{fill:none;stroke:#666666;stroke-miterlimit:10;}
	.st25{fill:none;stroke:#E5E5E5;stroke-miterlimit:10;}
</style>
<g>
	<path class="st10" d="M47.4,4.6c-3-3-6.8-4.6-19.1-4.6H26h-1.3h-2.3C10,0,6.3,1.6,3.3,4.6C0.7,7.1,0,10.3,0,17.5v15.9
		c0,7.1,0.7,10.3,3.3,12.9c3,3,6.8,4.6,19.1,4.6h2.3H26h2.3c12.4,0,16.1-1.6,19.1-4.6c2.5-2.5,3.3-5.7,3.3-12.9V17.5
		C50.7,10.3,49.9,7.1,47.4,4.6"/>
	<g>
		<path class="st8" d="M21.1,43.9c-0.4,0-0.7-0.1-1-0.4l-6.3-6.3c0,0,0,0,0,0l0,0c-0.1-0.1-0.2-0.2-0.3-0.4c0,0,0,0,0,0c0,0,0,0,0,0
			c0,0,0,0,0,0c0,0,0,0,0,0l0,0c0,0,0,0,0,0h0c0,0,0,0,0,0l0,0c0,0,0,0,0,0l0,0c0,0,0,0,0,0l0,0c-0.1-0.2-0.1-0.4-0.1-0.6l0,0
			c0,0,0,0,0,0c0,0,0,0,0,0c0,0,0,0,0,0s0,0,0,0l0,0c0,0,0,0,0,0s0,0,0,0v0l0,0c0,0,0,0,0,0s0,0,0,0v0v0v0c0,0,0,0,0,0s0,0,0,0v0
			l0,0c0,0,0,0,0,0v0v0l0,0c0,0,0,0,0,0l0,0v0l0,0c0,0,0,0,0,0l0,0c0-0.1,0-0.3,0.1-0.4l0,0c0,0,0,0,0,0c0,0,0,0,0,0c0,0,0,0,0,0
			l0,0c0,0,0,0,0,0c0,0,0,0,0,0l0,0c0,0,0,0,0,0s0,0,0,0c0,0,0,0,0,0c0,0,0,0,0,0c0,0,0,0,0,0l0,0c0,0,0,0,0,0l0,0
			c0.1-0.2,0.2-0.3,0.3-0.5l6.3-6.3c0.5-0.5,1.4-0.5,1.9,0c0.5,0.5,0.5,1.4,0,1.9l-3.9,4h23.6c0.8,0,1.4,0.6,1.4,1.4
			s-0.6,1.4-1.4,1.4H18.1l3.9,4c0.5,0.5,0.5,1.4,0,1.9C21.8,43.8,21.4,43.9,21.1,43.9z M29.6,28.5c-0.4,0-0.7-0.1-1-0.4
			c-0.5-0.5-0.5-1.4,0-1.9l3.9-4H9c-0.8,0-1.4-0.6-1.4-1.4s0.6-1.4,1.4-1.4h23.5l-3.9-4c-0.5-0.5-0.5-1.4,0-1.9
			c0.5-0.5,1.4-0.5,1.9,0l6.3,6.3c0,0,0,0,0,0l0,0c0,0,0,0,0,0v0c0.1,0.1,0.2,0.3,0.3,0.4l0,0c0,0,0,0,0,0c0,0,0,0,0,0c0,0,0,0,0,0
			s0,0,0,0c0,0,0,0,0,0l0,0l0,0l0,0c0,0,0,0,0,0l0,0l0,0c0,0,0,0,0,0c0,0,0,0,0,0v0c0,0,0,0,0,0v0c0,0,0,0,0,0c0,0,0,0,0,0v0
			c0,0,0,0,0,0v0l0,0l0,0c0,0.1,0.1,0.2,0.1,0.4c0,0,0,0,0,0v0l0,0c0,0,0,0,0,0l0,0c0,0,0,0,0,0c0,0,0,0,0,0h0c0,0,0,0,0,0s0,0,0,0
			v0v0c0,0,0,0,0,0l0,0v0c0,0,0,0,0,0s0,0,0,0l0,0l0,0c0,0,0,0,0,0v0l0,0c0,0,0,0,0,0l0,0v0l0,0v0l0,0c0,0.3,0,0.5-0.1,0.7l0,0
			c0,0,0,0,0,0c0,0,0,0,0,0l0,0h0c0,0,0,0,0,0c0,0,0,0,0,0l0,0c0,0,0,0,0,0c0,0,0,0,0,0l0,0c0,0,0,0,0,0l0,0
			c-0.1,0.1-0.1,0.2-0.2,0.3l0,0l0,0c0,0,0,0,0,0l-6.3,6.3C30.3,28.4,29.9,28.5,29.6,28.5z"/>
	</g>
</g>
</svg>
