<?xml version="1.0" encoding="utf-8"?>
<!-- Generator: Adobe Illustrator 18.0.0, SVG Export Plug-In . SVG Version: 6.00 Build 0)  -->
<!DOCTYPE svg PUBLIC "-//W3C//DTD SVG 1.1//EN" "http://www.w3.org/Graphics/SVG/1.1/DTD/svg11.dtd">
<svg version="1.1" id="Layer_1" xmlns="http://www.w3.org/2000/svg" xmlns:xlink="http://www.w3.org/1999/xlink" x="0px" y="0px"
	 viewBox="0 0 80 80" style="enable-background:new 0 0 80 80;" xml:space="preserve">
<style type="text/css">
	.st0{fill:#D4C8E3;}
	.st1{fill:#333333;}
	.st2{fill:#F1EEF6;}
	.st3{fill:#808080;}
	.st4{fill:#1A1A1A;}
	.st5{fill:#E5E5E5;}
	.st6{fill:none;stroke:#FFFFFF;stroke-miterlimit:10;}
	.st7{fill:#D2C6E1;}
	.st8{fill:#4D4D4D;}
	.st9{fill:none;stroke:#B2B2B2;stroke-miterlimit:10;}
	.st10{fill:#FFFFFF;}
	.st11{fill:none;stroke:#808080;stroke-miterlimit:10;}
	.st12{fill:none;stroke:#4D4D4D;stroke-width:2.2691;stroke-linecap:round;stroke-linejoin:round;stroke-miterlimit:10;}
	.st13{fill:none;stroke:#4D4D4D;stroke-width:2.1559;stroke-linecap:round;stroke-linejoin:round;stroke-miterlimit:10;}
	.st14{fill:none;stroke:#4D4D4D;stroke-width:2.1558;stroke-linecap:round;stroke-linejoin:round;stroke-miterlimit:10;}
	.st15{fill:#241E21;}
	.st16{fill:none;stroke:#4D4D4D;stroke-width:2.1618;stroke-linecap:round;stroke-linejoin:round;stroke-miterlimit:10;}
	.st17{fill:none;stroke:#4D4D4D;stroke-width:2.5566;stroke-linecap:round;stroke-linejoin:round;stroke-miterlimit:10;}
	.st18{fill:none;stroke:#4D4D4D;stroke-width:2.3992;stroke-linecap:round;stroke-linejoin:round;stroke-miterlimit:10;}
	.st19{fill:none;stroke:#4D4D4D;stroke-width:2.607;stroke-linecap:round;stroke-linejoin:round;stroke-miterlimit:10;}
	.st20{fill:none;stroke:#4D4D4D;stroke-width:2.0373;stroke-linecap:round;stroke-linejoin:round;stroke-miterlimit:10;}
	.st21{fill:none;stroke:#4D4D4D;stroke-width:1.7268;stroke-linecap:round;stroke-linejoin:round;stroke-miterlimit:10;}
	.st22{fill:none;stroke:#4D4D4D;stroke-width:2.0207;stroke-linecap:round;stroke-linejoin:round;stroke-miterlimit:10;}
	.st23{fill:#666666;}
	.st24{fill:none;stroke:#666666;stroke-miterlimit:10;}
	.st25{fill:none;stroke:#E5E5E5;stroke-miterlimit:10;}
</style>
<g>
	<circle class="st2" cx="40" cy="40" r="40"/>
	<g>
		<path class="st1" d="M17.2,39.2C17.2,39.2,17.2,39.2,17.2,39.2c0-7.6,5-15.6,15.8-16.5l-0.9-0.9c-0.7-0.7-0.7-1.9,0-2.6
			c0.7-0.7,1.9-0.7,2.6,0l4,4h0c0,0,0,0,0,0l0,0c0,0,0,0,0,0l0,0l0,0l0,0c0,0,0,0,0,0l0,0l0,0l0,0h0l0,0l0,0v0l0,0h0c0,0,0,0,0,0h0
			l0,0l0,0c0.2,0.2,0.3,0.4,0.4,0.6l0,0l0,0l0,0c0,0,0,0,0,0l0,0l0,0v0l0,0l0,0l0,0l0,0l0,0l0,0v0l0,0v0l0,0l0,0l0,0l0,0
			c0,0,0,0,0,0l0,0l0,0v0l0,0l0,0l0,0c0,0,0,0,0,0v0v0l0,0v0v0c0,0,0,0,0,0v0v0l0,0l0,0l0,0c0,0,0,0,0,0l0,0v0c0,0,0,0,0,0s0,0,0,0
			v0l0,0v0v0l0,0l0,0l0,0l0,0l0,0l0,0v0c0,0,0,0,0,0c0,0,0,0,0,0l0,0c0,0,0,0,0,0v0l0,0v0l0,0l0,0l0,0c0,0,0,0,0,0l0,0l0,0l0,0v0
			c0,0,0,0,0,0v0l0,0l0,0l0,0l0,0l0,0c0,0,0,0,0,0l0,0v0l0,0c0,0,0,0,0,0l0,0c0,0,0,0,0,0l0,0l0,0l0,0c0.1,0.2,0.1,0.4,0.1,0.6v0
			c0,0,0,0,0,0v0c0,0,0,0,0,0l0,0v0c0,0,0,0,0,0l0,0v0c0,0,0,0,0,0v0v0v0v0v0v0v0c0,0,0,0,0,0v0c0,0.3-0.1,0.6-0.3,0.8l0,0
			c0,0,0,0,0,0l0,0c0,0,0,0,0,0l0,0c0,0,0,0,0,0c0,0,0,0,0,0c0,0,0,0,0,0h0v0l0,0l0,0c0,0,0,0,0,0l0,0c0,0,0,0,0,0l0,0c0,0,0,0,0,0
			s0,0,0,0c0,0,0,0,0,0l0,0c0,0,0,0,0,0l0,0c0,0,0,0,0,0c0,0,0,0,0,0v0l0,0c0,0,0,0,0,0v0c0,0,0,0,0,0l0,0c0,0,0,0,0,0v0
			c0,0,0,0,0,0c0,0,0,0,0,0l0,0l0,0l0,0v0l0,0h0v0c0,0,0,0,0,0l0,0l0,0c0,0,0,0,0,0v0l0,0c0,0,0,0,0,0c0,0,0,0,0,0l0,0c0,0,0,0,0,0
			c0,0,0,0,0,0c0,0,0,0,0,0c0,0,0,0,0,0l0,0c0,0,0,0,0,0l0,0v0v0c0,0,0,0,0,0l0,0l0,0l0,0l0,0v0c0,0,0,0,0,0s0,0,0,0l0,0l0,0l0,0
			l0,0v0h0l0,0l0,0l0,0l0,0l0,0l0,0l0,0c0,0,0,0,0,0c0,0,0,0,0,0l0,0h0c0,0,0,0,0,0l0,0c0,0,0,0,0,0l0,0l0,0l0,0c0,0,0,0,0,0l0,0
			l0,0l0,0l0,0v0l0,0c0,0,0,0,0,0l0,0l0,0l0,0c0,0,0,0,0,0h0c0,0,0,0,0,0v0l0,0l0,0l0,0c0,0,0,0,0,0h0c0,0,0,0,0,0l0,0l0,0l0,0
			c0,0,0,0,0,0v0c0,0,0,0,0,0c0,0,0,0,0,0l0,0c0,0,0,0,0,0l0,0l0,0l0,0l0,0l0,0l0,0l0,0c0,0,0,0,0,0l0,0c0,0,0,0,0,0l0,0l0,0l0,0
			c0,0,0,0,0,0v0c0,0,0,0,0,0l0,0l0,0l0,0c0,0,0,0,0,0s0,0,0,0l0,0c0,0,0,0,0,0l0,0c0,0,0,0,0,0l0,0l0,0v0c0,0,0,0,0,0l0,0
			c0,0,0,0,0,0l0,0c0,0,0,0,0,0l0,0c0,0,0,0,0,0l0,0l0,0l0,0l0,0c0,0,0,0,0,0l0,0c0,0,0,0,0,0l0,0c0,0,0,0,0,0h0l0,0l0,0l0,0
			c0,0,0,0,0,0l0,0l0,0l0,0v0h0v0c0,0,0,0,0,0l0,0v0l0,0l0,0c0,0,0,0,0,0l0,0l0,0l0,0c0,0,0,0,0,0l0,0h0l0,0l0,0l0,0h0v0l0,0l-4,4
			c-0.7,0.7-1.9,0.7-2.6,0c-0.7-0.7-0.7-1.9,0-2.6l0.7-0.7c-8.2,0.9-11.9,6.8-12,12.7c0,0,0,0,0,0.1c0,6.9,4.9,14,14.4,14.1
			c1,0,1.8,0.8,1.8,1.8c0,0,0,0,0,0c0,1-0.8,1.8-1.9,1.8C23.5,56.9,17.2,47.8,17.2,39.2z M40.6,54.7L40.6,54.7c0-0.1,0-0.1,0-0.2
			l0,0v0l0,0c0,0,0,0,0,0v0l0,0v0v0l0,0v0v0v0c0,0,0,0,0,0l0,0c0-0.4,0.2-0.7,0.4-1l0,0l0,0h0v0v0h0l0,0c0,0,0,0,0,0l0,0l0,0
			c0,0,0,0,0,0l0,0l0,0c0,0,0,0,0,0l0,0c0,0,0,0,0,0l0,0c0,0,0,0,0,0c0,0,0,0,0,0c0,0,0,0,0,0h0c0,0,0,0,0,0c0,0,0,0,0,0v0l0,0
			c0,0,0,0,0,0h0v0l0,0v0l0,0l0,0c0,0,0,0,0,0l0,0c0,0,0,0,0,0l0,0c0,0,0,0,0,0l0,0c0,0,0,0,0,0l0,0l0,0v0l0,0l0,0c0,0,0,0,0,0v0
			l0,0h0l0,0c0,0,0,0,0,0c0,0,0,0,0,0l0,0l0,0c0,0,0,0,0,0l0,0l0,0l0,0l4-4c0.7-0.7,1.9-0.7,2.6,0c0.7,0.7,0.7,1.9,0,2.6l-0.7,0.7
			C55.3,51.8,59,45.9,59,40c0,0,0,0,0-0.1c0-6.9-4.9-14-14.4-14.1c-1,0-1.8-0.8-1.8-1.8v0c0-1,0.8-1.8,1.9-1.8
			c11.7,0.1,18,9.2,18,17.8c0,0,0,0,0,0.1c0,7.5-5,15.5-15.8,16.4l0.9,0.9c0.7,0.7,0.7,1.9,0,2.6c-0.7,0.7-1.9,0.7-2.6,0l-4-4l0,0
			l0,0l0,0c0,0,0,0,0,0v0l0,0h0c0,0,0,0,0,0v0h0l0,0l0,0v0l0,0l0,0l0,0l0,0l0,0c0,0,0,0,0,0l0,0c0,0,0,0,0,0l0,0l0,0c0,0,0,0,0,0
			c0,0,0,0,0,0c0,0,0,0,0,0l0,0c0,0,0,0,0,0v0c0,0,0,0,0,0l0,0v0l0,0l0,0v0l0,0l0,0l0,0l0,0c0,0,0,0,0,0s0,0,0,0l0,0l0,0l0,0l0,0
			c0,0,0,0,0,0h0c0,0,0,0,0,0v0c0,0,0,0,0,0l0,0l0,0l0,0c-0.3-0.3-0.4-0.6-0.4-1l0,0v0l0,0c0,0,0,0,0,0v0v0l0,0c0,0,0,0,0,0v0
			C40.6,54.8,40.6,54.8,40.6,54.7z"/>
	</g>
</g>
</svg>
