<?xml version="1.0" encoding="utf-8"?>
<!-- Generator: Adobe Illustrator 18.0.0, SVG Export Plug-In . SVG Version: 6.00 Build 0)  -->
<!DOCTYPE svg PUBLIC "-//W3C//DTD SVG 1.1//EN" "http://www.w3.org/Graphics/SVG/1.1/DTD/svg11.dtd">
<svg version="1.1" id="Layer_1" xmlns="http://www.w3.org/2000/svg" xmlns:xlink="http://www.w3.org/1999/xlink" x="0px" y="0px"
	 viewBox="0 0 50.7 50.9" style="enable-background:new 0 0 50.7 50.9;" xml:space="preserve">
<style type="text/css">
	.st0{fill:#D4C8E3;}
	.st1{fill:#333333;}
	.st2{fill:#F1EEF6;}
	.st3{fill:#808080;}
	.st4{fill:#1A1A1A;}
	.st5{fill:#E5E5E5;}
	.st6{fill:none;stroke:#FFFFFF;stroke-miterlimit:10;}
	.st7{fill:#D2C6E1;}
	.st8{fill:#4D4D4D;}
	.st9{fill:none;stroke:#B2B2B2;stroke-miterlimit:10;}
	.st10{fill:#FFFFFF;}
	.st11{fill:none;stroke:#808080;stroke-miterlimit:10;}
	.st12{fill:none;stroke:#4D4D4D;stroke-width:2.2691;stroke-linecap:round;stroke-linejoin:round;stroke-miterlimit:10;}
	.st13{fill:none;stroke:#4D4D4D;stroke-width:2.1559;stroke-linecap:round;stroke-linejoin:round;stroke-miterlimit:10;}
	.st14{fill:none;stroke:#4D4D4D;stroke-width:2.1558;stroke-linecap:round;stroke-linejoin:round;stroke-miterlimit:10;}
	.st15{fill:#241E21;}
	.st16{fill:none;stroke:#4D4D4D;stroke-width:2.1618;stroke-linecap:round;stroke-linejoin:round;stroke-miterlimit:10;}
	.st17{fill:none;stroke:#4D4D4D;stroke-width:2.5566;stroke-linecap:round;stroke-linejoin:round;stroke-miterlimit:10;}
	.st18{fill:none;stroke:#4D4D4D;stroke-width:2.3992;stroke-linecap:round;stroke-linejoin:round;stroke-miterlimit:10;}
	.st19{fill:none;stroke:#4D4D4D;stroke-width:2.607;stroke-linecap:round;stroke-linejoin:round;stroke-miterlimit:10;}
	.st20{fill:none;stroke:#4D4D4D;stroke-width:2.0373;stroke-linecap:round;stroke-linejoin:round;stroke-miterlimit:10;}
	.st21{fill:none;stroke:#4D4D4D;stroke-width:1.7268;stroke-linecap:round;stroke-linejoin:round;stroke-miterlimit:10;}
	.st22{fill:none;stroke:#4D4D4D;stroke-width:2.0207;stroke-linecap:round;stroke-linejoin:round;stroke-miterlimit:10;}
	.st23{fill:#666666;}
	.st24{fill:none;stroke:#666666;stroke-miterlimit:10;}
	.st25{fill:none;stroke:#E5E5E5;stroke-miterlimit:10;}
</style>
<g>
	<path class="st10" d="M47.4,4.6c-3-3-6.8-4.6-19.1-4.6H26h-1.3h-2.3C10,0,6.3,1.6,3.3,4.6C0.7,7.1,0,10.3,0,17.5v15.9
		c0,7.1,0.7,10.3,3.3,12.9c3,3,6.8,4.6,19.1,4.6h2.3H26h2.3c12.4,0,16.1-1.6,19.1-4.6c2.6-2.5,3.3-5.7,3.3-12.9V17.5
		C50.7,10.3,49.9,7.1,47.4,4.6"/>
	<g>
		<path class="st8" d="M18.3,42.5c-0.4,0-0.8-0.1-1.2-0.4l-9.2-7.2c-0.8-0.6-1-1.8-0.3-2.7c0.6-0.8,1.8-1,2.7-0.3l7.8,6.1l22-26.4
			c0.7-0.8,1.9-0.9,2.7-0.2c0.8,0.7,0.9,1.9,0.2,2.7L19.8,41.8C19.4,42.2,18.9,42.5,18.3,42.5z"/>
	</g>
</g>
</svg>
