<?xml version="1.0" encoding="utf-8"?>
<!-- Generator: Adobe Illustrator 18.0.0, SVG Export Plug-In . SVG Version: 6.00 Build 0)  -->
<!DOCTYPE svg PUBLIC "-//W3C//DTD SVG 1.1//EN" "http://www.w3.org/Graphics/SVG/1.1/DTD/svg11.dtd">
<svg version="1.1" id="Layer_1" xmlns="http://www.w3.org/2000/svg" xmlns:xlink="http://www.w3.org/1999/xlink" x="0px" y="0px"
	 viewBox="0 0 388.4 182" style="enable-background:new 0 0 388.4 182;" xml:space="preserve">
<style type="text/css">
	.st0{fill:#D4C8E3;}
	.st1{fill:#333333;}
	.st2{fill:#F1EEF6;}
	.st3{fill:#808080;}
	.st4{fill:#1A1A1A;}
	.st5{fill:#E5E5E5;}
	.st6{fill:none;stroke:#FFFFFF;stroke-miterlimit:10;}
	.st7{fill:#D2C6E1;}
	.st8{fill:#4D4D4D;}
	.st9{fill:none;stroke:#B2B2B2;stroke-miterlimit:10;}
	.st10{fill:#FFFFFF;}
	.st11{fill:none;stroke:#808080;stroke-miterlimit:10;}
	.st12{fill:none;stroke:#4D4D4D;stroke-width:2.2691;stroke-linecap:round;stroke-linejoin:round;stroke-miterlimit:10;}
	.st13{fill:none;stroke:#4D4D4D;stroke-width:2.1559;stroke-linecap:round;stroke-linejoin:round;stroke-miterlimit:10;}
	.st14{fill:none;stroke:#4D4D4D;stroke-width:2.1558;stroke-linecap:round;stroke-linejoin:round;stroke-miterlimit:10;}
	.st15{fill:#241E21;}
	.st16{fill:none;stroke:#4D4D4D;stroke-width:2.1618;stroke-linecap:round;stroke-linejoin:round;stroke-miterlimit:10;}
	.st17{fill:none;stroke:#4D4D4D;stroke-width:2.5566;stroke-linecap:round;stroke-linejoin:round;stroke-miterlimit:10;}
	.st18{fill:none;stroke:#4D4D4D;stroke-width:2.3992;stroke-linecap:round;stroke-linejoin:round;stroke-miterlimit:10;}
	.st19{fill:none;stroke:#4D4D4D;stroke-width:2.607;stroke-linecap:round;stroke-linejoin:round;stroke-miterlimit:10;}
	.st20{fill:none;stroke:#4D4D4D;stroke-width:2.0373;stroke-linecap:round;stroke-linejoin:round;stroke-miterlimit:10;}
	.st21{fill:none;stroke:#4D4D4D;stroke-width:1.7268;stroke-linecap:round;stroke-linejoin:round;stroke-miterlimit:10;}
	.st22{fill:none;stroke:#4D4D4D;stroke-width:2.0207;stroke-linecap:round;stroke-linejoin:round;stroke-miterlimit:10;}
	.st23{fill:#666666;}
	.st24{fill:none;stroke:#666666;stroke-miterlimit:10;}
	.st25{fill:none;stroke:#E5E5E5;stroke-miterlimit:10;}
</style>
<rect y="0" class="st5" width="388.4" height="182"/>
<g>
	<g>
		<g>
			<g>
				<path d="M126.3,76.3c0,0,6.2-2.3,7.9,2.1C134.3,78.4,130.5,81.3,126.3,76.3z"/>
				<path d="M124.7,69.2c0,0,2.3,5.4,6.1,3.8C130.8,73,130.4,68.8,124.7,69.2z"/>
				<path d="M131.6,69.9c0,0,1.1,8.7,7.3,8C138.9,77.9,140,71.7,131.6,69.9z"/>
				<path d="M121.2,72.7c0,0,4.8-1.4,5.8,2C127,74.6,124,76.6,121.2,72.7z"/>
				<g>
					<path d="M140.9,74.1c0,0-2.5,11.7,5.8,13.5C146.7,87.6,150.8,80.2,140.9,74.1z"/>
				</g>
				<path d="M150.3,84.5c0,0-9.3,10.5-1.8,17.2C148.5,101.7,157,96.5,150.3,84.5z"/>
				<path d="M153.2,101.2c0,0-12.6,3.3-10.3,12.2C142.8,113.4,152.1,113.8,153.2,101.2z"/>
				<g>
					<path d="M147.9,115.1c0,0-9.3-2.6-11.3,4C136.6,119.2,142.4,122.9,147.9,115.1z"/>
				</g>
				<g>
					<path d="M139.9,122.2c0,0-5.9-4.2-9,0C130.9,122.2,134.1,126.3,139.9,122.2z"/>
				</g>
				<g>
					<path d="M132.8,125.4c0,0-3.7-4.1-6.6-1.5C126.2,123.9,127.8,127.5,132.8,125.4z"/>
				</g>
				<g>
					<path d="M126.3,126.4c0,0-2.2-3.9-4.9-2.4C121.3,124.1,122,127.1,126.3,126.4z"/>
				</g>
				<g>
					<path d="M121.6,126.3c0,0-1.5-2-2.9-1C118.7,125.3,119.3,127,121.6,126.3z"/>
				</g>
				<path d="M131.3,80.9c0,0,7.7-2.1,9.2,3.4C140.5,84.3,135.7,87.3,131.3,80.9z"/>
				<path d="M134.5,86.3c0,0,9-0.6,9.5,5.8C144,92.1,138,94.3,134.5,86.3z"/>
				<g>
					<path d="M136.2,92c0,0,10.7,2.8,8.8,10.5C144.9,102.5,137,102.8,136.2,92z"/>
				</g>
				<path d="M136.6,100.3c0,0,7.5,2.7,5.5,8.1C142.2,108.4,136.5,108.1,136.6,100.3z"/>
				<g>
					<path d="M135.8,105.8c0,0,5.9,3.5,3.4,7.8C139.3,113.6,134.5,112.4,135.8,105.8z"/>
				</g>
				<g>
					<path d="M134.3,110.7c0,0,4,4.8,0.6,7.7C134.9,118.5,131.2,116,134.3,110.7z"/>
				</g>
				<g>
					<path d="M131.9,114.9c0,0,2,4-0.9,5.5C131,120.4,128.8,118,131.9,114.9z"/>
				</g>
				<g>
					<path d="M129.3,118.2c0,0,1,3.4-1.4,4.1C127.9,122.3,126.5,120.2,129.3,118.2z"/>
				</g>
				<g>
					<path d="M126.6,121.1c0,0-0.2,2.3-1.8,2.2C124.8,123.3,124.4,121.7,126.6,121.1z"/>
				</g>
				<path d="M119.6,69.4c0,0,1.5,2.9,3.6,1.8C123.2,71.2,122.7,68.9,119.6,69.4z"/>
				<path d="M115.7,70.7c0,0,2.4,2.5,4.1,0.8C119.9,71.5,118.8,69.3,115.7,70.7z"/>
			</g>
			<g>
				<path d="M95.7,89.5c0,0-5.1-4.2-2.2-7.9C93.6,81.6,98,83.4,95.7,89.5z"/>
				<path d="M90.4,94.5c0,0,3.5-4.7,0.3-7.2C90.6,87.3,87.2,89.7,90.4,94.5z"/>
				<path d="M87.5,88.2c0,0,7-5.3,3.3-10.3C90.8,77.9,84.9,80,87.5,88.2z"/>
				<path d="M95.1,95.8c0,0-3.6-3.4-1.2-6C93.9,89.8,97.1,91.4,95.1,95.8z"/>
				<g>
					<path d="M86.6,78c0,0,11.3-3.7,8.8-11.8C95.4,66.2,86.9,66.3,86.6,78z"/>
				</g>
				<path d="M90.8,64.6c0,0,13.8,2.7,15.8-7C106.6,57.6,97.8,52.8,90.8,64.6z"/>
				<path d="M103.8,53.8c0,0,9.1,9.3,15.8,2.8C119.6,56.7,115.3,48.4,103.8,53.8z"/>
				<g>
					<path d="M118.6,51.5c0,0,2.4,9.4,9.1,7.7C127.7,59.2,128,52.3,118.6,51.5z"/>
				</g>
				<g>
					<path d="M128.7,54.9c0,0-0.7,7.2,4.5,7.8C133.2,62.6,135.1,57.8,128.7,54.9z"/>
				</g>
				<g>
					<path d="M135,59.4c0,0-1.7,5.2,2,6.5C137,65.9,139.3,62.7,135,59.4z"/>
				</g>
				<g>
					<path d="M139.1,64.5c0,0-2.3,3.8,0.4,5.5C139.6,70,141.9,67.8,139.1,64.5z"/>
				</g>
				<g>
					<path d="M141.4,68.6c0,0-1,2.3,0.6,3C142,71.6,143.2,70.2,141.4,68.6z"/>
				</g>
				<path d="M97.2,82.9c0,0-5.6-5.6-1.7-9.7C95.5,73.2,100.6,75.9,97.2,82.9z"/>
				<path d="M100.2,77.4c0,0-5-7.5,0.3-11.1C100.5,66.3,105.5,70.4,100.2,77.4z"/>
				<g>
					<path d="M104.4,73.1c0,0-2.9-10.7,4.7-12.8C109.1,60.3,113.3,67,104.4,73.1z"/>
				</g>
				<path d="M111.4,68.6c0,0-1.4-7.8,4.2-8.9C115.6,59.7,118.2,64.8,111.4,68.6z"/>
				<g>
					<path d="M116.5,66.5c0,0,0.1-6.9,5-6.9C121.6,59.7,122.9,64.4,116.5,66.5z"/>
				</g>
				<g>
					<path d="M121.5,65.4c0,0,2.2-5.9,6.4-4.4C127.9,61,127.7,65.5,121.5,65.4z"/>
				</g>
				<g>
					<path d="M126.4,65.4c0,0,2.5-3.7,5.2-2C131.5,63.4,130.6,66.5,126.4,65.4z"/>
				</g>
				<g>
					<path d="M130.5,66c0,0,2.4-2.5,4.3-0.8C134.7,65.2,133.6,67.4,130.5,66z"/>
				</g>
				<g>
					<path d="M134.4,66.9c0,0,2.1-1,2.8,0.5C137.2,67.4,136,68.5,134.4,66.9z"/>
				</g>
				<path d="M93.1,98.8c0,0,1.7-2.8-0.2-4C92.9,94.8,91.1,96.4,93.1,98.8z"/>
				<path d="M96.1,101.5c0,0,1-3.3-1.4-4C94.8,97.5,93.4,99.6,96.1,101.5z"/>
			</g>
			<g>
				<path d="M122.7,109.4c0,0-1.1,6.6-5.8,5.8C116.9,115.2,116.3,110.5,122.7,109.4z"/>
				<path d="M129.7,111.6c0,0-5.8-0.7-6.4,3.4C123.4,114.9,127.2,116.7,129.7,111.6z"/>
				<path d="M125.7,117.2c0,0-8.1-3.4-10.6,2.3C115.1,119.5,119.9,123.5,125.7,117.2z"/>
				<path d="M128.5,106.8c0,0-1.1,4.8-4.6,4.1C123.9,110.8,123.7,107.3,128.5,106.8z"/>
				<g>
					<path d="M117.3,123.1c0,0-8.8-8-14.6-1.7C102.7,121.4,107.1,128.7,117.3,123.1z"/>
				</g>
				<path d="M103.6,126.1c0,0-4.5-13.3-14-10.2C89.6,115.9,89.9,125.9,103.6,126.1z"/>
				<path d="M87.8,120.3c0,0,3.5-12.5-5.4-15.1C82.4,105.2,77.4,113,87.8,120.3z"/>
				<g>
					<path d="M78.4,108.6c0,0,6.9-6.8,2.1-11.8C80.5,96.9,74.4,100,78.4,108.6z"/>
				</g>
				<g>
					<path d="M76.3,98.2c0,0,6.6-3.1,4.5-7.8C80.7,90.4,75.6,91.1,76.3,98.2z"/>
				</g>
				<g>
					<path d="M77,90.4c0,0,5.4-1.1,4.6-5C81.6,85.5,77.7,85.1,77,90.4z"/>
				</g>
				<g>
					<path d="M79.4,84.3c0,0,4.4,0.1,4.5-3.1C83.9,81.2,80.9,80.2,79.4,84.3z"/>
				</g>
				<g>
					<path d="M81.8,80.3c0,0,2.5-0.3,2.3-2.1C84.1,78.3,82.3,78,81.8,80.3z"/>
				</g>
				<path d="M116.3,111.4c0,0-2.1,7.7-7.6,6.3C108.7,117.7,108.5,112,116.3,111.4z"/>
				<path d="M110,111.5c0,0-4,8-9.7,5.3C100.3,116.8,101.3,110.5,110,111.5z"/>
				<g>
					<path d="M104.2,110.1c0,0-7.8,7.9-13.5,2.3C90.8,112.4,94.4,105.4,104.2,110.1z"/>
				</g>
				<path d="M96.8,106.3c0,0-6.1,5.1-9.8,0.8C87,107.1,90.1,102.3,96.8,106.3z"/>
				<g>
					<path d="M92.4,102.9c0,0-6,3.4-8.5-0.9C84,102,87.4,98.4,92.4,102.9z"/>
				</g>
				<g>
					<path d="M88.9,99.1c0,0-6.2,1.1-7-3.3C81.9,95.8,85.9,93.8,88.9,99.1z"/>
				</g>
				<g>
					<path d="M86.5,94.9c0,0-4.5-0.3-4.3-3.5C82.2,91.4,85.4,90.7,86.5,94.9z"/>
				</g>
				<g>
					<path d="M85,91.1c0,0-3.4-0.8-2.8-3.3C82.2,87.8,84.7,87.6,85,91.1z"/>
				</g>
				<g>
					<path d="M83.9,87.2c0,0-1.9-1.3-1-2.7C82.9,84.6,84.4,85,83.9,87.2z"/>
				</g>
				<path d="M132.1,107c0,0-3.2-0.1-3.3,2.2C128.8,109.2,131,110,132.1,107z"/>
				<path d="M132.9,103c0,0-3.3,0.8-2.8,3.2C130.2,106.2,132.6,106.4,132.9,103z"/>
			</g>
		</g>
		<g>
			<path d="M175.1,87.7c-5.4,0-9.4-4.2-9.4-9.4v-0.1c0-5.2,3.9-9.5,9.5-9.5c3.4,0,5.5,1.1,7.2,2.8l-2.6,2.9
				c-1.4-1.3-2.8-2.1-4.7-2.1c-3.1,0-5.3,2.6-5.3,5.7v0.1c0,3.1,2.2,5.7,5.3,5.7c2.1,0,3.4-0.8,4.8-2.1l2.6,2.6
				C180.7,86.4,178.7,87.7,175.1,87.7z"/>
			<path d="M194.2,87.7c-5.6,0-9.7-4.2-9.7-9.4v-0.1c0-5.2,4.1-9.5,9.7-9.5c5.6,0,9.7,4.2,9.7,9.4v0.1
				C203.9,83.4,199.8,87.7,194.2,87.7z M199.7,78.2c0-3.1-2.3-5.7-5.5-5.7c-3.2,0-5.5,2.6-5.5,5.7v0.1c0,3.1,2.3,5.7,5.5,5.7
				C197.5,84,199.7,81.4,199.7,78.2L199.7,78.2z"/>
			<path d="M221.8,87.4V75.4l-5.1,7.8h-0.1l-5.1-7.7v11.9h-3.9V69.1h4.3l4.8,7.7l4.8-7.7h4.3v18.3H221.8z"/>
			<path d="M230.2,87.4V69.1H244v3.6h-9.8v3.7h8.6v3.6h-8.6v3.8h9.9v3.6H230.2z"/>
			<path d="M259.1,87.4l-4.1-6.3l-4.1,6.3h-4.6l6.4-9.3l-6.1-9h4.7l3.8,5.9l3.9-5.9h4.6l-6.1,8.9l6.4,9.3H259.1z"/>
			<path d="M180.9,112.5v-11.9l-5.1,7.8h-0.1l-5.1-7.7v11.9h-3.9V94.2h4.3l4.8,7.7l4.8-7.7h4.3v18.3H180.9z"/>
			<path d="M193,104c-3,0-5.2-2.3-5.2-5.2v0c0-2.9,2.2-5.3,5.3-5.3c1.9,0,3.1,0.6,4,1.6l-1.4,1.6c-0.8-0.7-1.6-1.1-2.6-1.1
				c-1.7,0-2.9,1.4-2.9,3.2v0c0,1.7,1.2,3.2,2.9,3.2c1.2,0,1.9-0.5,2.7-1.2l1.4,1.4C196.2,103.3,195,104,193,104z"/>
			<path d="M211.7,112.5l-5.7-7.8l-2.1,2.2v5.6h-4V94.2h4v8l7.4-8h4.9l-7.4,7.8l7.8,10.5H211.7z"/>
			<path d="M219.2,112.5V94.2h4v18.3H219.2z"/>
			<path d="M240.6,112.5l-8.9-11.6v11.6h-4V94.2h3.7l8.6,11.3V94.2h4v18.3H240.6z"/>
			<path d="M261.2,112.5l-8.8-11.6v11.6h-4V94.2h3.7l8.6,11.3V94.2h4v18.3H261.2z"/>
			<path d="M277.9,112.8c-5.6,0-9.7-4.2-9.7-9.4v-0.1c0-5.2,4.1-9.5,9.7-9.5c5.6,0,9.7,4.2,9.7,9.4v0.1
				C287.7,108.6,283.6,112.8,277.9,112.8z M283.5,103.4c0-3.1-2.3-5.7-5.5-5.7c-3.2,0-5.5,2.6-5.5,5.7v0.1c0,3.1,2.3,5.7,5.5,5.7
				C281.2,109.1,283.5,106.5,283.5,103.4L283.5,103.4z"/>
			<path d="M304.1,112.5l-8.9-11.6v11.6h-4V94.2h3.7l8.6,11.3V94.2h4v18.3H304.1z"/>
		</g>
	</g>
</g>
</svg>
