<?xml version="1.0" encoding="utf-8"?>
<!-- Generator: Adobe Illustrator 18.0.0, SVG Export Plug-In . SVG Version: 6.00 Build 0)  -->
<!DOCTYPE svg PUBLIC "-//W3C//DTD SVG 1.1//EN" "http://www.w3.org/Graphics/SVG/1.1/DTD/svg11.dtd">
<svg version="1.1" id="Layer_1" xmlns="http://www.w3.org/2000/svg" xmlns:xlink="http://www.w3.org/1999/xlink" x="0px" y="0px"
	 viewBox="0 0 80 80" style="enable-background:new 0 0 80 80;" xml:space="preserve">
<style type="text/css">
	.st0{fill:#D4C8E3;}
	.st1{fill:#333333;}
	.st2{fill:#F1EEF6;}
	.st3{fill:#808080;}
	.st4{fill:#1A1A1A;}
	.st5{fill:#E5E5E5;}
	.st6{fill:none;stroke:#FFFFFF;stroke-miterlimit:10;}
	.st7{fill:#D2C6E1;}
	.st8{fill:#4D4D4D;}
	.st9{fill:none;stroke:#B2B2B2;stroke-miterlimit:10;}
	.st10{fill:#FFFFFF;}
	.st11{fill:none;stroke:#808080;stroke-miterlimit:10;}
	.st12{fill:none;stroke:#4D4D4D;stroke-width:2.2691;stroke-linecap:round;stroke-linejoin:round;stroke-miterlimit:10;}
	.st13{fill:none;stroke:#4D4D4D;stroke-width:2.1559;stroke-linecap:round;stroke-linejoin:round;stroke-miterlimit:10;}
	.st14{fill:none;stroke:#4D4D4D;stroke-width:2.1558;stroke-linecap:round;stroke-linejoin:round;stroke-miterlimit:10;}
	.st15{fill:#241E21;}
	.st16{fill:none;stroke:#4D4D4D;stroke-width:2.1618;stroke-linecap:round;stroke-linejoin:round;stroke-miterlimit:10;}
	.st17{fill:none;stroke:#4D4D4D;stroke-width:2.5566;stroke-linecap:round;stroke-linejoin:round;stroke-miterlimit:10;}
	.st18{fill:none;stroke:#4D4D4D;stroke-width:2.3992;stroke-linecap:round;stroke-linejoin:round;stroke-miterlimit:10;}
	.st19{fill:none;stroke:#4D4D4D;stroke-width:2.607;stroke-linecap:round;stroke-linejoin:round;stroke-miterlimit:10;}
	.st20{fill:none;stroke:#4D4D4D;stroke-width:2.0373;stroke-linecap:round;stroke-linejoin:round;stroke-miterlimit:10;}
	.st21{fill:none;stroke:#4D4D4D;stroke-width:1.7268;stroke-linecap:round;stroke-linejoin:round;stroke-miterlimit:10;}
	.st22{fill:none;stroke:#4D4D4D;stroke-width:2.0207;stroke-linecap:round;stroke-linejoin:round;stroke-miterlimit:10;}
	.st23{fill:#666666;}
	.st24{fill:none;stroke:#666666;stroke-miterlimit:10;}
	.st25{fill:none;stroke:#E5E5E5;stroke-miterlimit:10;}
</style>
<g>
	<circle class="st2" cx="40" cy="40" r="40"/>
	<g>
		<path class="st1" d="M15.1,49.9c0-1.5,0.2-6.4,2.9-9.2c1.2-1.2,2.8-1.9,4.5-1.9c0,0,0.1,0,0.1,0c0,0,0.1,0,0.1,0
			c1.8,0,3.3,0.7,4.5,1.9c3,3.1,2.9,8.9,2.9,9.5c0,1-0.8,1.8-1.8,1.8H16.9c-1,0-1.8-0.8-1.8-1.8C15.1,50.2,15.1,50,15.1,49.9z
			 M22.6,42.4c0,0-0.1,0-0.1,0c-0.8,0-1.4,0.3-1.9,0.8c-1.2,1.2-1.6,3.4-1.8,5.1h7.7c-0.2-1.7-0.6-4-1.8-5.1
			c-0.5-0.5-1.1-0.8-1.9-0.8C22.7,42.4,22.7,42.4,22.6,42.4z M17.3,32.9c0-2.9,2.4-5.3,5.3-5.3c2.9,0,5.3,2.4,5.3,5.3
			c0,2.9-2.4,5.3-5.3,5.3C19.7,38.2,17.3,35.8,17.3,32.9z M24.3,32.9c0-0.9-0.8-1.7-1.7-1.7c-0.9,0-1.7,0.8-1.7,1.7
			c0,0.9,0.8,1.7,1.7,1.7C23.6,34.5,24.3,33.8,24.3,32.9z M30.9,53.7c0-1.6,0.2-8.1,3.6-11.6c1.5-1.5,3.3-2.3,5.5-2.3
			c0.1,0,0.1,0,0.2,0c0.1,0,0.1,0,0.2,0c2.2,0,4,0.8,5.5,2.3c3.8,3.9,3.6,11.6,3.6,12c0,1-0.8,1.8-1.8,1.8H32.7
			c-1,0-1.8-0.8-1.8-1.8C30.9,54,30.9,53.9,30.9,53.7z M40.2,43.4c-0.1,0-0.1,0-0.2,0c-1.2,0-2.1,0.4-2.9,1.2
			c-1.7,1.8-2.4,5.3-2.5,7.6h11.2c-0.2-2.3-0.8-5.8-2.5-7.6c-0.8-0.8-1.7-1.2-2.9-1.2C40.3,43.4,40.2,43.4,40.2,43.4z M33.8,32.8
			c0-3.5,2.9-6.3,6.4-6.3c3.5,0,6.4,2.8,6.4,6.3c0,3.5-2.9,6.3-6.4,6.3C36.6,39.1,33.8,36.3,33.8,32.8z M42.9,32.8
			c0-1.5-1.2-2.7-2.7-2.7c-1.5,0-2.7,1.2-2.7,2.7c0,1.5,1.2,2.7,2.7,2.7C41.7,35.5,42.9,34.3,42.9,32.8z M50,49.9
			c0-1.5,0.2-6.4,2.9-9.2c1.2-1.2,2.8-1.9,4.5-1.9c0,0,0.1,0,0.1,0c0,0,0.1,0,0.1,0c1.8,0,3.3,0.7,4.5,1.9c3,3.1,2.9,8.9,2.9,9.5
			c0,1-0.8,1.8-1.8,1.8H51.8c-1,0-1.8-0.8-1.8-1.8C50,50.2,50,50,50,49.9z M57.5,42.4c0,0-0.1,0-0.1,0c-0.8,0-1.4,0.3-1.9,0.8
			c-1.2,1.2-1.6,3.4-1.8,5.1h7.7c-0.2-1.7-0.6-4-1.8-5.1c-0.5-0.5-1.1-0.8-1.9-0.8C57.6,42.4,57.6,42.4,57.5,42.4z M52.2,32.9
			c0-2.9,2.4-5.3,5.3-5.3c2.9,0,5.3,2.4,5.3,5.3c0,2.9-2.4,5.3-5.3,5.3C54.6,38.2,52.2,35.8,52.2,32.9z M59.2,32.9
			c0-0.9-0.8-1.7-1.7-1.7c-0.9,0-1.7,0.8-1.7,1.7c0,0.9,0.8,1.7,1.7,1.7C58.5,34.5,59.2,33.8,59.2,32.9z"/>
	</g>
</g>
</svg>
