<?xml version="1.0" encoding="utf-8"?>
<!-- Generator: Adobe Illustrator 18.0.0, SVG Export Plug-In . SVG Version: 6.00 Build 0)  -->
<!DOCTYPE svg PUBLIC "-//W3C//DTD SVG 1.1//EN" "http://www.w3.org/Graphics/SVG/1.1/DTD/svg11.dtd">
<svg version="1.1" id="Layer_1" xmlns="http://www.w3.org/2000/svg" xmlns:xlink="http://www.w3.org/1999/xlink" x="0px" y="0px"
	 viewBox="0 0 50.4 50.4" style="enable-background:new 0 0 50.4 50.4;" xml:space="preserve">
<style type="text/css">
	.st0{fill:#D4C8E3;}
	.st1{fill:#333333;}
	.st2{fill:#F1EEF6;}
	.st3{fill:#808080;}
	.st4{fill:#1A1A1A;}
	.st5{fill:#E5E5E5;}
	.st6{fill:none;stroke:#FFFFFF;stroke-miterlimit:10;}
	.st7{fill:#D2C6E1;}
	.st8{fill:#4D4D4D;}
	.st9{fill:none;stroke:#B2B2B2;stroke-miterlimit:10;}
	.st10{fill:#FFFFFF;}
	.st11{fill:none;stroke:#808080;stroke-miterlimit:10;}
	.st12{fill:none;stroke:#4D4D4D;stroke-width:2.2691;stroke-linecap:round;stroke-linejoin:round;stroke-miterlimit:10;}
	.st13{fill:none;stroke:#4D4D4D;stroke-width:2.1559;stroke-linecap:round;stroke-linejoin:round;stroke-miterlimit:10;}
	.st14{fill:none;stroke:#4D4D4D;stroke-width:2.1558;stroke-linecap:round;stroke-linejoin:round;stroke-miterlimit:10;}
	.st15{fill:#241E21;}
	.st16{fill:none;stroke:#4D4D4D;stroke-width:2.1618;stroke-linecap:round;stroke-linejoin:round;stroke-miterlimit:10;}
	.st17{fill:none;stroke:#4D4D4D;stroke-width:2.5566;stroke-linecap:round;stroke-linejoin:round;stroke-miterlimit:10;}
	.st18{fill:none;stroke:#4D4D4D;stroke-width:2.3992;stroke-linecap:round;stroke-linejoin:round;stroke-miterlimit:10;}
	.st19{fill:none;stroke:#4D4D4D;stroke-width:2.607;stroke-linecap:round;stroke-linejoin:round;stroke-miterlimit:10;}
	.st20{fill:none;stroke:#4D4D4D;stroke-width:2.0373;stroke-linecap:round;stroke-linejoin:round;stroke-miterlimit:10;}
	.st21{fill:none;stroke:#4D4D4D;stroke-width:1.7268;stroke-linecap:round;stroke-linejoin:round;stroke-miterlimit:10;}
	.st22{fill:none;stroke:#4D4D4D;stroke-width:2.0207;stroke-linecap:round;stroke-linejoin:round;stroke-miterlimit:10;}
	.st23{fill:#666666;}
	.st24{fill:none;stroke:#666666;stroke-miterlimit:10;}
	.st25{fill:none;stroke:#E5E5E5;stroke-miterlimit:10;}
</style>
<g>
	<path class="st7" d="M22.1,0C9.7,0,6,1.5,3,4.4C0.7,6.7,0,9.6,0,16.9v16.7C0,40.8,0.7,43.7,3,46C6,49,9.7,50.4,22.1,50.4h6.2
		c12.4,0,16.2-1.5,19.1-4.4c2.3-2.3,3-5.2,3-12.5V16.9c0-7.3-0.7-10.2-3-12.5C44.5,1.5,40.7,0,28.3,0H22.1z"/>
	<g>
		<path class="st8" d="M38.2,42.4h-26c-0.8,0-1.4-0.6-1.4-1.4V8.8c0-0.8,0.6-1.4,1.4-1.4h17.4c0.1,0,0.1,0,0.2,0l0,0h0l0,0h0h0h0h0
			l0,0c0.1,0,0.1,0,0.2,0l0,0l0,0l0,0c0.2,0.1,0.5,0.2,0.6,0.4l8.6,9c0.2,0.3,0.4,0.6,0.4,1l0,23.2C39.6,41.8,39,42.4,38.2,42.4z
			 M13.6,39.6h23.2l0-20.4h-7.2c-0.8,0-1.4-0.6-1.4-1.4v-7.6H13.6V39.6z M31,16.4H35L31,12.3V16.4z M32.8,35.6H17.6
			c-0.8,0-1.4-0.6-1.4-1.4c0-0.8,0.6-1.4,1.4-1.4h15.2c0.8,0,1.4,0.6,1.4,1.4C34.2,35,33.6,35.6,32.8,35.6z M32.8,30.4H17.6
			c-0.8,0-1.4-0.6-1.4-1.4c0-0.8,0.6-1.4,1.4-1.4h15.2c0.8,0,1.4,0.6,1.4,1.4C34.2,29.8,33.6,30.4,32.8,30.4z M32.8,25.4H17.6
			c-0.8,0-1.4-0.6-1.4-1.4c0-0.8,0.6-1.4,1.4-1.4h15.2c0.8,0,1.4,0.6,1.4,1.4C34.2,24.7,33.6,25.4,32.8,25.4z"/>
	</g>
</g>
</svg>
