<?xml version="1.0" encoding="utf-8"?>
<!-- Generator: Adobe Illustrator 18.0.0, SVG Export Plug-In . SVG Version: 6.00 Build 0)  -->
<!DOCTYPE svg PUBLIC "-//W3C//DTD SVG 1.1//EN" "http://www.w3.org/Graphics/SVG/1.1/DTD/svg11.dtd">
<svg version="1.1" id="Layer_1" xmlns="http://www.w3.org/2000/svg" xmlns:xlink="http://www.w3.org/1999/xlink" x="0px" y="0px"
	 viewBox="0 0 50 50" style="enable-background:new 0 0 50 50;" xml:space="preserve">
<style type="text/css">
	.st0{fill:#D4C8E3;}
	.st1{fill:#333333;}
	.st2{fill:#F1EEF6;}
	.st3{fill:#808080;}
	.st4{fill:#1A1A1A;}
	.st5{fill:#E5E5E5;}
	.st6{fill:none;stroke:#FFFFFF;stroke-miterlimit:10;}
	.st7{fill:#D2C6E1;}
	.st8{fill:#4D4D4D;}
	.st9{fill:none;stroke:#B2B2B2;stroke-miterlimit:10;}
	.st10{fill:#FFFFFF;}
	.st11{fill:none;stroke:#808080;stroke-miterlimit:10;}
	.st12{fill:none;stroke:#4D4D4D;stroke-width:2.2691;stroke-linecap:round;stroke-linejoin:round;stroke-miterlimit:10;}
	.st13{fill:none;stroke:#4D4D4D;stroke-width:2.1559;stroke-linecap:round;stroke-linejoin:round;stroke-miterlimit:10;}
	.st14{fill:none;stroke:#4D4D4D;stroke-width:2.1558;stroke-linecap:round;stroke-linejoin:round;stroke-miterlimit:10;}
	.st15{fill:#241E21;}
	.st16{fill:none;stroke:#4D4D4D;stroke-width:2.1618;stroke-linecap:round;stroke-linejoin:round;stroke-miterlimit:10;}
	.st17{fill:none;stroke:#4D4D4D;stroke-width:2.5566;stroke-linecap:round;stroke-linejoin:round;stroke-miterlimit:10;}
	.st18{fill:none;stroke:#4D4D4D;stroke-width:2.3992;stroke-linecap:round;stroke-linejoin:round;stroke-miterlimit:10;}
	.st19{fill:none;stroke:#4D4D4D;stroke-width:2.607;stroke-linecap:round;stroke-linejoin:round;stroke-miterlimit:10;}
	.st20{fill:none;stroke:#4D4D4D;stroke-width:2.0373;stroke-linecap:round;stroke-linejoin:round;stroke-miterlimit:10;}
	.st21{fill:none;stroke:#4D4D4D;stroke-width:1.7268;stroke-linecap:round;stroke-linejoin:round;stroke-miterlimit:10;}
	.st22{fill:none;stroke:#4D4D4D;stroke-width:2.0207;stroke-linecap:round;stroke-linejoin:round;stroke-miterlimit:10;}
	.st23{fill:#666666;}
	.st24{fill:none;stroke:#666666;stroke-miterlimit:10;}
	.st25{fill:none;stroke:#E5E5E5;stroke-miterlimit:10;}
</style>
<g>
	<path class="st0" d="M46.8,4.5c-3-3-6.7-4.5-18.9-4.5h-2.3h-1.3h-2.3C9.9,0,6.2,1.6,3.2,4.5C0.7,7,0,10.1,0,17.2v15.7
		c0,7,0.7,10.1,3.2,12.6c3,3,6.7,4.5,18.9,4.5h2.3h1.3h2.3c12.2,0,15.9-1.6,18.9-4.5C49.3,43,50,39.9,50,32.8V17.2
		C50,10.1,49.3,7,46.8,4.5"/>
	<g>
		<path class="st14" d="M28.5,18.7c0,1.9-1.6,3.5-3.5,3.5c-2,0-3.5-1.6-3.5-3.5c0-1.9,1.6-3.5,3.5-3.5C27,15.2,28.5,16.8,28.5,18.7z
			 M25.2,26.7c8.3,0,7.9,13.5,7.9,13.5H16.9c0,0-0.4-13.5,7.9-13.5"/>
		<path class="st8" d="M39.3,9.8H10.7c-0.6,0-1.1,0.5-1.1,1.1v18.5c0,0.6,0.5,1.1,1.1,1.1h8.2c0.7-0.9,1.6-1.6,2.6-2.2h-9.7V11.9
			h26.4v16.3h-9.1c0.7,0.5,1.3,1.2,1.7,2.2h8.5c0.6,0,1.1-0.5,1.1-1.1V10.9C40.4,10.3,39.9,9.8,39.3,9.8"/>
		<path class="st14" d="M32.6,33.8h5.2 M12.2,33.8h5.2"/>
	</g>
</g>
</svg>
