<?xml version="1.0" encoding="utf-8"?>
<!-- Generator: Adobe Illustrator 18.0.0, SVG Export Plug-In . SVG Version: 6.00 Build 0)  -->
<!DOCTYPE svg PUBLIC "-//W3C//DTD SVG 1.1//EN" "http://www.w3.org/Graphics/SVG/1.1/DTD/svg11.dtd">
<svg version="1.1" id="Layer_1" xmlns="http://www.w3.org/2000/svg" xmlns:xlink="http://www.w3.org/1999/xlink" x="0px" y="0px"
	 viewBox="0 0 50.1 50.1" style="enable-background:new 0 0 50.1 50.1;" xml:space="preserve">
<style type="text/css">
	.st0{fill:#D4C8E3;}
	.st1{fill:#333333;}
	.st2{fill:#F1EEF6;}
	.st3{fill:#808080;}
	.st4{fill:#1A1A1A;}
	.st5{fill:#E5E5E5;}
	.st6{fill:none;stroke:#FFFFFF;stroke-miterlimit:10;}
	.st7{fill:#D2C6E1;}
	.st8{fill:#4D4D4D;}
	.st9{fill:none;stroke:#B2B2B2;stroke-miterlimit:10;}
	.st10{fill:#FFFFFF;}
	.st11{fill:none;stroke:#808080;stroke-miterlimit:10;}
	.st12{fill:none;stroke:#4D4D4D;stroke-width:2.2691;stroke-linecap:round;stroke-linejoin:round;stroke-miterlimit:10;}
	.st13{fill:none;stroke:#4D4D4D;stroke-width:2.1559;stroke-linecap:round;stroke-linejoin:round;stroke-miterlimit:10;}
	.st14{fill:none;stroke:#4D4D4D;stroke-width:2.1558;stroke-linecap:round;stroke-linejoin:round;stroke-miterlimit:10;}
	.st15{fill:#241E21;}
	.st16{fill:none;stroke:#4D4D4D;stroke-width:2.1618;stroke-linecap:round;stroke-linejoin:round;stroke-miterlimit:10;}
	.st17{fill:none;stroke:#4D4D4D;stroke-width:2.5566;stroke-linecap:round;stroke-linejoin:round;stroke-miterlimit:10;}
	.st18{fill:none;stroke:#4D4D4D;stroke-width:2.3992;stroke-linecap:round;stroke-linejoin:round;stroke-miterlimit:10;}
	.st19{fill:none;stroke:#4D4D4D;stroke-width:2.607;stroke-linecap:round;stroke-linejoin:round;stroke-miterlimit:10;}
	.st20{fill:none;stroke:#4D4D4D;stroke-width:2.0373;stroke-linecap:round;stroke-linejoin:round;stroke-miterlimit:10;}
	.st21{fill:none;stroke:#4D4D4D;stroke-width:1.7268;stroke-linecap:round;stroke-linejoin:round;stroke-miterlimit:10;}
	.st22{fill:none;stroke:#4D4D4D;stroke-width:2.0207;stroke-linecap:round;stroke-linejoin:round;stroke-miterlimit:10;}
	.st23{fill:#666666;}
	.st24{fill:none;stroke:#666666;stroke-miterlimit:10;}
	.st25{fill:none;stroke:#E5E5E5;stroke-miterlimit:10;}
</style>
<g>
	<path class="st7" d="M22,0C9.7,0,5.9,1.5,3,4.4C0.7,6.7,0,9.6,0,16.8v16.6c0,7.2,0.7,10.1,3,12.4c2.9,2.9,6.7,4.4,19,4.4h6.1
		c12.3,0,16.1-1.5,19-4.4c2.3-2.3,3-5.2,3-12.4V16.8c0-7.2-0.7-10.1-3-12.4C44.2,1.5,40.5,0,28.1,0H22z"/>
	<g>
		<g>
			<path class="st8" d="M25.1,46.2L25.1,46.2c-0.2,0-0.5-0.1-0.7-0.2c-0.1,0-0.1-0.1-0.2-0.1L7.4,35.4c-0.4-0.3-0.6-0.7-0.6-1.2
				V16.4c0,0,0-0.1,0-0.1c0-0.5,0.3-0.9,0.7-1.1c0,0,0,0,0,0L24.4,4.6c0.4-0.3,1-0.3,1.5,0l16.9,10.5c0,0,0,0,0,0
				c0.4,0.2,0.7,0.7,0.7,1.1c0,0,0,0.1,0,0.1v17.9c0,0.5-0.2,0.9-0.6,1.2L25.9,45.9c-0.1,0-0.1,0.1-0.2,0.1
				C25.5,46.1,25.3,46.2,25.1,46.2z M9.5,33.5l14.2,8.9V27.7L9.5,18.8V33.5z M26.5,27.7v14.7l14.2-8.9V18.8L26.5,27.7z M19.1,21.5
				l6,3.7l14.3-8.9l-6.1-3.8L19.1,21.5z M10.7,16.3l5.7,3.6l14.2-9l-5.7-3.5L10.7,16.3z"/>
		</g>
	</g>
</g>
</svg>
